<svg width="178" height="131" viewBox="0 0 178 131" fill="none" xmlns="http://www.w3.org/2000/svg">
<g id="Collab-rafiki 1">
<g id="freepik--background-simple--inject-17">
<path id="Vector" d="M64.589 86.6926C75.4149 87.2289 89.0996 98.006 98.7863 85.3001C106.91 74.6438 102.895 63.8312 115.127 56.1728C124.027 50.5782 138.683 40.7424 129.751 29.7842C122.763 21.2129 109.367 18.4707 98.1348 20.0265C89.3096 21.252 70.2387 26.9105 65.5537 37.8404C60.292 50.1236 73.4534 60.8225 55.7673 64.9501C45.1229 67.4366 31.4062 74.2211 35.0338 89.2252C36.4578 95.1501 40.6729 94.2586 45.4148 92.0953C52.4173 88.8984 57.1414 86.3267 64.589 86.6926Z" fill="#FFCA40"/>
<path id="Vector_2" opacity="0.9" d="M64.589 86.6926C75.4149 87.2289 89.0996 98.006 98.7863 85.3001C106.91 74.6438 102.895 63.8312 115.127 56.1728C124.027 50.5782 138.683 40.7424 129.751 29.7842C122.763 21.2129 109.367 18.4707 98.1348 20.0265C89.3096 21.252 70.2387 26.9105 65.5537 37.8404C60.292 50.1236 73.4534 60.8225 55.7673 64.9501C45.1229 67.4366 31.4062 74.2211 35.0338 89.2252C36.4578 95.1501 40.6729 94.2586 45.4148 92.0953C52.4173 88.8984 57.1414 86.3267 64.589 86.6926Z" fill="#292929"/>
</g>
<g id="freepik--speech-bubble--inject-17">
<path id="Vector_3" d="M101.916 30.1217C108.58 27.8519 113.208 23.4402 113.6 18.0658C114.216 9.60468 104.098 1.97474 91.0008 1.01567C77.9035 0.0566003 66.7928 6.16268 66.1733 14.6274C65.6714 21.5362 72.3215 27.8874 81.905 30.5018C79.413 33.2724 75.3297 34.2919 75.3297 34.2919C75.3297 34.2919 83.1296 33.8407 85.853 31.3543C86.8071 31.4999 87.779 31.6136 88.7722 31.6846C92.025 31.9309 95.2964 31.7217 98.491 31.063C100.965 33.6738 107.359 35.4179 107.359 35.4179C107.359 35.4179 103.457 33.4855 101.916 30.1217Z" fill="white"/>
<path id="Vector_4" opacity="0.3" d="M101.916 30.1217C108.58 27.8519 113.208 23.4402 113.6 18.0658C114.216 9.60468 104.098 1.97474 91.0008 1.01567C77.9035 0.0566003 66.7928 6.16268 66.1733 14.6274C65.6714 21.5362 72.3215 27.8874 81.905 30.5018C79.413 33.2724 75.3297 34.2919 75.3297 34.2919C75.3297 34.2919 83.1296 33.8407 85.853 31.3543C86.8071 31.4999 87.779 31.6136 88.7722 31.6846C92.025 31.9309 95.2964 31.7217 98.491 31.063C100.965 33.6738 107.359 35.4179 107.359 35.4179C107.359 35.4179 103.457 33.4855 101.916 30.1217Z" fill="#FFCA40"/>
<path id="Vector_5" d="M103.952 23.8096L101.14 24.0369C101.317 24.4492 101.403 24.895 101.391 25.3435C101.379 25.792 101.269 26.2326 101.07 26.6347C100.87 27.0368 100.585 27.3908 100.235 27.6723C99.885 27.9538 99.4777 28.156 99.0415 28.265C98.6053 28.3739 98.1505 28.387 97.7087 28.3033C97.2669 28.2196 96.8486 28.0412 96.4827 27.7803C96.1169 27.5194 95.8122 27.1823 95.5897 26.7923C95.3673 26.4023 95.2325 25.9688 95.1945 25.5217C95.1668 25.183 95.1957 24.8421 95.2799 24.5129L90.5238 24.9001L90.1357 20.1509C90.888 20.3509 91.689 20.2462 92.3643 19.8596C92.8985 19.5634 93.3355 19.1196 93.6229 18.5814C93.9102 18.0433 94.0357 17.4337 93.9841 16.8261C93.9352 16.3401 93.7716 15.8725 93.5068 15.4616C93.242 15.0507 92.8834 14.7082 92.4604 14.4622C92.0374 14.2162 91.5621 14.0736 91.0732 14.0461C90.5844 14.0187 90.096 14.1071 89.648 14.3041L89.26 9.55852L94.0197 9.17134C93.8302 8.74491 93.7425 8.28043 93.7634 7.81444C93.8 7.06386 94.1062 6.3515 94.6258 5.80757C95.1455 5.26363 95.8439 4.92444 96.5936 4.85197C97.0872 4.80779 97.5843 4.88233 98.0432 5.06934C98.502 5.25636 98.9092 5.55041 99.2307 5.92683C99.5522 6.30326 99.7785 6.75109 99.8908 7.2328C100.003 7.7145 99.9979 8.21603 99.8759 8.69536L102.692 8.46802C103.206 8.42673 103.716 8.59043 104.11 8.92329C104.503 9.25615 104.749 9.73107 104.792 10.2441L105.732 21.7174C105.773 22.2302 105.609 22.7385 105.276 23.1307C104.942 23.5229 104.466 23.767 103.952 23.8096Z" fill="#263238"/>
<path id="Vector_6" d="M90.9937 14.0519C90.5316 14.0349 90.0716 14.1223 89.6481 14.3076L89.26 9.56201L84.5074 9.94564C84.6552 10.2828 84.7408 10.6438 84.7602 11.0113C84.786 11.8145 84.4983 12.5963 83.9577 13.192C83.4171 13.7877 82.6659 14.1507 81.8623 14.2046C81.0587 14.2585 80.2655 13.999 79.6499 13.4809C79.0343 12.9627 78.6443 12.2263 78.5622 11.4269C78.5335 11.0884 78.5612 10.7475 78.6441 10.4181L75.8317 10.649C75.5771 10.6696 75.329 10.7401 75.1018 10.8564C74.8745 10.9727 74.6724 11.1326 74.5071 11.3269C74.3418 11.5212 74.2164 11.7461 74.1383 11.9888C74.0602 12.2315 74.0307 12.4871 74.0517 12.7412L74.9844 24.2074C75.0279 24.7204 75.2734 25.1953 75.667 25.5282C76.0607 25.861 76.5705 26.0247 77.0848 25.9834L79.9008 25.7525C79.7435 26.3589 79.7771 26.9988 79.9969 27.5854C80.1434 27.9704 80.3653 28.3223 80.6497 28.6206C80.9341 28.919 81.2753 29.1578 81.6532 29.323C82.0312 29.4883 82.4384 29.5766 82.851 29.583C83.2636 29.5894 83.6734 29.5136 84.0563 29.3601C84.4392 29.2066 84.7876 28.9785 85.0811 28.6891C85.3746 28.3997 85.6074 28.0548 85.7657 27.6746C85.9241 27.2943 86.0049 26.8864 86.0034 26.4747C86.0019 26.0629 85.9181 25.6556 85.757 25.2766L90.5167 24.8929L90.1287 20.1438C90.4586 20.2278 90.8003 20.2566 91.1397 20.229C91.9611 20.1629 92.7225 19.774 93.2565 19.1479C93.7906 18.5217 94.0536 17.7096 93.9877 16.89C93.9162 16.136 93.5736 15.4332 93.0233 14.9116C92.473 14.3899 91.7521 14.0845 90.9937 14.0519Z" fill="#FFCA40"/>
<path id="Vector_7" d="M85.038 4.50382C84.7609 4.24128 84.4672 3.99685 84.1586 3.77208L84.3865 3.45239C84.7116 3.68614 85.0197 3.94253 85.3085 4.21965L85.038 4.50382Z" fill="#263238"/>
<path id="Vector_8" d="M87.4161 7.76822C87.0771 6.98049 86.6184 6.24963 86.0561 5.60143L86.3587 5.35278C86.9478 6.03558 87.4281 6.80472 87.7827 7.63324L87.4161 7.76822Z" fill="#FFCA40"/>
<path id="Vector_9" d="M90.0397 6.94769H89.6481C89.6586 5.37745 90.2176 3.86003 91.2287 2.65674L91.5313 2.90894C90.5789 4.04137 90.0515 5.46941 90.0397 6.94769Z" fill="#263238"/>
<path id="Vector_10" d="M88.1705 5.11493C88.1705 5.09717 87.754 3.16482 86.9815 2.01393L87.3054 1.7937C88.1242 3.00852 88.5372 4.95508 88.555 5.03678L88.1705 5.11493Z" fill="#FFCA40"/>
<path id="Vector_11" d="M93.628 30.2069C93.3312 29.9382 93.0529 29.6499 92.795 29.3437L93.094 29.0916C93.3418 29.3819 93.6082 29.656 93.8915 29.9121L93.628 30.2069Z" fill="#263238"/>
<path id="Vector_12" d="M92.2505 28.7326C91.6273 27.912 91.1559 26.987 90.8585 26.0011L91.2394 25.9016C91.5228 26.8425 91.9698 27.7262 92.5602 28.5124L92.2505 28.7326Z" fill="#FFCA40"/>
<path id="Vector_13" d="M89.6232 28.4237C89.465 27.6149 89.5672 26.7769 89.9151 26.0295L90.2711 26.2036C89.9704 26.8714 89.8798 27.6146 90.0112 28.3349L89.6232 28.4237Z" fill="#FFCA40"/>
</g>
<g id="freepik--character-1--inject-17">
<path id="Vector_14" d="M65.1761 97.8533C62.887 85.1048 61.9329 69.7348 61.9329 69.7348L74.1331 69.543C74.1331 69.543 73.09 90.2589 72.5845 98.9367C72.0611 107.956 71.6945 125.318 71.6945 125.318H67.4865C67.4865 125.318 63.9052 109.007 65.1761 97.8533Z" fill="#263238"/>
<path id="Vector_15" opacity="0.2" d="M67.6399 73.2053C67.6399 73.2053 65.9845 85.5809 64.6246 94.653C63.4177 87.0266 62.6523 79.0237 62.2536 74.1964L67.6399 73.2053Z" fill="black"/>
<path id="Vector_16" d="M77.348 129.581C77.348 129.581 71.6983 128.256 71.4491 126.334L67.8464 126.8L67.4512 130.543H68.9393L69.1778 130.078L69.6762 130.543C74.7314 130.543 76.604 130.49 77.5403 130.188C77.5699 130.079 77.5675 129.964 77.5334 129.856C77.4993 129.749 77.435 129.653 77.348 129.581Z" fill="#263238"/>
<path id="Vector_17" d="M67.3337 127.478C68.6865 127.556 71.3885 127.357 71.9154 127.098C72.4423 126.838 72.129 124.746 72.129 124.746C72.129 124.746 67.4049 124.277 66.9883 124.537C66.5718 124.796 67.3337 127.478 67.3337 127.478Z" fill="#FFCA40"/>
<path id="Vector_18" opacity="0.3" d="M67.3337 127.478C68.6865 127.556 71.3885 127.357 71.9154 127.098C72.4423 126.838 72.129 124.746 72.129 124.746C72.129 124.746 67.4049 124.277 66.9883 124.537C66.5718 124.796 67.3337 127.478 67.3337 127.478Z" fill="white"/>
<path id="Vector_19" d="M53.8484 97.491C55.931 84.6714 55.8633 76.1073 57.9459 69.7845L69.8541 69.6211C69.8541 69.6211 64.0798 89.964 61.4668 98.4323C58.8537 106.901 54.0691 125.318 54.0691 125.318H50.1958C50.1958 125.318 50.3667 107.408 53.8484 97.491Z" fill="#263238"/>
<path id="Vector_20" d="M58.1274 129.581C58.1274 129.581 53.8554 128.256 53.6169 126.334L50.0142 126.8L49.6226 130.543H50.5518L50.7903 130.078L51.2887 130.543C56.3439 130.543 57.3834 130.49 58.3197 130.188C58.3493 130.079 58.3469 129.964 58.3128 129.856C58.2788 129.749 58.2144 129.653 58.1274 129.581Z" fill="#263238"/>
<path id="Vector_21" d="M49.6226 127.386C50.4521 127.556 53.5956 127.357 54.1581 127.098C54.7205 126.839 54.5461 124.643 54.5461 124.643C54.5461 124.643 50.2741 124.135 49.8148 124.395C49.3556 124.654 49.6226 127.386 49.6226 127.386Z" fill="#FFCA40"/>
<path id="Vector_22" opacity="0.3" d="M49.6226 127.386C50.4521 127.556 53.5956 127.357 54.1581 127.098C54.7205 126.839 54.5461 124.643 54.5461 124.643C54.5461 124.643 50.2741 124.135 49.8148 124.395C49.3556 124.654 49.6226 127.386 49.6226 127.386Z" fill="white"/>
<path id="Vector_23" d="M74.0692 47.1681L75.091 48.0455L76.159 48.9335C76.871 49.5267 77.583 50.0951 78.295 50.6492C78.651 50.9227 79.007 51.1891 79.363 51.4413C79.719 51.6935 80.075 51.9422 80.4132 52.1518C80.7514 52.3613 81.1038 52.5709 81.4171 52.7414C81.6603 52.8716 81.9125 52.9844 82.1718 53.0789L81.6841 53.0433C81.6164 53.0753 81.7873 53.0789 82.0045 53.0433C82.2731 52.9738 82.5352 52.8811 82.7877 52.7663C83.4178 52.481 84.029 52.156 84.6175 51.793C85.2512 51.4378 85.8849 51.0115 86.5221 50.5888L88.4374 49.3101L88.4837 49.2816C88.7554 49.1081 89.0782 49.0318 89.3991 49.0652C89.7199 49.0986 90.0199 49.2398 90.2499 49.4655C90.4799 49.6913 90.6263 49.9883 90.665 50.3079C90.7037 50.6275 90.6325 50.9507 90.463 51.2246C89.9995 51.9283 89.4967 52.6054 88.9572 53.2529C88.4146 53.9075 87.837 54.5324 87.227 55.1249C86.5803 55.7558 85.8812 56.3309 85.1373 56.8441C84.7097 57.1388 84.257 57.3955 83.7845 57.6113C83.1594 57.9067 82.4844 58.0826 81.7944 58.13C81.6879 58.1407 81.5806 58.1407 81.474 58.13L81.3067 58.1051C80.6221 58.0002 79.9519 57.8166 79.3096 57.5581C78.7711 57.3466 78.2457 57.1034 77.736 56.8299C76.7949 56.3307 75.8854 55.7743 75.0126 55.1639C74.1582 54.5778 73.3501 53.9562 72.5634 53.3204C72.1718 52.9972 71.7802 52.6775 71.4028 52.34C71.0254 52.0026 70.6623 51.6758 70.2636 51.2921C69.7337 50.7853 69.4231 50.0921 69.398 49.3601C69.3728 48.6281 69.6351 47.9153 70.1289 47.3735C70.6228 46.8316 71.3092 46.5036 72.0419 46.4593C72.7745 46.4149 73.4956 46.6578 74.0514 47.1362L74.0692 47.1681Z" fill="#CF7A64"/>
<path id="Vector_24" d="M88.925 51.8677L92.0792 51.8429L90.9898 48.2268C90.9898 48.2268 88.1419 48.582 88.0885 50.1414L88.925 51.8677Z" fill="#CE7A63"/>
<path id="Vector_25" d="M94.3969 49.5268L93.7988 48.3262C93.6842 48.094 93.4906 47.9101 93.2525 47.8073C93.0145 47.7045 92.7475 47.6895 92.4994 47.765L90.99 48.2268L92.0793 51.8428L93.8807 51.001C94.0125 50.939 94.1306 50.8515 94.2282 50.7435C94.3257 50.6355 94.4007 50.5092 94.4488 50.372C94.4968 50.2347 94.517 50.0893 94.5081 49.9442C94.4992 49.7991 94.4614 49.6572 94.3969 49.5268Z" fill="#CE7A63"/>
<path id="Vector_26" d="M71.1783 45.2358C70.0376 46.0916 69.2506 47.3346 68.9659 48.7299C68.6813 50.1253 68.9187 51.5763 69.6333 52.8089C69.8291 53.163 70.0749 53.4872 70.3631 53.7715C71.6126 54.9544 74.7098 55.9987 76.7426 56.8796C79.3307 55.9596 80.6586 53.2245 80.2634 51.7078C78.2948 49.1041 74.6991 45.2891 72.8337 44.7847C72.2677 44.6284 71.723 44.8522 71.1783 45.2358Z" fill="#263238"/>
<path id="Vector_27" d="M59.7792 44.2093C63.4231 43.8083 67.0988 43.7845 70.7476 44.1383C72.249 44.2966 73.6382 45.005 74.6464 46.1264C75.6545 47.2477 76.2099 48.7024 76.2051 50.2089C76.1873 55.807 75.2866 61.9912 74.3539 70.5909C71.6981 73.3296 57.451 70.4808 57.451 70.4808C57.6006 67.3599 57.9862 64.2549 58.6044 61.192C58.1203 57.6399 56.8885 53.5905 56.1943 48.8839C56.1158 48.3412 56.1468 47.7884 56.2854 47.2578C56.424 46.7273 56.6674 46.2296 57.0013 45.7942C57.3352 45.3588 57.753 44.9943 58.23 44.7221C58.707 44.45 59.2337 44.2756 59.7792 44.2093Z" fill="#FFCA40"/>
<g id="Clip path group">
<mask id="mask0_1_4078" style="mask-type:luminance" maskUnits="userSpaceOnUse" x="56" y="43" width="21" height="29">
<g id="freepik--clip-path--inject-17">
<path id="Vector_28" d="M59.7792 44.2093C63.4231 43.8083 67.0988 43.7845 70.7476 44.1383C72.249 44.2966 73.6382 45.005 74.6464 46.1264C75.6545 47.2477 76.2099 48.7024 76.2051 50.2089C76.1873 55.807 75.2866 61.9912 74.3539 70.5909C71.6981 73.3296 57.451 70.4808 57.451 70.4808C57.6006 67.3599 57.9862 64.2549 58.6044 61.192C58.1203 57.6399 56.8885 53.5905 56.1943 48.8839C56.1158 48.3412 56.1468 47.7884 56.2854 47.2578C56.424 46.7273 56.6674 46.2296 57.0013 45.7942C57.3352 45.3588 57.753 44.9943 58.23 44.7221C58.707 44.45 59.2337 44.2756 59.7792 44.2093Z" fill="white"/>
</g>
</mask>
<g mask="url(#mask0_1_4078)">
<g id="Group">
<g id="Group_2" opacity="0.2">
<path id="Vector_29" d="M59.1742 50.1804C59.1503 50.1804 59.1273 50.1712 59.11 50.1546C59.0927 50.138 59.0826 50.1155 59.0817 50.0916C59.0807 50.0792 59.0823 50.0667 59.0862 50.0549C59.0902 50.0431 59.0966 50.0322 59.1049 50.0229C59.1132 50.0136 59.1233 50.0061 59.1346 50.0008C59.1459 49.9955 59.1582 49.9926 59.1707 49.9921C59.879 49.9515 60.555 49.6822 61.0966 49.2249C60.9929 49.1776 60.9015 49.1071 60.8296 49.0188C60.7405 48.8994 60.6774 48.7627 60.6445 48.6175C60.4345 47.8538 60.6231 46.8414 61.3814 46.4365C61.5069 46.3507 61.6578 46.3096 61.8096 46.3199C61.9614 46.3302 62.1053 46.3913 62.218 46.4933C62.2905 46.5901 62.3371 46.7038 62.3533 46.8236C62.421 47.3108 62.3365 47.807 62.1112 48.2445C61.9489 48.5752 61.7323 48.8765 61.4704 49.1361H61.5345C61.8142 49.15 62.0934 49.1011 62.3516 48.9929C62.6098 48.8847 62.8403 48.7199 63.0261 48.5109C63.4004 48.0805 63.6208 47.5382 63.6527 46.9693C63.6531 46.957 63.6561 46.9449 63.6614 46.9338C63.6668 46.9227 63.6744 46.9128 63.6837 46.9048C63.6931 46.8967 63.7041 46.8908 63.7159 46.8872C63.7277 46.8836 63.7401 46.8825 63.7524 46.884C63.7772 46.8858 63.8004 46.8972 63.817 46.9158C63.8336 46.9344 63.8424 46.9586 63.8414 46.9835C63.8051 47.5946 63.5673 48.1766 63.165 48.6388C62.9607 48.8698 62.7065 49.0515 62.4216 49.1703C62.1367 49.289 61.8285 49.3417 61.5203 49.3243C61.4472 49.3171 61.3746 49.3053 61.3031 49.2888C60.7115 49.8157 59.9587 50.1274 59.1671 50.1733L59.1742 50.1804ZM61.8122 46.5075C61.6933 46.5118 61.5773 46.5447 61.474 46.6034C60.8047 46.9586 60.6409 47.8928 60.8261 48.5713C60.8527 48.6894 60.9036 48.8007 60.9756 48.8981C61.0492 48.9866 61.1469 49.0519 61.2568 49.0863C61.5386 48.8222 61.7702 48.5093 61.9403 48.1628C62.1485 47.7606 62.228 47.3043 62.1682 46.8556C62.1583 46.7686 62.1264 46.6855 62.0756 46.6141C62.0439 46.5749 62.0038 46.5433 61.9582 46.5218C61.9126 46.5003 61.8626 46.4893 61.8122 46.4897V46.5075Z" fill="white"/>
<path id="Vector_30" d="M67.1486 53.6935H67.1166C66.5394 53.4884 66.0463 53.0988 65.7139 52.5853C65.5474 52.324 65.4426 52.0283 65.4074 51.7206C65.3723 51.4129 65.4077 51.1013 65.511 50.8092C65.5386 50.7409 65.5708 50.6744 65.6071 50.6103C65.2655 49.9011 65.1739 49.0975 65.3473 48.3299C65.3558 48.3086 65.3716 48.2911 65.392 48.2805C65.4123 48.2698 65.4358 48.2668 65.4581 48.272C65.4805 48.2771 65.5003 48.2901 65.5139 48.3085C65.5275 48.327 65.5341 48.3496 65.5324 48.3725C65.3749 49.0639 65.4448 49.7876 65.7317 50.4363C65.8063 50.3486 65.9001 50.2793 66.0059 50.2338C66.1443 50.1814 66.2925 50.1596 66.4402 50.1699C67.2376 50.1699 68.1419 50.6387 68.3341 51.4841C68.3818 51.6279 68.3796 51.7835 68.328 51.9259C68.2763 52.0682 68.1782 52.1891 68.0493 52.2692C67.9359 52.3122 67.8134 52.3257 67.6933 52.3082C67.206 52.2359 66.7526 52.0165 66.3939 51.6795C66.1201 51.432 65.8903 51.1402 65.7139 50.8163C65.7139 50.8376 65.6962 50.859 65.689 50.8767C65.5983 51.1406 65.5678 51.4215 65.5998 51.6986C65.6319 51.9758 65.7256 52.2423 65.8741 52.4787C66.1822 52.958 66.6421 53.3206 67.1807 53.5088C67.1925 53.5128 67.2034 53.5191 67.2128 53.5274C67.2221 53.5357 67.2297 53.5458 67.235 53.5571C67.2403 53.5684 67.2433 53.5806 67.2438 53.5931C67.2442 53.6055 67.2421 53.618 67.2376 53.6296C67.2316 53.6483 67.2197 53.6646 67.2036 53.6761C67.1876 53.6876 67.1684 53.6937 67.1486 53.6935ZM65.8207 50.6281C66.0005 50.973 66.2418 51.2824 66.5327 51.541C66.8609 51.8547 67.2791 52.0584 67.7289 52.1235C67.8147 52.1392 67.9032 52.1319 67.9852 52.1022C68.1703 52.0205 68.2166 51.747 68.1632 51.5303C67.9959 50.7879 67.1558 50.3723 66.4509 50.3581C66.3298 50.3514 66.2086 50.3695 66.0949 50.4114C65.9839 50.4548 65.8884 50.5302 65.8207 50.6281Z" fill="white"/>
<path id="Vector_31" d="M74.4357 51.3739C74.3624 51.3771 74.2893 51.3641 74.2216 51.3359C74.1539 51.3076 74.0933 51.2648 74.0441 51.2105C73.9675 51.1166 73.9182 51.0036 73.9017 50.8837C73.8199 50.4002 73.8921 49.9033 74.1081 49.4628C74.2622 49.1281 74.4702 48.8209 74.724 48.5535H74.66C74.3805 48.5476 74.1033 48.6038 73.8484 48.7181C73.5935 48.8324 73.3673 49.0019 73.1861 49.2142C72.8223 49.6546 72.6157 50.2031 72.5987 50.7736C72.5969 50.7984 72.5855 50.8215 72.5669 50.8381C72.5483 50.8547 72.5239 50.8634 72.499 50.8624C72.4742 50.8605 72.451 50.8492 72.4344 50.8306C72.4178 50.812 72.409 50.7878 72.41 50.7629C72.4295 50.1516 72.6525 49.5642 73.0437 49.0934C73.2433 48.8599 73.4935 48.6746 73.7753 48.5516C74.0571 48.4285 74.3633 48.3709 74.6706 48.383C74.7449 48.3861 74.8187 48.3956 74.8913 48.4114C75.4651 47.8714 76.2057 47.542 76.9918 47.4772C77.004 47.4757 77.0164 47.4768 77.0283 47.4804C77.0401 47.4839 77.051 47.4899 77.0604 47.4979C77.0698 47.506 77.0774 47.5158 77.0827 47.5269C77.0881 47.5381 77.091 47.5501 77.0914 47.5625C77.0925 47.5868 77.0842 47.6105 77.0684 47.629C77.0525 47.6475 77.0302 47.6592 77.006 47.6619C76.2975 47.723 75.6274 48.0094 75.0943 48.4789C75.2016 48.5217 75.297 48.59 75.372 48.6778C75.4627 48.7945 75.5282 48.9288 75.5642 49.0721C75.792 49.8323 75.6283 50.8304 74.8807 51.2709C74.7432 51.3415 74.5903 51.3769 74.4357 51.3739ZM74.9412 48.5961C74.6656 48.8663 74.4413 49.184 74.279 49.5339C74.081 49.9418 74.0127 50.4004 74.0832 50.8482C74.0981 50.934 74.1322 51.0153 74.1829 51.0862C74.2697 51.151 74.3753 51.1861 74.4837 51.1861C74.5922 51.1861 74.6977 51.151 74.7846 51.0862C75.4432 50.7025 75.5855 49.779 75.3862 49.1041C75.3562 48.9859 75.303 48.8748 75.2296 48.7773C75.1524 48.691 75.0525 48.6282 74.9412 48.5961Z" fill="white"/>
<path id="Vector_32" d="M70.7762 49.5055H70.7584C70.7341 49.5004 70.7127 49.4861 70.6988 49.4655C70.6849 49.445 70.6794 49.4199 70.6837 49.3954C70.823 48.7009 70.7356 47.9801 70.4345 47.3388C70.3603 47.4261 70.2679 47.4964 70.1639 47.5448C70.0264 47.6014 69.8783 47.6281 69.7296 47.6229C68.9357 47.6229 68.0279 47.186 67.8178 46.3513C67.7661 46.2086 67.7643 46.0526 67.8128 45.9087C67.8612 45.7648 67.9572 45.6416 68.0848 45.5592C68.1976 45.5137 68.3202 45.4978 68.4408 45.513C68.9307 45.5718 69.3899 45.7817 69.7545 46.1133C70.0369 46.3526 70.2775 46.6371 70.4665 46.9551L70.4878 46.8947C70.5731 46.6286 70.5972 46.3467 70.5584 46.07C70.5196 45.7933 70.4188 45.5288 70.2636 45.2963C69.9418 44.8259 69.472 44.4759 68.9286 44.3017C68.9052 44.2929 68.8862 44.2754 68.8756 44.2528C68.8649 44.2303 68.8635 44.2045 68.8716 44.1809C68.8756 44.1691 68.8819 44.1582 68.8902 44.1489C68.8985 44.1396 68.9087 44.132 68.92 44.1267C68.9313 44.1214 68.9435 44.1184 68.956 44.118C68.9685 44.1175 68.981 44.1196 68.9927 44.1241C69.5729 44.3114 70.074 44.6864 70.4167 45.1897C70.5915 45.4471 70.7046 45.7411 70.7472 46.0491C70.7898 46.3571 70.7608 46.6708 70.6623 46.9658C70.6379 47.0343 70.6082 47.1008 70.5733 47.1647C70.9322 47.8667 71.0426 48.6691 70.8866 49.4416C70.8786 49.4635 70.8631 49.4818 70.843 49.4935C70.8228 49.5052 70.7992 49.5095 70.7762 49.5055ZM68.3305 45.6941C68.2696 45.6923 68.2089 45.7032 68.1525 45.7261C67.9709 45.8114 67.9318 46.0813 67.9887 46.3015C68.1738 47.0368 69.0176 47.4311 69.7189 47.4311C69.8405 47.4371 69.962 47.4165 70.0749 47.3707C70.18 47.3222 70.269 47.2445 70.3312 47.1469C70.1497 46.8083 69.9085 46.5051 69.6192 46.2518C69.2843 45.9466 68.8625 45.753 68.4124 45.6977L68.3305 45.6941Z" fill="white"/>
<path id="Vector_33" d="M60.7157 59.7712C60.6938 59.767 60.6741 59.7552 60.6599 59.7381C60.6457 59.7209 60.638 59.6993 60.638 59.6771C60.638 59.6548 60.6457 59.6333 60.6599 59.6161C60.6741 59.5989 60.6938 59.5872 60.7157 59.583C61.425 59.5416 62.1018 59.2725 62.6452 58.8157C62.5405 58.7685 62.4479 58.698 62.3746 58.6097C62.2859 58.4913 62.2229 58.3558 62.1895 58.2118C61.9795 57.4446 62.1682 56.4358 62.93 56.0308C63.0541 55.9436 63.2044 55.9013 63.3559 55.911C63.5074 55.9207 63.6511 55.9818 63.763 56.0841C63.8356 56.181 63.8821 56.2947 63.8983 56.4145C63.966 56.9017 63.8815 57.3978 63.6562 57.8353C63.492 58.1595 63.2742 58.4537 63.0119 58.7056H63.0759C63.3556 58.7195 63.6349 58.6706 63.8931 58.5624C64.1513 58.4542 64.3818 58.2895 64.5676 58.0804C64.9426 57.6504 65.163 57.1079 65.1942 56.5388C65.1946 56.5265 65.1975 56.5144 65.2029 56.5033C65.2082 56.4922 65.2158 56.4823 65.2252 56.4743C65.2346 56.4663 65.2455 56.4603 65.2573 56.4567C65.2691 56.4531 65.2816 56.4521 65.2938 56.4535C65.3187 56.4554 65.3419 56.4668 65.3585 56.4853C65.3751 56.5039 65.3838 56.5281 65.3828 56.553C65.3474 57.1643 65.1095 57.7465 64.7064 58.2083C64.5022 58.4393 64.248 58.621 63.9631 58.7398C63.6782 58.8586 63.37 58.9112 63.0617 58.8938C62.9887 58.8864 62.9162 58.8745 62.8446 58.8583C62.2531 59.3854 61.5002 59.6972 60.7086 59.7428L60.7157 59.7712ZM63.3679 56.0948C63.2433 56.0949 63.1207 56.1267 63.0119 56.1871C62.3426 56.5424 62.1788 57.4766 62.3639 58.155C62.3906 58.2731 62.4415 58.3844 62.5135 58.4818C62.5871 58.5703 62.6847 58.6357 62.7947 58.6701C63.0771 58.4064 63.3087 58.0934 63.4782 57.7465C63.6864 57.3443 63.7659 56.8881 63.7061 56.4393C63.6962 56.3523 63.6643 56.2692 63.6135 56.1978C63.5818 56.1648 63.5437 56.1386 63.5014 56.1208C63.4592 56.1031 63.4137 56.0943 63.3679 56.0948Z" fill="white"/>
<path id="Vector_34" d="M68.9036 63.6785H68.868C68.2914 63.4724 67.7985 63.083 67.4653 62.5702C67.2984 62.309 67.1936 62.0131 67.1591 61.7053C67.1245 61.3974 67.1611 61.0857 67.266 60.7942C67.2923 60.7258 67.3232 60.6594 67.3586 60.5952C67.0178 59.8857 66.9275 59.082 67.1022 58.3148C67.1051 58.3028 67.1104 58.2915 67.1177 58.2816C67.1251 58.2717 67.1343 58.2634 67.1449 58.2571C67.1556 58.2508 67.1673 58.2467 67.1796 58.245C67.1918 58.2433 67.2042 58.2441 67.2162 58.2473C67.228 58.2498 67.2392 58.2546 67.2491 58.2616C67.2591 58.2686 67.2674 58.2775 67.2738 58.2878C67.2801 58.2981 67.2843 58.3096 67.286 58.3216C67.2877 58.3335 67.287 58.3457 67.2838 58.3574C67.1277 59.0492 67.1988 59.7728 67.4867 60.4212C67.5614 60.3337 67.6552 60.2644 67.7608 60.2187C67.8996 60.1676 68.0475 60.1458 68.1952 60.1548C68.989 60.1548 69.8968 60.6236 70.0891 61.4691C70.1371 61.6132 70.1347 61.7692 70.0823 61.9118C70.0299 62.0544 69.9307 62.175 69.8007 62.2541C69.6879 62.2993 69.5647 62.3128 69.4447 62.2931C68.9567 62.2233 68.5025 62.0035 68.1453 61.6644C67.8726 61.416 67.6428 61.1244 67.4653 60.8013C67.4653 60.8226 67.4654 60.8439 67.4404 60.8616C67.3497 61.1256 67.3192 61.4064 67.3512 61.6836C67.3833 61.9607 67.477 62.2273 67.6256 62.4636C67.9349 62.9431 68.396 63.3057 68.9356 63.4938C68.9475 63.4976 68.9584 63.504 68.9676 63.5123C68.9769 63.5207 68.9842 63.5309 68.9893 63.5423C68.9943 63.5537 68.9969 63.566 68.9969 63.5784C68.9968 63.5909 68.9941 63.6032 68.989 63.6145C68.9836 63.633 68.9724 63.6492 68.957 63.6607C68.9416 63.6722 68.9228 63.6785 68.9036 63.6785ZM67.5757 60.613C67.753 60.9595 67.9946 61.2693 68.2877 61.5259C68.6154 61.8389 69.0319 62.0436 69.4803 62.112C69.5677 62.1248 69.6569 62.1163 69.7402 62.0871C69.9253 62.0054 69.968 61.7319 69.9182 61.5152C69.7509 60.7728 68.9107 60.3572 68.2058 60.343C68.0847 60.3353 67.9633 60.3534 67.8498 60.3963C67.7392 60.4402 67.6439 60.5156 67.5757 60.613Z" fill="white"/>
<path id="Vector_35" d="M62.1469 65.4153C62.1283 65.4145 62.1103 65.4084 62.0952 65.3977C62.08 65.387 62.0683 65.3721 62.0614 65.3549C61.8311 64.7907 61.7936 64.1665 61.9546 63.5789C62.04 63.2824 62.1917 63.0091 62.3983 62.7796C62.6049 62.5501 62.8609 62.3704 63.1472 62.2539C63.2155 62.2282 63.2857 62.208 63.3573 62.1935C63.6618 61.4673 64.2022 60.8642 64.8916 60.4814C64.9027 60.4729 64.9155 60.4669 64.9291 60.4638C64.9428 60.4607 64.9569 60.4606 64.9706 60.4636C64.9843 60.4665 64.9971 60.4724 65.0083 60.4808C65.0195 60.4892 65.0286 60.5 65.0352 60.5123C65.0418 60.5246 65.0456 60.5382 65.0463 60.5522C65.0471 60.5661 65.0448 60.58 65.0396 60.593C65.0344 60.6059 65.0264 60.6176 65.0162 60.6272C65.006 60.6367 64.9939 60.644 64.9806 60.6484C64.3548 60.9896 63.8556 61.5226 63.5566 62.1687C63.6708 62.168 63.7839 62.1922 63.8877 62.2397C64.0257 62.3059 64.1473 62.4017 64.2437 62.5203C64.7635 63.1242 65.0233 64.101 64.5178 64.8079C64.4375 64.9383 64.3155 65.0379 64.1715 65.0908C64.0275 65.1436 63.8698 65.1466 63.7239 65.0992C63.617 65.0423 63.5263 64.9592 63.4605 64.8576C63.1889 64.4476 63.0521 63.9634 63.0689 63.4723C63.0724 63.1091 63.1362 62.749 63.2576 62.4067L63.1971 62.428C62.9404 62.5367 62.7114 62.7012 62.5266 62.9096C62.3418 63.1179 62.206 63.3647 62.1291 63.6321C61.9782 64.1809 62.0132 64.7641 62.2287 65.291C62.2333 65.3024 62.2356 65.3146 62.2354 65.3269C62.2351 65.3392 62.2325 65.3513 62.2275 65.3626C62.2225 65.3738 62.2153 65.384 62.2064 65.3924C62.1974 65.4008 62.1869 65.4074 62.1753 65.4117L62.1469 65.4153ZM63.489 62.3534C63.3483 62.7136 63.2747 63.0964 63.2718 63.4829C63.2547 63.9346 63.3792 64.3803 63.6278 64.7582C63.6742 64.8327 63.7392 64.8939 63.8165 64.9358C64.0016 65.021 64.2295 64.8754 64.3647 64.6907C64.8062 64.069 64.5605 63.1704 64.1013 62.634C64.0256 62.5388 63.9311 62.4602 63.8236 62.4031C63.7186 62.3567 63.603 62.3396 63.489 62.3534Z" fill="white"/>
<path id="Vector_36" d="M61.7052 71.6565C61.0938 71.6269 60.5099 71.3944 60.0462 70.9958C59.8104 70.7949 59.6237 70.543 59.5003 70.2592C59.377 69.9754 59.3201 69.6673 59.3342 69.3582C59.3402 69.2854 59.3509 69.213 59.3663 69.1416C58.8353 68.5522 58.5192 67.8012 58.4691 67.0103C58.4682 66.998 58.4697 66.9857 58.4738 66.9741C58.4778 66.9625 58.4842 66.9519 58.4926 66.9428C58.5009 66.9338 58.5111 66.9267 58.5224 66.9218C58.5336 66.9169 58.5458 66.9143 58.5581 66.9144C58.5831 66.9134 58.6074 66.9221 58.626 66.9387C58.6446 66.9552 58.656 66.9784 58.6578 67.0032C58.7065 67.7091 58.9797 68.381 59.4375 68.9213C59.4848 68.8168 59.5554 68.7245 59.6439 68.6514C59.7627 68.5623 59.8983 68.4983 60.0427 68.4631C60.8081 68.2535 61.8049 68.4347 62.2321 69.1735C62.3196 69.2978 62.3624 69.448 62.3533 69.5996C62.3443 69.7512 62.2839 69.8953 62.1822 70.0083C62.0847 70.0805 61.9711 70.128 61.8511 70.1468C61.3632 70.2152 60.8661 70.1321 60.4271 69.9088C60.0955 69.7498 59.7924 69.5374 59.53 69.2801C59.5283 69.3014 59.5283 69.3227 59.53 69.344C59.5142 69.6271 59.563 69.9101 59.6727 70.1716C59.7825 70.4331 59.9504 70.6664 60.1637 70.8537C60.5974 71.2246 61.1419 71.4419 61.7123 71.4717C61.7246 71.4721 61.7368 71.4751 61.7479 71.4804C61.759 71.4858 61.7689 71.4934 61.777 71.5027C61.785 71.5121 61.791 71.523 61.7946 71.5348C61.7982 71.5466 61.7992 71.559 61.7977 71.5712C61.7973 71.5829 61.7945 71.5943 61.7896 71.6049C61.7847 71.6155 61.7778 71.6251 61.7692 71.633C61.7606 71.6409 61.7505 71.647 61.7395 71.6511C61.7285 71.6551 61.7169 71.6569 61.7052 71.6565ZM59.5692 69.0918C59.8364 69.3725 60.1524 69.6023 60.5019 69.7703C60.9057 69.9758 61.363 70.0526 61.812 69.9905C61.8993 69.9787 61.9824 69.9458 62.0541 69.8946C62.2071 69.7632 62.1715 69.4932 62.0541 69.2943C61.6803 68.6301 60.7582 68.4702 60.0783 68.6585C59.9593 68.6864 59.8469 68.7371 59.7472 68.8077C59.6703 68.8877 59.614 68.9852 59.5834 69.0918H59.5692Z" fill="white"/>
<path id="Vector_37" d="M58.7611 63.4939C58.1498 63.4615 57.5664 63.2279 57.1022 62.8296C56.8662 62.6289 56.6793 62.377 56.5559 62.0932C56.4325 61.8094 56.3758 61.5012 56.3902 61.1921C56.3966 61.1193 56.4073 61.047 56.4222 60.9754C55.8949 60.3907 55.5791 59.6466 55.5251 58.8619C55.5241 58.8371 55.5328 58.8128 55.5494 58.7942C55.566 58.7757 55.5892 58.7643 55.6141 58.7625C55.6388 58.7623 55.6626 58.7713 55.6811 58.7877C55.6995 58.8041 55.7111 58.8268 55.7138 58.8513C55.7617 59.5584 56.0349 60.2317 56.4934 60.7729C56.5415 60.6679 56.612 60.5746 56.6999 60.4994C56.8185 60.4109 56.9543 60.348 57.0986 60.3147C57.864 60.1016 58.8786 60.2828 59.288 61.0251C59.3756 61.1494 59.4183 61.2996 59.4093 61.4512C59.4002 61.6028 59.3399 61.7469 59.2382 61.8599C59.1411 61.9323 59.0272 61.9787 58.9071 61.9949C58.4195 62.0663 57.9218 61.9843 57.4831 61.7604C57.1506 61.6015 56.8473 61.3877 56.586 61.1282C56.5846 61.1495 56.5846 61.1708 56.586 61.1921C56.5739 61.4711 56.6246 61.7492 56.7342 62.0061C56.8439 62.263 57.0097 62.4922 57.2197 62.6769C57.6528 63.0481 58.1979 63.2644 58.7683 63.2914C58.7931 63.2932 58.8163 63.3046 58.8329 63.3232C58.8495 63.3417 58.8582 63.366 58.8573 63.3909C58.8582 63.404 58.8565 63.4173 58.8521 63.4297C58.8477 63.4422 58.8408 63.4536 58.8317 63.4633C58.8227 63.473 58.8118 63.4807 58.7996 63.486C58.7875 63.4912 58.7744 63.4939 58.7611 63.4939ZM56.6251 60.9257C56.8912 61.2076 57.2075 61.4377 57.5579 61.6041C57.9611 61.8112 58.4189 61.8881 58.8679 61.8244C58.9557 61.8142 59.0392 61.7811 59.11 61.7285C59.2631 61.6006 59.2275 61.3306 59.11 61.1317C58.754 60.4675 57.8142 60.3076 57.1342 60.4959C57.0159 60.5224 56.9043 60.5732 56.8067 60.6451C56.7277 60.7227 56.67 60.8193 56.6394 60.9257H56.6251Z" fill="white"/>
<path id="Vector_38" d="M75.9772 60.0802C75.9043 60.0831 75.8315 60.0704 75.764 60.0428C75.6964 60.0152 75.6356 59.9735 75.5856 59.9204C75.509 59.8265 75.4598 59.7135 75.4432 59.5936C75.364 59.11 75.4361 58.6139 75.6497 58.1727C75.8037 57.8391 76.0118 57.5331 76.2656 57.2669H76.2015C75.9221 57.261 75.6449 57.3173 75.3899 57.4316C75.135 57.5458 74.9088 57.7153 74.7276 57.9276C74.3639 58.3666 74.1572 58.9141 74.1402 59.4835C74.1398 59.4959 74.1368 59.5081 74.1315 59.5194C74.1262 59.5307 74.1187 59.5408 74.1094 59.5491C74.1001 59.5574 74.0892 59.5637 74.0773 59.5677C74.0655 59.5717 74.053 59.5732 74.0406 59.5723C74.0163 59.5705 73.9937 59.5596 73.9771 59.5418C73.9606 59.524 73.9515 59.5006 73.9516 59.4764C73.9702 58.8649 74.1933 58.2773 74.5852 57.8069C74.7838 57.5709 75.0333 57.3828 75.3151 57.2567C75.5968 57.1306 75.9035 57.0698 76.2122 57.0787C76.2863 57.0849 76.36 57.0955 76.4329 57.1106C77.0072 56.571 77.7473 56.2406 78.5333 56.1729C78.5457 56.1719 78.5582 56.1735 78.5701 56.1775C78.5819 56.1814 78.5928 56.1878 78.6021 56.1961C78.6114 56.2044 78.6189 56.2145 78.6242 56.2257C78.6296 56.237 78.6325 56.2492 78.633 56.2617C78.634 56.286 78.6258 56.3098 78.6099 56.3282C78.594 56.3467 78.5717 56.3585 78.5475 56.3611C77.8403 56.4203 77.1711 56.7056 76.6394 57.1746C76.7445 57.2213 76.838 57.2904 76.9135 57.3771C77.0057 57.4929 77.0713 57.6275 77.1057 57.7713C77.3336 58.5315 77.1698 59.5296 76.4222 59.9665C76.2863 60.0423 76.1329 60.0815 75.9772 60.0802ZM76.4863 57.3025C76.2111 57.5736 75.9879 57.8926 75.8277 58.2438C75.6317 58.6511 75.5635 59.1079 75.6319 59.5545C75.6457 59.6423 75.6812 59.7253 75.7351 59.796C75.8668 59.9452 76.1374 59.9062 76.3332 59.796C76.9918 59.4089 77.1342 58.4853 76.9348 57.814C76.9048 57.6958 76.8516 57.5847 76.7782 57.4872C76.699 57.4009 76.5983 57.3372 76.4863 57.3025Z" fill="white"/>
<path id="Vector_39" d="M75.5253 66.5522C75.5016 66.5514 75.4791 66.5419 75.462 66.5255C75.4449 66.5091 75.4345 66.487 75.4328 66.4634C75.3765 65.7573 75.093 65.0882 74.6246 64.5559C74.5778 64.6608 74.5086 64.7541 74.4217 64.8294C74.3047 64.92 74.1702 64.9853 74.0266 65.0212C73.2647 65.245 72.2644 65.0781 71.8265 64.3286C71.7375 64.2055 71.6929 64.056 71.7 63.9044C71.7071 63.7528 71.7655 63.6081 71.8656 63.4938C71.9597 63.4174 72.073 63.3683 72.1932 63.3517C72.6785 63.2728 73.1764 63.3473 73.6171 63.5649C73.9517 63.7198 74.2584 63.9286 74.525 64.1829C74.525 64.1616 74.525 64.1403 74.525 64.1225C74.5323 63.8432 74.4773 63.5657 74.364 63.3102C74.2508 63.0546 74.082 62.8274 73.8699 62.6449C73.4292 62.2822 72.8815 62.0738 72.3106 62.0517C72.2861 62.0517 72.2625 62.0419 72.2452 62.0246C72.2278 62.0073 72.2181 61.9838 72.2181 61.9593C72.2181 61.9348 72.2278 61.9113 72.2452 61.894C72.2625 61.8767 72.2861 61.8669 72.3106 61.8669C72.9234 61.8865 73.5117 62.1117 73.9803 62.5063C74.2154 62.7054 74.4018 62.9555 74.5252 63.2374C74.6486 63.5194 74.7058 63.8258 74.6923 64.1332C74.6889 64.2061 74.6794 64.2786 74.6638 64.3499C75.2012 64.9255 75.5286 65.6651 75.593 66.4492C75.5939 66.4618 75.5924 66.4744 75.5884 66.4865C75.5845 66.4985 75.5782 66.5096 75.5699 66.5191C75.5616 66.5287 75.5516 66.5366 75.5402 66.5422C75.5289 66.5479 75.5166 66.5513 75.504 66.5522H75.5253ZM72.5598 63.5045C72.4486 63.5031 72.3376 63.5138 72.2288 63.5364C72.1417 63.5474 72.0592 63.5818 71.9902 63.6359C71.8372 63.7673 71.8763 64.0373 71.9902 64.2327C72.3747 64.8933 73.3003 65.039 73.9732 64.8401C74.0915 64.8115 74.2028 64.7595 74.3007 64.6873C74.3848 64.6099 74.4473 64.5119 74.4822 64.4032C74.2132 64.1243 73.8945 63.8978 73.5424 63.7354C73.2348 63.5904 72.9 63.5117 72.5598 63.5045Z" fill="white"/>
<path id="Vector_40" d="M72.7697 71.6707C72.7041 71.6729 72.6387 71.6618 72.5775 71.638C72.5163 71.6141 72.4606 71.5781 72.4137 71.5322C72.3309 71.4434 72.2732 71.3343 72.2464 71.216C72.1385 70.7419 72.1782 70.2462 72.3603 69.7952C72.4899 69.4505 72.6764 69.1299 72.9121 68.8468H72.8481C72.5687 68.8584 72.2955 68.9328 72.049 69.0644C71.8024 69.196 71.5888 69.3815 71.4241 69.6069C71.0913 70.0694 70.9222 70.6293 70.9435 71.1983C70.9445 71.2108 70.9428 71.2234 70.9386 71.2353C70.9343 71.2472 70.9276 71.258 70.9189 71.2671C70.9101 71.2761 70.8995 71.2832 70.8878 71.2879C70.8761 71.2926 70.8635 71.2947 70.8509 71.2942C70.8264 71.2942 70.8028 71.2844 70.7855 71.2671C70.7681 71.2498 70.7583 71.2263 70.7583 71.2018C70.735 70.5908 70.9166 69.9895 71.2745 69.4933C71.4564 69.2444 71.6925 69.04 71.9651 68.8954C72.2377 68.7508 72.5396 68.6698 72.8481 68.6585C72.9216 68.6535 72.9953 68.6535 73.0688 68.6585C73.6073 68.0857 74.3233 67.7104 75.1015 67.5929C75.1137 67.5912 75.1261 67.592 75.1379 67.5951C75.1498 67.5983 75.1609 67.6037 75.1706 67.6111C75.1804 67.6186 75.1886 67.6278 75.1948 67.6384C75.2009 67.649 75.2049 67.6607 75.2066 67.6728C75.2082 67.6849 75.2074 67.6973 75.2043 67.7091C75.2011 67.7209 75.1957 67.732 75.1883 67.7417C75.1808 67.7515 75.1715 67.7596 75.1609 67.7658C75.1503 67.7719 75.1386 67.7759 75.1265 67.7776C74.4255 67.886 73.7779 68.2159 73.2788 68.7189C73.3868 68.758 73.4851 68.8198 73.5672 68.9C73.6655 69.0121 73.7406 69.1425 73.7879 69.2837C74.0656 70.0261 73.973 71.0313 73.2539 71.5215C73.1102 71.6164 72.9421 71.6682 72.7697 71.6707ZM73.1257 68.861C72.8688 69.1504 72.6662 69.4837 72.5277 69.8449C72.3564 70.2639 72.3191 70.7254 72.4209 71.1663C72.4394 71.2531 72.4798 71.3338 72.5383 71.4007C72.6295 71.4589 72.7372 71.4858 72.8451 71.4775C72.953 71.4692 73.0553 71.426 73.1364 71.3546C73.7665 70.9248 73.8484 69.9941 73.5992 69.337C73.5633 69.2201 73.5026 69.1122 73.4212 69.0208C73.3404 68.9437 73.2411 68.8887 73.1329 68.861H73.1257Z" fill="white"/>
<path id="Vector_41" d="M65.3543 72.8891C65.3351 72.8891 65.3164 72.8833 65.3005 72.8725C65.2846 72.8618 65.2724 72.8465 65.2653 72.8287C65.2607 72.8173 65.2584 72.8051 65.2587 72.7928C65.2589 72.7805 65.2615 72.7684 65.2665 72.7571C65.2715 72.7459 65.2787 72.7358 65.2876 72.7273C65.2966 72.7189 65.3071 72.7123 65.3187 72.708C65.9761 72.4406 66.5292 71.9683 66.8958 71.3617C66.7822 71.3488 66.6728 71.3112 66.5754 71.2516C66.4524 71.1686 66.3481 71.0609 66.2692 70.9355C65.8278 70.2748 65.6854 69.2731 66.2692 68.6337C66.3217 68.5384 66.4 68.4597 66.4952 68.4067C66.5904 68.3538 66.6986 68.3286 66.8075 68.3342C66.9163 68.3398 67.0214 68.3758 67.1107 68.4382C67.2 68.5006 67.2698 68.5868 67.3123 68.687C67.5337 69.1257 67.6121 69.6225 67.5366 70.1078C67.4933 70.4781 67.3873 70.8385 67.2233 71.1735H67.2838C67.5525 71.0974 67.8008 70.9622 68.0102 70.7777C68.2197 70.5933 68.3851 70.3644 68.4942 70.1078C68.7112 69.5799 68.745 68.9947 68.5903 68.4454C68.5848 68.4214 68.5888 68.3963 68.6014 68.3751C68.614 68.3539 68.6342 68.3384 68.658 68.3318C68.6699 68.3286 68.6823 68.3278 68.6945 68.3295C68.7068 68.3312 68.7185 68.3353 68.7292 68.3416C68.7398 68.3478 68.749 68.3562 68.7564 68.3661C68.7637 68.376 68.769 68.3873 68.7719 68.3992C68.9349 68.9864 68.8986 69.6109 68.6686 70.1753C68.5491 70.4595 68.3665 70.7129 68.1347 70.9166C67.9028 71.1202 67.6277 71.2688 67.3301 71.3511C67.259 71.3705 67.1863 71.3835 67.1129 71.3901C66.7247 72.0751 66.1164 72.6094 65.3863 72.9069L65.3543 72.8891ZM66.8317 68.5378C66.667 68.5529 66.5148 68.632 66.408 68.758C65.8954 69.3228 66.052 70.2463 66.4258 70.8289C66.4904 70.9333 66.5751 71.0238 66.675 71.0953C66.7743 71.1532 66.8876 71.1827 67.0026 71.1806C67.1874 70.8407 67.3081 70.4699 67.3586 70.0865C67.4268 69.6392 67.356 69.1817 67.1556 68.7758C67.1163 68.6973 67.059 68.6291 66.9883 68.5769C66.9411 68.5486 66.8866 68.535 66.8317 68.5378Z" fill="white"/>
<path id="Vector_42" d="M72.3176 58.2118C72.3053 58.2093 72.2936 58.2043 72.2833 58.1971C72.273 58.19 72.2642 58.1808 72.2575 58.1702C72.2509 58.1596 72.2464 58.1477 72.2445 58.1353C72.2426 58.1229 72.2433 58.1102 72.2464 58.0981C72.3844 57.4032 72.2958 56.6825 71.9937 56.0414C71.9207 56.131 71.8281 56.2026 71.7231 56.251C71.5854 56.3067 71.4372 56.3321 71.2888 56.3256C70.4949 56.3256 69.5871 55.8922 69.3771 55.0575C69.3253 54.9148 69.3235 54.7588 69.372 54.6149C69.4205 54.4711 69.5164 54.3478 69.6441 54.2654C69.7568 54.2199 69.8794 54.204 70.0001 54.2192C70.4899 54.2793 70.9495 54.4875 71.3173 54.8159C71.5998 55.0565 71.8404 55.3422 72.0293 55.6613L72.0506 55.601C72.1359 55.3348 72.16 55.0529 72.1212 54.7762C72.0823 54.4995 71.9816 54.2351 71.8263 54.0025C71.4917 53.531 71.0076 53.1856 70.4522 53.0221C70.4404 53.0185 70.4295 53.0126 70.4201 53.0047C70.4106 52.9968 70.4029 52.9871 70.3973 52.9762C70.3916 52.9653 70.3882 52.9533 70.3873 52.9411C70.3863 52.9289 70.3878 52.9166 70.3917 52.9049C70.4005 52.8815 70.4179 52.8623 70.4403 52.8511C70.4628 52.8399 70.4886 52.8375 70.5127 52.8445C71.0913 53.0349 71.5915 53.4092 71.9367 53.9102C72.1107 54.1679 72.2231 54.4621 72.265 54.77C72.307 55.078 72.2775 55.3914 72.1788 55.6862C72.1544 55.7559 72.1247 55.8236 72.0898 55.8887C72.4484 56.5894 72.5589 57.3907 72.4031 58.162C72.3953 58.1778 72.3831 58.191 72.3679 58.1998C72.3527 58.2087 72.3352 58.2128 72.3176 58.2118ZM69.8719 54.4003C69.8107 54.3998 69.7501 54.4118 69.6939 54.4359C69.5123 54.5211 69.4732 54.7911 69.5301 55.0113C69.7188 55.7466 70.559 56.1409 71.2603 56.1409C71.3817 56.1428 71.5024 56.1223 71.6163 56.0805C71.7207 56.0308 71.8094 55.9534 71.8726 55.8567C71.6911 55.5171 71.4499 55.2127 71.1606 54.958C70.8254 54.654 70.4036 54.4615 69.9538 54.4074L69.8719 54.4003Z" fill="white"/>
<path id="Vector_43" d="M60.203 57.1569H60.1817C60.1573 57.1509 60.1362 57.1357 60.1229 57.1145C60.1096 57.0933 60.1051 57.0677 60.1105 57.0432C60.2502 56.3484 60.1616 55.6271 59.8577 54.9865C59.7847 55.0761 59.6922 55.1477 59.5872 55.1961C59.4504 55.2511 59.3038 55.2776 59.1564 55.2742C58.3661 55.2742 57.4583 54.8373 57.2447 54.0026C57.1936 53.8598 57.1921 53.704 57.2405 53.5603C57.289 53.4166 57.3845 53.2934 57.5117 53.2105C57.6244 53.165 57.747 53.1491 57.8677 53.1643C58.3565 53.2242 58.8151 53.4325 59.1813 53.761C59.4648 54.0007 59.7055 54.2865 59.8933 54.6065C59.8933 54.5851 59.9111 54.5638 59.9182 54.5461C60.002 54.2797 60.0253 53.9981 59.9865 53.7216C59.9477 53.4452 59.8478 53.1808 59.694 52.9476C59.3708 52.4777 58.9017 52.127 58.359 51.9495C58.3472 51.9459 58.3364 51.94 58.3271 51.932C58.3177 51.9241 58.3102 51.9143 58.3048 51.9033C58.2995 51.8923 58.2965 51.8803 58.296 51.8681C58.2955 51.8558 58.2975 51.8436 58.302 51.8322C58.3101 51.8091 58.3268 51.7899 58.3487 51.7787C58.3705 51.7675 58.3959 51.765 58.4195 51.7719C58.9981 51.9622 59.4983 52.3365 59.8435 52.8375C60.0175 53.0952 60.1298 53.3894 60.1718 53.6974C60.2138 54.0053 60.1843 54.3188 60.0856 54.6136C60.0628 54.6838 60.033 54.7517 59.9966 54.816C60.3546 55.517 60.4661 56.3176 60.3134 57.0894C60.3067 57.1123 60.2917 57.1319 60.2713 57.1444C60.2509 57.1569 60.2266 57.1613 60.203 57.1569ZM57.7538 53.3454C57.6937 53.3448 57.6343 53.3569 57.5793 53.381C57.3978 53.4662 57.3586 53.7362 57.4156 53.9564C57.6007 54.6917 58.4408 55.086 59.1422 55.086C59.2636 55.0881 59.3843 55.0676 59.4982 55.0256C59.601 54.9749 59.6883 54.8976 59.7509 54.8018C59.5698 54.4619 59.3285 54.1575 59.0389 53.9031C58.7018 53.5998 58.2791 53.4075 57.8285 53.3525L57.7538 53.3454Z" fill="white"/>
</g>
</g>
</g>
</g>
<path id="Vector_44" d="M63.083 37.4319C63.2023 39.6684 62.8128 41.9028 61.9438 43.9678C63.0937 45.0334 64.9627 46.3619 67.4511 46.3264C69.9396 46.2909 69.5266 45.0192 68.8751 44.1525C67.0951 43.2573 66.9776 41.9395 67.4155 41.1403L63.083 37.4319Z" fill="#CE7A63"/>
<path id="Vector_45" opacity="0.2" d="M67.4014 41.1438L65.4292 39.9148C64.5214 40.0569 64.0835 41.2113 65.212 42.0816C65.981 42.6748 67.1949 42.9092 67.348 42.7494C67.2298 42.4964 67.1731 42.2192 67.1824 41.9402C67.1916 41.6613 67.2667 41.3884 67.4014 41.1438Z" fill="black"/>
<path id="Vector_46" d="M68.1772 32.555C70.7119 32.0257 70.2883 35.1658 69.6297 36.7962C67.9672 34.3737 68.1772 32.555 68.1772 32.555Z" fill="#263238"/>
<path id="Vector_47" d="M61.684 35.8939C62.1752 38.6787 62.3283 40.1209 64.1226 41.0693C68.5975 43.4279 69.6121 41.8046 69.9681 38.9381C70.2849 36.345 69.4305 32.2246 66.5505 31.4431C65.9149 31.2739 65.2468 31.2672 64.6079 31.4236C63.969 31.58 63.3799 31.8945 62.8949 32.338C62.41 32.7815 62.0449 33.3398 61.8332 33.9612C61.6216 34.5827 61.5702 35.2474 61.684 35.8939Z" fill="#CE7A63"/>
<path id="Vector_48" d="M62.5205 38.1885C64.952 38.6858 62.3496 36.1318 62.9121 35.0946C63.4746 34.0574 66.5326 34.8282 65.6568 33.1338C68.0314 33.7341 70.2315 33.9508 70.7121 32.3524C71.4241 30.0293 69.1528 29.5853 67.8142 30.2566C66.6928 30.8214 66.7035 31.0061 65.0267 30.4449C63.35 29.8836 59.1848 30.2104 60.2492 32.1179C58.3553 32.1961 58.3553 34.6044 59.9217 35.29C61.4881 35.9755 60.6871 37.812 62.5205 38.1885Z" fill="#263238"/>
<path id="Vector_49" d="M62.0113 36.892C61.9912 36.8914 61.9719 36.8845 61.9559 36.8724C61.94 36.8603 61.9282 36.8436 61.9223 36.8245C61.9184 36.8128 61.9169 36.8005 61.9179 36.7883C61.9188 36.776 61.9222 36.7641 61.9278 36.7532C61.9335 36.7423 61.9412 36.7326 61.9507 36.7247C61.9601 36.7168 61.971 36.7109 61.9828 36.7072L65.7706 35.535C65.7942 35.5282 65.8196 35.5307 65.8414 35.5419C65.8633 35.5531 65.88 35.5723 65.8881 35.5954C65.892 35.6071 65.8934 35.6194 65.8925 35.6316C65.8915 35.6439 65.8881 35.6558 65.8825 35.6667C65.8769 35.6776 65.8691 35.6873 65.8597 35.6952C65.8502 35.7031 65.8393 35.709 65.8276 35.7127L62.0397 36.8848L62.0113 36.892Z" fill="white"/>
<path id="Vector_50" d="M60.68 32.2494C59.7651 31.5141 58.544 31.333 58.544 31.7663C58.544 32.1997 60.2528 32.1216 60.4166 32.4128C60.5804 32.7041 60.68 32.2494 60.68 32.2494Z" fill="#263238"/>
<path id="Vector_51" d="M68.5618 38.8989C67.4729 38.7353 66.3735 38.651 65.2724 38.6467C65.5501 39.2009 66.0769 39.6626 67.3194 39.6946C68.5618 39.7266 68.5618 38.8989 68.5618 38.8989Z" fill="white"/>
<path id="Vector_52" d="M60.8403 38.0463C61.1238 38.6353 61.6196 39.0958 62.2287 39.3357C63.0048 39.6164 63.375 38.8527 63.1472 38.0179C62.9372 37.2684 62.2857 36.217 61.5132 36.3022C60.7406 36.3875 60.4736 37.2933 60.8403 38.0463Z" fill="#CE7A63"/>
<path id="Vector_53" d="M66.4224 35.9401C66.458 36.1781 66.6146 36.3486 66.7784 36.3237C66.9422 36.2988 67.0312 36.0857 66.9956 35.8477C66.96 35.6097 66.8033 35.4392 66.6396 35.4641C66.4758 35.4889 66.3868 35.7021 66.4224 35.9401Z" fill="#263238"/>
<path id="Vector_54" d="M69.0033 35.8831C69.0389 36.1211 69.192 36.2952 69.3593 36.2703C69.5266 36.2454 69.612 36.0323 69.5764 35.7943C69.5408 35.5563 69.3842 35.3823 69.2204 35.4072C69.0567 35.432 68.9641 35.6451 69.0033 35.8831Z" fill="#263238"/>
<path id="Vector_55" d="M65.4538 35.3361C65.4296 35.3332 65.4064 35.3246 65.3861 35.3112C65.3552 35.2903 65.3338 35.2581 65.3265 35.2215C65.3191 35.185 65.3265 35.147 65.347 35.1159C65.4697 34.9257 65.6361 34.7675 65.8323 34.6545C66.0286 34.5414 66.2491 34.4767 66.4755 34.4658C66.5132 34.4658 66.5495 34.4808 66.5762 34.5074C66.6029 34.5341 66.6179 34.5702 66.6179 34.6079C66.6179 34.6456 66.6029 34.6817 66.5762 34.7084C66.5495 34.735 66.5132 34.75 66.4755 34.75C66.297 34.7615 66.1238 34.8148 65.9698 34.9055C65.8158 34.9962 65.6854 35.1218 65.589 35.2722C65.5753 35.2949 65.5551 35.3131 65.5311 35.3245C65.507 35.3359 65.4801 35.3399 65.4538 35.3361Z" fill="#263238"/>
<path id="Vector_56" d="M69.7224 34.5512C69.6994 34.5557 69.6757 34.5544 69.6534 34.5476C69.631 34.5408 69.6107 34.5286 69.5942 34.5121C69.4745 34.381 69.3252 34.2803 69.1586 34.2185C68.992 34.1568 68.813 34.1356 68.6366 34.1569C68.6181 34.1605 68.5991 34.1604 68.5806 34.1566C68.5622 34.1529 68.5447 34.1455 68.5291 34.1349C68.5136 34.1243 68.5003 34.1108 68.49 34.095C68.4797 34.0793 68.4727 34.0617 68.4692 34.0432C68.463 34.0065 68.4714 33.9689 68.4927 33.9383C68.514 33.9077 68.5465 33.8868 68.5832 33.8798C68.8056 33.8481 69.0324 33.871 69.2439 33.9465C69.4555 34.022 69.6453 34.1479 69.7971 34.3132C69.8232 34.3398 69.8378 34.3755 69.8378 34.4127C69.8378 34.4498 69.8232 34.4856 69.7971 34.5121C69.7772 34.533 69.7509 34.5467 69.7224 34.5512Z" fill="#263238"/>
<path id="Vector_57" d="M69.2918 37.5739C69.2027 37.5714 69.1151 37.5502 69.0347 37.5116C68.9543 37.4731 68.883 37.418 68.8254 37.3501C68.4866 36.8691 68.3463 36.2763 68.4338 35.6948C68.5228 34.6505 69.0284 33.8335 69.5908 33.8335C69.6801 33.8353 69.768 33.8562 69.8484 33.8948C69.9289 33.9334 70.0001 33.9888 70.0572 34.0573C70.3959 34.5371 70.5361 35.1287 70.4488 35.709C70.3598 36.7533 69.8543 37.5739 69.2918 37.5739ZM69.5908 34.0218C69.1423 34.0218 68.6973 34.7961 68.6225 35.7126C68.5461 36.2437 68.6732 36.7841 68.9785 37.2258C69.0195 37.2742 69.0701 37.3137 69.127 37.3418C69.184 37.37 69.2461 37.3861 69.3096 37.3892C69.7582 37.3892 70.2032 36.6148 70.2779 35.6984C70.3564 35.1683 70.229 34.6283 69.9219 34.1887C69.8825 34.1379 69.8325 34.0964 69.7753 34.0669C69.7181 34.0374 69.6552 34.0208 69.5908 34.0182V34.0218Z" fill="white"/>
<path id="Vector_58" d="M68.2664 35.8938C68.629 36.5935 69.088 37.2391 69.6299 37.8119C69.4783 37.9484 69.2991 38.0508 69.1044 38.112C68.9097 38.1733 68.704 38.1921 68.5014 38.1671L68.2664 35.8938Z" fill="#BA4D3C"/>
<path id="Vector_59" d="M59.8078 50.4398L58.8751 51.4095L57.9245 52.4112C57.298 53.079 56.6857 53.7575 56.0947 54.4288C55.8028 54.7663 55.518 55.1073 55.2474 55.4483C54.9769 55.7893 54.7063 56.1196 54.4642 56.4535C54.2221 56.7874 54.0085 57.1178 53.8234 57.4197C53.6788 57.6553 53.5515 57.901 53.4425 58.155L53.5066 57.6719C53.4745 57.6044 53.471 57.8033 53.5066 58.0271C53.5639 58.3193 53.6473 58.6058 53.7558 58.8832C54.0106 59.5606 54.3054 60.2225 54.6387 60.8652C54.9769 61.5508 55.3507 62.2363 55.7351 62.9326L56.8957 65.0141L56.9171 65.0532C57.0687 65.339 57.118 65.668 57.0569 65.9856C56.9958 66.3033 56.8279 66.5906 56.581 66.8001C56.334 67.0097 56.0228 67.1289 55.6988 67.138C55.3748 67.1472 55.0573 67.0458 54.7989 66.8505C54.1227 66.3103 53.4773 65.7328 52.8658 65.1207C52.2535 64.5132 51.6661 63.8774 51.0858 63.1954C50.4998 62.4849 49.969 61.7309 49.498 60.9398C49.2336 60.4841 49.0039 60.0091 48.8109 59.519C48.5516 58.8711 48.414 58.1812 48.4051 57.4836C48.4026 57.3777 48.411 57.2717 48.43 57.1675L48.4656 57.0005C48.6103 56.3247 48.83 55.6671 49.1207 55.0398C49.3639 54.5153 49.6373 54.0053 49.9395 53.5124C50.4883 52.601 51.0947 51.7254 51.7551 50.8909C52.3852 50.0704 53.0509 49.2996 53.7309 48.5501C54.0869 48.1771 54.4144 47.8041 54.7739 47.4453C55.1335 47.0866 55.4859 46.7349 55.8847 46.3797C56.423 45.8951 57.128 45.6364 57.8527 45.6574C58.5775 45.6785 59.2661 45.9776 59.7754 46.4926C60.2846 47.0076 60.5751 47.6987 60.5865 48.422C60.5978 49.1454 60.3291 49.8452 59.8363 50.3758L59.8078 50.4398Z" fill="#CF7A64"/>
<path id="Vector_60" d="M55.0696 64.2078L58.2238 64.2539L57.113 67.8629C57.113 67.8629 54.265 67.4757 54.2223 65.9305L55.0696 64.2078Z" fill="#CE7A63"/>
<path id="Vector_61" d="M60.5199 66.5805L59.9147 67.7776C59.7993 68.0098 59.6047 68.1932 59.3658 68.2948C59.1269 68.3964 58.8594 68.4095 58.6117 68.3317L57.1058 67.8629L58.2166 64.2539L59.9966 65.1064C60.1293 65.1673 60.2485 65.2541 60.3471 65.3618C60.4456 65.4694 60.5215 65.5957 60.5703 65.7332C60.6191 65.8706 60.6398 66.0164 60.6311 66.162C60.6225 66.3075 60.5846 66.4498 60.5199 66.5805Z" fill="#CE7A63"/>
<path id="Vector_62" d="M59.1457 44.3372C57.5829 44.7137 55.721 45.3317 54.0478 47.1788C52.4279 49.0895 51.0172 51.1675 49.8399 53.3773C51.6199 56.4534 54.4964 56.8086 55.2689 56.6062C57.9781 54.7875 59.6228 53.8604 60.3846 51.452C61.1465 49.0437 60.3134 46.202 59.1457 44.3372Z" fill="#263238"/>
<path id="Vector_63" d="M66.5718 37.5739C66.4821 37.5715 66.394 37.5503 66.313 37.5118C66.2321 37.4732 66.1602 37.4181 66.1019 37.3501C65.763 36.8691 65.6228 36.2763 65.7103 35.6948C65.7993 34.6505 66.3048 33.8335 66.8673 33.8335C66.9571 33.8352 67.0455 33.8561 67.1265 33.8947C67.2075 33.9333 67.2794 33.9887 67.3372 34.0573C67.6767 34.5367 67.8159 35.129 67.7253 35.709C67.6398 36.7533 67.1165 37.5739 66.5718 37.5739ZM66.8673 34.0218C66.4187 34.0218 65.9773 34.7961 65.899 35.7126C65.8225 36.2437 65.9496 36.7841 66.255 37.2258C66.2955 37.2747 66.346 37.3146 66.403 37.3427C66.4601 37.3709 66.5224 37.3867 66.586 37.3892C67.0346 37.3892 67.476 36.6148 67.5544 35.6984C67.6299 35.1684 67.5028 34.6295 67.1984 34.1887C67.1571 34.1365 67.1047 34.0941 67.045 34.0646C66.9853 34.0351 66.9197 34.0192 66.853 34.0182L66.8673 34.0218Z" fill="white"/>
<path id="Vector_64" d="M68.5262 35.798C68.5079 35.798 68.49 35.7926 68.4748 35.7825C68.4596 35.7724 68.4477 35.758 68.4407 35.7412C68.4334 35.7221 68.4219 35.7049 68.4072 35.6908C68.3924 35.6767 68.3747 35.666 68.3553 35.6595C68.1105 35.6296 67.8623 35.6742 67.6433 35.7873C67.6321 35.7927 67.6199 35.7957 67.6076 35.7963C67.5952 35.7968 67.5828 35.7949 67.5712 35.7906C67.5596 35.7863 67.5489 35.7797 67.5399 35.7712C67.5309 35.7627 67.5237 35.7525 67.5187 35.7412C67.5089 35.7185 67.5082 35.6929 67.5168 35.6697C67.5254 35.6466 67.5427 35.6276 67.565 35.6168C67.825 35.4845 68.1206 35.4385 68.4087 35.4854C68.4937 35.5189 68.5625 35.5838 68.6009 35.6666C68.6094 35.6893 68.609 35.7143 68.5998 35.7367C68.5905 35.7591 68.5731 35.7772 68.5511 35.7873C68.5434 35.7923 68.535 35.7959 68.5262 35.798Z" fill="white"/>
</g>
<g id="freepik--character-2--inject-17">
<path id="Vector_65" d="M119.174 43.7475C121.962 40.5505 120.523 37.0588 117.394 35.1336C114.265 33.2083 110.609 34.615 109.206 37.8794C107.804 41.1438 108.302 41.9892 107.426 42.1668C107.028 43.886 108.263 45.6905 109.694 44.7385C111.858 45.6514 115.653 47.7827 119.174 43.7475Z" fill="#263238"/>
<path id="Vector_66" d="M115.344 46.3368C113.813 46.3368 112.46 45.6726 111.471 45.1859L111.029 44.9693L111.172 44.6709C111.311 44.7348 111.46 44.8094 111.617 44.8876C113.503 45.8147 116.351 47.2142 119.392 44.0599C120.513 42.8948 121.033 41.5734 120.901 40.2805C120.759 38.8952 119.869 37.5454 118.459 36.5792L118.648 36.3057C120.139 37.3287 121.079 38.7637 121.232 40.2485C121.375 41.6694 120.823 43.0547 119.634 44.2873C118.146 45.836 116.679 46.3368 115.344 46.3368Z" fill="#263238"/>
<path id="Vector_67" d="M108.9 39.1688C108.299 37.0659 108.986 32.7963 114.24 32.7927C119.495 32.7892 121.716 36.4976 119.527 39.5737C113.186 41.0052 108.9 39.1688 108.9 39.1688Z" fill="#263238"/>
<path id="Vector_68" d="M106.729 43.3958C103.457 44.2554 106.291 49.6972 109.505 47.2143C108.793 47.1645 107.227 45.5945 108.437 44.5786C107.156 43.4632 106.729 43.3958 106.729 43.3958Z" fill="#263238"/>
<path id="Vector_69" d="M106.771 48.255C106.469 48.2548 106.17 48.1843 105.899 48.049C105.434 47.7817 105.056 47.3862 104.81 46.9099C104.565 46.4336 104.462 45.8967 104.514 45.3636C104.556 44.9174 104.741 44.4964 105.04 44.1622C105.339 43.8279 105.737 43.5979 106.177 43.5059L106.259 43.8291C105.882 43.8987 105.538 44.0901 105.281 44.3738C105.023 44.6575 104.867 45.0178 104.835 45.3991C104.787 45.8647 104.875 46.3342 105.087 46.7512C105.3 47.1683 105.629 47.5153 106.034 47.7506C106.729 48.1058 107.533 47.9105 108.295 47.2143L108.519 47.4629C108.059 47.939 107.434 48.2222 106.771 48.255Z" fill="#263238"/>
<path id="Vector_70" d="M109.292 44.9444C108.452 44.7704 107.156 42.5965 107.69 42.0779C107.365 42.0905 107.053 42.2047 106.798 42.4042C106.542 42.6038 106.356 42.8786 106.266 43.1897C106.049 43.861 106.479 45.1185 107.982 45.495C108.712 45.6868 109.292 44.9444 109.292 44.9444Z" fill="#FFCA40"/>
<path id="Vector_71" d="M109.452 53.9101C109.427 54.7236 109.367 55.5264 109.317 56.3327L109.11 58.7481C109.039 59.558 108.94 60.3643 108.84 61.1813C108.786 61.5863 108.726 61.9983 108.651 62.4246C108.578 62.8825 108.472 63.3348 108.334 63.7779C107.788 65.3925 107.063 66.9413 106.173 68.3957C105.337 69.8133 104.409 71.1743 103.393 72.4699C103.278 72.6275 103.107 72.7355 102.915 72.7719C102.723 72.8083 102.525 72.7704 102.36 72.6659C102.195 72.5615 102.076 72.3982 102.027 72.2094C101.978 72.0206 102.003 71.8204 102.097 71.6494V71.6316C102.809 70.2321 103.521 68.7899 104.148 67.3691C104.457 66.6587 104.767 65.9483 105.031 65.213C105.296 64.5173 105.518 63.8054 105.693 63.0817C105.769 62.7493 105.824 62.4123 105.857 62.0729C105.889 61.7177 105.914 61.3127 105.935 60.922L106.063 58.5456L106.188 56.1551C106.241 55.3559 106.277 54.5566 106.344 53.761C106.367 53.3507 106.553 52.9664 106.86 52.6926C107.167 52.4188 107.571 52.278 107.982 52.301C108.393 52.3241 108.778 52.5092 109.053 52.8157C109.327 53.1221 109.468 53.5247 109.445 53.935L109.452 53.9101Z" fill="#FFB573"/>
<path id="Vector_72" d="M109.213 68.3743C109.213 68.3743 109.213 86.9731 110.346 97.0469C110.463 106.503 112.627 127.872 112.627 127.872H115.016C115.422 117.269 118.38 107.373 116.412 98.0344C121.011 79.6735 118.879 68.3991 118.879 68.3991L109.213 68.3743Z" fill="#FFB573"/>
<path id="Vector_73" d="M111.819 68.3848C111.819 68.3848 113.599 91.1467 117.188 99.2882C120.94 107.849 127.601 124.618 128.259 127.46L130.257 126.931C130.257 126.931 128.936 108.524 122.838 98.1195C124.724 72.4662 119.972 68.3777 119.972 68.3777L111.819 68.3848Z" fill="#FFB573"/>
<path id="Vector_74" d="M108.452 49.2816C106.447 50.9724 105.803 53.7253 105.828 55.5902C107.028 57.5545 110.776 58.1619 110.776 58.1619C110.776 58.1619 111.371 54.3256 111.086 52.5176C110.801 50.7096 109.609 48.3048 108.452 49.2816Z" fill="#263238"/>
<path id="Vector_75" d="M107.014 52.8124C106.9 51.79 107.184 50.7632 107.807 49.9432C108.429 49.1233 109.343 48.5725 110.36 48.4043C110.94 48.3012 111.553 48.2053 112.14 48.1307C113.971 47.9349 115.814 47.8697 117.654 47.9354C118.181 47.9354 118.697 47.9638 119.185 47.9958C119.616 48.0241 120.035 48.1403 120.419 48.3373C120.802 48.5343 121.141 48.8078 121.414 49.1409C121.687 49.474 121.889 49.8595 122.006 50.2736C122.124 50.6876 122.155 51.1214 122.097 51.5479C120.933 59.256 120.242 64.8292 121.004 68.2073C121.004 68.2073 123.411 71.4042 124.504 78.7642C125.458 85.1828 125.216 96.0061 126.266 101.821C122.514 104.496 110.602 104.332 108.847 102.769C109.342 91.0118 106.932 75.6063 108.765 68.4915C108.032 64.5486 108.43 61.5364 108.017 59.1459C105.258 57.3023 107.323 55.5937 107.014 52.8124Z" fill="#263238"/>
<path id="Vector_76" d="M113.952 69.621C111.841 69.621 109.883 69.4185 109.021 69.0384C108.665 68.8821 108.498 68.6974 108.519 68.4843C108.52 68.4709 108.524 68.4578 108.53 68.4458C108.536 68.4339 108.544 68.4232 108.555 68.4146C108.565 68.406 108.577 68.3995 108.59 68.3956C108.603 68.3917 108.616 68.3905 108.63 68.3919C108.656 68.3955 108.68 68.4087 108.697 68.4291C108.714 68.4495 108.723 68.4755 108.722 68.5021C108.722 68.6548 108.954 68.7898 109.103 68.8573C111.179 69.7702 119.694 69.6672 121.061 68.1469C121.08 68.1275 121.107 68.1167 121.134 68.1167C121.161 68.1167 121.188 68.1275 121.207 68.1469C121.217 68.1558 121.225 68.1668 121.23 68.179C121.236 68.1913 121.239 68.2045 121.239 68.2179C121.239 68.2313 121.236 68.2445 121.23 68.2567C121.225 68.269 121.217 68.2799 121.207 68.2889C120.385 69.1947 117.006 69.621 113.952 69.621Z" fill="white"/>
<path id="Vector_77" d="M113.849 68.8965C111.738 68.8965 109.78 68.694 108.918 68.3175C108.562 68.1612 108.395 67.9622 108.416 67.7598C108.42 67.7328 108.434 67.7082 108.455 67.691C108.476 67.6738 108.503 67.6654 108.53 67.6674C108.557 67.671 108.581 67.6849 108.598 67.7061C108.615 67.7274 108.622 67.7543 108.619 67.7811C108.619 67.9338 108.851 68.0653 109 68.1363C111.079 69.0492 119.591 68.9462 120.962 67.4259C120.981 67.4076 121.006 67.3975 121.033 67.3975C121.059 67.3975 121.085 67.4076 121.104 67.4259C121.122 67.445 121.133 67.4705 121.133 67.4969C121.133 67.5234 121.122 67.5488 121.104 67.568C120.282 68.4702 116.907 68.8965 113.849 68.8965Z" fill="white"/>
<path id="Vector_78" opacity="0.2" d="M115.7 92.8057C116.024 88.0778 115.7 80.9985 112.802 77.0308C113.564 82.0606 115.7 92.8057 115.7 92.8057Z" fill="black"/>
<path id="Vector_79" d="M116.747 41.7903C116.501 43.5663 116.341 46.8094 117.651 47.9425C114.883 49.1747 112.562 51.2273 111.004 53.8213C109.267 49.8678 112.136 48.1379 112.136 48.1379C114.087 47.598 113.952 46.1416 113.528 44.7812L116.747 41.7903Z" fill="#FFB573"/>
<path id="Vector_80" opacity="0.2" d="M115.433 43.0122L113.528 44.7883C113.631 45.1034 113.707 45.4266 113.756 45.7544C114.504 45.6195 115.497 44.7598 115.536 43.9784C115.562 43.6527 115.527 43.3251 115.433 43.0122Z" fill="black"/>
<path id="Vector_81" d="M117.48 37.865C117.629 40.799 117.754 42.0423 116.455 43.6727C114.5 46.1272 110.873 45.5908 109.851 42.742C108.932 40.1738 108.843 35.8047 111.56 34.3839C114.276 32.9631 117.327 34.9274 117.48 37.865Z" fill="#FFB573"/>
<path id="Vector_82" d="M114.717 35.5455C114.497 38.6394 117.85 41.2999 118.9 40.1242C119.951 38.9484 117.363 33.4355 114.717 35.5455Z" fill="#263238"/>
<path id="Vector_83" d="M110.05 35.297C113.838 38.1706 118.256 38.1564 117.975 36.0607C117.693 33.9649 112.296 32.1072 110.05 35.297Z" fill="#263238"/>
<path id="Vector_84" d="M112.941 39.0408C112.969 39.2788 112.862 39.4848 112.706 39.499C112.549 39.5132 112.396 39.3321 112.371 39.0941C112.346 38.8561 112.449 38.6536 112.61 38.6394C112.77 38.6252 112.916 38.8135 112.941 39.0408Z" fill="#263238"/>
<path id="Vector_85" d="M109.979 39.3534C110.007 39.5914 109.901 39.7974 109.74 39.8116C109.58 39.8258 109.434 39.6446 109.409 39.4066C109.384 39.1686 109.488 38.9662 109.644 38.952C109.801 38.9378 109.954 39.1154 109.979 39.3534Z" fill="#263238"/>
<path id="Vector_86" d="M109.716 38.9556L109.118 38.8455C109.118 38.8455 109.466 39.2646 109.716 38.9556Z" fill="#263238"/>
<path id="Vector_87" d="M110.915 39.467C110.761 40.0284 110.529 40.5653 110.225 41.0619C110.357 41.1373 110.504 41.1836 110.655 41.1977C110.807 41.2118 110.96 41.1934 111.104 41.1436L110.915 39.467Z" fill="#ED893E"/>
<path id="Vector_88" d="M118.434 40.5256C118.34 40.7753 118.192 41.0014 118.001 41.1885C117.811 41.3756 117.582 41.5191 117.33 41.609C116.679 41.8186 116.305 41.1188 116.447 40.3871C116.572 39.7264 117.06 38.8206 117.732 38.9343C118.405 39.048 118.697 39.8792 118.434 40.5256Z" fill="#FFB573"/>
<path id="Vector_89" d="M113.706 37.8545C113.667 37.8485 113.632 37.8283 113.607 37.7977C113.5 37.6537 113.362 37.5362 113.203 37.4542C113.044 37.3723 112.867 37.3282 112.688 37.3253C112.651 37.3283 112.613 37.3167 112.584 37.2928C112.555 37.269 112.536 37.2348 112.532 37.1974C112.53 37.1789 112.532 37.1603 112.538 37.1427C112.544 37.1252 112.554 37.1089 112.566 37.095C112.578 37.0811 112.593 37.0698 112.61 37.0617C112.627 37.0537 112.645 37.0491 112.663 37.0482C112.89 37.0454 113.115 37.0968 113.318 37.1981C113.521 37.2994 113.697 37.4478 113.831 37.6308C113.843 37.645 113.852 37.6615 113.857 37.6792C113.862 37.6969 113.863 37.7155 113.861 37.7338C113.859 37.7521 113.853 37.7698 113.843 37.7856C113.834 37.8015 113.821 37.8153 113.806 37.8261C113.778 37.8478 113.742 37.8579 113.706 37.8545Z" fill="#263238"/>
<path id="Vector_90" d="M109.096 38.334C109.062 38.3465 109.024 38.3465 108.989 38.334C108.955 38.3191 108.928 38.2916 108.913 38.2573C108.899 38.2229 108.898 38.1843 108.911 38.1493C108.994 37.9427 109.125 37.7588 109.293 37.613C109.462 37.4672 109.663 37.3636 109.879 37.311C109.917 37.3048 109.956 37.3136 109.987 37.3355C110.018 37.3574 110.04 37.3907 110.047 37.4283C110.053 37.464 110.045 37.5008 110.024 37.5307C110.004 37.5606 109.972 37.5812 109.936 37.5881C109.765 37.6314 109.606 37.7149 109.474 37.8317C109.341 37.9485 109.239 38.0951 109.175 38.2594C109.168 38.2767 109.157 38.2923 109.143 38.3051C109.13 38.318 109.114 38.3278 109.096 38.334Z" fill="#263238"/>
<path id="Vector_91" d="M112.681 38.6466L112.083 38.533C112.083 38.533 112.428 38.9521 112.681 38.6466Z" fill="#263238"/>
<path id="Vector_92" d="M117.124 63.7493L114.771 62.5522L114.226 65.5183C114.226 65.5183 116.127 65.9729 117.466 65.4152L117.676 65.06C117.729 64.4136 117.651 64.1436 117.124 63.7493Z" fill="#FFB573"/>
<path id="Vector_93" d="M112.898 63.3515L112.841 64.6551C112.832 64.8433 112.896 65.0277 113.018 65.1714C113.14 65.315 113.312 65.4072 113.5 65.4295L114.233 65.5183L114.778 62.5522L113.592 62.6339C113.408 62.6477 113.236 62.7285 113.108 62.8608C112.98 62.9931 112.905 63.1677 112.898 63.3515Z" fill="#FFB573"/>
<path id="Vector_94" d="M122.108 50.7096C122.685 52.3329 123.204 53.9491 123.671 55.6044C124.175 57.2801 124.576 58.9847 124.874 60.7088C124.952 61.1931 124.997 61.682 125.009 62.1723C125.033 62.8413 124.874 63.5042 124.55 64.0904C124.198 64.6856 123.675 65.1611 123.048 65.4544C122.538 65.69 121.991 65.8377 121.431 65.8913C120.479 65.9726 119.519 65.914 118.583 65.7173C118.14 65.6375 117.701 65.532 117.27 65.4011C116.835 65.2802 116.407 65.1355 115.988 64.9678C115.814 64.8986 115.67 64.7682 115.585 64.601C115.5 64.4339 115.478 64.2415 115.525 64.0598C115.572 63.8782 115.683 63.7198 115.839 63.6142C115.994 63.5087 116.183 63.4633 116.369 63.4866H116.412C116.793 63.5327 117.209 63.5825 117.608 63.6144C118.007 63.6464 118.416 63.6606 118.811 63.6713C119.558 63.7004 120.306 63.6347 121.036 63.4759C121.318 63.4137 121.587 63.3057 121.834 63.1562C121.975 63.0781 122.084 62.9521 122.14 62.801C122.194 62.6276 122.209 62.4444 122.183 62.2646C122.149 61.9063 122.093 61.5504 122.015 61.199C121.859 60.4388 121.659 59.6432 121.421 58.8546C121.182 58.066 120.962 57.2668 120.709 56.4711C120.207 54.8869 119.687 53.2742 119.171 51.7078C119.038 51.3187 119.065 50.8928 119.247 50.5237C119.428 50.1547 119.749 49.8727 120.139 49.7399C120.529 49.607 120.956 49.6342 121.326 49.8154C121.696 49.9966 121.978 50.317 122.111 50.7061L122.108 50.7096Z" fill="#FFB573"/>
<path id="Vector_95" d="M102.339 71.0987L99.7084 70.8892L100.338 73.8374C100.338 73.8374 102.062 73.5639 103.115 72.6723C103.233 72.5691 103.309 72.4263 103.329 72.2709C103.347 72.1611 103.336 72.0484 103.297 71.9441C103.24 71.7238 103.119 71.5254 102.948 71.3747C102.777 71.224 102.565 71.1279 102.339 71.0987Z" fill="#FFB573"/>
<path id="Vector_96" d="M98.2736 72.342L98.7222 73.5675C98.7855 73.7451 98.9142 73.892 99.0821 73.9784C99.2501 74.0648 99.4447 74.0843 99.6264 74.0328L100.338 73.8374L99.7083 70.8892L98.6403 71.4149C98.4765 71.4983 98.3488 71.6385 98.2813 71.8092C98.2137 71.98 98.211 72.1694 98.2736 72.342Z" fill="#FFB573"/>
<path id="Vector_97" d="M120.328 48.3011C122.086 49.0399 122.923 50.2335 124.375 53.5511C124.019 55.8245 120.171 57.7568 120.171 57.7568C120.171 57.7568 118.9 54.8796 118.48 53.0965C118.06 51.3133 118.548 47.5516 120.328 48.3011Z" fill="#263238"/>
<path id="Vector_98" d="M115.201 127.886C115.186 127.844 115.156 127.808 115.117 127.784C115.079 127.76 115.033 127.75 114.988 127.755L112.766 127.719C112.533 127.704 112.3 127.753 112.094 127.862C111.077 128.495 109.936 128.902 108.747 129.055C108.277 129.126 108.491 129.922 109.602 129.932C111.442 129.954 111.773 129.815 113.343 129.833C114.682 129.833 114.055 129.908 115.123 129.932C115.379 129.932 115.586 129.773 115.554 129.595L115.201 127.886Z" fill="#263238"/>
<path id="Vector_99" d="M130.652 126.551C130.625 126.514 130.587 126.486 130.543 126.473C130.5 126.459 130.453 126.461 130.41 126.476L128.249 127.005C128.021 127.048 127.81 127.154 127.64 127.311C127.117 127.915 126.394 128.842 124.899 129.066C124.425 129.137 124.639 129.932 125.75 129.943C127.59 129.964 127.822 129.282 129.345 128.902C130.645 128.579 130.057 128.799 131.079 128.547C131.328 128.49 131.488 128.277 131.41 128.114L130.652 126.551Z" fill="#263238"/>
<path id="Vector_100" d="M112.044 52.2831C112.863 51.9776 115.166 51.7964 116.205 52.7626C117.907 51.8888 118.836 49.3916 118.626 47.8642C118.227 47.5639 117.734 47.413 117.234 47.438C117.234 47.438 113.443 49.825 112.044 52.2831Z" fill="#FAFAFA"/>
<path id="Vector_101" d="M110.531 52.3116C110.531 52.3116 110.061 50.3153 112.311 48.081C112.04 47.907 111.097 48.2409 111.097 48.2409C111.097 48.2409 108.363 49.786 108.801 52.9616C109.272 52.5316 109.892 52.2989 110.531 52.3116Z" fill="#FAFAFA"/>
<path id="Vector_102" d="M113.688 41.2999C113.803 41.1917 113.906 41.0728 113.998 40.9447C114.005 40.9363 114.009 40.9266 114.012 40.9163C114.014 40.906 114.014 40.8952 114.012 40.8848C114.01 40.8744 114.006 40.8645 114 40.8559C113.994 40.8472 113.986 40.8399 113.977 40.8346C113.96 40.8204 113.94 40.8125 113.918 40.8125C113.896 40.8125 113.875 40.8204 113.859 40.8346C113.65 41.117 113.38 41.3487 113.069 41.5123C112.757 41.676 112.413 41.7673 112.061 41.7795C112.049 41.7769 112.037 41.7771 112.025 41.7799C112.013 41.7828 112.002 41.7882 111.993 41.7959C111.983 41.8036 111.976 41.8132 111.97 41.8242C111.965 41.8352 111.962 41.8472 111.962 41.8594C111.962 41.8715 111.965 41.8836 111.97 41.8945C111.976 41.9055 111.983 41.9152 111.993 41.9228C112.002 41.9305 112.013 41.936 112.025 41.9388C112.037 41.9417 112.049 41.9418 112.061 41.9393C112.663 41.9292 113.241 41.7021 113.688 41.2999Z" fill="#263238"/>
</g>
</g>
</svg>
