<svg width="177" height="71" viewBox="0 0 177 71" fill="none" xmlns="http://www.w3.org/2000/svg">
<g id="dddraw 2">
<path id="Vector" d="M104.594 14.9295C104.594 14.9295 104.937 15.0661 105.622 15.3391C106.307 15.6122 106.991 15.9551 107.674 16.3681C108.358 16.781 108.941 17.2317 109.422 17.7202C109.904 18.2086 110.351 18.7603 110.764 19.3751C111.176 19.9899 111.548 20.5755 111.88 21.1321C112.212 21.6886 112.545 22.3312 112.878 23.0597C113.211 23.7882 113.441 24.5493 113.569 25.3431C113.698 26.1368 113.77 26.9945 113.787 27.916C113.804 28.8376 113.817 29.7815 113.826 30.7479C113.835 31.7142 113.753 32.627 113.579 33.4861C113.406 34.3453 113.255 35.0995 113.128 35.7489C113.001 36.3983 112.866 37.0619 112.724 37.7398C112.583 38.4177 112.421 39.1245 112.239 39.86C112.057 40.5956 111.825 41.2741 111.541 41.8955C111.257 42.5169 110.96 43.1576 110.649 43.8177C110.339 44.4777 110.01 45.0799 109.664 45.6245C109.318 46.169 108.955 46.7545 108.575 47.3811C108.195 48.0077 107.798 48.6148 107.383 49.2025C106.967 49.7901 106.565 50.3923 106.176 51.009C105.788 51.6257 105.424 52.2011 105.085 52.7352C104.747 53.2692 104.272 53.9697 103.661 54.8365C103.051 55.7034 102.477 56.3565 101.94 56.7959C101.402 57.2352 100.73 57.6911 99.9228 58.1636C99.1155 58.6361 98.2605 58.9793 97.3577 59.1931C96.4549 59.4069 95.3721 59.5925 94.1092 59.7498C92.8464 59.9071 91.6361 59.9252 90.4785 59.8041C89.321 59.683 88.1808 59.4883 87.0581 59.22C85.9354 58.9516 84.8981 58.6295 83.9463 58.2537C82.9945 57.8778 82.0083 57.4349 80.9878 56.925C79.9672 56.415 79.0798 55.8782 78.3254 55.3146C77.571 54.751 76.8 54.1668 76.0124 53.5621C75.2248 52.9574 74.5254 52.348 73.9142 51.7338C73.303 51.1197 72.6977 50.4364 72.0983 49.684C71.4989 48.9316 70.9297 48.1554 70.3909 47.3554C69.852 46.5555 69.4414 45.8095 69.1591 45.1176C68.8768 44.4256 68.5934 43.6446 68.309 42.7746C68.0245 41.9046 67.7693 40.9818 67.5433 40.0062C67.3174 39.0307 67.1264 38.228 66.9703 37.5981C66.8143 36.9683 66.6792 36.216 66.5652 35.3412C66.4511 34.4665 66.3852 33.5726 66.3675 32.6597C66.3498 31.7467 66.3421 30.8631 66.3447 30.0088C66.3472 29.1544 66.474 28.2942 66.725 27.4279C66.9761 26.5617 67.3091 25.7209 67.724 24.9056C68.1389 24.0903 68.5264 23.3751 68.8865 22.7601C69.2466 22.1451 69.6262 21.5948 70.0252 21.1093C70.4242 20.6237 70.8996 20.1222 71.4513 19.6046C72.003 19.087 72.5535 18.6367 73.1026 18.2536C73.6517 17.8705 74.2914 17.4625 75.0214 17.0295C75.7515 16.5966 76.4562 16.1597 77.1354 15.719C77.8146 15.2783 78.5154 14.9039 79.2376 14.5959C79.9598 14.2879 80.698 14.0213 81.452 13.7959C82.206 13.5706 82.9972 13.3324 83.8255 13.0815C84.6538 12.8305 85.3964 12.6605 86.0533 12.5715C86.7101 12.4826 87.4081 12.3452 88.147 12.1595C88.886 11.9738 89.6562 11.8709 90.4576 11.8509C91.259 11.8309 92.0882 11.8236 92.9454 11.8289C93.8025 11.8342 94.6133 11.8434 95.3776 11.8564C96.1419 11.8694 96.8354 11.9771 97.4581 12.1794C98.0808 12.3818 98.6942 12.6064 99.2985 12.8532C99.9028 13.1 100.461 13.4258 100.972 13.8305C101.484 14.2353 101.854 14.5011 102.083 14.6281C102.312 14.7551 102.555 14.8422 102.813 14.8895C103.07 14.9368 103.329 14.9417 103.588 14.9043C103.847 14.8668 104.093 14.789 104.327 14.6708C104.56 14.5526 104.769 14.4002 104.953 14.2136C105.136 14.027 105.285 13.816 105.4 13.5806C105.514 13.3451 105.588 13.0976 105.621 12.8379C105.654 12.5783 105.645 12.3201 105.594 12.0634C105.542 11.8067 105.451 11.565 105.321 11.3382C105.19 11.1113 105.026 10.9113 104.83 10.7381C104.634 10.5649 104.415 10.4275 104.174 10.326C103.933 10.2246 103.681 10.1643 103.42 10.1451C103.159 10.126 102.902 10.1491 102.648 10.2143C102.395 10.2796 102.158 10.3836 101.939 10.5264C101.72 10.6692 101.529 10.8432 101.366 11.0486C101.204 11.254 101.079 11.4799 100.99 11.7263C100.902 11.9728 100.856 12.2269 100.851 12.4886C100.846 12.7503 100.883 13.006 100.962 13.2556C101.041 13.5052 101.157 13.7357 101.312 13.947C101.466 14.1584 101.65 14.3395 101.864 14.4905C102.078 14.6414 102.31 14.7543 102.561 14.8291C102.812 14.9039 103.068 14.9366 103.33 14.9274C103.592 14.9181 103.845 14.8673 104.09 14.775C104.335 14.6827 104.559 14.5538 104.761 14.3881C104.964 14.2224 105.135 14.0287 105.274 13.807C105.413 13.5852 105.513 13.3471 105.574 13.0925C105.635 12.838 105.654 12.5803 105.631 12.3196C105.607 12.0589 105.543 11.8087 105.438 11.5691C105.332 11.3295 105.191 11.113 105.015 10.9196C104.838 10.7262 104.75 10.6296 104.75 10.6298C104.751 10.6299 104.658 10.5705 104.472 10.4516C104.286 10.3327 103.9 10.0794 103.315 9.69173C102.73 9.30406 101.981 8.92436 101.069 8.55261C100.157 8.18086 99.3375 7.90615 98.6107 7.72849C97.8838 7.55082 97.1682 7.43873 96.4637 7.39222C95.7593 7.34571 95.0579 7.32741 94.3596 7.33733C93.6612 7.34725 92.8688 7.36035 91.9822 7.37663C91.0957 7.39291 90.3033 7.4255 89.6052 7.47441C88.907 7.52332 88.1825 7.64295 87.4316 7.8333C86.6807 8.02365 85.895 8.18484 85.0745 8.31687C84.254 8.44891 83.4398 8.63502 82.632 8.8752C81.8242 9.11539 81.0201 9.3539 80.2196 9.59073C79.4191 9.82755 78.6462 10.0969 77.9009 10.3987C77.1556 10.7005 76.4528 11.0527 75.7926 11.4553C75.1323 11.8578 74.4797 12.2763 73.8345 12.7108C73.1894 13.1453 72.4512 13.6145 71.6199 14.1184C70.7886 14.6224 70.057 15.1459 69.425 15.689C68.7931 16.2321 68.1569 16.838 67.5165 17.5065C66.8762 18.1751 66.3263 18.8541 65.8668 19.5436C65.4074 20.2331 64.9934 20.9204 64.6249 21.6053C64.2564 22.2902 63.8968 23.0626 63.5462 23.9225C63.1957 24.7823 62.9339 25.5568 62.761 26.246C62.588 26.9352 62.4652 27.7147 62.3924 28.5845C62.3196 29.4543 62.291 30.3701 62.3065 31.332C62.322 32.2939 62.3661 33.3213 62.4386 34.4143C62.5112 35.5073 62.6607 36.5582 62.8871 37.567C63.1135 38.5758 63.2754 39.415 63.3728 40.0844C63.4702 40.7539 63.6862 41.5957 64.0209 42.6097C64.3555 43.6238 64.6792 44.572 64.992 45.4544C65.3047 46.3368 65.7478 47.2608 66.3213 48.2263C66.8947 49.1918 67.4955 50.0945 68.1237 50.9344C68.7519 51.7743 69.4294 52.6059 70.1564 53.4291C70.8834 54.2524 71.6641 55.0104 72.4984 55.7032C73.3327 56.396 74.1572 57.0355 74.9718 57.6216C75.7865 58.2077 76.7054 58.7911 77.7287 59.3716C78.7519 59.9522 79.836 60.5005 80.9809 61.0166C82.1259 61.5327 83.2782 61.9665 84.4381 62.318C85.5979 62.6695 86.5192 62.9238 87.2019 63.0807C87.8846 63.2377 88.5693 63.3643 89.256 63.4604C89.9427 63.5566 90.6674 63.6267 91.4303 63.6709C92.1931 63.7151 92.948 63.7061 93.6948 63.6439C94.4416 63.5817 95.1322 63.508 95.7665 63.4226C96.4009 63.3373 97.0473 63.2294 97.7058 63.0992C98.3643 62.9689 98.9956 62.7961 99.5997 62.581C100.204 62.3658 100.988 61.961 101.954 61.3666C102.919 60.7723 103.807 60.0826 104.619 59.2975C105.431 58.5125 106.132 57.6736 106.724 56.7808C107.315 55.888 107.777 55.174 108.11 54.6389C108.442 54.1038 108.783 53.5599 109.132 53.0072C109.481 52.4545 109.895 51.8534 110.375 51.2041C110.854 50.5548 111.283 49.9295 111.662 49.3282C112.042 48.727 112.446 48.0956 112.875 47.4341C113.304 46.7725 113.687 46.1102 114.024 45.4469C114.36 44.7837 114.727 44.0475 115.124 43.2382C115.521 42.429 115.841 41.6345 116.083 40.8549C116.326 40.0753 116.539 39.3358 116.722 38.6363C116.905 37.9368 117.143 37.0014 117.436 35.8302C117.729 34.6589 117.919 33.5139 118.005 32.3952C118.092 31.2765 118.135 30.2373 118.135 29.2775C118.134 28.3177 118.109 27.4903 118.057 26.795C118.006 26.0998 117.926 25.4309 117.816 24.7881C117.705 24.1454 117.527 23.4593 117.281 22.7299C117.035 22.0004 116.747 21.3491 116.418 20.776C116.089 20.2029 115.744 19.6401 115.383 19.0877C115.022 18.5353 114.538 17.838 113.933 16.9957C113.328 16.1533 112.676 15.4125 111.979 14.773C111.282 14.1336 110.465 13.5512 109.53 13.0258C108.595 12.5004 107.791 12.0881 107.117 11.789C106.443 11.4899 106.03 11.3189 105.88 11.276C105.729 11.2331 105.576 11.2088 105.42 11.2032C105.263 11.1975 105.108 11.2107 104.955 11.2426C104.802 11.2746 104.655 11.3244 104.514 11.3921C104.373 11.4598 104.242 11.5434 104.121 11.6429C104 11.7423 103.893 11.8548 103.8 11.9803C103.706 12.1058 103.629 12.2407 103.568 12.3849C103.508 12.5291 103.465 12.6785 103.441 12.8331C103.416 12.9876 103.411 13.1429 103.424 13.2988C103.437 13.4547 103.469 13.6068 103.519 13.755C103.569 13.9032 103.637 14.0432 103.721 14.1751C103.805 14.307 103.904 14.4269 104.017 14.5348C104.13 14.6427 104.255 14.7355 104.391 14.8131C104.527 14.8908 104.594 14.9296 104.594 14.9295Z" fill="#121212"/>
<path id="Vector_2" d="M104.262 27.0491C104.262 27.0491 104.33 27.2466 104.467 27.6415C104.603 28.0364 104.359 28.4835 103.734 28.9829C103.11 29.4822 103.121 29.5413 103.768 29.1603C104.416 28.7792 104.865 28.5127 105.116 28.3606C105.367 28.2085 105.593 28.052 105.792 27.891C105.992 27.7301 106.161 27.5415 106.299 27.3252C106.436 27.1089 106.536 26.8763 106.598 26.6273C106.659 26.3783 106.679 26.126 106.658 25.8704C106.637 25.6148 106.576 25.3693 106.474 25.1338C106.372 24.8983 106.236 24.6853 106.064 24.4946C105.893 24.3039 105.695 24.1456 105.472 24.0197C105.248 23.8938 105.011 23.8069 104.759 23.7589C104.507 23.7109 104.254 23.7044 104 23.7394C103.745 23.7744 103.504 23.849 103.274 23.9633C103.044 24.0776 102.839 24.2256 102.658 24.4072C102.477 24.5888 102.33 24.7946 102.216 25.0245C102.102 25.2545 102.028 25.4965 101.994 25.7507C101.96 26.0049 101.967 26.2579 102.016 26.5097C102.065 26.7615 102.152 26.9989 102.279 27.222C102.405 27.4451 102.564 27.6421 102.755 27.8131C102.946 27.9841 103.16 28.1201 103.396 28.2211C103.631 28.3221 103.877 28.3828 104.133 28.4032C104.388 28.4236 104.641 28.4027 104.889 28.3404C105.138 28.2781 105.371 28.1778 105.587 28.0393C105.802 27.9008 105.991 27.7315 106.151 27.5314C106.311 27.3312 106.436 27.1107 106.524 26.8698C106.612 26.6289 106.659 26.3803 106.666 26.1239C106.672 25.8675 106.637 25.6168 106.562 25.3717C106.486 25.1267 106.373 24.9001 106.223 24.692C106.073 24.484 105.894 24.3053 105.686 24.156C105.477 24.0067 105.25 23.8946 105.005 23.8197C104.76 23.7448 104.509 23.7111 104.252 23.7184C103.996 23.7258 103.747 23.7739 103.507 23.8628C103.266 23.9516 103.146 23.9959 103.146 23.9958C103.146 23.9957 102.979 24.1151 102.644 24.3541C102.309 24.593 101.918 24.9313 101.473 25.369C101.027 25.8066 100.618 26.298 100.245 26.843C99.8715 27.388 99.7351 28.0007 99.8355 28.681C99.9358 29.3613 100.186 30.0063 100.586 30.6159C100.986 31.2256 101.466 31.7483 102.028 32.184C102.589 32.6197 103.213 32.9307 103.9 33.1169C104.587 33.3031 105.294 33.3149 106.02 33.1521C106.746 32.9893 107.351 32.6441 107.836 32.1166C108.32 31.5892 108.61 30.9807 108.706 30.2913C108.802 29.6019 108.771 28.8627 108.615 28.0737C108.458 27.2847 108.305 26.6943 108.155 26.3025C108.006 25.9107 107.896 25.6448 107.825 25.5049C107.754 25.365 107.667 25.2356 107.564 25.1168C107.462 24.9979 107.347 24.8931 107.219 24.8022C107.091 24.7113 106.954 24.6371 106.808 24.5794C106.662 24.5218 106.512 24.4825 106.356 24.4614C106.201 24.4404 106.045 24.4382 105.889 24.455C105.733 24.4718 105.581 24.507 105.434 24.5606C105.286 24.6142 105.148 24.6847 105.017 24.7721C104.887 24.8594 104.769 24.9611 104.663 25.0771C104.558 25.1931 104.467 25.3201 104.393 25.458C104.318 25.5959 104.261 25.7407 104.221 25.8925C104.181 26.0443 104.161 26.1987 104.158 26.3555C104.156 26.5124 104.173 26.6673 104.208 26.8201C104.244 26.9729 104.262 27.0492 104.262 27.0491Z" fill="#121212"/>
<path id="Vector_3" d="M78.4014 25.9037C78.4014 25.9037 78.5238 26.0317 78.7685 26.2876C79.0133 26.5434 79.1468 27.0388 79.1691 27.7736C79.1914 28.5084 78.9028 28.6033 78.3031 28.0583C77.7035 27.5132 77.5281 27.1945 77.7768 27.1021C78.0256 27.0098 78.2782 26.9332 78.5348 26.8726C78.7914 26.8119 79.0315 26.7118 79.2553 26.5724C79.479 26.433 79.6747 26.2615 79.8422 26.0579C80.0097 25.8544 80.1403 25.6294 80.2341 25.383C80.3278 25.1366 80.3798 24.8816 80.3899 24.6182C80.4001 24.3548 80.368 24.0966 80.2935 23.8437C80.219 23.5908 80.1061 23.3564 79.9547 23.1406C79.8034 22.9247 79.6215 22.7386 79.4092 22.5824C79.1968 22.4262 78.9651 22.3079 78.714 22.2276C78.4629 22.1474 78.2055 22.1093 77.9419 22.1134C77.6783 22.1176 77.4223 22.1637 77.1738 22.2518C76.9253 22.3398 76.6974 22.4653 76.49 22.6281C76.2827 22.7909 76.1067 22.9826 75.9622 23.2031C75.8177 23.4236 75.7122 23.6614 75.6457 23.9165C75.5791 24.1716 75.5551 24.4306 75.5735 24.6936C75.5919 24.9566 75.6518 25.2098 75.7532 25.4531C75.8546 25.6965 75.9923 25.9173 76.1661 26.1155C76.3399 26.3137 76.5408 26.479 76.7688 26.6114C76.9968 26.7437 77.24 26.8362 77.4983 26.8888C77.7566 26.9414 78.0166 26.9514 78.2782 26.9188C78.5398 26.8861 78.7894 26.8126 79.0269 26.6981C79.2644 26.5837 79.4774 26.4343 79.6659 26.25C79.8544 26.0657 80.0085 25.8561 80.1283 25.6213C80.2481 25.3864 80.3273 25.1386 80.3658 24.8778C80.4044 24.617 80.4003 24.3569 80.3535 24.0974C80.3067 23.8379 80.2198 23.5927 80.0926 23.3618C79.9655 23.1309 79.8048 22.9263 79.6105 22.748C79.4163 22.5698 79.1986 22.4272 78.9577 22.3203C78.7167 22.2134 78.4649 22.1478 78.2024 22.1235C77.9399 22.0991 77.8088 22.0869 77.809 22.0869C77.8092 22.0869 77.5962 22.1632 77.17 22.3159C76.7437 22.4686 76.177 22.6909 75.4697 22.983C74.7623 23.2752 74.1597 23.7673 73.6618 24.4595C73.1639 25.1517 72.8713 25.9543 72.7839 26.8671C72.6966 27.78 72.8401 28.5635 73.2146 29.2176C73.589 29.8717 74.0376 30.3889 74.5604 30.7693C75.0832 31.1497 75.6209 31.5343 76.1735 31.9233C76.7261 32.3122 77.3121 32.5412 77.9314 32.6102C78.5508 32.6792 79.1725 32.6762 79.7967 32.6013C80.4208 32.5265 81.085 32.1898 81.7892 31.5913C82.4935 30.9928 82.9608 30.1843 83.1911 29.1657C83.4215 28.1472 83.4773 27.2956 83.3587 26.6109C83.24 25.9261 82.9746 25.297 82.5624 24.7233C82.1503 24.1497 81.8163 23.7405 81.5604 23.4957C81.3045 23.2509 81.1145 23.0799 80.9904 22.9826C80.8663 22.8854 80.7323 22.8044 80.5885 22.7397C80.4447 22.675 80.2952 22.6284 80.1401 22.6C79.985 22.5716 79.8287 22.5621 79.6713 22.5716C79.5139 22.5812 79.3599 22.6094 79.2094 22.6563C79.0588 22.7032 78.9161 22.7675 78.7811 22.8491C78.6462 22.9307 78.5229 23.0272 78.4114 23.1387C78.2999 23.2502 78.2034 23.3735 78.1218 23.5084C78.0402 23.6434 77.976 23.7861 77.9291 23.9367C77.8822 24.0873 77.854 24.2413 77.8445 24.3987C77.835 24.5561 77.8444 24.7123 77.8729 24.8674C77.9013 25.0226 77.9479 25.172 78.0126 25.3158C78.0773 25.4596 78.1584 25.5936 78.2556 25.7177C78.3529 25.8418 78.4014 25.9038 78.4014 25.9037Z" fill="#121212"/>
<path id="Vector_4" d="M100.1 37.8758C100.1 37.8758 99.9048 38.1275 99.5149 38.6308C99.1249 39.1342 98.6245 39.7216 98.0137 40.3933C97.4028 41.0649 96.7054 41.6827 95.9213 42.2467C95.1372 42.8108 94.3354 43.3555 93.516 43.8809C92.6965 44.4063 91.993 44.8047 91.4054 45.0762C90.8178 45.3477 90.1786 45.5468 89.4878 45.6735C88.7969 45.8002 88.0351 45.8466 87.2023 45.8127C86.3694 45.7789 85.5918 45.6137 84.8693 45.3172C84.1468 45.0207 83.4463 44.6509 82.7678 44.2076C82.0894 43.7644 81.5447 43.21 81.134 42.5444C80.7232 41.8787 80.4232 41.1969 80.234 40.4989C80.0448 39.8009 79.8609 39.4673 79.6824 39.4982C79.5038 39.5291 79.4891 39.4524 79.6382 39.2681C79.7874 39.0838 79.9032 38.8805 79.9857 38.6583C80.0681 38.436 80.113 38.2064 80.1202 37.9694C80.1274 37.7325 80.0966 37.5006 80.0277 37.2737C79.9589 37.0468 79.8556 36.8369 79.718 36.6439C79.5803 36.4509 79.4154 36.2849 79.2233 36.146C79.0312 36.0071 78.8219 35.9024 78.5955 35.8321C78.3691 35.7618 78.1374 35.7295 77.9004 35.7351C77.6634 35.7408 77.4335 35.7841 77.2107 35.8651C76.9879 35.9462 76.7839 36.0606 76.5986 36.2086C76.4134 36.3565 76.2566 36.5302 76.1283 36.7295C76 36.9288 75.9068 37.1435 75.8489 37.3733C75.7909 37.6032 75.7712 37.8363 75.7897 38.0727C75.8082 38.309 75.8639 38.5363 75.9569 38.7543C76.0499 38.9724 76.1752 39.1699 76.333 39.3469C76.4907 39.5239 76.6726 39.671 76.8786 39.7883C77.0846 39.9057 77.304 39.987 77.5367 40.0325C77.7694 40.0779 78.0032 40.0849 78.2382 40.0537C78.4732 40.0224 78.6971 39.9544 78.9098 39.8498C79.1225 39.7451 79.3129 39.6092 79.4811 39.4421C79.6493 39.275 79.7863 39.0854 79.8923 38.8733C79.9983 38.6613 80.0677 38.4378 80.1004 38.203C80.1332 37.9682 80.1275 37.7344 80.0836 37.5014C80.0396 37.2684 79.9596 37.0486 79.8436 36.8418C79.7275 36.6351 79.5815 36.4523 79.4056 36.2935C79.2296 36.1346 79.0328 36.008 78.8153 35.9137C78.5979 35.8193 78.371 35.7622 78.1348 35.7422C77.8985 35.7222 77.6653 35.7405 77.4351 35.797C77.2048 35.8535 76.9896 35.9453 76.7895 36.0724C76.5893 36.1995 76.4894 36.2629 76.4895 36.2628C76.4897 36.2627 76.3572 36.8852 76.0919 38.1304C75.8267 39.3756 75.8013 40.372 76.0158 41.1195C76.2302 41.867 76.5119 42.6326 76.8609 43.4162C77.2099 44.1999 77.7196 44.9734 78.3898 45.7369C79.0601 46.5003 79.8203 47.1497 80.6705 47.6849C81.5206 48.2201 82.2417 48.6303 82.8336 48.9156C83.4255 49.2008 84.0241 49.4199 84.6293 49.5726C85.2346 49.7254 86.1484 49.8137 87.3708 49.8374C88.5932 49.861 89.6086 49.7837 90.4169 49.6054C91.2253 49.4271 92.1001 49.1094 93.0414 48.6525C93.9828 48.1956 94.8906 47.6784 95.7649 47.1009C96.6391 46.5235 97.5368 45.8894 98.4579 45.1985C99.379 44.5076 100.191 43.7611 100.893 42.9591C101.596 42.1571 102.145 41.5072 102.542 41.0092C102.939 40.5113 103.177 40.196 103.258 40.0632C103.338 39.9305 103.402 39.7901 103.448 39.642C103.495 39.4939 103.522 39.3424 103.532 39.1875C103.542 39.0326 103.533 38.8787 103.505 38.726C103.477 38.5733 103.431 38.4262 103.368 38.2846C103.304 38.1429 103.225 38.011 103.129 37.8887C103.034 37.7664 102.925 37.6573 102.803 37.5614C102.681 37.4655 102.549 37.3856 102.408 37.3217C102.266 37.2578 102.119 37.2118 101.967 37.1836C101.814 37.1554 101.66 37.1459 101.505 37.1551C101.35 37.1643 101.199 37.1918 101.05 37.2378C100.902 37.2838 100.762 37.3468 100.629 37.427C100.496 37.5071 100.374 37.6019 100.264 37.7115C100.155 37.8212 100.1 37.8758 100.1 37.8758Z" fill="#121212"/>
<path id="Vector_5" d="M160.224 61.9775C160.224 61.9775 159.485 61.7837 158.007 61.3961C156.529 61.0085 155.097 60.631 153.713 60.2638C152.329 59.8966 150.829 59.4625 149.213 58.9617C147.597 58.4608 145.919 57.8607 144.177 57.1613C142.435 56.4619 140.772 55.8189 139.187 55.2325C137.602 54.646 136.208 54.1239 135.003 53.666C133.799 53.2082 132.83 52.7966 132.098 52.4313C131.365 52.0661 130.692 51.6807 130.078 51.2751C129.464 50.8696 129.091 50.647 128.96 50.6074C128.829 50.5679 128.695 50.5503 128.558 50.5547C128.421 50.559 128.288 50.5852 128.16 50.6331C128.031 50.681 127.914 50.7481 127.808 50.8345C127.701 50.9208 127.611 51.0219 127.538 51.1377C127.465 51.2536 127.412 51.378 127.38 51.5112C127.347 51.6443 127.337 51.7791 127.349 51.9157C127.361 52.0522 127.394 52.1832 127.449 52.3088C127.504 52.4344 127.577 52.548 127.669 52.6495C127.761 52.7511 127.867 52.8352 127.986 52.9021C128.106 52.9689 128.233 53.0149 128.368 53.0401C128.503 53.0652 128.638 53.0682 128.773 53.049C128.909 53.0298 129.038 52.9895 129.161 52.928C129.283 52.8665 129.392 52.787 129.489 52.6897C129.585 52.5923 129.664 52.4821 129.724 52.359C129.784 52.2359 129.823 52.1065 129.841 51.9706C129.859 51.8348 129.854 51.6996 129.828 51.5652C129.801 51.4307 129.754 51.304 129.686 51.1851C129.618 51.0662 129.533 50.9612 129.43 50.8702C129.328 50.7793 129.214 50.707 129.087 50.6535C128.961 50.6 128.83 50.5681 128.693 50.5576C128.557 50.5472 128.422 50.5589 128.289 50.5926C128.156 50.6264 128.032 50.6805 127.917 50.7549C127.802 50.8292 127.702 50.9201 127.617 51.0273C127.531 51.1345 127.466 51.2526 127.419 51.3815C127.372 51.5103 127.348 51.6432 127.345 51.7802C127.342 51.9172 127.36 52.0511 127.401 52.1819C127.442 52.3127 127.503 52.4335 127.584 52.5444C127.664 52.6552 127.76 52.7503 127.872 52.8297C127.984 52.909 128.039 52.9487 128.039 52.9486C128.039 52.9486 128.382 53.1055 129.069 53.4193C129.755 53.7332 130.494 54.049 131.286 54.3667C132.077 54.6845 133.075 55.0814 134.279 55.5575C135.483 56.0337 136.863 56.5724 138.421 57.1738C139.979 57.7752 141.648 58.4505 143.43 59.1997C145.212 59.949 146.916 60.5995 148.543 61.1512C150.169 61.703 151.664 62.1922 153.028 62.6188C154.392 63.0455 155.801 63.4941 157.255 63.9648C158.709 64.4354 159.492 64.6799 159.603 64.6983C159.714 64.7167 159.826 64.7215 159.938 64.7128C160.051 64.704 160.161 64.6819 160.268 64.6465C160.375 64.6111 160.476 64.5634 160.571 64.5034C160.667 64.4434 160.754 64.3729 160.832 64.2918C160.91 64.2107 160.978 64.1214 161.035 64.0239C161.091 63.9264 161.135 63.8235 161.167 63.7153C161.199 63.6071 161.217 63.4966 161.222 63.384C161.227 63.2713 161.218 63.1598 161.196 63.0492C161.173 62.9387 161.138 62.8324 161.09 62.7304C161.042 62.6284 160.983 62.5336 160.912 62.4461C160.84 62.3586 160.76 62.2808 160.67 62.2128C160.58 62.1449 160.483 62.0886 160.38 62.0442C160.276 61.9997 160.224 61.9775 160.224 61.9775Z" fill="#121212"/>
<path id="Vector_6" d="M156.742 65.3377C156.742 65.3377 156.089 64.9958 154.784 64.312C153.479 63.6282 151.865 62.9037 149.942 62.1386C148.02 61.3735 146.001 60.653 143.887 59.9771C141.774 59.3013 139.605 58.644 137.382 58.0053C135.159 57.3667 132.897 56.7175 130.596 56.0579C128.296 55.3983 126.189 54.8042 124.278 54.2756C122.367 53.747 120.718 53.2996 119.33 52.9334C117.943 52.5672 116.848 52.2692 116.047 52.0395C115.245 51.8098 114.704 52.0308 114.425 52.7025C114.146 53.3741 114.07 53.6996 114.199 53.6789C114.328 53.6582 114.45 53.6174 114.565 53.5567C114.68 53.496 114.783 53.4184 114.873 53.3241C114.963 53.2297 115.035 53.1235 115.09 53.0053C115.145 52.8872 115.18 52.7634 115.195 52.6339C115.209 52.5044 115.202 52.3759 115.175 52.2486C115.147 52.1212 115.1 52.0016 115.033 51.8898C114.966 51.7779 114.883 51.6797 114.784 51.5951C114.685 51.5104 114.575 51.4438 114.454 51.3953C114.333 51.3467 114.207 51.3187 114.077 51.3113C113.947 51.3039 113.819 51.3175 113.694 51.352C113.568 51.3865 113.451 51.4402 113.343 51.513C113.235 51.5859 113.141 51.6741 113.062 51.7776C112.983 51.8811 112.923 51.9946 112.881 52.118C112.839 52.2414 112.818 52.3682 112.817 52.4986C112.817 52.6289 112.837 52.7558 112.879 52.8794C112.92 53.0031 112.98 53.1168 113.058 53.2208C113.137 53.3247 113.23 53.4134 113.338 53.4868C113.445 53.5603 113.562 53.6146 113.688 53.6498C113.813 53.6849 113.941 53.6992 114.071 53.6925C114.201 53.6858 114.327 53.6584 114.448 53.6105C114.569 53.5626 114.68 53.4966 114.779 53.4125C114.879 53.3283 114.962 53.2305 115.03 53.119C115.097 53.0075 115.145 52.8882 115.173 52.761C115.202 52.6338 115.209 52.5054 115.195 52.3758C115.181 52.2462 115.147 52.1222 115.093 52.0038C115.039 51.8854 114.967 51.7788 114.877 51.6839C114.788 51.5891 114.686 51.511 114.571 51.4497C114.456 51.3883 114.334 51.347 114.205 51.3256C114.077 51.3042 114.013 51.2935 114.013 51.2935C114.013 51.2935 114.067 51.7101 114.176 52.5434C114.284 53.3768 114.74 53.8717 115.542 54.0283C116.345 54.1848 117.434 54.4502 118.812 54.8245C120.189 55.1988 121.828 55.6563 123.729 56.197C125.63 56.7376 127.727 57.3471 130.021 58.0254C132.315 58.7037 134.558 59.372 136.752 60.0303C138.945 60.6885 141.067 61.3641 143.117 62.0569C145.168 62.7498 147.102 63.4825 148.92 64.2551C150.738 65.0277 152.281 65.7873 153.551 66.5339C154.821 67.2805 155.505 67.6739 155.603 67.714C155.702 67.7541 155.804 67.7818 155.909 67.7972C156.015 67.8125 156.12 67.815 156.226 67.8047C156.332 67.7944 156.435 67.7715 156.536 67.7361C156.636 67.7008 156.731 67.6539 156.82 67.5955C156.909 67.5371 156.99 67.469 157.062 67.391C157.135 67.313 157.197 67.2274 157.248 67.1344C157.3 67.0413 157.34 66.9434 157.368 66.8407C157.396 66.738 157.411 66.6334 157.413 66.5269C157.416 66.4205 157.406 66.3153 157.383 66.2114C157.36 66.1074 157.325 66.0078 157.277 65.9124C157.23 65.8169 157.172 65.7286 157.103 65.6472C157.035 65.5659 156.957 65.494 156.871 65.4314C156.785 65.3689 156.742 65.3377 156.742 65.3377Z" fill="#121212"/>
<path id="Vector_7" d="M61.9416 24.626C61.9416 24.626 61.3741 24.27 60.239 23.5579C59.1039 22.8458 57.8643 22.1381 56.5203 21.4346C55.1763 20.7312 53.8065 20.0393 52.411 19.3588C51.0155 18.6783 49.5536 17.9818 48.0252 17.2692C46.4969 16.5566 45.1235 15.9097 43.9052 15.3284C42.6868 14.7471 41.6129 14.2023 40.6835 13.6941C39.754 13.1859 38.9577 12.7245 38.2945 12.3099C37.6314 11.8953 36.9426 11.4456 36.2283 10.9608C35.514 10.4759 34.9479 10.1567 34.5299 10.0031C34.112 9.84947 33.8298 9.77147 33.6834 9.76908C33.537 9.76669 33.3941 9.78774 33.2546 9.83222C33.1151 9.8767 32.9864 9.94228 32.8684 10.029C32.7504 10.1157 32.6493 10.2189 32.5652 10.3387C32.4811 10.4586 32.4183 10.5887 32.3768 10.7291C32.3354 10.8695 32.3174 11.0129 32.323 11.1592C32.3285 11.3055 32.3573 11.4471 32.4092 11.584C32.4612 11.7208 32.5337 11.8458 32.6266 11.9589C32.7196 12.0721 32.8282 12.1674 32.9524 12.2449C33.0766 12.3224 33.2099 12.378 33.3524 12.4118C33.4948 12.4456 33.639 12.4558 33.7847 12.4423C33.9305 12.4288 34.0704 12.3925 34.2042 12.3331C34.3381 12.2738 34.4589 12.1947 34.5669 12.0957C34.6748 11.9968 34.7641 11.8832 34.8347 11.755C34.9054 11.6267 34.9537 11.4906 34.9797 11.3465C35.0058 11.2024 35.0081 11.058 34.9868 10.9131C34.9654 10.7683 34.9215 10.6306 34.855 10.5002C34.7885 10.3698 34.703 10.2533 34.5983 10.1509C34.4937 10.0486 34.3754 9.96556 34.2435 9.90195C34.1117 9.83833 33.9731 9.79744 33.8278 9.77927C33.6825 9.76109 33.5382 9.76659 33.3947 9.79575C33.2512 9.82492 33.1162 9.87622 32.9895 9.94968C32.8629 10.0231 32.7512 10.1149 32.6547 10.2249C32.5581 10.335 32.4816 10.4576 32.4253 10.5927C32.3689 10.7278 32.3356 10.8684 32.3253 11.0144C32.315 11.1605 32.3283 11.3043 32.3652 11.446C32.4021 11.5877 32.4607 11.7198 32.5409 11.8423C32.6211 11.9648 32.7187 12.0712 32.8339 12.1617C32.949 12.2522 33.0755 12.3219 33.2135 12.3708C33.3515 12.4198 33.4204 12.4443 33.4203 12.4443C33.4201 12.4442 33.5038 12.4713 33.6711 12.5255C33.8385 12.5797 34.2928 12.7907 35.034 13.1586C35.7752 13.5264 36.5022 13.8956 37.215 14.2661C37.9277 14.6365 38.7649 15.0705 39.7266 15.568C40.6883 16.0655 41.7752 16.6178 42.9872 17.225C44.1993 17.8321 45.5541 18.5044 47.0517 19.2418C48.5493 19.9792 49.9727 20.7039 51.3218 21.4158C52.6708 22.1277 53.967 22.8444 55.2103 23.5661C56.4535 24.2877 57.6161 25.0435 58.6982 25.8333C59.7802 26.6232 60.3729 27.0446 60.4761 27.0976C60.5794 27.1507 60.6875 27.1906 60.8004 27.2174C60.9134 27.2442 61.0279 27.2571 61.144 27.2561C61.2601 27.2551 61.3744 27.2402 61.4868 27.2114C61.5993 27.1826 61.7067 27.1408 61.809 27.086C61.9113 27.0311 62.0056 26.9648 62.0918 26.8871C62.178 26.8093 62.2537 26.7224 62.3188 26.6263C62.3839 26.5302 62.4365 26.4277 62.4767 26.3188C62.517 26.2099 62.5435 26.0977 62.5565 25.9824C62.5695 25.867 62.5685 25.7518 62.5535 25.6367C62.5385 25.5215 62.5099 25.4099 62.4678 25.3017C62.4257 25.1935 62.3712 25.092 62.3044 24.997C62.2376 24.9021 62.1605 24.8165 62.0729 24.7403C61.9853 24.6641 61.9416 24.626 61.9416 24.626Z" fill="#121212"/>
<path id="Vector_8" d="M58.9789 29.0075C58.9789 29.0075 58.4336 28.7572 57.3429 28.2564C56.2522 27.7557 55.1617 27.2733 54.0714 26.8093C52.9811 26.3453 51.889 25.9221 50.795 25.5397C49.7011 25.1573 48.5514 24.8179 47.3459 24.5215C46.1404 24.2251 44.9335 23.9156 43.725 23.593C42.5165 23.2704 41.3804 22.9773 40.3168 22.7138C39.2531 22.4503 38.2939 22.185 37.4391 21.9177C36.5842 21.6505 35.7761 21.3975 35.0148 21.1589C34.2536 20.9202 33.5581 20.6906 32.9285 20.4701C32.2989 20.2496 31.5352 19.9868 30.6374 19.6818C29.7396 19.3768 28.946 19.1026 28.2566 18.8591C27.5672 18.6156 27.1367 18.495 26.9653 18.4973C26.7938 18.4996 26.6272 18.5292 26.4655 18.5861C26.3037 18.643 26.1553 18.7243 26.0202 18.8299C25.8851 18.9355 25.7704 19.0599 25.6761 19.2031C25.5817 19.3463 25.5128 19.5008 25.4691 19.6666C25.4255 19.8324 25.4094 20.0009 25.421 20.1719C25.4326 20.343 25.4712 20.5078 25.5368 20.6662C25.6024 20.8246 25.6915 20.9684 25.8043 21.0976C25.917 21.2268 26.0475 21.3346 26.1956 21.421C26.3437 21.5074 26.5017 21.5679 26.6696 21.6025C26.8376 21.6372 27.0066 21.644 27.1768 21.6232C27.347 21.6024 27.5095 21.5549 27.6641 21.4808C27.8187 21.4067 27.9575 21.3099 28.0804 21.1903C28.2033 21.0707 28.3038 20.9346 28.3821 20.7821C28.4604 20.6295 28.5122 20.4684 28.5377 20.2989C28.5632 20.1293 28.5609 19.9601 28.5308 19.7913C28.5008 19.6225 28.4446 19.4629 28.3623 19.3125C28.2799 19.1621 28.1757 19.0288 28.0496 18.9125C27.9235 18.7963 27.7822 18.7033 27.6256 18.6334C27.469 18.5635 27.3054 18.5204 27.1347 18.5042C26.964 18.488 26.7952 18.4994 26.6282 18.5386C26.4613 18.5777 26.305 18.6424 26.1592 18.7328C26.0135 18.8232 25.8861 18.9345 25.7769 19.0667C25.6676 19.1989 25.5824 19.345 25.5211 19.5052C25.4598 19.6653 25.4256 19.8311 25.4187 20.0024C25.4117 20.1737 25.4323 20.3417 25.4805 20.5062C25.5286 20.6708 25.6017 20.8234 25.6999 20.964C25.798 21.1046 25.916 21.2259 26.0539 21.3278C26.1918 21.4297 26.3424 21.5069 26.5057 21.5594C26.6689 21.6119 26.7504 21.6382 26.7503 21.6382C26.7501 21.6381 27.0346 21.7069 27.6037 21.8444C28.1728 21.9818 28.9154 22.1558 29.8315 22.3662C30.7475 22.5766 31.538 22.7697 32.2028 22.9455C32.8676 23.1214 33.5849 23.3039 34.3548 23.493C35.1246 23.6821 35.9579 23.8939 36.8546 24.1283C37.7513 24.3627 38.7187 24.6018 39.757 24.8456C40.7952 25.0894 41.9207 25.3943 43.1335 25.7605C44.3463 26.1266 45.5157 26.4669 46.6417 26.7813C47.7678 27.0958 48.8439 27.4439 49.87 27.8256C50.8962 28.2074 51.928 28.6446 52.9655 29.1372C54.0029 29.6297 55.0491 30.1621 56.1041 30.7341C57.1591 31.3062 57.7412 31.6118 57.8506 31.6508C57.9599 31.6898 58.0724 31.7152 58.1879 31.7269C58.3034 31.7387 58.4186 31.7364 58.5336 31.7201C58.6486 31.7039 58.7599 31.6741 58.8677 31.6308C58.9754 31.5875 59.0764 31.5319 59.1706 31.4641C59.2649 31.3962 59.3496 31.3181 59.4249 31.2297C59.5002 31.1413 59.5638 31.0452 59.6157 30.9413C59.6676 30.8375 59.7063 30.7289 59.7319 30.6156C59.7575 30.5024 59.7691 30.3877 59.7668 30.2716C59.7645 30.1555 59.7484 30.0414 59.7184 29.9292C59.6883 29.817 59.6454 29.7101 59.5894 29.6084C59.5334 29.5066 59.466 29.4131 59.3873 29.3277C59.3086 29.2423 59.2209 29.1676 59.124 29.1036C59.0272 29.0395 58.9789 29.0075 58.9789 29.0075Z" fill="#121212"/>
<path id="Vector_9" d="M24.0036 8.5956C24.0036 8.5956 24.0965 8.49106 24.2823 8.28197C24.468 8.07288 24.8223 7.72554 25.345 7.23995C25.8676 6.75435 26.4383 6.60295 27.0571 6.78572C27.6758 6.9685 28.0182 7.41023 28.0841 8.11091C28.15 8.81158 28.0968 9.52021 27.9243 10.2368C27.7519 10.9533 27.5529 11.6966 27.3274 12.4665C27.1019 13.2365 26.8227 13.8988 26.4896 14.4536C26.1566 15.0084 25.7828 15.6197 25.3684 16.2877C24.954 16.9556 24.5417 17.5817 24.1315 18.1659C23.7212 18.7502 23.2601 19.3943 22.7481 20.0985C22.2362 20.8026 21.6887 21.3544 21.1057 21.7536C20.5226 22.1529 19.903 22.1323 19.2468 21.6919C18.5906 21.2514 18.0622 20.7309 17.6618 20.1304C17.2613 19.5298 16.875 18.9433 16.5029 18.3708C16.1308 17.7983 15.8011 17.2317 15.5139 16.6711C15.2267 16.1105 14.9779 15.4883 14.7674 14.8045C14.5569 14.1208 14.458 13.4362 14.4705 12.7508C14.483 12.0655 14.4897 11.4053 14.4903 10.7703C14.491 10.1352 14.52 9.47191 14.5773 8.78029C14.6347 8.08867 14.7717 7.43563 14.9885 6.8212C15.2053 6.20676 15.5187 6.16406 15.9285 6.6931C16.3384 7.22214 16.7434 7.93553 17.1435 8.83327C17.5437 9.73101 17.8709 10.2416 18.1252 10.3652C18.3795 10.4887 18.6468 10.5684 18.9272 10.6043C19.2076 10.6401 19.4864 10.6303 19.7635 10.5747C20.0407 10.5192 20.3018 10.4209 20.5467 10.2797C20.7916 10.1386 21.0076 9.96202 21.1947 9.75006C21.3817 9.5381 21.53 9.30182 21.6396 9.04123C21.7491 8.78065 21.8142 8.50938 21.8348 8.22745C21.8555 7.94552 21.8305 7.66768 21.7601 7.39392C21.6896 7.12016 21.5772 6.86482 21.423 6.6279C21.2688 6.39098 21.0808 6.18488 20.859 6.00961C20.6372 5.83433 20.3933 5.69905 20.1271 5.60377C19.861 5.50848 19.5866 5.45819 19.304 5.45288C19.0213 5.44756 18.7452 5.48751 18.4757 5.57273C18.2062 5.65794 17.9573 5.78396 17.7291 5.95078C17.5009 6.1176 17.3053 6.31649 17.1423 6.54745C16.9793 6.77841 16.8574 7.02934 16.7767 7.30026C16.696 7.57118 16.6606 7.84789 16.6706 8.13039C16.6806 8.4129 16.7355 8.68642 16.8352 8.95094C16.9349 9.21546 17.0742 9.45714 17.2531 9.67598C17.4321 9.89482 17.6413 10.0794 17.8807 10.2296C18.1202 10.3799 18.3773 10.4879 18.6522 10.5539C18.9271 10.6198 19.2054 10.6401 19.4869 10.6148C19.7685 10.5895 20.0386 10.5199 20.2973 10.406C20.5561 10.2921 20.7898 10.1399 20.9986 9.94936C21.2075 9.75882 21.3804 9.53993 21.5175 9.29269C21.6545 9.04545 21.7485 8.7828 21.7994 8.50474C21.8503 8.22668 21.8555 7.94776 21.815 7.668C21.7745 7.38823 21.6904 7.12226 21.5626 6.87008C21.4349 6.6179 21.2702 6.39272 21.0686 6.19453C20.8671 5.99634 20.7664 5.89732 20.7666 5.89747C20.7668 5.89762 20.8283 5.76637 20.951 5.50369C21.0738 5.24102 20.8379 4.73761 20.2434 3.99344C19.6489 3.24928 19.0538 2.70798 18.4581 2.36955C17.8623 2.03112 17.2621 1.77422 16.6575 1.59887C16.0529 1.42351 15.4033 1.34077 14.7087 1.35064C14.0141 1.36051 13.3288 1.55109 12.653 1.92237C11.9772 2.29365 11.4446 2.77693 11.0552 3.37222C10.6658 3.96751 10.3204 4.73546 10.0191 5.67609C9.71774 6.61672 9.51585 7.5935 9.41342 8.60645C9.311 9.61939 9.26008 10.4529 9.26067 11.107C9.26125 11.7611 9.27653 12.4388 9.3065 13.1401C9.33647 13.8413 9.40734 14.5021 9.51909 15.1224C9.63085 15.7427 9.79241 16.3472 10.0038 16.9359C10.2152 17.5247 10.5485 18.2163 11.0036 19.0109C11.4588 19.8054 11.941 20.5874 12.4504 21.357C12.9597 22.1266 13.4543 22.9175 13.934 23.7298C14.4137 24.542 14.9072 25.265 15.4143 25.8987C15.9215 26.5323 16.6671 27.0092 17.6511 27.3295C18.635 27.6497 19.4537 27.7252 20.1072 27.5562C20.7606 27.3871 21.3866 27.2167 21.985 27.045C22.5834 26.8733 23.1763 26.6144 23.7636 26.2681C24.3509 25.9218 24.9488 25.4001 25.5573 24.7028C26.1658 24.0055 26.6396 23.3738 26.9788 22.8078C27.318 22.2418 27.763 21.5406 28.3138 20.7043C28.8647 19.868 29.3505 19.1424 29.7713 18.5275C30.1921 17.9127 30.5503 17.2668 30.8457 16.5899C31.1412 15.9129 31.4445 15.2212 31.7554 14.5147C32.0663 13.8082 32.2862 13.1241 32.415 12.4623C32.5437 11.8005 32.6537 11.0831 32.7449 10.31C32.836 9.53695 32.8626 8.83472 32.8244 8.20332C32.7863 7.57192 32.6352 6.932 32.371 6.28356C32.1068 5.63512 31.5855 4.96255 30.8069 4.26584C30.0284 3.56914 29.1965 3.14427 28.3112 2.99125C27.4259 2.83822 26.662 2.8098 26.0196 2.90597C25.3772 3.00214 24.7218 3.22019 24.0534 3.5601C23.3851 3.90002 22.7978 4.29939 22.2915 4.75821C21.7853 5.21703 21.4463 5.55645 21.2744 5.77649C21.1026 5.99653 20.9743 6.17214 20.8895 6.30334C20.8047 6.43453 20.7368 6.57397 20.6858 6.72165C20.6349 6.86932 20.6023 7.02096 20.5882 7.17654C20.5741 7.33212 20.5788 7.48713 20.6023 7.64157C20.6258 7.79602 20.6675 7.9454 20.7273 8.08973C20.7871 8.23405 20.8633 8.36913 20.9559 8.49495C21.0484 8.62077 21.1547 8.73368 21.2748 8.83369C21.3948 8.93369 21.525 9.01788 21.6655 9.08626C21.806 9.15463 21.9526 9.20521 22.1053 9.23798C22.258 9.27075 22.4125 9.28477 22.5687 9.28003C22.7248 9.2753 22.8781 9.25194 23.0286 9.20998C23.1791 9.16801 23.3224 9.10864 23.4584 9.03188C23.5945 8.95512 23.7194 8.86319 23.8331 8.7561C23.9468 8.649 24.0036 8.59555 24.0036 8.5956Z" fill="#121212"/>
</g>
</svg>
