<svg width="177" height="71" viewBox="0 0 177 71" fill="none" xmlns="http://www.w3.org/2000/svg">
<path d="M72.4057 14.9295C72.4057 14.9295 72.0633 15.0661 71.3784 15.3391C70.6935 15.6122 70.0093 15.9551 69.3258 16.3681C68.6422 16.781 68.0595 17.2317 67.5777 17.7202C67.0958 18.2086 66.6487 18.7603 66.2364 19.3751C65.824 19.9899 65.4519 20.5755 65.1198 21.1321C64.7878 21.6886 64.4553 22.3312 64.1224 23.0597C63.7895 23.7882 63.559 24.5493 63.4308 25.3431C63.3025 26.1368 63.23 26.9945 63.2131 27.916C63.1962 28.8376 63.1832 29.7815 63.174 30.7479C63.1647 31.7142 63.247 32.627 63.4207 33.4861C63.5945 34.3453 63.745 35.0995 63.8722 35.7489C63.9995 36.3983 64.1339 37.0619 64.2757 37.7398C64.4174 38.4177 64.5791 39.1245 64.7609 39.86C64.9427 40.5956 65.1755 41.2741 65.4592 41.8955C65.743 42.5169 66.0402 43.1576 66.3507 43.8177C66.6613 44.4777 66.9898 45.0799 67.3362 45.6245C67.6826 46.169 68.0456 46.7545 68.4251 47.3811C68.8047 48.0077 69.2022 48.6148 69.6175 49.2025C70.0329 49.7901 70.435 50.3923 70.8236 51.009C71.2123 51.6257 71.576 52.2011 71.9148 52.7352C72.2536 53.2692 72.7283 53.9697 73.3388 54.8365C73.9494 55.7034 74.5233 56.3565 75.0605 56.7959C75.5978 57.2352 76.27 57.6911 77.0773 58.1636C77.8846 58.6361 78.7397 58.9793 79.6424 59.1931C80.5452 59.4069 81.628 59.5925 82.8909 59.7498C84.1538 59.9071 85.364 59.9252 86.5216 59.8041C87.6792 59.683 88.8193 59.4883 89.942 59.22C91.0648 58.9516 92.102 58.6295 93.0538 58.2537C94.0056 57.8778 94.9918 57.4349 96.0123 56.925C97.0329 56.415 97.9203 55.8782 98.6747 55.3146C99.4291 54.751 100.2 54.1668 100.988 53.5621C101.775 52.9574 102.475 52.348 103.086 51.7338C103.697 51.1197 104.302 50.4364 104.902 49.684C105.501 48.9316 106.07 48.1554 106.609 47.3554C107.148 46.5555 107.559 45.8095 107.841 45.1176C108.123 44.4256 108.407 43.6446 108.691 42.7746C108.976 41.9046 109.231 40.9818 109.457 40.0062C109.683 39.0307 109.874 38.228 110.03 37.5981C110.186 36.9683 110.321 36.216 110.435 35.3412C110.549 34.4665 110.615 33.5726 110.633 32.6597C110.65 31.7467 110.658 30.8631 110.655 30.0088C110.653 29.1544 110.526 28.2942 110.275 27.4279C110.024 26.5617 109.691 25.7209 109.276 24.9056C108.861 24.0903 108.474 23.3751 108.114 22.7601C107.753 22.1451 107.374 21.5948 106.975 21.1093C106.576 20.6237 106.101 20.1222 105.549 19.6046C104.997 19.087 104.447 18.6367 103.898 18.2536C103.348 17.8705 102.709 17.4625 101.979 17.0295C101.249 16.5966 100.544 16.1597 99.8647 15.719C99.1855 15.2783 98.4848 14.9039 97.7625 14.5959C97.0403 14.2879 96.3022 14.0213 95.5481 13.7959C94.7941 13.5706 94.0029 13.3324 93.1746 13.0815C92.3463 12.8305 91.6037 12.6605 90.9468 12.5715C90.29 12.4826 89.5921 12.3452 88.8531 12.1595C88.1141 11.9738 87.3439 11.8709 86.5425 11.8509C85.7412 11.8309 84.9119 11.8236 84.0548 11.8289C83.1976 11.8342 82.3869 11.8434 81.6226 11.8564C80.8583 11.8694 80.1648 11.9771 79.5421 12.1794C78.9194 12.3818 78.3059 12.6064 77.7016 12.8532C77.0974 13.1 76.5394 13.4258 76.0277 13.8305C75.516 14.2353 75.1457 14.5011 74.9168 14.6281C74.6879 14.7551 74.4447 14.8422 74.1872 14.8895C73.9297 14.9368 73.6714 14.9417 73.4124 14.9043C73.1533 14.8668 72.9069 14.789 72.6734 14.6708C72.4398 14.5526 72.2312 14.4002 72.0476 14.2136C71.864 14.027 71.715 13.816 71.6006 13.5806C71.4862 13.3451 71.4124 13.0976 71.3791 12.8379C71.3459 12.5783 71.355 12.3201 71.4064 12.0634C71.4578 11.8067 71.5488 11.565 71.6795 11.3382C71.8102 11.1113 71.9737 10.9113 72.1699 10.7381C72.3662 10.5649 72.585 10.4275 72.8263 10.326C73.0676 10.2246 73.3188 10.1643 73.5799 10.1451C73.8409 10.126 74.0982 10.1491 74.3517 10.2143C74.6053 10.2796 74.8417 10.3836 75.0611 10.5264C75.2805 10.6692 75.4714 10.8432 75.6337 11.0486C75.7961 11.254 75.9214 11.4799 76.0096 11.7263C76.0979 11.9728 76.1445 12.2269 76.1494 12.4886C76.1544 12.7503 76.1174 13.006 76.0385 13.2556C75.9596 13.5052 75.8429 13.7357 75.6885 13.947C75.534 14.1584 75.3499 14.3395 75.136 14.4905C74.9221 14.6414 74.6898 14.7543 74.4389 14.8291C74.188 14.9039 73.9318 14.9366 73.6702 14.9274C73.4086 14.9181 73.1553 14.8673 72.9103 14.775C72.6654 14.6827 72.4415 14.5538 72.2389 14.3881C72.0362 14.2224 71.8653 14.0287 71.7261 13.807C71.587 13.5852 71.4869 13.3471 71.4258 13.0925C71.3648 12.838 71.3459 12.5803 71.3693 12.3196C71.3927 12.0589 71.4572 11.8087 71.5626 11.5691C71.668 11.3295 71.809 11.113 71.9854 10.9196C72.1618 10.7262 72.2499 10.6296 72.2498 10.6298C72.2496 10.6299 72.3425 10.5705 72.5286 10.4516C72.7146 10.3327 73.1002 10.0794 73.6854 9.69173C74.2706 9.30406 75.0192 8.92436 75.9312 8.55261C76.8432 8.18086 77.6626 7.90615 78.3895 7.72849C79.1163 7.55082 79.832 7.43873 80.5364 7.39222C81.2408 7.34571 81.9422 7.32741 82.6406 7.33733C83.3389 7.34725 84.1313 7.36035 85.0179 7.37663C85.9044 7.39291 86.6968 7.4255 87.3949 7.47441C88.0931 7.52332 88.8176 7.64295 89.5685 7.8333C90.3194 8.02365 91.1051 8.18484 91.9256 8.31687C92.7462 8.44891 93.5603 8.63502 94.3681 8.8752C95.1759 9.11539 95.98 9.3539 96.7805 9.59073C97.581 9.82755 98.3539 10.0969 99.0992 10.3987C99.8445 10.7005 100.547 11.0527 101.208 11.4553C101.868 11.8578 102.52 12.2763 103.166 12.7108C103.811 13.1453 104.549 13.6145 105.38 14.1184C106.211 14.6224 106.943 15.1459 107.575 15.689C108.207 16.2321 108.843 16.838 109.484 17.5065C110.124 18.1751 110.674 18.8541 111.133 19.5436C111.593 20.2331 112.007 20.9204 112.375 21.6053C112.744 22.2902 113.103 23.0626 113.454 23.9225C113.804 24.7823 114.066 25.5568 114.239 26.246C114.412 26.9352 114.535 27.7147 114.608 28.5845C114.681 29.4543 114.709 30.3701 114.694 31.332C114.678 32.2939 114.634 33.3213 114.561 34.4143C114.489 35.5073 114.339 36.5582 114.113 37.567C113.887 38.5758 113.725 39.415 113.627 40.0844C113.53 40.7539 113.314 41.5957 112.979 42.6097C112.645 43.6238 112.321 44.572 112.008 45.4544C111.695 46.3368 111.252 47.2608 110.679 48.2263C110.105 49.1918 109.505 50.0945 108.876 50.9344C108.248 51.7743 107.571 52.6059 106.844 53.4291C106.117 54.2524 105.336 55.0104 104.502 55.7032C103.667 56.396 102.843 57.0355 102.028 57.6216C101.214 58.2077 100.295 58.7911 99.2714 59.3716C98.2482 59.9522 97.1641 60.5005 96.0192 61.0166C94.8743 61.5327 93.7219 61.9665 92.562 62.318C91.4022 62.6695 90.4809 62.9238 89.7982 63.0807C89.1155 63.2377 88.4308 63.3643 87.7441 63.4604C87.0575 63.5566 86.3327 63.6267 85.5699 63.6709C84.807 63.7151 84.0522 63.7061 83.3054 63.6439C82.5585 63.5817 81.868 63.508 81.2336 63.4226C80.5993 63.3373 79.9528 63.2294 79.2943 63.0992C78.6358 62.9689 78.0045 62.7961 77.4004 62.581C76.7963 62.3658 76.0117 61.961 75.0466 61.3666C74.0814 60.7723 73.193 60.0826 72.3813 59.2975C71.5696 58.5125 70.8679 57.6736 70.2763 56.7808C69.6847 55.888 69.2227 55.174 68.8903 54.6389C68.558 54.1038 68.2172 53.5599 67.868 53.0072C67.5189 52.4545 67.1047 51.8534 66.6254 51.2041C66.1462 50.5548 65.7169 49.9295 65.3377 49.3282C64.9585 48.727 64.5543 48.0956 64.1251 47.4341C63.6959 46.7725 63.313 46.1102 62.9766 45.4469C62.6401 44.7837 62.2733 44.0475 61.8761 43.2382C61.479 42.429 61.1592 41.6345 60.9167 40.8549C60.6743 40.0753 60.4614 39.3358 60.2781 38.6363C60.0947 37.9368 59.8566 37.0014 59.5638 35.8302C59.2709 34.6589 59.0812 33.5139 58.9947 32.3952C58.9083 31.2765 58.8652 30.2373 58.8655 29.2775C58.8658 28.3177 58.8915 27.4903 58.9427 26.795C58.9939 26.0998 59.0745 25.4309 59.1846 24.7881C59.2947 24.1454 59.4729 23.4593 59.7192 22.7299C59.9654 22.0004 60.253 21.3491 60.5818 20.776C60.9107 20.2029 61.2558 19.6401 61.6171 19.0877C61.9785 18.5353 62.4618 17.838 63.0671 16.9957C63.6723 16.1533 64.3237 15.4125 65.021 14.773C65.7184 14.1336 66.5346 13.5512 67.4698 13.0258C68.4049 12.5004 69.2094 12.0881 69.8834 11.789C70.5575 11.4899 70.9697 11.3189 71.1202 11.276C71.2707 11.2331 71.4241 11.2088 71.5805 11.2032C71.7369 11.1975 71.8917 11.2107 72.0448 11.2426C72.198 11.2746 72.3451 11.3244 72.4862 11.3921C72.6273 11.4598 72.7583 11.5434 72.879 11.6429C72.9998 11.7423 73.1069 11.8548 73.2004 11.9803C73.2939 12.1058 73.371 12.2407 73.4317 12.3849C73.4924 12.5291 73.535 12.6785 73.5594 12.8331C73.5838 12.9876 73.5894 13.1429 73.5762 13.2988C73.5629 13.4547 73.5312 13.6068 73.481 13.755C73.4308 13.9032 73.3636 14.0432 73.2794 14.1751C73.1952 14.307 73.0964 14.4269 72.9831 14.5348C72.8698 14.6427 72.7452 14.7355 72.6093 14.8131C72.4735 14.8908 72.4057 14.9296 72.4057 14.9295Z" fill="#121212"/>
<path d="M72.7386 27.0491C72.7386 27.0491 72.6702 27.2466 72.5336 27.6415C72.397 28.0364 72.641 28.4835 73.2657 28.9829C73.8905 29.4822 73.8791 29.5413 73.2317 29.1603C72.5843 28.7792 72.1351 28.5127 71.884 28.3606C71.6329 28.2085 71.4075 28.052 71.2078 27.891C71.0081 27.7301 70.8394 27.5415 70.7015 27.3252C70.5637 27.1089 70.464 26.8763 70.4024 26.6273C70.3409 26.3783 70.3207 26.126 70.3419 25.8704C70.363 25.6148 70.4244 25.3693 70.5261 25.1338C70.6278 24.8983 70.7644 24.6853 70.9359 24.4946C71.1075 24.3039 71.305 24.1456 71.5284 24.0197C71.7519 23.8938 71.9896 23.8069 72.2415 23.7589C72.4935 23.7109 72.7465 23.7044 73.0006 23.7394C73.2546 23.7744 73.4965 23.849 73.7261 23.9633C73.9557 24.0776 74.161 24.2256 74.3421 24.4072C74.5232 24.5888 74.6706 24.7946 74.7842 25.0245C74.8978 25.2545 74.9718 25.4965 75.006 25.7507C75.0403 26.0049 75.033 26.2579 74.9843 26.5097C74.9356 26.7615 74.848 26.9989 74.7214 27.222C74.5949 27.4451 74.436 27.6421 74.2448 27.8131C74.0537 27.9841 73.8402 28.1201 73.6045 28.2211C73.3687 28.3221 73.123 28.3828 72.8673 28.4032C72.6117 28.4236 72.3594 28.4027 72.1106 28.3404C71.8618 28.2781 71.6295 28.1778 71.4136 28.0393C71.1977 27.9008 71.0096 27.7315 70.8492 27.5314C70.6888 27.3312 70.5646 27.1107 70.4765 26.8698C70.3885 26.6289 70.3412 26.3803 70.3346 26.1239C70.3281 25.8675 70.3626 25.6168 70.4383 25.3717C70.514 25.1267 70.6268 24.9001 70.7768 24.692C70.9267 24.484 71.106 24.3053 71.3145 24.156C71.5231 24.0067 71.75 23.8946 71.9953 23.8197C72.2406 23.7448 72.4914 23.7111 72.7478 23.7184C73.0042 23.7258 73.2527 23.7739 73.4933 23.8628C73.7339 23.9516 73.8541 23.9959 73.8538 23.9958C73.8536 23.9957 74.0211 24.1151 74.3563 24.3541C74.6915 24.593 75.0818 24.9313 75.5274 25.369C75.973 25.8066 76.3823 26.298 76.7555 26.843C77.1286 27.388 77.265 28.0007 77.1646 28.681C77.0643 29.3613 76.8141 30.0063 76.4142 30.6159C76.0143 31.2256 75.5337 31.7483 74.9726 32.184C74.4114 32.6197 73.7873 32.9307 73.1002 33.1169C72.4131 33.3031 71.7065 33.3149 70.9802 33.1521C70.2539 32.9893 69.6486 32.6441 69.1643 32.1166C68.68 31.5892 68.3899 30.9807 68.294 30.2913C68.1982 29.6019 68.2287 28.8627 68.3855 28.0737C68.5423 27.2847 68.6955 26.6943 68.8449 26.3025C68.9943 25.9107 69.1046 25.6448 69.1756 25.5049C69.2466 25.365 69.3333 25.2356 69.4357 25.1168C69.5381 24.9979 69.6532 24.8931 69.7811 24.8022C69.909 24.7113 70.0459 24.6371 70.1918 24.5794C70.3377 24.5218 70.4884 24.4825 70.6439 24.4614C70.7994 24.4404 70.9551 24.4382 71.1111 24.455C71.2671 24.4718 71.4188 24.507 71.5662 24.5606C71.7137 24.6142 71.8525 24.6847 71.9829 24.7721C72.1132 24.8594 72.2312 24.9611 72.3368 25.0771C72.4424 25.1931 72.5326 25.3201 72.6074 25.458C72.6822 25.5959 72.7394 25.7407 72.779 25.8925C72.8187 26.0443 72.8395 26.1987 72.8417 26.3555C72.8438 26.5124 72.8272 26.6673 72.7917 26.8201C72.7562 26.9729 72.7385 27.0492 72.7386 27.0491Z" fill="#121212"/>
<path d="M98.5986 25.9037C98.5986 25.9037 98.4762 26.0317 98.2315 26.2876C97.9867 26.5434 97.8532 27.0388 97.8309 27.7736C97.8086 28.5084 98.0972 28.6033 98.6969 28.0583C99.2965 27.5132 99.4719 27.1945 99.2232 27.1021C98.9744 27.0098 98.7218 26.9332 98.4652 26.8726C98.2086 26.8119 97.9685 26.7118 97.7447 26.5724C97.521 26.433 97.3253 26.2615 97.1578 26.0579C96.9903 25.8544 96.8597 25.6294 96.7659 25.383C96.6722 25.1366 96.6202 24.8816 96.6101 24.6182C96.5999 24.3548 96.632 24.0966 96.7065 23.8437C96.781 23.5908 96.8939 23.3564 97.0453 23.1406C97.1966 22.9247 97.3785 22.7386 97.5908 22.5824C97.8032 22.4262 98.0349 22.3079 98.286 22.2276C98.5371 22.1474 98.7945 22.1093 99.0581 22.1134C99.3217 22.1176 99.5777 22.1637 99.8262 22.2518C100.075 22.3398 100.303 22.4653 100.51 22.6281C100.717 22.7909 100.893 22.9826 101.038 23.2031C101.182 23.4236 101.288 23.6614 101.354 23.9165C101.421 24.1716 101.445 24.4306 101.427 24.6936C101.408 24.9566 101.348 25.2098 101.247 25.4531C101.145 25.6965 101.008 25.9173 100.834 26.1155C100.66 26.3137 100.459 26.479 100.231 26.6114C100.003 26.7437 99.76 26.8362 99.5017 26.8888C99.2434 26.9414 98.9834 26.9514 98.7218 26.9188C98.4602 26.8861 98.2106 26.8126 97.9731 26.6981C97.7356 26.5837 97.5226 26.4343 97.3341 26.25C97.1456 26.0657 96.9915 25.8561 96.8717 25.6213C96.7519 25.3864 96.6727 25.1386 96.6342 24.8778C96.5956 24.617 96.5997 24.3569 96.6465 24.0974C96.6933 23.8379 96.7802 23.5927 96.9074 23.3618C97.0345 23.1309 97.1952 22.9263 97.3895 22.748C97.5837 22.5698 97.8014 22.4272 98.0423 22.3203C98.2833 22.2134 98.5351 22.1478 98.7976 22.1235C99.0601 22.0991 99.1912 22.0869 99.191 22.0869C99.1908 22.0869 99.4038 22.1632 99.83 22.3159C100.256 22.4686 100.823 22.6909 101.53 22.983C102.238 23.2752 102.84 23.7673 103.338 24.4595C103.836 25.1517 104.129 25.9543 104.216 26.8671C104.303 27.78 104.16 28.5635 103.785 29.2176C103.411 29.8717 102.962 30.3889 102.44 30.7693C101.917 31.1497 101.379 31.5343 100.827 31.9233C100.274 32.3122 99.6879 32.5412 99.0686 32.6102C98.4492 32.6792 97.8275 32.6762 97.2033 32.6013C96.5792 32.5265 95.915 32.1898 95.2108 31.5913C94.5065 30.9928 94.0392 30.1843 93.8089 29.1657C93.5785 28.1472 93.5227 27.2956 93.6413 26.6109C93.76 25.9261 94.0254 25.297 94.4376 24.7233C94.8497 24.1497 95.1837 23.7405 95.4396 23.4957C95.6955 23.2509 95.8855 23.0799 96.0096 22.9826C96.1337 22.8854 96.2677 22.8044 96.4115 22.7397C96.5553 22.675 96.7048 22.6284 96.8599 22.6C97.015 22.5716 97.1713 22.5621 97.3287 22.5716C97.4861 22.5812 97.6401 22.6094 97.7906 22.6563C97.9412 22.7032 98.0839 22.7675 98.2189 22.8491C98.3538 22.9307 98.4771 23.0272 98.5886 23.1387C98.7001 23.2502 98.7966 23.3735 98.8782 23.5084C98.9598 23.6434 99.024 23.7861 99.0709 23.9367C99.1178 24.0873 99.146 24.2413 99.1555 24.3987C99.165 24.5561 99.1556 24.7123 99.1271 24.8674C99.0987 25.0226 99.0521 25.172 98.9874 25.3158C98.9227 25.4596 98.8416 25.5936 98.7444 25.7177C98.6471 25.8418 98.5986 25.9038 98.5986 25.9037Z" fill="#121212"/>
<path d="M76.9001 37.8758C76.9001 37.8758 77.0951 38.1275 77.485 38.6308C77.875 39.1342 78.3754 39.7216 78.9862 40.3933C79.597 41.0649 80.2945 41.6827 81.0786 42.2467C81.8627 42.8108 82.6645 43.3555 83.4839 43.8809C84.3033 44.4063 85.0069 44.8047 85.5945 45.0762C86.1821 45.3477 86.8213 45.5468 87.5121 45.6735C88.2029 45.8002 88.9648 45.8466 89.7976 45.8127C90.6305 45.7789 91.4081 45.6137 92.1306 45.3172C92.8531 45.0207 93.5536 44.6509 94.232 44.2076C94.9105 43.7644 95.4551 43.21 95.8659 42.5444C96.2767 41.8787 96.5767 41.1969 96.7659 40.4989C96.9551 39.8009 97.139 39.4673 97.3175 39.4982C97.4961 39.5291 97.5108 39.4524 97.3617 39.2681C97.2125 39.0838 97.0967 38.8805 97.0142 38.6583C96.9317 38.436 96.8869 38.2064 96.8797 37.9694C96.8725 37.7325 96.9033 37.5006 96.9721 37.2737C97.041 37.0468 97.1442 36.8369 97.2819 36.6439C97.4196 36.4509 97.5845 36.2849 97.7766 36.146C97.9687 36.0071 98.1779 35.9024 98.4043 35.8321C98.6307 35.7618 98.8624 35.7295 99.0994 35.7351C99.3365 35.7408 99.5664 35.7841 99.7892 35.8651C100.012 35.9462 100.216 36.0606 100.401 36.2086C100.586 36.3565 100.743 36.5302 100.872 36.7295C101 36.9288 101.093 37.1435 101.151 37.3733C101.209 37.6032 101.229 37.8363 101.21 38.0727C101.192 38.309 101.136 38.5363 101.043 38.7543C100.95 38.9724 100.825 39.1699 100.667 39.3469C100.509 39.5239 100.327 39.671 100.121 39.7883C99.9152 39.9057 99.6959 39.987 99.4632 40.0325C99.2305 40.0779 98.9967 40.0849 98.7617 40.0537C98.5267 40.0224 98.3028 39.9544 98.0901 39.8498C97.8774 39.7451 97.6869 39.6092 97.5188 39.4421C97.3506 39.275 97.2136 39.0854 97.1076 38.8733C97.0016 38.6613 96.9322 38.4378 96.8995 38.203C96.8667 37.9682 96.8723 37.7344 96.9163 37.5014C96.9602 37.2684 97.0402 37.0486 97.1563 36.8418C97.2723 36.6351 97.4183 36.4523 97.5943 36.2935C97.7703 36.1346 97.967 36.008 98.1845 35.9137C98.402 35.8193 98.6289 35.7622 98.8651 35.7422C99.1013 35.7222 99.3346 35.7405 99.5648 35.797C99.7951 35.8535 100.01 35.9453 100.21 36.0724C100.411 36.1995 100.511 36.2629 100.51 36.2628C100.51 36.2627 100.643 36.8852 100.908 38.1304C101.173 39.3756 101.199 40.372 100.984 41.1195C100.77 41.867 100.488 42.6326 100.139 43.4162C99.79 44.1999 99.2803 44.9734 98.61 45.7369C97.9398 46.5003 97.1795 47.1497 96.3294 47.6849C95.4792 48.2201 94.7582 48.6303 94.1663 48.9156C93.5744 49.2008 92.9758 49.4199 92.3705 49.5726C91.7653 49.7254 90.8515 49.8137 89.6291 49.8374C88.4067 49.861 87.3913 49.7837 86.583 49.6054C85.7746 49.4271 84.8998 49.1094 83.9584 48.6525C83.0171 48.1956 82.1093 47.6784 81.235 47.1009C80.3607 46.5235 79.4631 45.8894 78.542 45.1985C77.6209 44.5076 76.8092 43.7611 76.1068 42.9591C75.4044 42.1571 74.8547 41.5072 74.458 41.0092C74.0612 40.5113 73.8225 40.196 73.742 40.0632C73.6616 39.9305 73.5981 39.7901 73.5517 39.642C73.5054 39.4939 73.4774 39.3424 73.4678 39.1875C73.4582 39.0326 73.4673 38.8787 73.4951 38.726C73.5228 38.5733 73.5685 38.4262 73.632 38.2846C73.6955 38.1429 73.775 38.011 73.8706 37.8887C73.9661 37.7664 74.0749 37.6573 74.197 37.5614C74.319 37.4655 74.4508 37.3856 74.5922 37.3217C74.7337 37.2578 74.8807 37.2118 75.0333 37.1836C75.186 37.1554 75.3397 37.1459 75.4947 37.1551C75.6496 37.1643 75.8012 37.1918 75.9494 37.2378C76.0977 37.2838 76.2383 37.3468 76.3712 37.427C76.5041 37.5071 76.6255 37.6019 76.7354 37.7115C76.8453 37.8212 76.9002 37.8758 76.9001 37.8758Z" fill="#121212"/>
<path d="M16.7756 61.9775C16.7756 61.9775 17.5148 61.7837 18.9931 61.3961C20.4714 61.0085 21.9027 60.631 23.2869 60.2638C24.6712 59.8966 26.1711 59.4625 27.7868 58.9617C29.4025 58.4608 31.0812 57.8607 32.8229 57.1613C34.5645 56.4619 36.2278 55.8189 37.8127 55.2325C39.3976 54.646 40.7923 54.1239 41.9969 53.666C43.2014 53.2082 44.17 52.7966 44.9024 52.4313C45.6349 52.0661 46.3082 51.6807 46.9222 51.2751C47.5362 50.8696 47.9088 50.647 48.04 50.6074C48.1712 50.5679 48.3053 50.5503 48.4422 50.5547C48.5792 50.559 48.7118 50.5852 48.8402 50.6331C48.9686 50.681 49.086 50.7481 49.1924 50.8345C49.2987 50.9208 49.3885 51.0219 49.4617 51.1377C49.535 51.2536 49.5878 51.378 49.6202 51.5112C49.6526 51.6443 49.6629 51.7791 49.6511 51.9157C49.6393 52.0522 49.606 52.1832 49.5512 52.3088C49.4965 52.4344 49.4231 52.548 49.3311 52.6495C49.239 52.7511 49.1332 52.8352 49.0136 52.9021C48.894 52.9689 48.7668 53.0149 48.6321 53.0401C48.4974 53.0652 48.3623 53.0682 48.2266 53.049C48.0909 53.0298 47.9619 52.9895 47.8394 52.928C47.717 52.8665 47.6075 52.787 47.5111 52.6897C47.4147 52.5923 47.3364 52.4821 47.2762 52.359C47.2159 52.2359 47.1769 52.1065 47.1591 51.9706C47.1412 51.8348 47.1456 51.6996 47.1721 51.5652C47.1986 51.4307 47.2459 51.304 47.3139 51.1851C47.382 51.0662 47.4672 50.9612 47.5697 50.8702C47.6721 50.7793 47.7865 50.707 47.9126 50.6535C48.0387 50.6 48.1701 50.5681 48.3068 50.5576C48.4434 50.5472 48.5781 50.5589 48.7109 50.5926C48.8437 50.6264 48.9676 50.6805 49.0827 50.7549C49.1978 50.8292 49.298 50.9201 49.3833 51.0273C49.4686 51.1345 49.5345 51.2526 49.5811 51.3815C49.6277 51.5103 49.6525 51.6432 49.6555 51.7802C49.6585 51.9172 49.6395 52.0511 49.5986 52.1819C49.5577 52.3127 49.497 52.4335 49.4165 52.5444C49.336 52.6552 49.2399 52.7503 49.1282 52.8297C49.0165 52.909 48.9607 52.9487 48.9608 52.9486C48.9609 52.9486 48.6178 53.1055 47.9314 53.4193C47.2451 53.7332 46.5061 54.049 45.7143 54.3667C44.9226 54.6845 43.9249 55.0814 42.7211 55.5575C41.5173 56.0337 40.1366 56.5724 38.579 57.1738C37.0214 57.7752 35.3517 58.4505 33.5698 59.1997C31.788 59.949 30.0838 60.5995 28.4574 61.1512C26.8311 61.703 25.3359 62.1922 23.9719 62.6188C22.608 63.0455 21.199 63.4941 19.7449 63.9648C18.2909 64.4354 17.5083 64.6799 17.397 64.6983C17.2858 64.7167 17.174 64.7215 17.0615 64.7128C16.9491 64.704 16.8394 64.6819 16.7323 64.6465C16.6253 64.6111 16.524 64.5634 16.4286 64.5034C16.3331 64.4434 16.2462 64.3729 16.1679 64.2918C16.0895 64.2107 16.022 64.1214 15.9654 64.0239C15.9088 63.9264 15.8646 63.8235 15.8329 63.7153C15.8013 63.6071 15.783 63.4966 15.7782 63.384C15.7733 63.2713 15.782 63.1598 15.8043 63.0492C15.8265 62.9387 15.8617 62.8324 15.9097 62.7304C15.9578 62.6284 16.0174 62.5336 16.0884 62.4461C16.1595 62.3586 16.24 62.2808 16.33 62.2128C16.4199 62.1449 16.5167 62.0886 16.6203 62.0442C16.724 61.9997 16.7757 61.9775 16.7756 61.9775Z" fill="#121212"/>
<path d="M20.2579 65.3377C20.2579 65.3377 20.9105 64.9958 22.2157 64.312C23.5209 63.6282 25.1349 62.9037 27.0576 62.1386C28.9804 61.3735 30.9987 60.653 33.1126 59.9771C35.2265 59.3013 37.3949 58.644 39.6178 58.0053C41.8408 57.3667 44.1027 56.7175 46.4036 56.0579C48.7044 55.3983 50.8105 54.8042 52.7218 54.2756C54.6331 53.747 56.2824 53.2996 57.6698 52.9334C59.0572 52.5672 60.1517 52.2692 60.9534 52.0395C61.7551 51.8098 62.2956 52.0308 62.5749 52.7025C62.8542 53.3741 62.9295 53.6996 62.8009 53.6789C62.6722 53.6582 62.5502 53.6174 62.4349 53.5567C62.3196 53.496 62.217 53.4184 62.1271 53.3241C62.0372 53.2297 61.9648 53.1235 61.9097 53.0053C61.8547 52.8872 61.8199 52.7634 61.8055 52.6339C61.791 52.5044 61.7977 52.3759 61.8253 52.2486C61.853 52.1212 61.9003 52.0016 61.9671 51.8898C62.034 51.7779 62.117 51.6797 62.2161 51.5951C62.3152 51.5104 62.4252 51.4438 62.5462 51.3953C62.6671 51.3467 62.7926 51.3187 62.9227 51.3113C63.0528 51.3039 63.1807 51.3175 63.3064 51.352C63.432 51.3865 63.5489 51.4402 63.657 51.513C63.765 51.5859 63.8586 51.6741 63.9378 51.7776C64.0169 51.8811 64.0774 51.9946 64.1194 52.118C64.1613 52.2414 64.1825 52.3682 64.1828 52.4986C64.1832 52.6289 64.1627 52.7558 64.1214 52.8794C64.0801 53.0031 64.0202 53.1168 63.9416 53.2208C63.863 53.3247 63.7699 53.4134 63.6622 53.4868C63.5545 53.5603 63.4379 53.6146 63.3125 53.6498C63.187 53.6849 63.0592 53.6992 62.929 53.6925C62.7989 53.6858 62.6732 53.6584 62.552 53.6105C62.4308 53.5626 62.3205 53.4966 62.2209 53.4125C62.1214 53.3283 62.0379 53.2305 61.9704 53.119C61.9029 53.0075 61.855 52.8882 61.8267 52.761C61.7983 52.6338 61.791 52.5054 61.8048 52.3758C61.8186 52.2462 61.8527 52.1222 61.9071 52.0038C61.9615 51.8854 62.0334 51.7788 62.1228 51.6839C62.2122 51.5891 62.3143 51.511 62.4293 51.4497C62.5443 51.3883 62.6661 51.347 62.7946 51.3256C62.9232 51.3042 62.9874 51.2935 62.9873 51.2935C62.9872 51.2935 62.9328 51.7101 62.8242 52.5434C62.7156 53.3768 62.2601 53.8717 61.4577 54.0283C60.6553 54.1848 59.5656 54.4502 58.1884 54.8245C56.8112 55.1988 55.1721 55.6563 53.2711 56.197C51.3701 56.7376 49.2727 57.3471 46.979 58.0254C44.6852 58.7037 42.4417 59.372 40.2484 60.0303C38.0552 60.6885 35.9333 61.3641 33.8827 62.0569C31.8321 62.7498 29.8979 63.4825 28.0801 64.2551C26.2623 65.0277 24.7186 65.7873 23.449 66.5339C22.1795 67.2805 21.4954 67.6739 21.3968 67.714C21.2981 67.7541 21.1962 67.7818 21.0908 67.7972C20.9855 67.8125 20.8798 67.815 20.7738 67.8047C20.6679 67.7944 20.5647 67.7715 20.4643 67.7361C20.3639 67.7008 20.2692 67.6539 20.1801 67.5955C20.0911 67.5371 20.0104 67.469 19.9379 67.391C19.8654 67.313 19.8033 67.2274 19.7517 67.1344C19.7 67.0413 19.6601 66.9434 19.6322 66.8407C19.6043 66.738 19.5891 66.6334 19.5866 66.5269C19.584 66.4205 19.5943 66.3153 19.6173 66.2114C19.6403 66.1074 19.6754 66.0078 19.7227 65.9124C19.7699 65.8169 19.8279 65.7286 19.8965 65.6472C19.9652 65.5659 20.0427 65.494 20.1288 65.4314C20.215 65.3689 20.258 65.3377 20.2579 65.3377Z" fill="#121212"/>
<path d="M115.058 24.626C115.058 24.626 115.626 24.27 116.761 23.5579C117.896 22.8458 119.136 22.1381 120.48 21.4346C121.824 20.7312 123.194 20.0393 124.589 19.3588C125.985 18.6783 127.447 17.9818 128.975 17.2692C130.503 16.5566 131.877 15.9097 133.095 15.3284C134.313 14.7471 135.387 14.2023 136.317 13.6941C137.246 13.1859 138.042 12.7245 138.706 12.3099C139.369 11.8953 140.057 11.4456 140.772 10.9608C141.486 10.4759 142.052 10.1567 142.47 10.0031C142.888 9.84947 143.17 9.77147 143.317 9.76908C143.463 9.76669 143.606 9.78774 143.746 9.83222C143.885 9.8767 144.014 9.94228 144.132 10.029C144.25 10.1157 144.351 10.2189 144.435 10.3387C144.519 10.4586 144.582 10.5887 144.623 10.7291C144.665 10.8695 144.683 11.0129 144.677 11.1592C144.672 11.3055 144.643 11.4471 144.591 11.584C144.539 11.7208 144.466 11.8458 144.373 11.9589C144.281 12.0721 144.172 12.1674 144.048 12.2449C143.924 12.3224 143.79 12.378 143.648 12.4118C143.505 12.4456 143.361 12.4558 143.215 12.4423C143.07 12.4288 142.93 12.3925 142.796 12.3331C142.662 12.2738 142.541 12.1947 142.433 12.0957C142.325 11.9968 142.236 11.8832 142.165 11.755C142.095 11.6267 142.046 11.4906 142.02 11.3465C141.994 11.2024 141.992 11.058 142.013 10.9131C142.035 10.7683 142.079 10.6306 142.145 10.5002C142.212 10.3698 142.297 10.2533 142.402 10.1509C142.506 10.0486 142.625 9.96556 142.757 9.90195C142.888 9.83833 143.027 9.79744 143.172 9.77927C143.318 9.76109 143.462 9.76659 143.605 9.79575C143.749 9.82492 143.884 9.87622 144.011 9.94968C144.137 10.0231 144.249 10.1149 144.345 10.2249C144.442 10.335 144.518 10.4576 144.575 10.5927C144.631 10.7278 144.665 10.8684 144.675 11.0144C144.685 11.1605 144.672 11.3043 144.635 11.446C144.598 11.5877 144.539 11.7198 144.459 11.8423C144.379 11.9648 144.281 12.0712 144.166 12.1617C144.051 12.2522 143.925 12.3219 143.787 12.3708C143.649 12.4198 143.58 12.4443 143.58 12.4443C143.58 12.4442 143.496 12.4713 143.329 12.5255C143.162 12.5797 142.707 12.7907 141.966 13.1586C141.225 13.5264 140.498 13.8956 139.785 14.2661C139.072 14.6365 138.235 15.0705 137.273 15.568C136.312 16.0655 135.225 16.6178 134.013 17.225C132.801 17.8321 131.446 18.5044 129.948 19.2418C128.451 19.9792 127.027 20.7039 125.678 21.4158C124.329 22.1277 123.033 22.8444 121.79 23.5661C120.547 24.2877 119.384 25.0435 118.302 25.8333C117.22 26.6232 116.627 27.0446 116.524 27.0976C116.421 27.1507 116.313 27.1906 116.2 27.2174C116.087 27.2442 115.972 27.2571 115.856 27.2561C115.74 27.2551 115.626 27.2402 115.513 27.2114C115.401 27.1826 115.293 27.1408 115.191 27.086C115.089 27.0311 114.995 26.9648 114.908 26.8871C114.822 26.8093 114.746 26.7224 114.681 26.6263C114.616 26.5302 114.564 26.4277 114.523 26.3188C114.483 26.2099 114.457 26.0977 114.444 25.9824C114.431 25.867 114.432 25.7518 114.447 25.6367C114.462 25.5215 114.49 25.4099 114.532 25.3017C114.574 25.1935 114.629 25.092 114.696 24.997C114.762 24.9021 114.84 24.8165 114.927 24.7403C115.015 24.6641 115.059 24.626 115.058 24.626Z" fill="#121212"/>
<path d="M118.021 29.0075C118.021 29.0075 118.566 28.7572 119.657 28.2564C120.748 27.7557 121.838 27.2733 122.929 26.8093C124.019 26.3453 125.111 25.9221 126.205 25.5397C127.299 25.1573 128.449 24.8179 129.654 24.5215C130.86 24.2251 132.067 23.9156 133.275 23.593C134.484 23.2704 135.62 22.9773 136.683 22.7138C137.747 22.4503 138.706 22.185 139.561 21.9177C140.416 21.6505 141.224 21.3975 141.985 21.1589C142.746 20.9202 143.442 20.6906 144.072 20.4701C144.701 20.2496 145.465 19.9868 146.363 19.6818C147.26 19.3768 148.054 19.1026 148.743 18.8591C149.433 18.6156 149.863 18.495 150.035 18.4973C150.206 18.4996 150.373 18.5292 150.535 18.5861C150.696 18.643 150.845 18.7243 150.98 18.8299C151.115 18.9355 151.23 19.0599 151.324 19.2031C151.418 19.3463 151.487 19.5008 151.531 19.6666C151.575 19.8324 151.591 20.0009 151.579 20.1719C151.567 20.343 151.529 20.5078 151.463 20.6662C151.398 20.8246 151.308 20.9684 151.196 21.0976C151.083 21.2268 150.953 21.3346 150.804 21.421C150.656 21.5074 150.498 21.5679 150.33 21.6025C150.162 21.6372 149.993 21.644 149.823 21.6232C149.653 21.6024 149.491 21.5549 149.336 21.4808C149.181 21.4067 149.042 21.3099 148.92 21.1903C148.797 21.0707 148.696 20.9346 148.618 20.7821C148.54 20.6295 148.488 20.4684 148.462 20.2989C148.437 20.1293 148.439 19.9601 148.469 19.7913C148.499 19.6225 148.555 19.4629 148.638 19.3125C148.72 19.1621 148.824 19.0288 148.95 18.9125C149.076 18.7963 149.218 18.7033 149.374 18.6334C149.531 18.5635 149.695 18.5204 149.865 18.5042C150.036 18.488 150.205 18.4994 150.372 18.5386C150.539 18.5777 150.695 18.6424 150.841 18.7328C150.986 18.8232 151.114 18.9345 151.223 19.0667C151.332 19.1989 151.418 19.345 151.479 19.5052C151.54 19.6653 151.574 19.8311 151.581 20.0024C151.588 20.1737 151.568 20.3417 151.52 20.5062C151.471 20.6708 151.398 20.8234 151.3 20.964C151.202 21.1046 151.084 21.2259 150.946 21.3278C150.808 21.4297 150.658 21.5069 150.494 21.5594C150.331 21.6119 150.25 21.6382 150.25 21.6382C150.25 21.6381 149.965 21.7069 149.396 21.8444C148.827 21.9818 148.085 22.1558 147.169 22.3662C146.252 22.5766 145.462 22.7697 144.797 22.9455C144.132 23.1214 143.415 23.3039 142.645 23.493C141.875 23.6821 141.042 23.8939 140.145 24.1283C139.249 24.3627 138.281 24.6018 137.243 24.8456C136.205 25.0894 135.079 25.3943 133.866 25.7605C132.654 26.1266 131.484 26.4669 130.358 26.7813C129.232 27.0958 128.156 27.4439 127.13 27.8256C126.104 28.2074 125.072 28.6446 124.035 29.1372C122.997 29.6297 121.951 30.1621 120.896 30.7341C119.841 31.3062 119.259 31.6118 119.149 31.6508C119.04 31.6898 118.928 31.7152 118.812 31.7269C118.697 31.7387 118.581 31.7364 118.466 31.7201C118.351 31.7039 118.24 31.6741 118.132 31.6308C118.025 31.5875 117.924 31.5319 117.829 31.4641C117.735 31.3962 117.65 31.3181 117.575 31.2297C117.5 31.1413 117.436 31.0452 117.384 30.9413C117.332 30.8375 117.294 30.7289 117.268 30.6156C117.243 30.5024 117.231 30.3877 117.233 30.2716C117.235 30.1555 117.252 30.0414 117.282 29.9292C117.312 29.817 117.355 29.7101 117.411 29.6084C117.467 29.5066 117.534 29.4131 117.613 29.3277C117.691 29.2423 117.779 29.1676 117.876 29.1036C117.973 29.0395 118.021 29.0075 118.021 29.0075Z" fill="#121212"/>
<path d="M152.996 8.5956C152.996 8.5956 152.904 8.49106 152.718 8.28197C152.532 8.07288 152.178 7.72554 151.655 7.23995C151.132 6.75435 150.562 6.60295 149.943 6.78572C149.324 6.9685 148.982 7.41023 148.916 8.11091C148.85 8.81158 148.903 9.52021 149.076 10.2368C149.248 10.9533 149.447 11.6966 149.673 12.4665C149.898 13.2365 150.177 13.8988 150.51 14.4536C150.843 15.0084 151.217 15.6197 151.632 16.2877C152.046 16.9556 152.458 17.5817 152.869 18.1659C153.279 18.7502 153.74 19.3943 154.252 20.0985C154.764 20.8026 155.311 21.3544 155.894 21.7536C156.477 22.1529 157.097 22.1323 157.753 21.6919C158.409 21.2514 158.938 20.7309 159.338 20.1304C159.739 19.5298 160.125 18.9433 160.497 18.3708C160.869 17.7983 161.199 17.2317 161.486 16.6711C161.773 16.1105 162.022 15.4883 162.233 14.8045C162.443 14.1208 162.542 13.4362 162.529 12.7508C162.517 12.0655 162.51 11.4053 162.51 10.7703C162.509 10.1352 162.48 9.47191 162.423 8.78029C162.365 8.08867 162.228 7.43563 162.011 6.8212C161.795 6.20676 161.481 6.16406 161.071 6.6931C160.662 7.22214 160.257 7.93553 159.856 8.83327C159.456 9.73101 159.129 10.2416 158.875 10.3652C158.621 10.4887 158.353 10.5684 158.073 10.6043C157.792 10.6401 157.514 10.6303 157.236 10.5747C156.959 10.5192 156.698 10.4209 156.453 10.2797C156.208 10.1386 155.992 9.96202 155.805 9.75006C155.618 9.5381 155.47 9.30182 155.36 9.04123C155.251 8.78065 155.186 8.50938 155.165 8.22745C155.145 7.94552 155.169 7.66768 155.24 7.39392C155.31 7.12016 155.423 6.86482 155.577 6.6279C155.731 6.39098 155.919 6.18488 156.141 6.00961C156.363 5.83433 156.607 5.69905 156.873 5.60377C157.139 5.50848 157.413 5.45819 157.696 5.45288C157.979 5.44756 158.255 5.48751 158.524 5.57273C158.794 5.65794 159.043 5.78396 159.271 5.95078C159.499 6.1176 159.695 6.31649 159.858 6.54745C160.021 6.77841 160.143 7.02934 160.223 7.30026C160.304 7.57118 160.339 7.84789 160.329 8.13039C160.319 8.4129 160.265 8.68642 160.165 8.95094C160.065 9.21546 159.926 9.45714 159.747 9.67598C159.568 9.89482 159.359 10.0794 159.119 10.2296C158.88 10.3799 158.623 10.4879 158.348 10.5539C158.073 10.6198 157.795 10.6401 157.513 10.6148C157.232 10.5895 156.961 10.5199 156.703 10.406C156.444 10.2921 156.21 10.1399 156.001 9.94936C155.793 9.75882 155.62 9.53993 155.483 9.29269C155.345 9.04545 155.252 8.7828 155.201 8.50474C155.15 8.22668 155.144 7.94776 155.185 7.668C155.226 7.38823 155.31 7.12226 155.437 6.87008C155.565 6.6179 155.73 6.39272 155.931 6.19453C156.133 5.99634 156.234 5.89732 156.233 5.89747C156.233 5.89762 156.172 5.76637 156.049 5.50369C155.926 5.24102 156.162 4.73761 156.757 3.99344C157.351 3.24928 157.946 2.70798 158.542 2.36955C159.138 2.03112 159.738 1.77422 160.343 1.59887C160.947 1.42351 161.597 1.34077 162.291 1.35064C162.986 1.36051 163.671 1.55109 164.347 1.92237C165.023 2.29365 165.555 2.77693 165.945 3.37222C166.334 3.96751 166.68 4.73546 166.981 5.67609C167.282 6.61672 167.484 7.5935 167.587 8.60645C167.689 9.61939 167.74 10.4529 167.739 11.107C167.739 11.7611 167.723 12.4388 167.693 13.1401C167.664 13.8413 167.593 14.5021 167.481 15.1224C167.369 15.7427 167.208 16.3472 166.996 16.9359C166.785 17.5247 166.452 18.2163 165.996 19.0109C165.541 19.8054 165.059 20.5874 164.55 21.357C164.04 22.1266 163.546 22.9175 163.066 23.7298C162.586 24.542 162.093 25.265 161.586 25.8987C161.078 26.5323 160.333 27.0092 159.349 27.3295C158.365 27.6497 157.546 27.7252 156.893 27.5562C156.239 27.3871 155.613 27.2167 155.015 27.045C154.417 26.8733 153.824 26.6144 153.236 26.2681C152.649 25.9218 152.051 25.4001 151.443 24.7028C150.834 24.0055 150.36 23.3738 150.021 22.8078C149.682 22.2418 149.237 21.5406 148.686 20.7043C148.135 19.868 147.65 19.1424 147.229 18.5275C146.808 17.9127 146.45 17.2668 146.154 16.5899C145.859 15.9129 145.556 15.2212 145.245 14.5147C144.934 13.8082 144.714 13.1241 144.585 12.4623C144.456 11.8005 144.346 11.0831 144.255 10.31C144.164 9.53695 144.137 8.83472 144.176 8.20332C144.214 7.57192 144.365 6.932 144.629 6.28356C144.893 5.63512 145.415 4.96255 146.193 4.26584C146.972 3.56914 147.803 3.14427 148.689 2.99125C149.574 2.83822 150.338 2.8098 150.98 2.90597C151.623 3.00214 152.278 3.22019 152.947 3.5601C153.615 3.90002 154.202 4.29939 154.708 4.75821C155.215 5.21703 155.554 5.55645 155.726 5.77649C155.897 5.99653 156.026 6.17214 156.111 6.30334C156.195 6.43453 156.263 6.57397 156.314 6.72165C156.365 6.86932 156.398 7.02096 156.412 7.17654C156.426 7.33212 156.421 7.48713 156.398 7.64157C156.374 7.79602 156.333 7.9454 156.273 8.08973C156.213 8.23405 156.137 8.36913 156.044 8.49495C155.952 8.62077 155.845 8.73368 155.725 8.83369C155.605 8.93369 155.475 9.01788 155.335 9.08626C155.194 9.15463 155.047 9.20521 154.895 9.23798C154.742 9.27075 154.587 9.28477 154.431 9.28003C154.275 9.2753 154.122 9.25194 153.971 9.20998C153.821 9.16801 153.678 9.10864 153.542 9.03188C153.406 8.95512 153.281 8.86319 153.167 8.7561C153.053 8.649 152.996 8.59555 152.996 8.5956Z" fill="#121212"/>
</svg>
