<svg width="710" height="800" viewBox="0 0 710 800" fill="none" xmlns="http://www.w3.org/2000/svg">
<path opacity="0.05" d="M380.579 25.2556C393.748 23.1077 407.07 22.0209 420.508 21.9954C433.945 22.4684 447.446 24.041 460.909 26.662C474.282 29.7816 487.464 33.8984 500.301 38.9614C512.817 44.4207 524.72 50.6983 535.792 57.7301C546.238 64.9922 555.546 72.8807 563.472 81.2934C570.517 89.7828 576.015 98.6813 579.876 107.912C582.97 117.054 584.658 126.464 585.156 136.078C585.668 145.501 585.795 155.09 586.09 164.807C587.828 174.306 590.884 183.921 595.845 193.65C603.567 203.15 613.872 212.79 626.862 222.583C642.46 232.159 660.001 241.94 678.668 251.913C697.551 261.719 715.348 271.768 730.716 282.073C742.824 292.263 750.418 302.747 752.771 313.537C750.431 324.264 743.131 335.311 731.739 346.715C718.519 358.068 704.353 369.805 691.108 381.9C681.365 393.982 675.765 406.461 675.292 419.323C680.7 432.185 690.571 445.149 703.445 458.164C718.366 471.192 732.583 484.272 744.269 497.377C752.784 510.482 756.223 523.574 754.228 536.615C747.427 549.63 735.805 562.543 720.45 575.264C702.819 587.909 683.973 600.311 665.23 612.367C647.804 624.232 632.436 635.662 619.651 646.555C609.96 657.128 603.068 667.05 598.606 676.191C596.394 688.81 597.545 708.525 597.353 715.352C595.09 720.326 580.541 724.443 568.305 723.982C558.678 723.343 547.785 722.141 535.933 720.492C523.493 719.252 510.426 717.909 496.976 716.644C483.271 716.235 469.424 716.196 455.59 716.669C441.706 718.319 427.936 720.645 414.384 723.676C400.857 727.933 387.56 732.804 374.532 738.2C361.504 744.49 349.038 750.806 337.071 756.904C325.053 763.272 313.482 768.961 302.295 773.781C290.98 778.243 279.947 781.465 269.13 783.332C258.058 784.406 247.076 783.932 236.106 781.925C224.778 778.959 213.348 774.459 201.79 768.526C189.811 761.712 177.665 753.606 165.378 744.375C152.81 734.505 140.242 723.714 127.777 712.194C115.388 700.317 103.408 687.902 92.0546 675.117C81.2382 662.23 71.368 649.125 62.6485 635.905C54.7856 622.749 48.2011 609.58 42.9464 596.45C38.4332 583.485 35.0196 570.572 32.552 557.774C30.1995 545.142 28.2689 532.587 26.5046 520.122C24.0882 507.797 21.3777 495.523 18.2837 483.287C14.1796 471.154 9.67918 459.021 4.94864 446.888C-0.331671 434.806 -5.31793 422.698 -9.65213 410.565C-13.5388 398.444 -16.1343 386.273 -17.1443 374.076C-17.0676 361.891 -15.2904 349.95 -12.0046 338.302C-8.0284 326.655 -3.08051 315.302 2.45551 304.268C7.72303 293.247 12.9778 282.584 17.9768 272.279C22.0169 262.013 25.6352 252.143 28.8443 242.707C31.184 233.31 33.4725 224.348 35.9017 215.858C38.1647 207.394 41.1053 199.391 44.9409 191.873C49.3262 184.342 54.9262 177.259 61.7791 170.637C69.5014 163.95 78.4638 157.66 88.5003 151.753C99.2399 145.693 110.798 139.939 122.957 134.493C135.409 128.791 148.169 123.293 161.082 118C173.88 112.349 186.653 106.838 199.31 101.443C211.673 95.6512 223.909 89.949 236.017 84.3618C247.805 78.3783 259.554 72.5483 271.317 66.8972C282.836 60.952 294.484 55.2882 306.323 49.9823C318.034 44.5741 330.027 39.6518 342.377 35.356C354.676 31.1752 367.398 27.7743 380.567 25.2556" stroke="url(#paint0_linear_1_3789)" stroke-width="2.55705" stroke-linecap="round" stroke-dasharray="2.56 3.84"/>
<path opacity="0.09" d="M411.001 41.8309C423.879 40.6 436.673 40.3885 449.306 41.1783C461.868 42.4372 474.229 44.7201 486.25 48.0044C498.111 51.7388 509.495 56.4264 520.255 61.9543C530.655 67.867 540.221 74.5281 548.766 81.8478C556.745 89.371 563.506 97.4363 568.942 105.946C573.721 114.5 577.143 123.393 579.265 132.553C581.045 141.651 581.875 150.951 582.051 160.435C582.748 169.802 583.584 179.371 585.074 189.128C588.287 198.801 593.047 208.724 599.786 218.916C609.067 229.069 620.607 239.522 634.332 250.258C649.97 260.95 666.821 271.894 684.042 283.031C700.814 293.995 715.952 305.048 728.307 316.136C737.341 326.874 742.007 337.573 741.796 348.183C737.47 358.439 728.825 368.684 716.741 378.995C703.346 389.174 689.341 399.643 676.396 410.521C666.77 421.607 660.944 433.32 659.723 445.705C663.858 458.468 672.046 471.569 683.024 484.905C696.044 498.372 708.665 511.85 719.261 525.147C727.27 538.247 730.881 550.999 729.64 563.306C724.015 575.251 713.797 586.719 699.807 597.702C683.261 608.402 664.988 618.685 646.194 628.547C627.987 638.258 611.127 647.59 596.259 656.486C583.923 665.279 574.11 673.558 566.671 681.248C557.894 700.636 552.818 719.144 548.864 721.236C542.576 721.881 521.837 718.994 507.884 716.201C497.63 714.58 486.563 712.837 474.866 711.139C462.817 710.25 450.349 709.664 437.643 709.535C424.746 710.483 411.731 712.012 398.687 714.141C385.551 717.392 372.44 721.182 359.414 725.415C346.329 730.476 333.64 735.553 321.336 740.451C308.975 745.602 296.951 750.162 285.251 753.95C273.443 757.448 261.881 759.823 250.519 760.994C238.976 761.461 227.545 760.525 216.163 758.17C204.56 754.954 192.944 750.301 181.307 744.288C169.46 737.453 157.611 729.375 145.801 720.197C133.971 710.389 122.347 699.673 111.056 688.225C100.074 676.401 89.6922 664.055 80.1075 651.318C71.1968 638.474 63.327 625.408 56.6423 612.26C50.7866 599.17 46.1615 586.078 42.7479 573.071C39.9148 560.195 38.0227 547.423 36.8657 534.768C35.6616 522.238 34.7088 509.776 33.7744 497.419C32.0795 485.123 30.0374 472.841 27.5555 460.617C24.0743 448.387 20.2205 436.17 16.1727 423.977C11.6367 411.801 7.43227 399.648 3.91563 387.556C0.86907 375.524 -0.889386 363.582 -1.10647 351.775C-0.201256 340.047 2.3421 328.717 6.34234 317.81C11.095 306.957 16.7945 296.49 23.0954 286.4C29.2169 276.309 35.3387 266.578 41.2175 257.201C46.2018 247.786 50.7255 238.723 54.7721 230.063C57.9133 221.338 60.8462 213.022 63.7467 205.165C66.3165 197.272 69.353 189.847 73.0594 182.919C77.1393 175.965 82.2608 169.508 88.4758 163.539C95.4759 157.522 103.662 151.948 112.934 146.797C122.958 141.519 133.893 136.588 145.563 131.965C157.685 127.104 170.278 122.47 183.152 118.034C196.153 113.262 209.26 108.612 222.358 104.09C235.343 99.1751 248.245 94.3443 261.048 89.6347C273.66 84.5527 286.185 79.6183 298.658 74.8726C310.957 69.871 323.275 65.1399 335.643 60.7969C347.916 56.3446 360.306 52.4005 372.859 49.0702C385.364 45.8648 398.072 43.4171 410.988 41.83" stroke="url(#paint1_linear_1_3789)" stroke-width="2.55705" stroke-linecap="round" stroke-dasharray="10.23 10.23"/>
<path opacity="0.13" d="M434.965 60.1595C447.416 59.7834 459.5 60.3496 471.183 61.8275C482.766 63.743 493.868 66.5846 504.389 70.3381C514.71 74.5022 524.319 79.495 533.108 85.2624C541.539 91.3665 549 98.1205 555.385 105.445C561.315 112.976 566.072 120.947 569.638 129.305C572.833 137.726 574.94 146.445 576.108 155.405C577.329 164.359 578.039 173.551 578.59 182.953C579.988 192.384 581.944 202.076 584.851 212.07C589.577 222.168 595.891 232.633 604.063 243.479C614.409 254.465 626.584 265.852 640.365 277.571C655.395 289.313 670.948 301.283 686.214 313.368C700.512 325.173 712.783 336.884 722.079 348.354C728.135 359.273 730.059 369.826 727.557 379.995C721.533 389.587 711.828 398.914 699.273 408.121C685.878 417.157 672.175 426.447 659.583 436.191C650.132 446.368 644.108 457.328 642.207 469.171C645.114 481.71 651.678 494.78 660.828 508.192C671.989 521.902 682.989 535.564 692.43 548.926C699.809 561.984 703.467 574.422 702.855 586.099C698.365 597.174 689.572 607.445 677.109 616.91C661.965 625.892 644.754 634.244 626.526 642.026C608.247 649.619 590.659 656.808 574.47 663.6C560.204 670.395 548.07 676.821 538.093 682.791C522.13 698.358 511.656 713.465 508.286 715.014C503.615 715.345 487.907 712.108 476.87 709.172C468.607 707.431 459.435 705.548 449.478 703.644C439.107 702.468 428.135 701.53 416.674 700.936C404.947 701.312 392.857 702.152 380.504 703.485C367.981 705.827 355.269 708.593 342.428 711.716C329.495 715.588 316.756 719.449 304.275 723.139C291.719 727.077 279.394 730.48 267.299 733.179C255.145 735.651 243.196 737.131 231.419 737.499C219.557 737.275 207.838 735.779 196.224 732.994C184.54 729.424 172.953 724.538 161.491 718.404C150.009 711.505 138.716 703.458 127.688 694.364C116.831 684.7 106.407 674.168 96.5336 662.939C87.1358 651.364 78.506 639.292 70.8306 626.864C63.8674 614.331 58.0017 601.618 53.322 588.828C49.3963 576.093 46.5916 563.376 44.8575 550.758C43.5483 538.24 42.9895 525.803 42.9806 513.495C42.7583 501.234 42.6446 489.028 42.4188 476.883C41.3576 464.71 39.9095 452.534 37.9932 440.381C35.1329 428.146 31.9237 415.914 28.5517 403.735C24.7838 391.527 21.3649 379.406 18.6459 367.45C16.4206 355.564 15.4666 343.909 16.0244 332.521C17.6581 321.286 20.8925 310.601 25.5232 300.45C30.9135 290.407 37.2443 280.833 44.1849 271.694C51.0224 262.553 57.8873 253.765 64.5447 245.348C70.381 236.801 75.7457 228.575 80.5954 220.702C84.5228 212.685 88.1161 205.021 91.5361 197.759C94.504 190.406 97.72 183.489 101.385 177.049C105.248 170.572 109.944 164.602 115.554 159.109C121.836 153.609 129.201 148.572 137.587 143.99C146.734 139.323 156.834 135.036 167.711 131.092C179.184 126.961 191.253 123.083 203.729 119.431C216.52 115.474 229.546 111.68 242.684 108.006C255.894 104.005 269.092 100.094 282.246 96.3051C295.344 92.1857 308.357 88.2091 321.262 84.4496C334.1 80.4352 346.869 76.7211 359.563 73.3577C372.202 69.9221 384.811 66.9729 397.39 64.6005C409.923 62.3638 422.458 60.8503 434.953 60.1577" stroke="url(#paint2_linear_1_3789)" stroke-width="2.55705" stroke-linecap="round" stroke-dasharray="14.06 1.28"/>
<path opacity="0.16" d="M452.385 79.0786C464.25 79.4821 475.532 80.7149 486.209 82.7591C496.749 85.1926 506.603 88.4464 515.701 92.4795C524.574 96.8955 532.596 102.044 539.683 107.829C546.468 113.929 552.251 120.61 556.98 127.759C561.4 135.129 564.793 142.893 567.199 150.994C569.487 159.214 571.007 167.726 571.958 176.509C573.255 185.392 574.421 194.573 575.797 204.062C578.236 213.713 581.457 223.742 585.777 234.189C591.813 244.874 599.341 256.037 608.465 267.686C619.295 279.545 631.474 291.824 644.654 304.436C658.474 317.054 672.226 329.802 685.154 342.49C696.741 354.786 706.046 366.749 712.34 378.235C715.579 388.973 715.024 399.106 710.545 408.58C703.126 417.369 692.611 425.717 679.823 433.811C666.58 441.769 653.259 449.971 641.09 458.656C631.845 467.969 625.675 478.191 623.138 489.454C624.914 501.644 629.948 514.494 637.353 527.814C646.686 541.535 656.084 555.191 664.305 568.49C670.98 581.431 674.545 593.574 674.44 604.719C670.971 615.089 663.602 624.373 652.761 632.598C639.241 640.143 623.448 646.821 606.287 652.747C588.574 658.384 570.993 663.527 554.223 668.243C538.781 672.982 524.999 677.424 513.083 681.521C499.134 687.653 481.815 697.664 476.721 701.108C469.246 704.25 452.773 701.614 443.921 698.811C437.269 697.147 429.689 695.297 421.278 693.36C412.449 692.092 402.886 690.954 392.673 690.042C382.132 689.988 371.046 690.275 359.504 690.922C347.735 692.448 335.594 694.3 323.132 696.371C310.522 699.129 297.951 701.83 285.487 704.332C272.955 707.094 260.546 709.346 248.288 710.95C236.025 712.397 223.908 712.92 211.976 712.463C200.058 711.512 188.309 709.408 176.76 706.13C165.273 702.199 154.004 697.072 143.019 690.803C132.211 683.892 121.761 675.92 111.761 667.012C102.129 657.608 93.1132 647.407 84.8179 636.589C77.1362 625.472 70.3333 613.916 64.5656 602.046C59.5212 590.096 55.5725 577.976 52.7552 565.824C50.5843 553.707 49.4163 541.608 49.1475 529.585C49.1412 517.619 49.6956 505.72 50.6277 493.89C51.2116 482.037 51.765 470.204 52.1105 458.365C51.6023 446.421 50.6735 434.427 49.2787 422.41C46.998 410.256 44.4317 398.093 41.7492 385.983C38.7336 373.841 36.1047 361.848 34.1721 350.082C32.7646 338.429 32.5785 327.117 33.8388 316.194C36.1617 305.499 39.9897 295.468 45.1427 286.087C51.0733 276.86 57.9092 268.167 65.3547 259.984C72.778 251.784 80.2635 243.963 87.5837 236.486C94.1664 228.851 100.299 221.485 105.911 214.412C110.615 207.119 114.89 200.125 118.88 193.476C124.058 183.434 135.518 165.325 142.829 157.401C148.459 152.255 155.02 147.583 162.522 143.401C170.726 139.174 179.851 135.353 189.785 131.903C200.369 128.344 211.612 125.07 223.388 122.054C235.604 118.819 248.16 115.762 260.952 112.886C273.951 109.714 287.064 106.685 300.16 103.796C313.355 100.627 326.487 97.6279 339.499 94.8253C352.526 91.8298 365.441 89.1111 378.191 86.7361C390.924 84.3182 403.507 82.3521 415.913 80.9101C428.274 79.6154 440.442 78.9724 452.372 79.0759" stroke="url(#paint3_linear_1_3789)" stroke-width="2.55705" stroke-linecap="round" stroke-dasharray="10.23 7.67"/>
<path opacity="0.2" d="M463.946 97.6387C475.104 98.7289 485.538 100.528 495.226 103.016C504.762 105.846 513.481 109.384 521.343 113.579C528.985 118.123 535.717 123.281 541.5 129.003C547.051 135.018 551.639 141.512 555.297 148.456C558.786 155.617 561.433 163.159 563.353 171.05C565.365 179.127 566.896 187.531 568.182 196.276C570.003 205.243 571.997 214.58 574.428 224.336C577.971 234.387 582.387 244.918 587.904 255.968C594.883 267.348 603.141 279.272 612.629 291.685C623.337 304.345 634.893 317.384 646.896 330.673C658.993 343.869 670.55 357.041 680.872 369.976C689.635 382.365 696.025 394.214 699.482 405.345C700.147 415.588 697.411 425.031 691.292 433.654C682.768 441.527 671.722 448.869 658.894 455.881C645.943 462.817 633.103 470.011 621.4 477.735C612.378 486.222 606.096 495.73 603.006 506.348C603.719 518.082 607.327 530.575 613.084 543.598C620.687 557.142 628.506 570.629 635.504 583.732C641.396 596.475 644.731 608.303 645.014 618.994C642.425 628.8 636.391 637.314 627.17 644.559C615.39 650.942 601.282 656.265 585.574 660.632C568.95 664.574 552.003 667.889 535.363 670.695C519.487 673.482 504.805 675.963 491.588 678.163C479.978 680.563 470.012 682.707 461.582 684.51C445.365 688.982 429.398 690.705 424.133 689.259C418.108 687.54 401.863 682.553 391.448 679.815C383.868 678.55 375.496 677.309 366.408 676.193C356.966 675.84 346.869 675.682 336.177 675.739C325.217 676.583 313.741 677.597 301.805 678.731C289.707 680.47 277.512 682.087 265.299 683.487C253.015 685.132 240.781 686.286 228.652 686.845C216.543 687.289 204.58 686.911 192.807 685.643C181.133 683.99 169.693 681.301 158.539 677.576C147.575 673.334 136.952 668.007 126.76 661.699C116.882 654.857 107.542 647.078 98.8251 638.483C90.5818 629.492 83.112 619.806 76.4995 609.597C70.529 599.148 65.5345 588.317 61.5859 577.229C58.3313 566.09 56.115 554.812 54.9492 543.492C54.2855 532.185 54.4719 520.885 55.4167 509.631C56.4301 498.37 57.8684 487.113 59.5226 475.892C60.7102 464.536 61.775 453.144 62.5783 441.689C62.5201 430.038 62.0495 418.294 61.1314 406.488C59.4289 394.493 57.4752 382.493 55.467 370.543C53.2025 358.559 51.35 346.761 50.1971 335.259C49.5687 323.922 50.1101 313.004 52.0353 302.594C54.9674 292.475 59.3016 283.122 64.8905 274.492C71.2444 266.07 78.4723 258.261 86.3129 251.002C94.1938 243.741 102.175 236.869 110.029 230.346C117.263 223.617 124.066 217.136 130.361 210.894C135.807 204.365 140.788 198.061 145.384 192.032C151.288 182.774 163.122 165.824 170.015 158.344C175.133 153.451 181.015 149.045 187.693 145.11C194.977 141.151 203.119 137.627 212.047 134.517C221.595 131.333 231.857 128.49 242.693 125.959C254.029 123.267 265.812 120.825 277.922 118.584C290.344 116.14 302.952 113.883 315.646 111.784C328.519 109.485 341.388 107.383 354.147 105.476C367.013 103.428 379.721 101.652 392.227 100.205C404.764 98.7394 417.064 97.6844 429.062 97.1146C441.034 96.6835 452.69 96.8396 463.93 97.6474" stroke="url(#paint4_linear_1_3789)" stroke-width="2.55705" stroke-linecap="round" stroke-dasharray="8.95 14.06"/>
<path opacity="0.24" d="M470.953 115.269C481.35 116.928 490.94 119.19 499.719 122.025C508.339 125.183 516.103 128.925 522.973 133.21C529.662 137.837 535.454 142.979 540.361 148.599C545.101 154.525 549.011 160.895 552.131 167.669C555.211 174.701 557.668 182.131 559.632 189.938C561.826 198.006 563.802 206.485 565.76 215.379C568.353 224.589 571.274 234.273 574.758 244.465C579.262 255.031 584.606 266.166 590.916 277.86C598.383 289.926 606.809 302.535 616.066 315.586C626.082 328.835 636.445 342.361 646.78 355.999C656.798 369.426 665.901 382.638 673.528 395.417C679.486 407.513 683.1 418.869 683.951 429.331C682.352 438.824 677.784 447.388 670.345 455.018C661.023 461.915 649.692 468.236 637.013 474.224C624.455 480.216 612.147 486.491 600.954 493.326C592.201 501.045 585.839 509.821 582.256 519.782C582.012 530.959 584.317 542.95 588.549 555.515C594.509 568.716 600.814 581.866 606.593 594.632C611.63 607.084 614.649 618.576 615.17 628.862C613.324 638.21 608.497 646.147 600.829 652.657C590.813 658.182 578.53 662.463 564.546 665.628C549.404 668.203 533.593 670.001 517.693 671.154C502.059 672.213 487.168 672.919 473.342 673.322C460.679 673.935 449.392 674.36 439.48 674.568C427.244 675.202 409.635 675.372 403.06 674.655C391.592 672.057 370.924 665.543 361.681 662.932C354.949 661.681 347.493 660.395 339.296 659.124C330.772 658.521 321.537 657.998 311.669 657.568C301.505 657.793 290.768 658.093 279.486 658.397C268.025 659.221 256.38 659.881 244.653 660.28C232.867 660.916 221.079 661.075 209.368 660.69C197.713 660.229 186.213 659.05 174.94 657.068C163.825 654.804 153.03 651.636 142.601 647.581C132.449 643.11 122.781 637.728 113.658 631.496C104.943 624.857 96.8881 617.425 89.586 609.316C82.8476 600.897 76.9557 591.918 71.9919 582.49C67.6884 572.896 64.3615 562.981 62.0601 552.87C60.3552 542.693 59.6328 532.4 59.8096 522.071C60.3633 511.717 61.614 501.319 63.459 490.936C65.2464 480.45 67.2939 469.923 69.4444 459.339C71.0668 448.561 72.503 437.659 73.6272 426.643C73.931 415.339 73.8465 403.905 73.3724 392.382C72.1979 380.616 70.8453 368.852 69.4947 357.157C67.9673 345.424 66.8781 333.906 66.4692 322.762C66.5882 311.812 67.8086 301.349 70.3212 291.484C73.7936 281.972 78.5672 273.293 84.5054 265.41C91.1756 257.797 98.6909 250.848 106.795 244.485C115.004 238.132 123.357 232.201 131.628 226.607C139.403 220.803 146.788 215.21 153.705 209.813C162.668 201.299 177.458 184.726 183.914 176.843C190.073 168.987 204.27 155.097 212.975 149.213C219.459 145.4 226.69 142.039 234.631 139.117C243.148 136.147 252.337 133.575 262.121 131.344C272.427 129.032 283.212 127.007 294.39 125.248C305.944 123.355 317.754 121.692 329.711 120.26C341.915 118.675 354.172 117.313 366.358 116.184C378.689 114.958 390.889 114.011 402.878 113.382C414.907 112.753 426.673 112.505 438.086 112.699C449.467 113.017 460.451 113.857 470.941 115.265" stroke="url(#paint5_linear_1_3789)" stroke-width="2.55705" stroke-linecap="round" stroke-dasharray="6.39 3.84"/>
<path opacity="0.28" d="M475.102 131.87C484.694 134.015 493.5 136.662 501.495 139.8C509.337 143.218 516.334 147.14 522.504 151.53C531.114 158.814 544.279 176.071 549.11 185.986C552.194 193.026 554.839 200.512 557.197 208.416C559.855 216.652 562.463 225.37 565.217 234.574C568.583 244.166 572.354 254.319 576.663 265.022C581.835 276.142 587.707 287.858 594.311 300.128C601.742 312.742 609.775 325.823 618.247 339.271C627.042 352.808 635.792 366.478 644.115 380.069C651.829 393.329 658.371 406.173 663.32 418.413C666.623 429.856 667.692 440.404 666.259 449.939C662.749 458.482 656.703 466.024 648.289 472.597C638.457 478.49 627.063 483.834 614.688 488.834C602.616 493.971 590.905 499.396 580.255 505.425C571.789 512.424 565.398 520.483 561.402 529.733C560.297 540.284 561.411 551.666 564.249 563.643C568.69 576.326 573.571 588.998 578.168 601.304C582.309 613.376 584.917 624.492 585.537 634.389C584.253 643.374 580.467 650.881 574.238 656.868C565.907 661.824 555.47 665.384 543.346 667.679C529.945 669.258 515.66 669.907 500.965 669.783C486.159 669.44 471.694 668.619 457.896 667.469C444.854 666.476 432.852 665.292 421.982 663.96C412.196 662.961 403.509 661.826 395.858 660.54C386.154 659.017 370.66 655.279 363.881 652.928C357.305 650.809 342.558 645.851 333.861 643.211C327.61 641.897 320.716 640.518 313.178 639.073C305.332 638.218 296.816 637.356 287.688 636.485C278.257 636.193 268.246 635.85 257.711 635.425C246.954 635.461 236.017 635.276 224.977 634.82C213.866 634.584 202.771 633.907 191.765 632.723C180.82 631.525 170.073 629.673 159.601 627.145C149.333 624.415 139.446 620.931 130.021 616.701C120.933 612.16 112.403 606.876 104.538 600.894C97.1301 594.614 90.4626 587.686 84.6375 580.226C79.364 572.538 74.9819 564.395 71.5699 555.904C68.7426 547.298 66.8657 538.418 65.9553 529.385C65.5346 520.292 65.9609 511.062 67.1924 501.787C68.6267 492.436 70.6353 482.992 73.0764 473.491C75.3508 463.831 77.7803 454.044 80.2157 444.12C82.0968 433.932 83.7465 423.542 85.0971 412.975C85.6964 402.083 85.9447 391.006 85.8626 379.822C85.1976 368.375 84.4235 356.922 83.7101 345.552C82.8929 334.163 82.521 323.031 82.8118 312.295C83.6337 301.813 85.485 291.878 88.53 282.592C92.4727 273.711 97.5963 265.726 103.789 258.574C110.694 251.741 118.388 245.615 126.645 240.106C135.075 234.648 143.673 229.63 152.249 224.938C160.423 220.051 168.277 215.343 175.721 210.801C185.61 203.503 202.233 188.946 209.389 181.834C215.983 174.568 230.019 161.426 238.092 155.736C243.955 152.024 250.437 148.746 257.532 145.911C265.078 143.041 273.248 140.592 281.988 138.526C291.201 136.407 300.909 134.651 311.013 133.199C321.515 131.674 332.32 130.44 343.331 129.466C354.601 128.413 365.974 127.631 377.341 127.112C388.872 126.541 400.299 126.26 411.533 126.285C422.821 126.347 433.848 126.769 444.525 127.595C455.162 128.542 465.382 129.947 475.09 131.865" stroke="url(#paint6_linear_1_3789)" stroke-width="2.55705" stroke-linecap="round" stroke-dasharray="8.95 8.95"/>
<path opacity="0.32" d="M478.106 147.882C486.925 150.434 495.004 153.416 502.344 156.827C512.75 162.556 529.69 176.62 536.373 184.949C540.564 190.949 544.209 197.396 547.418 204.277C550.726 211.486 553.762 219.174 556.641 227.343C559.84 235.887 563.092 244.954 566.528 254.57C570.507 264.608 574.839 275.229 579.629 286.429C585.065 298.021 590.982 310.177 597.377 322.821C604.249 335.738 611.386 348.999 618.612 362.498C625.823 375.945 632.653 389.346 638.785 402.504C644.097 415.19 648.133 427.306 650.551 438.654C651.433 449.131 650.285 458.632 646.938 467.038C641.887 474.484 634.728 480.91 625.674 486.405C615.579 491.326 604.327 495.725 592.403 499.836C580.906 504.177 569.841 508.851 559.741 514.131C551.572 520.436 545.203 527.796 540.869 536.31C539.013 546.156 539.07 556.844 540.672 568.115C543.715 580.161 547.255 592.228 550.713 603.961C553.964 615.568 556.087 626.248 556.671 635.767C555.788 644.424 552.861 651.619 547.887 657.276C541.114 661.878 532.462 665.005 522.204 666.775C510.672 667.728 498.131 667.616 484.988 666.599C471.443 665.221 457.916 663.271 444.722 660.891C431.892 658.562 419.79 656.015 408.539 653.315C398.051 650.925 388.492 648.453 379.867 645.919C368.432 642.67 349.729 636.281 341.68 633.054C334.099 630.253 318.426 624.493 309.773 621.579C300.363 619.29 278.563 615.068 266.07 613.166C257.29 612.377 247.976 611.475 238.203 610.427C228.217 609.773 218.079 608.892 207.868 607.74C197.595 606.786 187.361 605.433 177.261 603.643C167.23 601.861 157.449 599.532 148.023 596.652C138.8 593.636 130.014 589.998 121.778 585.77C113.879 581.347 106.627 576.313 100.09 570.734C93.9937 564.958 88.7128 558.69 84.2855 551.996C80.3664 545.141 77.3556 537.946 75.2625 530.475C73.6699 522.911 72.9648 515.128 73.1386 507.222C73.6535 499.194 74.9209 491.064 76.8437 482.821C78.8393 474.443 81.2963 465.936 84.0659 457.307C86.5799 448.425 89.1744 439.338 91.7056 430.073C93.6929 420.442 95.4584 410.576 96.9389 400.484C97.7613 390.023 98.2925 379.348 98.57 368.551C98.3859 357.505 98.1507 346.446 98.0212 335.488C97.8804 324.524 98.1883 313.859 99.1353 303.625C100.589 293.664 103.009 284.309 106.512 275.639C110.859 267.423 116.255 260.12 122.631 253.692C129.671 247.622 137.45 242.284 145.771 237.585C154.3 232.983 163.028 228.823 171.775 225.006C180.246 220.998 188.455 217.183 196.31 213.511C207.011 207.465 225.394 195.099 233.343 188.878C240.547 182.315 254.933 170.093 262.704 164.662C271.148 159.464 290.929 151.058 302.357 147.842C310.546 145.816 319.187 144.165 328.224 142.885C337.627 141.57 347.336 140.58 357.275 139.916C367.495 139.216 377.826 138.821 388.211 138.732C398.751 138.624 409.236 138.835 419.573 139.373C429.961 139.953 440.121 140.904 449.955 142.216C459.756 143.671 469.166 145.555 478.089 147.887" stroke="url(#paint7_linear_1_3789)" stroke-width="2.55705" stroke-linecap="round" stroke-dasharray="6.39 6.39"/>
<path opacity="0.35" d="M481.412 164.147C489.49 167.019 496.939 170.31 503.728 173.999C513.394 180.1 529.49 194.807 536.107 203.456C540.309 209.655 544.119 216.332 547.628 223.484C551.229 230.967 554.652 238.972 558.017 247.5C561.649 256.394 565.344 265.858 569.23 275.881C573.501 286.299 578.042 297.296 582.879 308.829C588.115 320.689 593.624 333.025 599.323 345.754C605.221 358.623 611.074 371.706 616.727 384.844C622.098 397.804 626.865 410.548 630.76 422.876C633.766 434.627 635.473 445.677 635.614 455.858C634.414 465.144 631.409 473.409 626.543 480.574C620.319 486.848 612.412 492.149 603.001 496.573C592.91 500.567 581.97 504.085 570.596 507.404C559.747 511.04 549.347 515.02 539.827 519.618C531.992 525.282 525.678 531.938 521.09 539.717C518.587 548.814 517.738 558.716 518.238 569.214C520.026 580.497 522.347 591.845 524.73 602.929C527.09 613.954 528.664 624.163 529.109 633.265C527.324 645.102 513.346 659.95 501.354 662.954C491.69 663.618 480.977 663.119 469.562 661.6C457.579 659.617 445.363 656.926 433.211 653.702C421.119 650.408 409.452 646.825 398.369 643.035C387.739 639.487 377.824 635.862 368.663 632.215C360.047 628.927 352.137 625.647 344.847 622.367C334.781 618.071 316.817 609.973 308.3 606.098C299.723 602.82 281.353 596.584 271.22 593.638C264.071 592.095 256.516 590.478 248.534 588.771C240.291 587.475 231.642 586.057 222.634 584.488C213.41 583.237 204.11 581.771 194.823 580.071C185.458 578.564 176.191 576.71 167.14 574.494C158.142 572.311 149.464 569.695 141.169 566.641C133.088 563.511 125.514 559.914 118.522 555.853C108.85 549.356 93.7497 534.054 88.5387 525.431C84.8453 516.347 82.2769 496.9 83.2707 486.696C84.4123 479.703 86.1713 472.57 88.4731 465.297C90.7381 457.819 93.3607 450.159 96.1983 442.301C98.7518 434.128 101.313 425.703 103.819 417.031C105.798 407.95 107.574 398.589 109.125 388.965C110.116 378.956 110.883 368.729 111.501 358.379C111.747 347.778 112.015 337.191 112.456 326.713C112.916 316.277 113.845 306.153 115.394 296.483C117.419 287.113 120.328 278.378 124.239 270.353C128.89 262.811 134.499 256.193 140.978 250.473C148.068 245.124 155.84 240.54 164.127 236.6C172.648 232.792 181.386 229.455 190.193 226.463C198.818 223.327 207.271 220.369 215.429 217.542C223.117 214.358 230.434 211.21 237.34 208.09C246.737 202.779 263.416 191.863 271.126 186.468C278.597 180.877 294.465 170.885 303.235 166.66C312.724 162.709 334.184 156.769 346.103 154.763C354.456 153.542 363.115 152.696 371.999 152.19C381.117 151.695 390.396 151.544 399.743 151.739C409.222 151.941 418.695 152.488 428.07 153.381C437.478 154.341 446.718 155.663 455.694 157.378C464.619 159.197 473.207 161.453 481.401 164.141" stroke="url(#paint8_linear_1_3789)" stroke-width="2.55705" stroke-linecap="round" stroke-dasharray="5.11 5.11"/>
<path opacity="0.39" d="M485.945 181.657C493.331 184.823 500.192 188.398 506.521 192.375C515.572 198.863 531.061 214.378 537.688 223.448C541.937 229.926 545.896 236.905 549.63 244.385C553.448 252.181 557.127 260.51 560.779 269.374C564.602 278.586 568.473 288.358 572.452 298.654C576.666 309.298 581.002 320.444 585.463 332.047C590.105 343.879 594.783 356.07 599.425 368.505C604.013 380.949 608.346 393.458 612.241 405.851C615.704 417.926 618.416 429.639 620.178 440.811C621.072 451.328 620.703 461.059 618.923 469.861C616.014 477.801 611.562 484.732 605.577 490.598C598.56 495.688 590.22 499.9 580.745 503.324C570.859 506.444 560.384 509.179 549.68 511.793C539.501 514.794 529.791 518.171 520.866 522.143C513.385 527.193 507.171 533.176 502.395 540.202C499.37 548.517 497.75 557.596 497.294 567.23C497.967 577.681 499.186 588.231 500.582 598.562C502.086 608.941 503.077 618.593 503.28 627.268C501.814 638.683 490.733 653.26 481.079 656.282C473.15 656.938 464.241 656.381 454.609 654.735C444.307 652.533 433.645 649.526 422.847 645.863C411.876 642.025 401.08 637.777 390.619 633.267C380.341 628.876 370.558 624.373 361.346 619.829C352.452 615.584 344.132 611.38 336.357 607.212C328.87 603.43 321.84 599.716 315.174 596.047C305.521 591.195 287.025 582.246 277.726 578.099C268.098 574.551 247.456 567.912 236.309 564.723C228.54 562.94 220.488 561.046 212.221 558.992C203.733 557.236 195.293 555.309 186.943 553.195C178.5 551.25 170.254 549.037 162.279 546.563C154.338 544.131 146.777 541.375 139.664 538.313C129.523 533.499 112.593 522.099 106.078 515.572C100.828 508.643 94.763 493.462 93.9567 485.327C94.2776 476.847 98.38 458.831 101.744 449.258C104.045 442.553 106.602 435.608 109.322 428.419C111.731 420.856 114.151 413.017 116.506 404.86C118.385 396.289 120.135 387.4 121.708 378.255C122.82 368.722 123.799 358.981 124.704 349.105C125.358 339.029 126.09 328.978 127.042 319.058C128.059 309.201 129.55 299.693 131.622 290.645C134.13 281.934 137.464 273.847 141.687 266.493C146.589 259.64 152.318 253.712 158.82 248.655C165.887 244.015 173.573 240.131 181.732 236.898C190.138 233.847 198.807 231.259 207.551 229.043C216.207 226.731 224.751 224.591 233.09 222.602C241.058 220.276 248.73 217.985 256.043 215.685C266.177 211.603 284.341 202.844 292.671 198.323C300.611 193.468 316.667 184.49 325.152 180.577C334.056 176.828 353.672 171.122 364.39 169.201C371.857 168.03 379.586 167.258 387.527 166.865C395.635 166.483 403.9 166.471 412.26 166.847C420.722 167.234 429.206 168.003 437.629 169.155C446.089 170.366 454.417 171.972 462.541 173.984C470.607 176.096 478.429 178.647 485.935 181.649" stroke="url(#paint9_linear_1_3789)" stroke-width="2.55705" stroke-linecap="round" stroke-dasharray="10.23 12.79"/>
<path opacity="0.43" d="M491.91 201.319C501.828 206.67 519.379 219.761 527.071 227.55C536.761 238.869 545.223 252.165 552.806 267.399C560.489 283.76 567.856 302.268 575.148 322.678C582.791 344.057 590.255 366.929 597.055 390.462C603.013 413.564 606.809 435.833 607.283 455.93C604.579 473.389 597.086 487.343 584.534 497.277C569.023 504.693 550.189 509.582 529.937 513.315C520.485 515.781 511.462 518.611 503.148 522.028C496.033 526.483 489.968 531.814 485.094 538.092C481.644 545.598 479.385 553.816 478.138 562.56C477.846 572.116 478.089 581.792 478.583 591.311C479.885 610.534 479.106 626.442 474.933 637.698C467.166 645.66 455.225 648.19 440.079 645.944C422.315 641.251 403.299 633.512 384.413 623.902C365.446 614.291 347.839 604.225 331.967 594.192C316.698 585.462 302.793 577.103 289.896 569.098C276.858 562.619 263.957 556.374 250.903 550.25C244.05 547.709 237.069 545.142 229.968 542.557C222.618 540.264 215.145 537.899 207.574 535.452C199.805 533.238 192.18 530.913 184.739 528.492C177.191 526.215 169.918 523.752 162.978 521.136C149.172 516.034 137.225 510.03 127.579 503.215C118.754 496.225 112.68 488.369 109.525 479.925C107.305 471.052 107.797 461.498 110.659 451.409C113.621 440.432 118.049 428.503 123.258 415.577C127.261 401.07 131.192 385.226 134.732 368.244C136.863 349.86 139.051 330.955 141.855 312.372C143.373 303.171 145.328 294.325 147.856 285.95C150.784 277.932 154.453 270.545 158.922 263.873C163.978 257.716 169.767 252.452 176.223 248.042C183.196 244.07 190.708 240.827 198.664 238.264C215.271 233.644 232.458 230.593 249.385 228.378C265.309 225.074 280.143 221.75 293.797 218.311C306.078 213.25 317.688 208.289 328.979 203.78C339.875 198.296 351.257 193.78 363.329 190.505C375.819 186.915 389.263 184.808 403.441 184.266C418.063 183.716 433.165 184.75 448.272 187.416C455.831 188.812 463.315 190.632 470.662 192.889C477.943 195.241 485.034 198.036 491.892 201.32" stroke="url(#paint10_linear_1_3789)" stroke-width="2.55705" stroke-linecap="round" stroke-dasharray="6.39 12.79"/>
<path opacity="0.47" d="M498.883 223.724C511.062 231.154 521.902 240.406 531.466 251.414C540.604 263.151 548.73 276.868 556.034 292.446C563.247 308.939 569.955 327.353 576.198 347.318C582.312 367.835 587.675 389.337 591.782 410.895C594.679 431.625 595.158 451.04 592.395 467.992C586.912 482.385 577.373 493.427 563.83 500.828C548.278 506.296 530.348 509.717 511.595 512.35C494.869 516.971 480.362 523.803 469.348 533.756C462.962 548.248 459.959 564.732 458.931 581.649C458.833 599.406 457.533 614.373 453.942 625.302C447.693 633.464 438.213 636.612 426.038 635.167C411.453 631.214 395.416 623.994 379.023 614.579C361.984 604.747 345.643 594.111 330.457 583.302C315.379 573.441 301.381 563.922 288.346 554.864C275.025 547.083 262.088 539.715 249.362 532.679C235.833 526.772 222.188 520.983 208.587 515.131C194.244 510.037 180.929 504.787 168.969 499.326C156.956 494.064 146.892 488.313 139.047 482.16C131.771 475.83 127.039 468.987 124.897 461.748C123.348 454.015 124.126 445.681 126.886 436.749C129.519 426.778 133.362 415.774 137.891 403.687C141.347 389.992 144.88 374.977 148.321 358.886C150.719 341.559 153.457 323.848 157.013 306.581C161.08 289.779 167.217 274.756 176.001 262.33C186.793 251.89 199.987 244.773 214.998 240.512C231.059 237.191 247.786 235.472 264.44 234.668C280.436 233.002 295.645 231.37 309.849 229.577C322.907 226.249 335.251 222.864 347.091 219.684C358.405 215.414 369.861 211.84 381.625 209.283C393.512 206.274 406.026 204.597 419.016 204.407C432.25 204.151 445.852 205.509 459.461 208.541C473.008 211.744 486.257 216.75 498.874 223.715" stroke="url(#paint11_linear_1_3789)" stroke-width="2.55705" stroke-linecap="round" stroke-dasharray="6.39 6.39"/>
<path opacity="0.51" d="M505.911 248.862C516.94 256.651 526.87 266.285 535.68 277.645C544.074 289.594 551.512 303.415 558.088 318.904C564.388 335.047 569.93 352.783 574.654 371.62C578.914 390.627 581.989 410.07 583.453 429.043C583.588 446.921 581.26 463.155 575.956 476.799C568.473 488.155 557.699 496.43 543.846 501.556C528.727 505.328 511.965 507.515 494.823 509.253C479.493 513.058 466.013 518.913 455.307 527.555C448.288 540.361 444.093 554.969 441.735 570.069C440.353 586.233 438.43 600.146 435.074 610.648C429.884 618.982 422.315 622.815 412.632 622.389C400.856 619.58 387.68 613.435 373.854 604.878C359.097 595.539 344.527 585.061 330.609 574.143C316.422 563.77 302.967 553.569 290.329 543.788C277.259 535.005 264.651 526.685 252.474 518.852C239.545 511.925 226.834 505.283 214.5 498.836C201.469 492.99 189.687 487.319 179.374 481.747C168.934 476.339 160.396 470.783 153.947 465.12C145.904 456.19 141.432 435.901 144.109 423.9C146.189 414.562 149.339 404.174 153.118 392.666C156.03 379.638 159.206 365.385 162.549 350.181C165.192 333.976 168.419 317.543 172.592 301.657C177.326 286.366 184 272.824 193.021 261.797C203.738 252.685 216.516 246.751 230.886 243.54C246.225 241.366 262.28 240.83 278.402 241.276C294.189 241.131 309.425 241.097 323.88 240.953C337.441 239.432 350.34 237.762 362.648 236.137C374.409 233.375 386.061 231.067 397.72 229.539C409.304 227.463 421.191 226.501 433.321 226.913C445.506 227.155 457.905 228.951 470.256 232.428C482.465 236.015 494.435 241.434 505.911 248.862Z" stroke="url(#paint12_linear_1_3789)" stroke-width="2.55705" stroke-linecap="round" stroke-dasharray="7.67 12.79"/>
<path opacity="0.54" d="M511.695 276.093C521.627 284.17 530.525 293.989 538.385 305.395C545.81 317.263 552.252 330.771 557.729 345.646C562.797 360.933 566.874 377.366 569.846 394.437C572.171 411.358 573.028 428.214 572.132 444.191C569.983 458.953 565.502 471.894 558.446 482.316C549.737 490.814 538.432 496.599 524.843 499.784C510.561 502.148 495.18 503.373 479.669 504.408C465.734 507.52 453.277 512.496 442.989 519.901C435.564 531.04 430.473 543.773 426.998 557.038C424.485 571.516 421.895 584.232 418.528 594.192C413.971 602.536 407.781 607.008 400.035 607.664C390.619 606.183 379.961 601.466 368.597 594.23C356.196 586 343.637 576.345 331.367 565.953C318.564 555.728 306.191 545.431 294.42 535.397C282.12 526.058 270.25 517.132 258.875 508.728C246.815 501.026 235.133 493.712 224.032 486.757C212.32 480.286 201.922 474.226 192.993 468.506C183.886 462.891 176.56 457.391 171.103 451.957C164.146 443.387 159.957 424.141 161.906 412.625C163.377 403.618 165.807 393.571 168.896 382.471C171.333 370.017 174.214 356.481 177.494 342.205C180.372 327.174 184.006 312.079 188.691 297.66C193.935 283.908 200.949 271.876 210.037 262.233C220.543 254.419 232.791 249.57 246.377 247.306C260.858 246.126 276.053 246.591 291.435 248.12C306.707 249.315 321.656 250.741 336.014 252.154C349.759 252.409 362.925 252.496 375.504 252.533C387.578 251.492 399.407 250.719 411.017 250.501C422.436 249.655 433.909 249.72 445.381 250.961C456.773 251.972 468.199 254.393 479.478 258.407C490.558 262.478 501.379 268.311 511.695 276.093Z" stroke="url(#paint13_linear_1_3789)" stroke-width="2.55705" stroke-linecap="round" stroke-dasharray="7.67 8.95"/>
<path opacity="0.58" d="M515.006 304.179C523.828 312.434 531.611 322.202 538.329 333.302C544.637 344.733 549.882 357.479 554.049 371.213C557.726 385.133 560.244 399.758 561.481 414.554C562.01 428.974 560.981 442.937 558.205 455.74C554.342 467.362 548.417 477.158 540.367 484.619C531.139 490.575 519.91 494.268 507.056 495.892C493.887 497.157 479.999 497.657 466.135 498.171C453.575 500.705 442.139 504.871 432.353 511.119C424.737 520.653 418.987 531.574 414.653 543.016C411.183 555.742 407.924 567.164 404.373 576.403C397.476 587.026 376.643 589.399 363.143 582.181C352.935 575.47 342.433 567.13 331.949 557.797C320.817 548.341 309.877 538.527 299.328 528.747C288.185 519.39 277.395 510.29 267.078 501.628C256.121 493.482 245.609 485.73 235.73 478.403C225.317 471.429 216.182 465.021 208.428 459.079C197.272 450.374 183.133 433.419 180.197 424.449C178.758 417.77 178.74 410.55 179.92 402.661C180.828 393.758 182.651 383.897 185.184 373.093C187.26 361.18 189.947 348.405 193.222 335.104C196.314 321.295 200.278 307.6 205.331 294.672C210.923 282.491 218.114 271.966 227.128 263.668C237.26 257.085 248.861 253.239 261.587 251.791C275.092 251.452 289.267 252.755 303.696 255.162C318.182 257.47 332.525 260.164 346.452 262.948C360.007 264.844 373.088 266.624 385.64 268.325C397.807 269.069 409.622 269.954 421.095 271.203C432.344 271.833 443.451 273.155 454.335 275.436C465.099 277.444 475.698 280.664 486 285.291C496.097 289.93 505.828 296.175 515.006 304.179Z" stroke="url(#paint14_linear_1_3789)" stroke-width="2.55705" stroke-linecap="round" stroke-dasharray="2.56 12.79"/>
<path opacity="0.62" d="M514.837 331.46C522.534 339.729 529.139 349.185 534.654 359.623C539.768 370.287 543.753 381.866 546.559 394.035C548.897 406.204 549.954 418.655 549.671 430.863C548.736 442.616 546.264 453.621 542.183 463.332C537.254 472.009 530.574 478.957 522.179 483.878C513.032 487.726 502.399 489.77 490.595 490.228C478.728 490.707 466.392 490.717 454.143 490.883C442.916 492.938 432.502 496.385 423.295 501.558C415.671 509.567 409.529 518.722 404.576 528.396C400.337 539.339 396.482 549.348 392.648 557.701C386.065 568 368.579 573.142 357.635 568.332C349.338 563.321 340.693 556.599 331.955 548.696C322.554 540.478 313.181 531.656 304.036 522.589C294.311 513.716 284.824 504.9 275.733 496.346C266.076 488.139 256.833 480.227 248.193 472.681C239.068 465.393 231.122 458.688 224.396 452.454C214.661 443.279 202.039 425.487 199.13 416.105C197.591 409.18 197.234 401.75 197.947 393.717C198.449 384.79 199.834 375.058 201.977 364.591C203.842 353.238 206.433 341.271 209.742 329.016C213.014 316.488 217.228 304.252 222.526 292.844C228.291 282.214 235.502 273.161 244.27 266.166C253.922 260.742 264.779 257.794 276.552 257.045C288.958 257.392 301.997 259.334 315.311 262.413C328.767 265.588 342.215 269.296 355.409 273.205C368.39 276.501 381.027 279.785 393.226 283.022C405.129 285.473 416.692 287.997 427.815 290.756C438.76 292.939 449.404 295.629 459.67 299.03C469.804 302.169 479.62 306.28 488.982 311.541C498.144 316.784 506.812 323.39 514.837 331.46Z" stroke="url(#paint15_linear_1_3789)" stroke-width="2.55705" stroke-linecap="round" stroke-dasharray="3.84 14.06"/>
<path opacity="0.66" d="M510.665 356.118C517.244 364.206 522.69 373.099 527.008 382.597C530.963 392.226 533.747 402.338 535.326 412.654C536.472 422.864 536.351 432.967 534.92 442.573C532.938 451.705 529.556 459.915 524.756 466.831C519.36 472.94 512.515 477.514 504.368 480.414C495.754 482.629 486.037 483.471 475.515 483.152C465.061 483.127 454.264 482.854 443.547 482.812C433.618 484.461 424.226 487.272 415.65 491.478C408.209 498.047 401.897 505.566 396.543 513.523C391.769 522.705 387.42 531.232 383.28 538.557C376.747 548.147 361.427 555.197 352.396 552.502C345.598 549.145 338.532 544.118 331.339 537.807C323.57 531.118 315.745 523.593 308.038 515.602C299.792 507.639 291.7 499.491 283.921 491.378C275.646 483.472 267.712 475.687 260.305 468.12C252.499 460.727 245.679 453.8 239.897 447.302C231.499 437.643 220.311 418.667 217.524 408.697C215.967 401.441 215.448 393.75 215.866 385.557C216.168 376.642 217.312 367.116 219.228 357.039C221.043 346.36 223.626 335.302 226.988 324.186C230.426 312.992 234.788 302.224 240.194 292.346C245.99 283.232 253.054 275.597 261.445 269.837C270.493 265.464 280.5 263.324 291.249 263.167C302.515 264.038 314.314 266.426 326.382 269.945C338.615 273.725 350.933 278.131 363.1 282.876C375.177 287.282 387.036 291.763 398.505 296.26C409.815 300.181 420.786 304.163 431.314 308.285C441.691 311.94 451.695 315.942 461.226 320.438C470.63 324.696 479.596 329.672 487.989 335.499C496.193 341.316 503.81 348.161 510.665 356.118Z" stroke="url(#paint16_linear_1_3789)" stroke-width="2.55705" stroke-linecap="round" stroke-dasharray="11.51 3.84"/>
<path opacity="0.7" d="M502.578 376.485C508.052 384.216 512.388 392.337 515.606 400.688C518.52 409.103 520.277 417.613 520.881 425.983C520.631 438.144 513.531 458.88 506.671 466.375C501.3 470.407 494.788 473.168 487.281 474.574C479.527 475.665 470.955 475.717 461.806 474.992C452.772 474.702 443.478 474.308 434.229 474.171C425.512 475.501 417.123 477.746 409.263 481.06C402.148 486.321 395.88 492.309 390.342 498.656C382.92 509.636 369.588 527.837 362.898 533.165C355.563 535.753 339.28 531.06 330.448 524.571C324.052 519.436 317.609 513.373 311.234 506.638C304.422 499.841 297.688 492.642 291.202 485.237C284.309 477.95 277.69 470.555 271.496 463.16C264.968 455.894 259.257 448.928 254.402 442.218C249.363 435.497 245.266 428.902 242.106 422.354C238.872 415.614 236.594 408.722 235.245 401.645C233.848 394.161 233.342 386.289 233.696 378.053C233.983 369.294 235.091 360.106 236.956 350.608C238.798 340.735 241.442 330.7 244.866 320.799C248.396 310.995 252.83 301.716 258.205 293.332C263.884 285.694 270.647 279.391 278.516 274.796C286.868 271.371 295.964 269.921 305.639 270.235C315.688 271.474 326.177 274.119 336.908 277.877C347.802 281.983 358.809 286.801 369.732 292.035C380.648 297.148 391.409 302.46 401.862 307.863C412.241 312.899 422.307 318.014 431.957 323.224C441.489 328.095 450.628 333.189 459.251 338.579C467.759 343.782 475.758 349.471 483.12 355.711C490.323 361.93 496.866 368.847 502.578 376.485Z" stroke="url(#paint17_linear_1_3789)" stroke-width="2.55705" stroke-linecap="round" stroke-dasharray="2.56 7.67"/>
<path opacity="0.73" d="M491.172 391.367C499.781 405.827 504.039 420.289 504.129 433.49C503.125 446.188 497.79 456.283 488.645 462.354C478.48 467.123 464.979 468.056 449.415 466.016C434.286 466.022 418.638 466.98 403.924 470.473C391.102 480.086 380.35 490.848 371.226 500.341C362.2 510.58 353.332 515.776 344.53 515.327C334.502 513.051 324.119 505.756 314.041 494.966C302.567 483.78 291.457 470.62 281.701 456.516C270.894 442.739 262.91 429.169 257.894 415.8C252.603 401.847 250.526 386.948 251.482 371.212C252.398 354.23 256.33 336.351 263.18 319.116C270.471 302.655 281.151 289.21 295.346 281.125C310.78 277.021 328.393 279.321 346.894 286.326C365.956 294.964 385.299 305.965 403.69 317.824C421.977 329.006 439.18 340.66 454.32 352.7C469.109 364.301 481.745 377.16 491.172 391.367Z" stroke="url(#paint18_linear_1_3789)" stroke-width="2.55705" stroke-linecap="round" stroke-dasharray="7.67 14.06"/>
<path opacity="0.77" d="M477.45 400.27C484.178 413.292 486.989 425.24 486.208 435.261C484.629 444.906 479.468 451.833 471.273 455.351C462.499 458.308 451.147 458.405 438.224 456.455C425.632 456.528 412.366 457.311 399.452 459.811C387.637 466.978 377.228 474.878 368.189 481.903C359.288 490.013 350.827 494.526 342.845 494.762C334.101 493.943 325.371 488.878 317.112 480.406C307.842 471.541 299.008 460.288 291.35 447.392C282.899 434.696 276.768 421.533 273.064 408.246C269.145 394.602 267.916 380.115 269.321 365.206C270.767 349.695 274.916 333.943 281.684 319.334C288.832 305.726 298.837 294.993 311.679 288.95C325.277 286.119 340.483 288.727 356.243 295.421C372.405 303.768 388.794 314.531 404.368 326.352C419.953 338.052 434.551 350.3 447.262 362.624C459.7 374.736 470.087 387.397 477.45 400.27Z" stroke="url(#paint19_linear_1_3789)" stroke-width="2.55705" stroke-linecap="round" stroke-dasharray="1.28 10.23"/>
<path opacity="0.81" d="M462.619 403.471C468.533 419.674 464.235 441.676 455.042 446.092C447.813 448.079 438.603 447.991 428.14 446.486C417.863 446.765 406.818 447.427 395.688 449.074C385.136 454.138 375.48 459.535 366.893 464.255C358.39 470.126 350.439 473.499 343.163 473.758C335.438 473.559 328.02 469.981 321.263 463.369C313.812 456.468 306.918 447.093 301.178 435.719C294.829 424.43 290.462 412.263 288.098 399.746C285.581 387.085 285.3 373.752 287.234 360.344C289.24 346.821 293.547 333.508 300.082 321.635C306.859 310.785 315.952 302.551 327.242 298.288C338.947 296.508 351.738 299.19 364.798 305.299C378.098 312.885 391.511 322.771 404.211 333.769C416.914 345.026 428.754 356.876 438.949 368.643C448.934 380.392 457.088 392.192 462.619 403.471Z" stroke="url(#paint20_linear_1_3789)" stroke-width="2.55705" stroke-linecap="round" stroke-dasharray="14.06 6.39"/>
<path opacity="0.85" d="M447.772 401.996C449.743 423.821 430.898 437.038 419.027 436.223C410.817 436.721 401.833 437.314 392.535 438.269C383.449 441.567 374.899 444.829 367.145 447.532C355.787 452.255 335.793 451.467 327.171 444.839C321.253 439.442 316.02 431.815 311.926 422.159C307.426 412.552 304.63 401.918 303.493 390.891C302.24 379.861 302.831 368.357 305.213 357.064C307.647 345.919 311.949 335.274 317.992 326.14C324.168 317.906 332.126 311.924 341.71 309.158C351.456 308.188 361.879 310.739 372.37 316.03C382.929 322.51 393.478 331.005 403.38 340.573C413.266 350.541 422.398 361.116 430.148 371.584C437.748 382.118 443.832 392.48 447.772 401.996Z" stroke="url(#paint21_linear_1_3789)" stroke-width="2.55705" stroke-linecap="round" stroke-dasharray="11.51 12.79"/>
<path opacity="0.89" d="M433.694 397.415C438.226 412.735 435.215 421.567 426.936 423.915C418.13 427.438 404.88 427.978 389.905 427.325C375.058 432.513 361.265 435.391 350.399 433.608C338.89 432.299 329.335 423.637 324.197 408.072C318.023 392.528 317.896 373.579 323.087 355.869C328.296 339.118 339.262 325.732 354.741 321.465C370.313 321.928 387.267 332.287 401.946 347.268C416.437 363.737 428.254 382.099 433.694 397.415Z" stroke="url(#paint22_linear_1_3789)" stroke-width="2.55705" stroke-linecap="round" stroke-dasharray="6.39 2.56"/>
<path opacity="0.92" d="M420.759 391.537C422.289 406.465 403.862 416.369 387.816 416.203C376.449 418.709 365.659 418.914 357.149 416.098C348.261 413.891 341.284 406.878 338.205 395.212C334.539 383.504 335.641 369.67 340.574 357.299C345.413 345.742 354.264 337.117 365.953 335.089C377.529 335.795 389.622 343.401 399.753 354.352C409.677 366.367 417.493 380.028 420.759 391.537Z" stroke="url(#paint23_linear_1_3789)" stroke-width="2.55705" stroke-linecap="round" stroke-dasharray="8.95 10.23"/>
<path opacity="0.96" d="M408.81 386.109C411.363 401.388 401.12 407.531 386.317 404.822C370.852 407.635 356.471 400.934 353.648 385.442C349.824 369.815 359.317 352.092 375.041 349.787C390.173 352.445 405.332 370.705 408.81 386.109Z" stroke="url(#paint24_linear_1_3789)" stroke-width="2.55705" stroke-linecap="round" stroke-dasharray="11.51 11.51"/>
<defs>
<linearGradient id="paint0_linear_1_3789" x1="38579.1" y1="21.9954" x2="38579.1" y2="76211.6" gradientUnits="userSpaceOnUse">
<stop stop-color="#43AC20"/>
<stop offset="1" stop-color="#76DF53"/>
</linearGradient>
<linearGradient id="paint1_linear_1_3789" x1="37123.3" y1="2631.4" x2="31959.7" y2="75739.6" gradientUnits="userSpaceOnUse">
<stop stop-color="#43AC20"/>
<stop offset="1" stop-color="#76DF53"/>
</linearGradient>
<linearGradient id="paint2_linear_1_3789" x1="35490.2" y1="5033.3" x2="25596.7" y2="74723.2" gradientUnits="userSpaceOnUse">
<stop stop-color="#43AC20"/>
<stop offset="1" stop-color="#76DF53"/>
</linearGradient>
<linearGradient id="paint3_linear_1_3789" x1="33681.2" y1="7211.26" x2="19512.4" y2="73190.3" gradientUnits="userSpaceOnUse">
<stop stop-color="#43AC20"/>
<stop offset="1" stop-color="#76DF53"/>
</linearGradient>
<linearGradient id="paint4_linear_1_3789" x1="31721.6" y1="9151.48" x2="13749.8" y2="71172.3" gradientUnits="userSpaceOnUse">
<stop stop-color="#43AC20"/>
<stop offset="1" stop-color="#76DF53"/>
</linearGradient>
<linearGradient id="paint5_linear_1_3789" x1="29661.3" y1="10851.4" x2="8371.05" y2="68716.6" gradientUnits="userSpaceOnUse">
<stop stop-color="#43AC20"/>
<stop offset="1" stop-color="#76DF53"/>
</linearGradient>
<linearGradient id="paint6_linear_1_3789" x1="27533.4" y1="12311.1" x2="3418.1" y2="65870.1" gradientUnits="userSpaceOnUse">
<stop stop-color="#43AC20"/>
<stop offset="1" stop-color="#76DF53"/>
</linearGradient>
<linearGradient id="paint7_linear_1_3789" x1="25359.4" y1="13529.8" x2="-1079.98" y2="62674.1" gradientUnits="userSpaceOnUse">
<stop stop-color="#43AC20"/>
<stop offset="1" stop-color="#76DF53"/>
</linearGradient>
<linearGradient id="paint8_linear_1_3789" x1="23020.6" y1="14419.6" x2="-5243.2" y2="59094.1" gradientUnits="userSpaceOnUse">
<stop stop-color="#43AC20"/>
<stop offset="1" stop-color="#76DF53"/>
</linearGradient>
<linearGradient id="paint9_linear_1_3789" x1="20804.3" y1="15135.3" x2="-8741.46" y2="55268.9" gradientUnits="userSpaceOnUse">
<stop stop-color="#43AC20"/>
<stop offset="1" stop-color="#76DF53"/>
</linearGradient>
<linearGradient id="paint10_linear_1_3789" x1="18720.9" y1="15711.4" x2="-11688.5" y2="51442.3" gradientUnits="userSpaceOnUse">
<stop stop-color="#43AC20"/>
<stop offset="1" stop-color="#76DF53"/>
</linearGradient>
<linearGradient id="paint11_linear_1_3789" x1="16520.2" y1="15930" x2="-14293.4" y2="47351.9" gradientUnits="userSpaceOnUse">
<stop stop-color="#43AC20"/>
<stop offset="1" stop-color="#76DF53"/>
</linearGradient>
<linearGradient id="paint12_linear_1_3789" x1="14392.2" y1="15928.1" x2="-16336.7" y2="43133.8" gradientUnits="userSpaceOnUse">
<stop stop-color="#43AC20"/>
<stop offset="1" stop-color="#76DF53"/>
</linearGradient>
<linearGradient id="paint13_linear_1_3789" x1="12354" y1="15714.6" x2="-17869.5" y2="38889.1" gradientUnits="userSpaceOnUse">
<stop stop-color="#43AC20"/>
<stop offset="1" stop-color="#76DF53"/>
</linearGradient>
<linearGradient id="paint14_linear_1_3789" x1="10331.6" y1="15162.9" x2="-18890.5" y2="34460.6" gradientUnits="userSpaceOnUse">
<stop stop-color="#43AC20"/>
<stop offset="1" stop-color="#76DF53"/>
</linearGradient>
<linearGradient id="paint15_linear_1_3789" x1="8511.43" y1="14516" x2="-19443.8" y2="30268" gradientUnits="userSpaceOnUse">
<stop stop-color="#43AC20"/>
<stop offset="1" stop-color="#76DF53"/>
</linearGradient>
<linearGradient id="paint16_linear_1_3789" x1="6843.49" y1="13709" x2="-19497.9" y2="26194.3" gradientUnits="userSpaceOnUse">
<stop stop-color="#43AC20"/>
<stop offset="1" stop-color="#76DF53"/>
</linearGradient>
<linearGradient id="paint17_linear_1_3789" x1="5374.91" y1="12851.3" x2="-19117.1" y2="22410.2" gradientUnits="userSpaceOnUse">
<stop stop-color="#43AC20"/>
<stop offset="1" stop-color="#76DF53"/>
</linearGradient>
<linearGradient id="paint18_linear_1_3789" x1="4003.12" y1="11671.2" x2="-18248.4" y2="18593.3" gradientUnits="userSpaceOnUse">
<stop stop-color="#43AC20"/>
<stop offset="1" stop-color="#76DF53"/>
</linearGradient>
<linearGradient id="paint19_linear_1_3789" x1="2828.03" y1="10378.7" x2="-16995.6" y2="15042.9" gradientUnits="userSpaceOnUse">
<stop stop-color="#43AC20"/>
<stop offset="1" stop-color="#76DF53"/>
</linearGradient>
<linearGradient id="paint20_linear_1_3789" x1="1850.01" y1="8964.78" x2="-15178" y2="11722.7" gradientUnits="userSpaceOnUse">
<stop stop-color="#43AC20"/>
<stop offset="1" stop-color="#76DF53"/>
</linearGradient>
<linearGradient id="paint21_linear_1_3789" x1="1076.1" y1="7359.93" x2="-13138.3" y2="8643.54" gradientUnits="userSpaceOnUse">
<stop stop-color="#43AC20"/>
<stop offset="1" stop-color="#76DF53"/>
</linearGradient>
<linearGradient id="paint22_linear_1_3789" x1="544.202" y1="5954.39" x2="-11041" y2="6180.89" gradientUnits="userSpaceOnUse">
<stop stop-color="#43AC20"/>
<stop offset="1" stop-color="#76DF53"/>
</linearGradient>
<linearGradient id="paint23_linear_1_3789" x1="212.906" y1="4470.37" x2="-8321.68" y2="4035.04" gradientUnits="userSpaceOnUse">
<stop stop-color="#43AC20"/>
<stop offset="1" stop-color="#76DF53"/>
</linearGradient>
<linearGradient id="paint24_linear_1_3789" x1="80.7559" y1="3082.32" x2="-5661.02" y2="2381.38" gradientUnits="userSpaceOnUse">
<stop stop-color="#43AC20"/>
<stop offset="1" stop-color="#76DF53"/>
</linearGradient>
</defs>
</svg>
