<svg width="22" height="25" viewBox="0 0 22 25" fill="none" xmlns="http://www.w3.org/2000/svg">
<path fill-rule="evenodd" clip-rule="evenodd" d="M10.1402 8.05194C10.1402 8.94951 10.144 9.31235 10.1487 8.85831C10.1535 8.40408 10.1535 7.66971 10.1487 7.22636C10.144 6.78284 10.1402 7.15438 10.1402 8.05194ZM20.947 8.45993C20.947 8.48477 20.9586 8.53246 20.973 8.56564C20.9893 8.60372 20.999 8.60935 20.999 8.58088C20.999 8.55585 20.9873 8.50834 20.973 8.47498C20.9566 8.4369 20.947 8.43128 20.947 8.45993ZM21.0059 8.73192C21.0068 8.75676 21.0193 8.80445 21.0335 8.83763L21.0597 8.8982L21.0613 8.83763C21.0622 8.80445 21.0497 8.75676 21.0335 8.73192C21.0075 8.69167 21.0044 8.69167 21.0059 8.73192ZM17.8825 9.16439C17.8825 9.16964 17.9269 9.21389 17.981 9.26267L18.0794 9.35152L17.9905 9.25324C17.9076 9.16167 17.8825 9.14118 17.8825 9.16439ZM10.1375 10.1976C10.1375 10.3805 10.1425 10.4514 10.1485 10.3552C10.1545 10.2591 10.1545 10.1095 10.1484 10.0228C10.1422 9.93612 10.1373 10.0148 10.1375 10.1976ZM18.9336 10.1044C18.9805 10.1446 19.024 10.172 19.0305 10.1657C19.0453 10.151 18.9067 10.0338 18.8731 10.0324C18.8596 10.0319 18.8869 10.0643 18.9336 10.1044ZM19.0642 10.192C19.0642 10.1972 19.1085 10.2415 19.1627 10.2902L19.261 10.3789L19.1721 10.2808C19.0892 10.1892 19.0642 10.1686 19.0642 10.192ZM21.3696 10.3009C21.368 10.3245 21.4 10.4741 21.4404 10.6333C21.4809 10.7927 21.5223 10.9619 21.5327 11.0096C21.5431 11.0573 21.5585 11.0894 21.5671 11.0808C21.584 11.064 21.4969 10.6141 21.4674 10.5668C21.4576 10.5508 21.4322 10.4748 21.4109 10.398C21.3896 10.3211 21.3711 10.2774 21.3696 10.3009ZM19.4906 10.5936C19.531 10.6368 19.6186 10.7138 19.6853 10.7648C19.7595 10.8217 19.7361 10.7914 19.6246 10.6863C19.4346 10.5073 19.3647 10.4589 19.4906 10.5936ZM10.1389 11.1798C10.1389 11.5206 10.1433 11.66 10.1487 11.4895C10.154 11.3193 10.154 11.0404 10.1487 10.8701C10.1433 10.6997 10.1389 10.8391 10.1389 11.1798ZM19.9415 10.9758C20.0671 11.1093 20.0944 11.1332 20.0944 11.1106C20.0944 11.1057 20.0295 11.0411 19.9504 10.967L19.8064 10.8322L19.9415 10.9758ZM11.7698 11.0741C11.7701 11.1405 11.7763 11.1642 11.7836 11.1265C11.7909 11.089 11.7907 11.0346 11.783 11.0058C11.7754 10.9768 11.7696 11.0076 11.7698 11.0741ZM17.9583 11.1354C18.2606 11.4165 18.3428 11.4863 18.3555 11.4736C18.3632 11.4662 18.2496 11.3615 18.1032 11.2413C17.9569 11.1211 17.8916 11.0734 17.9583 11.1354ZM20.1271 11.1405C20.1307 11.1758 20.4609 11.4589 20.4781 11.4417C20.4861 11.4337 20.4289 11.3681 20.3507 11.2959C20.1967 11.1537 20.1233 11.1026 20.1271 11.1405ZM21.5654 11.1722C21.5716 11.2014 21.6005 11.334 21.6294 11.4669C21.6585 11.6 21.6836 11.7155 21.6852 11.7238C21.687 11.7322 21.6992 11.7842 21.7123 11.8395C21.7643 12.058 21.7879 12.33 21.7529 12.3084C21.7403 12.3006 21.7221 12.3146 21.7125 12.3396C21.689 12.4007 21.5407 12.3351 21.3798 12.1922C21.1273 11.9681 20.9232 11.7922 20.8803 11.7619C20.851 11.7412 20.7617 11.6636 20.6817 11.5893C20.6018 11.5149 20.5294 11.4611 20.521 11.4694C20.5058 11.4846 20.6003 11.5731 20.8514 11.7788C20.9262 11.8399 21.0081 11.9129 21.0331 11.9409C21.174 12.0974 21.6281 12.4491 21.6892 12.4491C21.8399 12.4491 21.8598 12.2256 21.7483 11.7842C21.7083 11.6264 21.6598 11.4192 21.6405 11.324C21.6211 11.2286 21.5938 11.1436 21.5798 11.1351C21.5658 11.1263 21.5592 11.1432 21.5654 11.1722ZM11.7698 11.4368C11.7701 11.5031 11.7763 11.5269 11.7836 11.4892C11.7909 11.4516 11.7907 11.3972 11.783 11.3684C11.7754 11.3394 11.7696 11.3702 11.7698 11.4368ZM18.5793 11.691C18.5793 11.7091 18.591 11.7238 18.6053 11.7238C18.6195 11.7238 18.6649 11.7545 18.7064 11.7918C18.7478 11.8292 18.8146 11.887 18.8547 11.9202L18.9278 11.9808L18.8673 11.9093C18.7773 11.8034 18.5793 11.6535 18.5793 11.691ZM10.1304 15.562C10.1246 17.6146 10.1224 19.399 10.1255 19.5272C10.1315 19.7704 10.1091 19.8625 10.0622 19.7885C10.0431 19.7586 10.036 19.7657 10.0357 19.8152C10.0353 19.8618 9.99512 19.9078 9.9064 19.963C9.62517 20.1381 9.44392 20.2612 9.43429 20.2834C9.42865 20.2962 9.41102 20.3066 9.39484 20.3066C9.37884 20.3066 9.28795 20.3575 9.19287 20.4199C9.09797 20.4821 9.00653 20.5399 8.98981 20.5485C8.96181 20.5626 8.88419 20.6123 8.42934 20.9075C8.33772 20.967 8.2581 21.0261 8.25264 21.039C8.24701 21.0516 8.22665 21.0625 8.20719 21.0629C8.18774 21.0634 8.02177 21.1644 7.83852 21.2874C7.65527 21.4103 7.50093 21.4992 7.49566 21.4847C7.49039 21.4703 7.46948 21.4649 7.44912 21.4725C7.40258 21.4905 7.27169 21.3652 7.19607 21.2303C7.17825 21.1985 7.13826 21.169 7.10717 21.1646C7.05863 21.1577 7.057 21.1617 7.09627 21.1925C7.12117 21.2123 7.17807 21.2828 7.22261 21.3492C7.32696 21.5053 7.44676 21.6393 7.4653 21.6207C7.47348 21.6127 7.48003 21.6239 7.48003 21.6455C7.48003 21.6798 7.72963 22.0172 8.18702 22.6011C8.26191 22.6968 8.4517 22.9438 8.60859 23.1502C8.89309 23.5244 8.93054 23.5725 9.15833 23.8577C9.29831 24.0328 9.27922 24.0084 9.48701 24.2807C9.9124 24.8383 9.9404 24.87 10.0091 24.87C10.1631 24.87 10.1571 25.1524 10.1487 18.2449C10.1429 13.2979 10.1385 12.6839 10.1304 15.562ZM19.0036 12.0551C19.0036 12.0712 19.0342 12.1004 19.0718 12.12C19.1396 12.1556 19.1396 12.1554 19.0822 12.0908C19.018 12.0188 19.0036 12.0123 19.0036 12.0551ZM19.3759 12.3811C19.4628 12.46 19.5385 12.5351 19.5441 12.5478C19.5495 12.5603 19.5837 12.5849 19.6197 12.6022C19.6557 12.6196 19.5899 12.5449 19.4732 12.4364C19.3565 12.328 19.2514 12.2388 19.2396 12.2384C19.228 12.2379 19.2892 12.3023 19.3759 12.3811ZM19.8415 12.8011C19.9273 12.8818 20.0324 12.975 20.0749 13.0082C20.1173 13.0415 20.1527 13.0856 20.1535 13.1064C20.1544 13.1273 20.1753 13.1442 20.2004 13.1442C20.2253 13.1442 20.2458 13.1639 20.2458 13.188C20.2458 13.2122 20.2694 13.245 20.2982 13.2611C20.3445 13.287 20.3411 13.2947 20.2678 13.3278C20.2224 13.3485 20.1853 13.3753 20.1853 13.3873C20.1853 13.3993 20.1613 13.4172 20.1322 13.4268C20.0807 13.4443 19.9735 13.5066 19.9428 13.5371C19.9344 13.5454 19.8799 13.5784 19.8217 13.6103C19.7633 13.6424 19.7088 13.6763 19.7004 13.686C19.6735 13.7168 19.4914 13.8394 19.4725 13.8394C19.4623 13.8394 19.4094 13.8733 19.3547 13.9148C19.3001 13.9565 19.246 13.9904 19.2343 13.9904C19.2132 13.9904 19.0325 14.1106 19.0036 14.1438C18.9953 14.1534 18.9407 14.1873 18.8824 14.2194C18.824 14.2513 18.7695 14.2843 18.7611 14.2927C18.7387 14.315 18.6313 14.3808 18.5793 14.404C18.5544 14.4151 18.5271 14.4319 18.5188 14.4416C18.4917 14.4724 18.3097 14.5948 18.2908 14.5948C18.2806 14.5948 18.2277 14.6289 18.173 14.6704C18.1185 14.7119 18.0643 14.746 18.0527 14.746C18.0316 14.746 17.8509 14.8662 17.822 14.8994C17.8136 14.9088 17.7591 14.9429 17.7007 14.9748C17.6424 15.0069 17.5878 15.0397 17.5795 15.0481C17.5571 15.0706 17.4497 15.1362 17.3977 15.1594C17.3728 15.1707 17.3455 15.1875 17.3371 15.1971C17.3101 15.228 17.1281 15.3504 17.1092 15.3504C17.099 15.3504 17.0461 15.3845 16.9914 15.426C16.9368 15.4675 16.8774 15.5014 16.8596 15.5014C16.8418 15.5014 16.8225 15.5119 16.817 15.5248C16.8021 15.5589 16.4689 15.7734 16.4305 15.7734C16.4125 15.7734 16.3978 15.7855 16.3978 15.8002C16.3978 15.8149 16.374 15.8349 16.3449 15.8447C16.2911 15.8626 16.1833 15.9261 16.1555 15.956C16.1195 15.9948 15.7003 16.257 15.6743 16.257C15.6585 16.257 15.6408 16.2675 15.6354 16.2802C15.6238 16.307 15.2913 16.529 15.2629 16.529C15.2525 16.529 15.2274 16.5435 15.2074 16.5613C15.1382 16.6224 14.5192 17.0126 14.4916 17.0126C14.4763 17.0126 14.4592 17.0229 14.4537 17.0358C14.4421 17.0625 14.1096 17.2846 14.0812 17.2846C14.0709 17.2846 14.0458 17.2989 14.0258 17.3167C13.9471 17.3858 13.3408 17.768 13.3099 17.768C13.2919 17.768 13.2768 17.7783 13.2763 17.7907C13.2757 17.8032 13.1661 17.8813 13.0325 17.9646C12.8991 18.0476 12.6635 18.1972 12.5091 18.2969C12.3548 18.3967 12.151 18.5281 12.0563 18.5892C11.9357 18.6668 11.8772 18.6895 11.8614 18.6647C11.8488 18.6453 11.8287 17.793 11.8163 16.7707C11.8041 15.7486 11.7894 14.8374 11.7838 14.746C11.7779 14.6544 11.7743 16.8742 11.7754 19.6786L11.7774 24.7777L11.845 24.8452L11.9128 24.9128L11.9961 24.8508C12.0417 24.8167 12.1204 24.7335 12.1706 24.6659C12.2421 24.5699 12.6425 24.0633 12.7858 23.8878C12.8153 23.8517 13.0719 23.5184 13.3912 23.1021C13.5184 22.9358 13.6984 22.7039 13.7907 22.5866C13.8833 22.4693 13.9929 22.3273 14.0345 22.2711C14.0763 22.2149 14.1856 22.0727 14.2776 21.9554C14.3698 21.8381 14.4719 21.707 14.5048 21.6638C14.5379 21.6207 14.6466 21.4796 14.7466 21.3505C14.8466 21.2212 14.9573 21.0756 14.9928 21.0272C15.0282 20.9786 15.0967 20.8953 15.1453 20.8419C15.1938 20.7885 15.2738 20.6888 15.3232 20.6203C15.3727 20.5515 15.4905 20.3952 15.585 20.2727C15.6796 20.1501 15.8535 19.9205 15.9719 19.7626C16.0902 19.6048 16.2242 19.4302 16.2697 19.3749C16.3742 19.2478 16.4767 19.1162 16.761 18.7446C16.8859 18.5814 17.0699 18.3443 17.1701 18.2175C17.2702 18.0908 17.4068 17.9158 17.4735 17.8287C17.5402 17.7419 17.6107 17.6538 17.6302 17.6331C17.6498 17.6126 17.7044 17.5413 17.7514 17.475C17.8603 17.3214 18.0592 17.0608 18.2912 16.7669C18.3913 16.6401 18.5455 16.4429 18.6337 16.3286C18.7218 16.2144 18.9096 15.9714 19.0511 15.7886C19.1925 15.6057 19.3552 15.395 19.4127 15.3201C19.5883 15.0914 20.2489 14.2396 20.4645 13.9638C20.7465 13.6031 20.7455 13.5512 20.4534 13.2914C20.3343 13.1855 20.1991 13.0649 20.1529 13.0234C19.7857 12.6928 19.5394 12.5171 19.8415 12.8011ZM5.30852 18.8862C5.34416 18.9361 5.38015 18.9769 5.38851 18.9769C5.39688 18.9769 5.37452 18.9361 5.33888 18.8862C5.30325 18.8364 5.26726 18.7956 5.25908 18.7956C5.25072 18.7956 5.27307 18.8364 5.30852 18.8862ZM5.71556 19.4076C5.76228 19.4699 5.80627 19.5209 5.81318 19.5209C5.8399 19.5209 5.76537 19.4115 5.69974 19.3542C5.6432 19.3051 5.64611 19.3147 5.71556 19.4076ZM6.00115 19.7853C6.03915 19.8393 6.07659 19.8835 6.08441 19.8835C6.11059 19.8835 6.03951 19.7731 5.98552 19.73C5.94771 19.6995 5.95207 19.7156 6.00115 19.7853ZM6.23512 20.0805C6.27947 20.1383 6.3202 20.1858 6.32583 20.1858C6.35128 20.1858 6.22821 20.0036 6.19367 19.9903C6.17222 19.982 6.19094 20.0226 6.23512 20.0805ZM6.41618 20.3142C6.4649 20.3682 6.51526 20.4253 6.5278 20.4411C6.54234 20.4591 6.55089 20.4589 6.55089 20.4402C6.55089 20.4047 6.38182 20.2159 6.35001 20.2159C6.33747 20.2159 6.36728 20.2602 6.41618 20.3142ZM6.67287 20.6391C6.74268 20.7305 6.81431 20.8107 6.83194 20.817C6.86884 20.8306 6.84921 20.8054 6.66996 20.6088L6.54598 20.4729L6.67287 20.6391ZM6.97119 21.0226C6.9901 21.0593 7.02009 21.0979 7.03773 21.1088C7.09808 21.1459 7.08445 21.1077 7.01046 21.0319C6.94356 20.9635 6.93992 20.9626 6.97119 21.0226Z" fill="#FC3146"/>
<path fill-rule="evenodd" clip-rule="evenodd" d="M21.146 9.4579C21.1549 9.49126 21.1764 9.52753 21.1938 9.53841C21.2138 9.55074 21.2182 9.53841 21.2053 9.50522C21.1942 9.47621 21.1851 9.43995 21.1851 9.42472C21.1851 9.40948 21.1728 9.39697 21.1577 9.39697C21.1426 9.39697 21.1373 9.42435 21.146 9.4579ZM21.2286 9.83741C21.2351 9.86933 21.2493 9.91792 21.2602 9.9453C21.2711 9.97287 21.2662 10.0039 21.2491 10.0144C21.232 10.0249 21.224 10.0501 21.2315 10.0702C21.2511 10.1237 21.0619 10.3036 20.9861 10.3036C20.9753 10.3036 20.9168 10.3424 20.8561 10.3901C20.7954 10.4376 20.6979 10.5007 20.6397 10.5303C20.5814 10.5598 20.5269 10.5934 20.5185 10.6046C20.5101 10.616 20.4556 10.6516 20.3972 10.6837C20.3389 10.7156 20.2845 10.7486 20.2762 10.7569C20.1609 10.8719 19.9428 10.9513 19.9428 10.8784C19.9428 10.8621 19.9097 10.8403 19.8693 10.8302C19.8288 10.8202 19.7884 10.7926 19.7793 10.7693C19.7702 10.7459 19.7457 10.7266 19.7246 10.7266C19.6864 10.7266 20.0555 11.0764 20.1549 11.1346C20.2031 11.1629 20.5425 11.4585 20.7321 11.6374C20.7785 11.6811 20.8428 11.7355 20.875 11.7582C20.9223 11.7916 21.12 11.9618 21.3798 12.1923C21.5407 12.3352 21.689 12.4008 21.7125 12.3397C21.7221 12.3147 21.7403 12.3007 21.7529 12.3085C21.7879 12.3301 21.7643 12.0581 21.7123 11.8396C21.6992 11.7843 21.687 11.7323 21.6852 11.7239C21.6836 11.7156 21.6596 11.6068 21.632 11.4822C21.6043 11.3575 21.5745 11.2148 21.5658 11.1649C21.5393 11.0142 21.4996 10.8456 21.4271 10.5756C21.3893 10.4342 21.36 10.2873 21.3624 10.249C21.3646 10.2108 21.3542 10.1868 21.3391 10.1961C21.3242 10.2053 21.3186 10.1872 21.3269 10.1558C21.3351 10.1245 21.3271 10.0896 21.3089 10.0786C21.2907 10.0673 21.276 10.0447 21.276 10.028C21.276 10.0113 21.2891 10.0059 21.3051 10.0157C21.3218 10.0262 21.3202 9.9919 21.3009 9.93442C21.2626 9.81983 21.2109 9.75056 21.2286 9.83741ZM19.5186 10.5631C19.5186 10.5807 19.5528 10.6271 19.5944 10.6663C19.6361 10.7052 19.6701 10.7274 19.6701 10.7154C19.6701 10.7036 19.6361 10.6572 19.5944 10.6122C19.5528 10.5674 19.5186 10.5453 19.5186 10.5631ZM18.4582 11.6331C18.4582 11.6697 18.5431 11.7096 18.568 11.6848C18.5771 11.6757 18.5561 11.6532 18.5213 11.6347C18.4775 11.6113 18.4582 11.6108 18.4582 11.6331ZM18.5902 11.7691C18.6017 11.7986 18.5635 11.8463 18.4799 11.9071C18.2874 12.0469 17.9798 12.2376 17.9469 12.2376C17.9309 12.2376 17.9132 12.248 17.9078 12.2603C17.9021 12.2728 17.8431 12.3183 17.7765 12.3617C17.6364 12.4525 17.2179 12.7223 16.9685 12.8828C16.8739 12.9435 16.783 12.9932 16.7665 12.9932C16.7498 12.9932 16.7316 13.0034 16.7261 13.0159C16.7205 13.0284 16.6614 13.0739 16.5949 13.1171C16.3031 13.3062 15.9448 13.5367 15.7768 13.6429C15.6768 13.7062 15.5199 13.8079 15.4283 13.8692C15.3367 13.9305 15.248 13.9862 15.2314 13.9931C15.2147 14 15.0989 14.0725 14.9738 14.1541C14.849 14.2357 14.6717 14.3499 14.5799 14.4079C14.4883 14.466 14.3383 14.5635 14.2467 14.6248C14.1551 14.6859 14.0663 14.7418 14.0498 14.7487C14.0331 14.7555 13.9205 14.8257 13.7998 14.9048C13.6789 14.9837 13.4813 15.1129 13.3604 15.1918C13.2396 15.2707 13.1272 15.3405 13.1105 15.3469C13.0938 15.3532 13.0598 15.3761 13.0347 15.3976C13.0096 15.4192 12.955 15.4551 12.9134 15.4774C12.8718 15.4995 12.7356 15.5842 12.6106 15.6653C12.4857 15.7463 12.3288 15.848 12.2621 15.8914C12.1955 15.9347 12.1364 15.9802 12.1308 15.9927C12.1253 16.0051 12.103 16.0154 12.0815 16.0154C12.0599 16.0154 12.0254 16.0357 12.0046 16.0607C11.8836 16.2062 11.8574 16.1173 11.8261 15.4562C11.8101 15.1168 11.8058 15.491 11.813 16.5594C11.8288 18.8835 11.8123 18.7464 12.0563 18.5893C12.151 18.5282 12.3548 18.3968 12.5091 18.297C12.6635 18.1973 12.8991 18.0477 13.0325 17.9647C13.1661 17.8814 13.2757 17.8033 13.2763 17.7908C13.2768 17.7785 13.2919 17.7681 13.3099 17.7681C13.3408 17.7681 13.9471 17.3859 14.0258 17.3168C14.0458 17.299 14.0709 17.2847 14.0812 17.2847C14.1096 17.2847 14.4421 17.0626 14.4537 17.0359C14.4592 17.023 14.4763 17.0127 14.4916 17.0127C14.5192 17.0127 15.1382 16.6225 15.2074 16.5614C15.2274 16.5436 15.2525 16.5291 15.2629 16.5291C15.2913 16.5291 15.6238 16.3072 15.6354 16.2803C15.6408 16.2676 15.6585 16.2571 15.6743 16.2571C15.7003 16.2571 16.1195 15.9949 16.1555 15.9561C16.1833 15.9262 16.2911 15.8627 16.3449 15.8448C16.374 15.835 16.3978 15.815 16.3978 15.8004C16.3978 15.7857 16.4125 15.7735 16.4305 15.7735C16.4689 15.7735 16.8021 15.559 16.817 15.5249C16.8225 15.512 16.8418 15.5015 16.8596 15.5015C16.8774 15.5015 16.9368 15.4676 16.9914 15.4261C17.0461 15.3846 17.099 15.3505 17.1092 15.3505C17.1281 15.3505 17.3101 15.2281 17.3371 15.1973C17.3455 15.1877 17.3728 15.1708 17.3977 15.1595C17.4497 15.1363 17.5571 15.0707 17.5795 15.0482C17.5878 15.0399 17.6424 15.0071 17.7007 14.975C17.7591 14.943 17.8136 14.909 17.822 14.8995C17.8509 14.8663 18.0316 14.7461 18.0527 14.7461C18.0643 14.7461 18.1185 14.712 18.173 14.6705C18.2277 14.629 18.2806 14.5949 18.2908 14.5949C18.3079 14.5949 18.485 14.4776 18.5188 14.4438C18.5413 14.4214 18.6486 14.3557 18.7006 14.3325C18.7255 14.3215 18.7527 14.3044 18.7611 14.295C18.7695 14.2854 18.824 14.2515 18.8824 14.2195C18.9407 14.1875 18.9953 14.1535 19.0036 14.1439C19.0325 14.1107 19.2132 13.9905 19.2343 13.9905C19.246 13.9905 19.3001 13.9566 19.3547 13.9149C19.4094 13.8734 19.4623 13.8395 19.4725 13.8395C19.4914 13.8395 19.6735 13.7169 19.7004 13.6861C19.7088 13.6765 19.7633 13.6426 19.8217 13.6105C19.8799 13.5786 19.9344 13.5456 19.9428 13.5372C19.9735 13.5068 20.0807 13.4444 20.1322 13.427C20.1613 13.4174 20.1853 13.3994 20.1853 13.3874C20.1853 13.3755 20.2224 13.3486 20.2678 13.328C20.3411 13.2948 20.3445 13.2872 20.2982 13.2612C20.2694 13.2451 20.2458 13.2123 20.2458 13.1882C20.2458 13.164 20.2253 13.1443 20.2004 13.1443C20.1753 13.1443 20.1544 13.1274 20.1535 13.1066C20.1527 13.0857 20.1171 13.0416 20.0742 13.0083C20.0315 12.9751 19.9195 12.8775 19.8257 12.7914C19.7317 12.7055 19.5684 12.5559 19.4626 12.459C19.357 12.3622 19.2523 12.2726 19.2301 12.2601C19.2078 12.2474 19.1363 12.1863 19.0711 12.1241C18.7024 11.7729 18.5479 11.6587 18.5902 11.7691ZM10.0676 17.1748C10.0656 17.253 9.91313 17.4338 9.84805 17.4352C9.83659 17.4356 9.80878 17.4528 9.78605 17.4735C9.76333 17.4943 9.71807 17.5275 9.68552 17.5473C9.6528 17.567 9.517 17.6524 9.38375 17.7371C9.2505 17.8218 9.11415 17.9076 9.0807 17.9279C9.04743 17.948 9.01344 17.9728 9.00508 17.983C8.99672 17.9931 8.94218 18.026 8.88382 18.0557C8.75657 18.1208 8.59986 18.2278 8.58587 18.2593C8.58041 18.2717 8.56532 18.282 8.55242 18.282C8.53278 18.282 8.1772 18.5025 8.07921 18.5754C8.00195 18.633 7.92542 18.6778 7.87633 18.6943C7.84725 18.7041 7.82343 18.7221 7.82343 18.7342C7.82343 18.7464 7.76889 18.7808 7.70218 18.8107C7.63546 18.8408 7.58092 18.8751 7.58092 18.8873C7.58092 18.8994 7.54002 18.9261 7.49002 18.9467C7.44003 18.9674 7.39913 18.9962 7.39913 19.0109C7.39913 19.0254 7.38749 19.0374 7.37331 19.0374C7.35168 19.0374 7.00155 19.2534 6.89757 19.331C6.82031 19.3886 6.74377 19.4334 6.69469 19.4499C6.6656 19.4595 6.64179 19.478 6.64179 19.4907C6.64179 19.5032 6.59961 19.531 6.54816 19.5524C6.4969 19.5736 6.43854 19.6059 6.41873 19.624C6.21658 19.809 6.08859 19.8274 6.00206 19.6846C5.97515 19.6403 5.94552 19.6166 5.93589 19.6318C5.92643 19.647 5.97915 19.7252 6.05296 19.8053C6.12677 19.8857 6.18731 19.9633 6.18731 19.978C6.18731 19.9926 6.19785 20.0046 6.21058 20.0046C6.22348 20.0046 6.25948 20.0518 6.29074 20.1094C6.32183 20.1671 6.3591 20.2071 6.37328 20.1983C6.38764 20.1896 6.39964 20.2001 6.39982 20.2218C6.40018 20.2436 6.43418 20.2935 6.47563 20.3326C6.5169 20.3718 6.55125 20.4193 6.55162 20.4383C6.55216 20.4574 6.60325 20.529 6.66524 20.5975C6.72723 20.6661 6.79849 20.7528 6.82358 20.7901C6.84848 20.8276 6.88702 20.8768 6.90902 20.8998C6.93102 20.9227 6.94083 20.9413 6.93065 20.9413C6.92065 20.9413 6.95065 20.9789 6.99755 21.0246C7.04445 21.0703 7.08918 21.1212 7.09699 21.1379C7.10499 21.1544 7.12117 21.1647 7.13317 21.1607C7.14517 21.1568 7.17116 21.1838 7.19098 21.2206C7.21079 21.2576 7.24188 21.3045 7.26006 21.325C7.35532 21.4326 7.38404 21.4706 7.38404 21.4897C7.38404 21.5011 7.3964 21.522 7.41167 21.5357C7.42749 21.5502 7.43076 21.5461 7.41931 21.5263C7.4084 21.5073 7.41895 21.4842 7.44294 21.4752C7.46676 21.4661 7.49039 21.4705 7.49566 21.4848C7.50093 21.4993 7.65527 21.4104 7.83852 21.2875C8.02177 21.1646 8.18774 21.0636 8.20719 21.063C8.22665 21.0626 8.24701 21.0518 8.25264 21.0391C8.2581 21.0262 8.33772 20.9671 8.42934 20.9076C8.88419 20.6124 8.96181 20.5627 8.98981 20.5486C9.00653 20.5401 9.09797 20.4822 9.19287 20.42C9.28795 20.3576 9.37884 20.3067 9.39484 20.3067C9.41102 20.3067 9.42865 20.2964 9.43429 20.2835C9.44392 20.2614 9.62517 20.1382 9.9064 19.9631C9.99293 19.9092 10.036 19.8608 10.0375 19.8153C10.0389 19.7781 10.0469 19.7647 10.0553 19.7856C10.0637 19.8066 10.0829 19.816 10.098 19.8068C10.1324 19.7856 10.1293 17.2321 10.0947 17.1487C10.0731 17.0965 10.0695 17.0999 10.0676 17.1748ZM5.61157 19.2584C5.61157 19.2637 5.65593 19.3079 5.7101 19.3567L5.80845 19.4454L5.71956 19.3473C5.63666 19.2557 5.61157 19.2351 5.61157 19.2584Z" fill="#FC5234"/>
<path fill-rule="evenodd" clip-rule="evenodd" d="M19.4329 2.05302C19.4345 2.13154 19.4821 2.26046 19.4832 2.18902C19.4838 2.15565 19.4723 2.10126 19.4581 2.06807C19.4421 2.03108 19.4323 2.02528 19.4329 2.05302ZM19.5238 2.40044C19.5234 2.43381 19.5347 2.48821 19.549 2.52139C19.5821 2.59845 19.5821 2.51903 19.549 2.41568C19.5294 2.35493 19.5245 2.35185 19.5238 2.40044ZM20.0759 4.90802C20.0869 4.98254 20.1246 4.99886 20.1246 4.92905C20.1246 4.89297 20.1122 4.86359 20.0969 4.86359C20.0819 4.86359 20.0724 4.88354 20.0759 4.90802ZM20.1033 5.09768C20.1119 5.14338 20.1289 5.21229 20.1409 5.25073C20.1586 5.30639 20.1498 5.3238 20.0984 5.33722C20.0628 5.34647 20.0337 5.36442 20.0337 5.37711C20.0337 5.3898 19.9928 5.417 19.9428 5.43767C19.8928 5.45834 19.8519 5.48718 19.8519 5.50186C19.8519 5.51637 19.8373 5.52834 19.8197 5.52834C19.8019 5.52834 19.7426 5.56243 19.6879 5.60395C19.6334 5.64548 19.5799 5.67957 19.5692 5.67957C19.5583 5.67957 19.4599 5.74067 19.3503 5.81556C19.2409 5.89027 19.1385 5.95156 19.1229 5.95156C19.1073 5.95156 19.0945 5.96352 19.0945 5.97821C19.0945 5.9929 19.0705 6.01285 19.0415 6.02264C18.9817 6.04258 18.8893 6.10006 18.8304 6.15356C18.8088 6.17314 18.7639 6.19798 18.7308 6.2085C18.6975 6.21901 18.6702 6.24023 18.6702 6.25582C18.6702 6.27124 18.6557 6.28393 18.6381 6.28393C18.6203 6.28393 18.561 6.31802 18.5063 6.35954C18.4517 6.40107 18.3966 6.43497 18.3839 6.43497C18.3712 6.43497 18.3112 6.47251 18.2503 6.5182C18.1027 6.62918 18.0296 6.67505 17.9658 6.69627C17.9367 6.70606 17.9129 6.72455 17.9129 6.73725C17.9129 6.74994 17.8889 6.76843 17.8598 6.77823C17.7991 6.79853 17.7071 6.85583 17.6468 6.91096C17.624 6.93181 17.5939 6.94886 17.5795 6.94886C17.5653 6.94886 17.5355 6.9659 17.5135 6.98657C17.4608 7.03644 17.2226 7.19056 17.1983 7.19056C17.1877 7.19056 17.1296 7.22792 17.0687 7.27361C16.921 7.38476 16.848 7.43046 16.7842 7.45186C16.7551 7.46165 16.7313 7.47851 16.7313 7.48939C16.7313 7.50027 16.68 7.53599 16.6176 7.56881C16.5551 7.60145 16.4971 7.63627 16.4887 7.64624C16.4122 7.73708 16.2615 7.71424 16.1788 7.59928C16.1646 7.57969 16.1562 7.58259 16.1561 7.60707C16.1557 7.62829 16.1759 7.65349 16.2008 7.6631C16.2257 7.67271 16.239 7.69193 16.2302 7.70589C16.2095 7.73926 16.3077 7.78949 16.3731 7.77897C16.406 7.77353 16.4182 7.78568 16.4077 7.81306C16.3973 7.8399 16.412 7.85567 16.4477 7.85585C16.4951 7.85622 16.4967 7.86093 16.4586 7.88559C16.4233 7.90826 16.4224 7.91496 16.4542 7.91533C16.4769 7.91569 16.5567 7.98043 16.6318 8.05948C16.7067 8.13836 16.7585 8.1826 16.7469 8.15758C16.7353 8.13274 16.7718 8.15994 16.8281 8.21815C16.8843 8.27617 17.0032 8.3817 17.0923 8.45224C17.1814 8.52295 17.2426 8.5808 17.2283 8.5808C17.2141 8.5808 17.2363 8.60401 17.2774 8.63248C17.3186 8.66094 17.3766 8.7148 17.4064 8.75197C17.4362 8.78932 17.4788 8.8129 17.501 8.80437C17.5242 8.79531 17.5482 8.81507 17.5575 8.8508C17.5664 8.88489 17.5989 8.92224 17.6297 8.93366C17.6604 8.94491 17.7162 8.98933 17.7536 9.03194C17.7913 9.07473 17.8218 9.09631 17.8218 9.08017C17.822 9.06404 17.8431 9.08108 17.8691 9.11807C17.8951 9.15488 17.936 9.18516 17.96 9.18516C17.984 9.18516 18.0038 9.20547 18.0038 9.23049C18.0038 9.25534 18.0242 9.27583 18.0492 9.27583C18.0741 9.27583 18.0912 9.29287 18.0871 9.31354C18.0829 9.33439 18.0965 9.34799 18.1174 9.34382C18.1381 9.33965 18.1552 9.3576 18.1552 9.38372C18.1552 9.41654 18.1729 9.42542 18.2132 9.41255C18.2452 9.40257 18.2814 9.41055 18.2938 9.43032C18.3077 9.45317 18.3032 9.4586 18.281 9.445C18.2619 9.43304 18.2461 9.43685 18.2461 9.45335C18.2461 9.55888 18.7175 9.33494 18.9913 9.09921C19.0095 9.08362 19.0709 9.04681 19.1276 9.01743C19.2532 8.9527 19.409 8.8459 19.4227 8.81489C19.4283 8.80256 19.4459 8.79223 19.4618 8.79223C19.4778 8.79223 19.5278 8.7672 19.5728 8.73656C19.6181 8.70591 19.7165 8.64136 19.7914 8.59313C19.8662 8.5449 19.9344 8.49848 19.9428 8.49014C19.9731 8.45967 20.0806 8.3973 20.1322 8.37989C20.1613 8.3701 20.1853 8.35269 20.1853 8.34108C20.1853 8.32948 20.2358 8.29593 20.2978 8.26638C20.3596 8.237 20.4585 8.17499 20.5174 8.12893C20.5763 8.08269 20.6563 8.03501 20.6949 8.02304C20.7399 8.00889 20.7592 7.98514 20.7483 7.95685C20.739 7.93255 20.7434 7.92023 20.7581 7.92929C20.7728 7.93836 20.7923 7.92657 20.8012 7.90318C20.8103 7.87961 20.7965 7.85241 20.7708 7.84244C20.7334 7.82811 20.7281 7.79638 20.7447 7.68559C20.759 7.59057 20.7554 7.55304 20.7334 7.56664C20.7125 7.57951 20.7049 7.55413 20.7118 7.49501C20.7178 7.44478 20.7109 7.4107 20.6965 7.41958C20.6821 7.42847 20.6703 7.40435 20.6701 7.36591C20.6694 7.24224 20.6512 7.14668 20.6158 7.08122C20.5969 7.04605 20.588 7.01051 20.5961 7.00235C20.6043 6.99419 20.5971 6.95067 20.58 6.90588C20.5629 6.86109 20.5432 6.78095 20.5361 6.72782C20.5291 6.67487 20.5011 6.54304 20.4742 6.43497C20.4473 6.3269 20.4191 6.2114 20.4118 6.17822C20.4045 6.14485 20.3698 5.99525 20.3347 5.84566C20.2996 5.69606 20.2647 5.53287 20.2569 5.48301C20.2264 5.28554 20.1764 5.1374 20.1468 5.15571C20.1269 5.16786 20.1231 5.14592 20.136 5.09479C20.1489 5.04347 20.1438 5.01464 20.1218 5.01464C20.1008 5.01464 20.0935 5.04673 20.1033 5.09768ZM15.9434 7.44152C15.9434 7.44696 15.9861 7.4912 16.0381 7.53998C16.1044 7.60218 16.1212 7.60979 16.0943 7.56519C16.061 7.51042 15.9434 7.41396 15.9434 7.44152ZM5.71577 7.73654C5.66686 7.78749 5.64723 7.82086 5.67232 7.8107C5.71304 7.79438 5.84229 7.64388 5.81557 7.64388C5.80957 7.64388 5.76467 7.68559 5.71577 7.73654ZM11.8045 8.18786C11.8045 8.42885 11.8092 8.52749 11.8151 8.40691C11.8207 8.2865 11.8207 8.08922 11.8151 7.96882C11.8092 7.84824 11.8045 7.94688 11.8045 8.18786ZM14.6406 8.26384C14.6406 8.27635 14.6746 8.31824 14.7163 8.35668C14.7875 8.4225 14.8183 8.42105 14.7688 8.35414C14.7315 8.30355 14.6406 8.23936 14.6406 8.26384ZM14.8526 8.48633C14.8526 8.52441 14.9415 8.59277 14.9631 8.57137C14.973 8.5614 14.9601 8.53238 14.9342 8.50664C14.8815 8.45405 14.8526 8.44698 14.8526 8.48633ZM14.9661 8.64698C14.9917 8.67781 14.9801 8.68724 14.913 8.6896C14.8659 8.69123 14.775 8.73293 14.7112 8.78225C14.5605 8.89848 14.1958 9.12478 14.1591 9.12478C14.1434 9.12478 14.126 9.13494 14.1205 9.14745C14.1149 9.15978 14.0558 9.20583 13.9891 9.24972C13.6264 9.48816 13.1578 9.7859 13.0651 9.83703C13.0067 9.86913 12.9522 9.90285 12.9438 9.91228C12.9296 9.92806 12.7357 10.0544 12.1734 10.4146C12.0388 10.5005 11.913 10.5848 11.8938 10.6019C11.8676 10.6251 11.8538 10.5509 11.8391 10.3094C11.8281 10.1315 11.814 9.9656 11.8074 9.94075C11.8007 9.91573 11.8014 10.7235 11.8089 11.7355C11.8236 13.706 11.8231 13.7008 11.9696 13.6005C12.0138 13.57 12.125 13.4978 12.2166 13.4398C12.3084 13.382 12.4651 13.2817 12.5651 13.2168C12.6651 13.1521 12.7606 13.0922 12.7773 13.0839C12.7938 13.0754 12.9098 13.0017 13.0347 12.9201C13.1598 12.8385 13.3301 12.7283 13.4136 12.6753C13.4968 12.6224 13.6468 12.5261 13.7468 12.4614C13.8468 12.3965 13.9422 12.3366 13.9589 12.3283C13.9755 12.3199 14.0845 12.2507 14.2013 12.1745C14.7548 11.8128 14.8732 11.737 14.9435 11.6994C14.9851 11.6773 15.0397 11.6414 15.0648 11.6198C15.0897 11.5983 15.1239 11.5754 15.1406 11.5691C15.1571 11.5627 15.2696 11.4929 15.3905 11.414C15.5112 11.335 15.709 11.2059 15.8297 11.1268C15.9506 11.0479 16.0632 10.9778 16.0797 10.9707C16.0964 10.9638 16.185 10.9081 16.2768 10.8468C16.5747 10.6479 16.7743 10.5225 16.8894 10.4619C16.9998 10.4039 17.017 10.3547 16.9176 10.3814C16.8901 10.3888 16.9085 10.3736 16.9585 10.3476C17.0316 10.3098 17.0356 10.3032 16.9789 10.3148C16.9245 10.3259 16.9123 10.3183 16.9261 10.2827C16.9381 10.2514 16.9301 10.2414 16.902 10.2523C16.8778 10.2615 16.8436 10.2378 16.8214 10.1962C16.8001 10.1565 16.7687 10.1326 16.7518 10.1431C16.7331 10.1545 16.7285 10.1422 16.7402 10.1119C16.7509 10.0842 16.7463 10.0599 16.7302 10.0579C16.7142 10.0557 16.6883 10.0523 16.6731 10.0503C16.6578 10.0481 16.634 10.0341 16.6202 10.0189C16.6051 10.0026 16.6135 10.0013 16.6404 10.0158C16.678 10.0361 16.6791 10.033 16.6464 9.99805C16.6247 9.97484 16.5905 9.95526 16.5705 9.95435C16.5506 9.95363 16.5376 9.93676 16.5418 9.91664C16.546 9.89669 16.5298 9.88019 16.5058 9.88019C16.4817 9.88019 16.4524 9.8646 16.4404 9.84538C16.4262 9.82235 16.4322 9.81872 16.4586 9.83486C16.4829 9.84991 16.4907 9.84755 16.4789 9.82833C16.4684 9.81147 16.4188 9.78046 16.3686 9.75979C16.3186 9.73912 16.285 9.7101 16.294 9.69542C16.3031 9.68073 16.298 9.66876 16.2826 9.66876C16.2671 9.66876 16.1873 9.60403 16.1052 9.52515C16.023 9.44627 15.8894 9.32714 15.8085 9.26078C15.6051 9.09396 15.3978 8.91118 15.32 8.83013C15.2842 8.79259 15.2407 8.76213 15.2237 8.76213C15.2064 8.76213 15.1842 8.74073 15.1742 8.7148C15.1642 8.68887 15.142 8.67618 15.1248 8.68688C15.1077 8.69739 15.0973 8.68978 15.1019 8.66983C15.1064 8.64989 15.0704 8.62758 15.0217 8.62051C14.9515 8.61017 14.9401 8.61561 14.9661 8.64698ZM11.8034 9.03412C11.8034 9.19187 11.8085 9.2566 11.8149 9.17755C11.8211 9.09867 11.8211 8.96938 11.8149 8.89051C11.8085 8.81163 11.8034 8.87618 11.8034 9.03412ZM11.8007 9.75943C11.8007 9.83413 11.8067 9.86478 11.814 9.82742C11.8211 9.78989 11.8211 9.72878 11.814 9.69143C11.8067 9.65389 11.8007 9.68454 11.8007 9.75943ZM5.5567 9.73023C5.52016 9.76414 5.49034 9.80059 5.49034 9.8111C5.49034 9.82162 5.52452 9.79841 5.56615 9.75943C5.63723 9.69288 5.65487 9.66876 5.63251 9.66876C5.62723 9.66876 5.59324 9.6965 5.5567 9.73023ZM10.094 11.0211C10.0929 11.2663 10.0819 11.5297 10.0691 11.6064C10.0564 11.6831 10.0568 11.7747 10.0697 11.8099C10.0906 11.8661 10.0868 11.8697 10.0388 11.8398C9.98914 11.809 9.86098 11.8674 9.76245 11.9655C9.75409 11.9738 9.69955 12.0068 9.64138 12.0387C9.58302 12.0708 9.44213 12.1591 9.32815 12.2353C9.21417 12.3112 9.09873 12.387 9.07164 12.4037C8.89821 12.51 8.59353 12.7062 8.5808 12.7198C8.57244 12.7288 8.5179 12.7624 8.45973 12.7943C8.40138 12.8264 8.34684 12.8603 8.33847 12.8699C8.33011 12.8795 8.27557 12.9132 8.21722 12.9452C8.15886 12.9769 8.06161 13.0414 8.00089 13.0886C7.94017 13.1357 7.88163 13.1744 7.87109 13.1744C7.85127 13.1744 7.42679 13.4454 7.39916 13.4757C7.39079 13.4848 7.33298 13.5191 7.27045 13.5517C7.20791 13.5845 7.15683 13.6201 7.15683 13.6309C7.15683 13.642 7.13301 13.6589 7.10374 13.6687C7.04012 13.6899 6.96686 13.7357 6.81924 13.8467C6.75852 13.8924 6.69999 13.93 6.68944 13.93C6.66963 13.93 6.24514 14.201 6.21751 14.2311C6.20915 14.2404 6.15134 14.2745 6.0888 14.3073C6.02627 14.3399 5.97518 14.3757 5.97518 14.3865C5.97518 14.3974 5.95137 14.4145 5.9221 14.4241C5.85847 14.4455 5.78521 14.4913 5.6376 14.6023C5.57688 14.648 5.5167 14.6854 5.50398 14.6854C5.49144 14.6854 5.43635 14.7194 5.38163 14.761C5.3271 14.8025 5.26783 14.8366 5.25002 14.8366C5.2322 14.8366 5.21766 14.8486 5.21766 14.8631C5.21766 14.8777 5.17675 14.9066 5.12676 14.9272C5.07677 14.9479 5.03568 14.9733 5.0355 14.9838C5.03532 14.9942 4.98078 15.0288 4.91443 15.0605C4.84789 15.0923 4.79354 15.128 4.79354 15.1401C4.79354 15.1521 4.76972 15.1699 4.74045 15.1797C4.689 15.1969 4.58175 15.2593 4.55121 15.2899C4.51467 15.3264 4.3396 15.4409 4.32033 15.4409C4.30888 15.4409 4.25471 15.475 4.19999 15.5166C4.14545 15.5581 4.08619 15.592 4.06837 15.592C4.05055 15.592 4.03601 15.604 4.03601 15.6186C4.03601 15.6332 3.99511 15.662 3.94511 15.6827C3.89512 15.7033 3.85422 15.7302 3.85422 15.7423C3.85422 15.7543 3.79968 15.7887 3.73315 15.8187C3.66643 15.8488 3.61189 15.8848 3.61189 15.8988C3.61189 15.9129 3.59807 15.9245 3.58135 15.9245C3.53263 15.9245 3.30902 16.0957 3.33011 16.1169C3.39592 16.1826 3.28794 16.1197 3.20995 16.0468C3.15723 15.9978 3.10687 15.9648 3.09797 15.9739C3.08906 15.9828 3.11996 16.023 3.16668 16.0631C3.21358 16.1033 3.24431 16.1481 3.23522 16.1628C3.22613 16.1775 3.24722 16.1971 3.28194 16.2061C3.31684 16.2152 3.33738 16.2353 3.32775 16.2509C3.31811 16.2663 3.3372 16.3033 3.37029 16.3331C3.40319 16.3628 3.4301 16.4043 3.4301 16.4252C3.4301 16.446 3.47209 16.4983 3.52336 16.5414C3.57462 16.5844 3.60607 16.6196 3.59335 16.6196C3.58062 16.6196 3.60007 16.6473 3.63643 16.6812C3.67297 16.7151 3.70279 16.7626 3.70279 16.7869C3.70279 16.8112 3.72315 16.8312 3.74823 16.8312C3.77314 16.8312 3.79368 16.8515 3.79368 16.8765C3.79368 16.9014 3.80732 16.9218 3.82404 16.9218C3.84059 16.9218 3.85422 16.9414 3.85422 16.9655C3.85422 16.9897 3.87822 17.0234 3.9073 17.0403C3.93639 17.0571 3.95111 17.0714 3.93984 17.072C3.92875 17.0725 3.95602 17.1117 4.00056 17.1592C4.11364 17.2796 4.2158 17.4053 4.20035 17.4053C4.19326 17.4053 4.21489 17.4325 4.24816 17.4658C4.28143 17.499 4.3087 17.5405 4.3087 17.5583C4.3087 17.5759 4.32233 17.5819 4.33906 17.5715C4.35578 17.5612 4.36942 17.5741 4.36942 17.6C4.36942 17.6259 4.38305 17.6472 4.39959 17.6472C4.41632 17.6472 4.42995 17.6684 4.42995 17.6943C4.42995 17.7224 4.44413 17.7326 4.4654 17.7195C4.4894 17.7046 4.49449 17.7142 4.48085 17.7494C4.46904 17.7802 4.47304 17.7938 4.49085 17.7828C4.5074 17.7726 4.52085 17.7864 4.52085 17.8132C4.52085 17.843 4.53485 17.8537 4.5563 17.8403C4.58011 17.8258 4.58538 17.835 4.57248 17.8684C4.56193 17.8959 4.56303 17.917 4.57502 17.9152C4.62629 17.9075 4.67192 17.9208 4.66628 17.9418C4.65465 17.9855 4.70737 18.1012 4.73191 18.086C4.74572 18.0774 4.76463 18.0909 4.77427 18.1157C4.7919 18.1614 4.88443 18.1801 4.88443 18.138C4.88443 18.1255 4.9257 18.097 4.97605 18.0747C5.02641 18.0524 5.08422 18.0185 5.10476 17.9993C5.12531 17.9801 5.19312 17.9375 5.25565 17.9046C5.31801 17.8718 5.36927 17.8376 5.36927 17.8285C5.36927 17.8194 5.42036 17.7855 5.48289 17.7532C5.54525 17.721 5.64614 17.6568 5.70686 17.6103C5.76758 17.5641 5.82611 17.5262 5.83684 17.5262C5.85502 17.5262 6.03226 17.4093 6.06608 17.3748C6.07444 17.3663 6.13243 17.3327 6.19479 17.2999C6.25732 17.2673 6.30841 17.2316 6.30841 17.2207C6.30841 17.2098 6.3324 17.1927 6.36149 17.1831C6.41694 17.1645 6.52492 17.1005 6.55092 17.0705C6.55928 17.0611 6.61363 17.027 6.67199 16.9951C6.73034 16.963 6.82779 16.8995 6.8885 16.8539C6.94922 16.8082 7.00867 16.7706 7.02048 16.7706C7.0323 16.7706 7.09175 16.7318 7.15246 16.6841C7.21318 16.6366 7.31063 16.5735 7.36898 16.544C7.42715 16.5144 7.48169 16.4819 7.49005 16.4718C7.51459 16.4419 7.62222 16.3775 7.67948 16.3583C7.70857 16.3485 7.73256 16.3316 7.73256 16.3207C7.73256 16.3099 7.78365 16.2741 7.84618 16.2413C7.90854 16.2087 7.96653 16.175 7.97489 16.1666C8.0087 16.1322 8.18595 16.0152 8.20413 16.0152C8.21486 16.0152 8.27339 15.9762 8.33411 15.9287C8.39483 15.881 8.49227 15.8179 8.55063 15.7884C8.6088 15.7588 8.66333 15.7254 8.6717 15.714C8.68006 15.7026 8.73423 15.6671 8.79204 15.6351C8.84985 15.6031 8.9113 15.5659 8.92839 15.5525C8.99256 15.5024 9.37487 15.2596 9.38978 15.2596C9.39832 15.2596 9.45504 15.2206 9.51576 15.1731C9.57648 15.1254 9.67264 15.0629 9.72936 15.0339C9.95606 14.9182 10.0559 14.8029 10.0779 14.6313C10.1024 14.438 10.1369 10.5754 10.114 10.5754C10.104 10.5754 10.0949 10.7759 10.094 11.0211Z" fill="#FC8C1C"/>
<path fill-rule="evenodd" clip-rule="evenodd" d="M3.13453 0.0181979C3.11362 0.026539 3.10417 0.0457583 3.11363 0.0609897C3.12308 0.0762212 3.11544 0.0885502 3.0969 0.0885502C3.07818 0.0885502 3.07072 0.101062 3.08017 0.116293C3.08963 0.131525 3.08163 0.182478 3.06236 0.229623C3.04309 0.276768 3.02182 0.376498 3.01509 0.451204C3.00837 0.526093 2.98982 0.600258 2.97401 0.616033C2.95819 0.631808 2.94528 0.717213 2.94528 0.805882C2.94528 0.921206 2.93238 0.971795 2.89984 0.984307C2.8702 0.99573 2.85439 1.0427 2.85439 1.1194C2.85439 1.18413 2.84294 1.23708 2.82912 1.23708C2.81512 1.23708 2.80185 1.28622 2.79949 1.34624C2.79731 1.40644 2.78185 1.47208 2.76513 1.49202C2.7484 1.51215 2.72913 1.58867 2.72241 1.66229C2.7155 1.73591 2.69569 1.83219 2.67805 1.87607C2.6606 1.92014 2.65442 1.9642 2.66442 1.97417C2.68405 1.99376 2.58498 2.32142 2.54516 2.36874C2.53207 2.38452 2.52117 2.44653 2.52117 2.50637C2.52117 2.56621 2.50644 2.62967 2.48862 2.64762C2.47081 2.66539 2.45372 2.74971 2.45081 2.83493C2.4479 2.92016 2.43681 2.98978 2.42627 2.98978C2.41554 2.98978 2.39755 3.06467 2.3861 3.15606C2.37464 3.24745 2.3541 3.32234 2.34028 3.32234C2.32647 3.32234 2.3072 3.38689 2.29756 3.46577C2.28084 3.60122 2.2612 3.71147 2.24739 3.74538C2.24412 3.75372 2.24302 3.77131 2.24539 3.78436C2.24757 3.7976 2.23594 3.83314 2.21957 3.86378C2.20321 3.89425 2.18376 3.98255 2.17667 4.05998C2.1694 4.13722 2.15122 4.21719 2.13613 4.2375C2.12122 4.25763 2.10505 4.32091 2.10014 4.37785C2.09523 4.43478 2.07087 4.51239 2.04614 4.55029C2.02124 4.58818 2.0107 4.63479 2.02251 4.65401C2.03433 4.67323 2.02996 4.69771 2.01251 4.70841C1.99524 4.7191 1.96597 4.823 1.94779 4.93923C1.92961 5.05547 1.90707 5.19817 1.89762 5.25637C1.88835 5.31458 1.86908 5.38947 1.8549 5.42265C1.82745 5.48612 1.80054 5.59872 1.77346 5.76264C1.76437 5.81668 1.74528 5.86092 1.7311 5.86092C1.71674 5.86092 1.71292 5.88123 1.72237 5.90625C1.73201 5.9311 1.72819 5.95159 1.71383 5.95159C1.69947 5.95159 1.6862 6.0223 1.68456 6.10879C1.68292 6.19728 1.66638 6.2709 1.64693 6.27743C1.62657 6.28414 1.61221 6.35613 1.61221 6.45024C1.61221 6.5389 1.59948 6.61597 1.58385 6.62141C1.56821 6.62703 1.54985 6.66547 1.54313 6.70699C1.53622 6.7487 1.51586 6.81869 1.4975 6.86293C1.47932 6.907 1.44932 7.05659 1.43114 7.19531C1.41278 7.33402 1.38951 7.46784 1.37915 7.49287C1.35752 7.546 1.3457 7.60039 1.33334 7.70429C1.32843 7.746 1.30734 7.79786 1.28643 7.8198C1.26571 7.84174 1.24862 7.8907 1.24862 7.92841C1.24862 7.96631 1.22172 8.07747 1.18881 8.17556C1.15591 8.27384 1.12864 8.42996 1.1281 8.5228C1.12773 8.61564 1.11791 8.70105 1.10628 8.71265C1.09483 8.72408 1.08228 8.75436 1.07847 8.77975C1.07283 8.81837 1.02556 8.96959 0.951939 9.18519C0.93376 9.23868 0.917216 9.35165 0.912308 9.45718C0.910308 9.49871 0.896855 9.5473 0.882494 9.56507C0.86795 9.58302 0.851954 9.65102 0.846682 9.71648C0.84141 9.78194 0.825412 9.85447 0.810868 9.87768C0.796507 9.90089 0.779418 9.96816 0.772874 10.0271C0.766329 10.086 0.746334 10.152 0.728519 10.1734C0.710521 10.195 0.703429 10.2128 0.712519 10.2128C0.72179 10.2128 0.715428 10.2568 0.698522 10.3109C0.681615 10.3649 0.661436 10.4499 0.653437 10.4998C0.645438 10.5497 0.633258 10.6177 0.62635 10.6509C0.588173 10.8344 0.562723 10.9985 0.572358 10.9985C0.578539 10.9985 0.560906 11.0329 0.533274 11.075C0.505641 11.1171 0.49037 11.1589 0.499459 11.1678C0.508549 11.1769 0.502367 11.2275 0.485643 11.2802C0.468918 11.333 0.437106 11.4511 0.414564 11.5424C0.392203 11.6338 0.358934 11.7631 0.340755 11.8295C0.289853 12.0152 0.269858 12.3584 0.309671 12.3584C0.328213 12.3584 0.335483 12.3711 0.325848 12.3865C0.284036 12.4538 0.36748 12.4393 0.451104 12.3646C0.627079 12.2077 0.703795 12.1468 0.726155 12.1466C0.738517 12.1464 0.802869 12.0853 0.86886 12.0106C0.935032 11.9359 0.997207 11.8748 1.00702 11.8748C1.01684 11.8748 1.09047 11.8139 1.17082 11.7394C1.25099 11.6647 1.3577 11.5729 1.40787 11.5354C1.45805 11.4977 1.56403 11.4057 1.64329 11.3308C1.72274 11.2561 1.85999 11.1337 1.94852 11.0588C2.03706 10.9841 2.18085 10.8568 2.26793 10.776C2.35519 10.6951 2.4579 10.6073 2.49644 10.5807C2.53498 10.554 2.6446 10.4568 2.74004 10.3649C2.83548 10.273 2.95765 10.1636 3.01146 10.1221C3.06509 10.0806 3.12981 10.0227 3.15526 9.99355C3.18053 9.96453 3.2127 9.94078 3.2267 9.94078C3.2407 9.94078 3.32323 9.86934 3.41013 9.78212C3.49684 9.69472 3.60065 9.60297 3.64064 9.57813C3.73699 9.51793 3.91496 9.33878 3.91496 9.30179C3.91496 9.28547 3.92605 9.27912 3.93951 9.28746C3.95314 9.2958 4.02295 9.24902 4.09476 9.18356C4.16675 9.11792 4.21365 9.06388 4.19892 9.06334C4.18438 9.0628 4.19965 9.04666 4.2331 9.02744C4.26637 9.00822 4.29473 8.99842 4.29618 9.00568C4.29745 9.01293 4.34854 8.96615 4.4098 8.90141C4.47088 8.83668 4.52087 8.79371 4.52087 8.80549C4.52087 8.81746 4.58868 8.75472 4.67158 8.66623C4.75466 8.57775 4.83465 8.50521 4.84974 8.50521C4.87392 8.50521 4.94499 8.44302 5.20568 8.19406C5.24568 8.15598 5.2784 8.13313 5.2784 8.14329C5.2784 8.15362 5.33712 8.10321 5.40893 8.03141C5.65071 7.78952 5.91449 7.55325 5.94267 7.55325C5.95812 7.55325 6.05411 7.47201 6.15609 7.37283C6.25808 7.27364 6.3817 7.16865 6.43096 7.13964C6.48023 7.11063 6.52058 7.06947 6.52058 7.04807C6.52058 7.02667 6.53767 7.00927 6.55876 7.00927C6.57967 7.00927 6.61384 6.98207 6.63475 6.94888C6.65547 6.91552 6.69201 6.88832 6.71583 6.88832C6.73946 6.88832 6.76746 6.86112 6.77818 6.82794C6.78873 6.79476 6.81036 6.76756 6.82618 6.76756C6.84199 6.76756 6.90126 6.71987 6.95798 6.66166C7.01451 6.60345 7.0685 6.55595 7.07778 6.55595C7.08705 6.55595 7.15449 6.49811 7.22775 6.42757C7.30083 6.35685 7.42591 6.24461 7.50535 6.17824C7.74295 5.97969 7.88784 5.85149 7.99237 5.74759C8.04672 5.69356 8.09963 5.64931 8.10999 5.64931C8.12035 5.64931 8.15907 5.62103 8.19579 5.58657C8.2327 5.55212 8.33541 5.46037 8.42412 5.38258C8.51302 5.30497 8.64646 5.18348 8.72081 5.11295C8.79516 5.04223 8.86897 4.98438 8.88497 4.98438C8.90115 4.98438 8.91424 4.97097 8.91424 4.95447C8.91424 4.93796 8.96168 4.8939 9.01986 4.85637C9.07803 4.81865 9.12566 4.77332 9.12584 4.75537C9.12602 4.73742 9.15984 4.70478 9.20092 4.68284C9.24201 4.6609 9.26855 4.63134 9.25982 4.6172C9.25109 4.60305 9.26418 4.59163 9.28891 4.59163C9.31381 4.59163 9.35544 4.57023 9.38162 4.54412C9.4078 4.51801 9.42925 4.50441 9.42925 4.51384C9.42925 4.52327 9.45434 4.50731 9.48506 4.4783C9.51579 4.44911 9.53542 4.4152 9.52869 4.40269C9.52196 4.39018 9.52978 4.38002 9.54614 4.38002C9.56232 4.38002 9.62195 4.33578 9.67867 4.28174C9.8121 4.15463 10.3357 3.6966 10.5318 3.53558C10.5633 3.50965 10.6485 3.42878 10.7212 3.3557C10.7938 3.28263 10.8532 3.23222 10.8532 3.24346C10.8532 3.25489 10.883 3.23639 10.9196 3.20248C11.0045 3.1236 11.0232 3.12505 11.1081 3.21644C11.1468 3.25815 11.1892 3.29206 11.2023 3.29206C11.2154 3.29206 11.2819 3.34591 11.3502 3.41174C11.6282 3.67937 11.7355 3.77566 11.7558 3.77566C11.7962 3.77566 11.9431 3.91764 11.9233 3.9374C11.9125 3.9481 11.9273 3.95699 11.956 3.95699C11.9847 3.95699 11.9998 3.97058 11.9894 3.98708C11.9792 4.00377 11.9847 4.01737 12.0018 4.01737C12.0189 4.01737 12.08 4.06161 12.1372 4.11565C12.3217 4.28918 12.5672 4.49807 12.6966 4.59163C12.766 4.64168 12.8228 4.69607 12.8228 4.71258C12.8228 4.72908 12.844 4.74268 12.87 4.74268C12.8958 4.74268 12.9087 4.75628 12.8984 4.77296C12.8882 4.78946 12.8926 4.80306 12.9084 4.80306C12.9242 4.80306 13.0145 4.87795 13.1093 4.96933C13.2038 5.06072 13.3009 5.13561 13.3247 5.13561C13.3485 5.13561 13.3647 5.15248 13.3605 5.17333C13.3563 5.19418 13.37 5.20778 13.3909 5.20361C13.4116 5.19944 13.4287 5.21866 13.4287 5.2464C13.4287 5.27415 13.4365 5.28902 13.4461 5.27941C13.4612 5.26417 13.5992 5.3775 13.8048 5.5737C13.8395 5.60706 13.8782 5.63082 13.8908 5.62665C13.9031 5.62248 13.9135 5.63372 13.9135 5.65149C13.9135 5.6941 13.9908 5.77026 14.0342 5.77026C14.0531 5.77026 14.0588 5.78585 14.0469 5.80507C14.0346 5.82484 14.0384 5.83191 14.0558 5.82103C14.0728 5.81069 14.1702 5.88322 14.2727 5.98223C14.3751 6.08123 14.4589 6.15467 14.4589 6.14524C14.4589 6.13581 14.4951 6.17117 14.5394 6.22376C14.5838 6.27634 14.6519 6.33146 14.691 6.34633C14.7299 6.36102 14.7617 6.3962 14.7617 6.4243C14.7617 6.45241 14.7701 6.4671 14.7801 6.45694C14.7903 6.44697 14.8181 6.45495 14.8421 6.47471C14.8999 6.52222 15.2219 6.82322 15.4191 7.0138C15.5058 7.09757 15.5911 7.15705 15.6087 7.14617C15.6265 7.13529 15.6536 7.15777 15.6691 7.19622C15.6845 7.23466 15.6982 7.25551 15.6991 7.24245C15.7002 7.2294 15.7287 7.23339 15.7625 7.25152C15.7963 7.26947 15.8181 7.29377 15.811 7.30537C15.8041 7.31716 15.8174 7.34418 15.8405 7.36557C15.8638 7.38697 15.8829 7.39658 15.8829 7.38697C15.8829 7.37736 15.9019 7.38715 15.9252 7.40855C15.9483 7.42994 15.9599 7.45986 15.9507 7.47473C15.9416 7.48978 15.9494 7.49268 15.9681 7.48108C15.987 7.46947 16.0319 7.49414 16.0683 7.53584C16.1046 7.57755 16.1483 7.60311 16.1652 7.59259C16.1837 7.58117 16.1886 7.59314 16.1774 7.62233C16.1635 7.65824 16.1715 7.66603 16.2075 7.65243C16.2399 7.63992 16.249 7.64554 16.2346 7.66857C16.2201 7.69233 16.2299 7.69722 16.265 7.6838C16.2983 7.67093 16.3097 7.67564 16.2968 7.69649C16.2844 7.71626 16.2975 7.72533 16.3297 7.71916C16.3588 7.71354 16.3921 7.70792 16.4033 7.70665C16.4146 7.70538 16.4419 7.68725 16.4639 7.66658C16.486 7.64572 16.5551 7.60184 16.6177 7.56902C16.68 7.5362 16.7313 7.5003 16.7313 7.48942C16.7313 7.47854 16.7551 7.46168 16.7842 7.45188C16.848 7.43049 16.9211 7.38479 17.0687 7.27364C17.1296 7.22794 17.1878 7.19059 17.1983 7.19059C17.2227 7.19059 17.4608 7.03646 17.5135 6.9866C17.5355 6.96593 17.5653 6.94888 17.5795 6.94888C17.5939 6.94888 17.6241 6.93184 17.6468 6.91098C17.7071 6.85586 17.7991 6.79856 17.8598 6.77825C17.8889 6.76846 17.9129 6.74997 17.9129 6.73728C17.9129 6.72458 17.9367 6.70609 17.9658 6.6963C18.0296 6.67508 18.1027 6.62921 18.2503 6.51823C18.3112 6.47254 18.3712 6.435 18.3839 6.435C18.3967 6.435 18.4518 6.4011 18.5063 6.35957C18.561 6.31787 18.6203 6.28396 18.6381 6.28396C18.6557 6.28396 18.6703 6.27126 18.6703 6.25585C18.6703 6.24026 18.6975 6.21904 18.7308 6.20852C18.7639 6.19801 18.8088 6.17317 18.8304 6.15358C18.8893 6.10009 18.9817 6.04261 19.0415 6.02267C19.0706 6.01287 19.0946 5.99293 19.0946 5.97824C19.0946 5.96355 19.1073 5.95159 19.1229 5.95159C19.1386 5.95159 19.2409 5.8903 19.3504 5.81559C19.46 5.7407 19.5583 5.67959 19.5692 5.67959C19.58 5.67959 19.6334 5.6455 19.6879 5.60398C19.7427 5.56246 19.8019 5.52837 19.8197 5.52837C19.8374 5.52837 19.8519 5.5164 19.8519 5.50189C19.8519 5.4872 19.8928 5.45837 19.9428 5.4377C19.9928 5.41703 20.0337 5.38983 20.0337 5.37714C20.0337 5.36445 20.0628 5.3465 20.0984 5.33725C20.1499 5.32383 20.1586 5.30642 20.141 5.25075C20.0953 5.10587 20.0877 5.01467 20.1211 5.01467C20.1397 5.01467 20.1548 4.99091 20.1544 4.96172C20.1541 4.91657 20.1497 4.91548 20.1246 4.95429C20.1084 4.97913 20.0933 4.98928 20.091 4.97695C20.0764 4.8988 20.0782 4.87505 20.1012 4.84404C20.1164 4.82337 20.1082 4.79091 20.0806 4.76335C20.0457 4.72871 20.0435 4.71366 20.0719 4.70224C20.1008 4.69045 20.101 4.68646 20.0726 4.68465C20.0522 4.68338 20.0435 4.66181 20.0532 4.63696C20.063 4.61122 20.0539 4.59163 20.0319 4.59163C20.0108 4.59163 20.0012 4.58383 20.0108 4.57422C20.0204 4.56461 20.015 4.51366 19.9988 4.46089C19.9826 4.40813 19.9655 4.33632 19.9608 4.30151C19.9561 4.26669 19.9424 4.22263 19.9306 4.20341C19.9186 4.18401 19.9261 4.16841 19.9472 4.16841C19.9768 4.16841 19.9772 4.16043 19.949 4.13215C19.929 4.1122 19.9126 4.0578 19.9126 4.01138C19.9126 3.96478 19.9001 3.9267 19.885 3.9267C19.8697 3.9267 19.861 3.89243 19.8657 3.85036C19.8703 3.80848 19.8623 3.76677 19.8479 3.75789C19.8336 3.749 19.8217 3.70258 19.8217 3.65471C19.8217 3.60684 19.8081 3.55915 19.7914 3.549C19.7747 3.53866 19.761 3.48427 19.761 3.42805C19.761 3.37184 19.7492 3.31853 19.7348 3.30965C19.7205 3.30076 19.711 3.26268 19.7139 3.22479C19.7168 3.18707 19.7078 3.12361 19.6938 3.0839C19.6799 3.04419 19.6607 2.96259 19.6512 2.90257C19.6418 2.84255 19.6254 2.77981 19.615 2.76313C19.6047 2.74663 19.5925 2.70982 19.5881 2.68135C19.5838 2.65306 19.545 2.49839 19.5021 2.33773C19.4592 2.17708 19.4307 2.02857 19.4387 2.00772C19.4467 1.98687 19.4347 1.9341 19.412 1.89058C19.3894 1.84688 19.3785 1.81116 19.3878 1.81116C19.3973 1.81116 19.3862 1.78813 19.3633 1.76002C19.3405 1.73192 19.3371 1.71814 19.356 1.72938C19.3783 1.7428 19.3753 1.7069 19.3469 1.62475C19.3231 1.55603 19.2975 1.43871 19.29 1.36382C19.2824 1.28912 19.2609 1.20952 19.2422 1.18721C19.2236 1.16473 19.2164 1.14642 19.2264 1.14642C19.2364 1.14642 19.2311 1.11142 19.2149 1.06863C19.1986 1.02583 19.1767 0.92048 19.1664 0.83435C19.156 0.748401 19.1349 0.669887 19.1195 0.660095C19.104 0.650122 19.0937 0.629813 19.0966 0.614763C19.0993 0.599532 19.0993 0.580492 19.0964 0.572151C19.0935 0.56381 19.0855 0.503791 19.0786 0.438513C19.0718 0.373417 19.054 0.312128 19.0391 0.302518C19.0244 0.292907 19.016 0.260268 19.0208 0.229805C19.0255 0.199524 19.0029 0.148389 18.971 0.116476C18.939 0.0845622 18.923 0.0582701 18.9355 0.0579075C18.9479 0.0577262 18.9377 0.0443077 18.9128 0.0281696C18.8661 -0.00193074 3.20979 -0.0119024 3.13453 0.0181979ZM9.89355 5.9592C9.86319 5.99673 9.80283 6.05005 9.75957 6.07779C9.7163 6.10553 9.62777 6.17697 9.56269 6.23681C9.4976 6.29647 9.37799 6.40291 9.29672 6.47326C9.21546 6.54362 9.09821 6.65223 9.03622 6.71461C8.97423 6.77699 8.91005 6.82794 8.89387 6.82794C8.87751 6.82794 8.82497 6.87472 8.77716 6.93184C8.72935 6.98896 8.67918 7.02903 8.66573 7.02069C8.65209 7.01235 8.63282 7.02667 8.62282 7.0526C8.61282 7.07871 8.58737 7.09993 8.5661 7.09993C8.54483 7.09993 8.51956 7.12985 8.50993 7.16666C8.50029 7.20329 8.48448 7.22541 8.47466 7.21562C8.46503 7.20601 8.40522 7.25079 8.34195 7.31516C8.27851 7.37972 8.21488 7.4323 8.20034 7.4323C8.1858 7.4323 8.14616 7.45914 8.11235 7.49178C7.85384 7.74092 7.65751 7.92043 7.56243 7.99478C7.5008 8.04283 7.41918 8.11264 7.38082 8.15018C7.34246 8.18753 7.29683 8.21817 7.27938 8.21817C7.26193 8.21817 7.25121 8.23449 7.25539 8.25444C7.25957 8.27457 7.24702 8.29161 7.22757 8.29234C7.20812 8.29306 7.16594 8.32407 7.13358 8.36106C7.10141 8.39823 7.06614 8.41981 7.05523 8.40893C7.04451 8.39823 7.0356 8.41437 7.0356 8.44483C7.0356 8.4753 7.02742 8.49198 7.01742 8.482C7.00742 8.47185 6.94598 8.51628 6.88108 8.58028C6.81618 8.64447 6.76291 8.68999 6.76291 8.68128C6.76291 8.67276 6.69601 8.73495 6.61421 8.81963C6.5324 8.90431 6.45132 8.97358 6.43387 8.97358C6.4166 8.97358 6.38842 8.99752 6.37151 9.02653C6.35461 9.05554 6.34025 9.07005 6.3397 9.05863C6.33916 9.0472 6.25626 9.11737 6.15536 9.21475C6.05429 9.31194 5.95212 9.39916 5.92812 9.40841C5.90395 9.41747 5.88431 9.43905 5.88431 9.45627C5.88431 9.47332 5.86723 9.48765 5.8465 9.48819C5.8256 9.48855 5.74179 9.5629 5.65998 9.65338C5.57836 9.74368 5.5 9.81059 5.48583 9.80189C5.47164 9.79318 5.46019 9.79935 5.46019 9.81548C5.46019 9.83162 5.37857 9.90397 5.27895 9.97596C5.17951 10.0479 5.09006 10.1301 5.08061 10.1582C5.07098 10.1865 5.03971 10.2171 5.01098 10.2262C4.98244 10.2353 4.87409 10.3208 4.77029 10.4166C4.42634 10.7335 4.38471 10.7687 4.3609 10.7624C4.34799 10.7589 4.32872 10.7801 4.31818 10.8093C4.29636 10.8699 4.18819 10.9829 4.18656 10.9468C4.18601 10.9337 4.15875 10.9549 4.12602 10.9943C4.0933 11.0335 4.0664 11.0554 4.0664 11.0431C4.0664 11.0306 4.0304 11.0563 3.98659 11.1002C3.9426 11.1439 3.89478 11.1798 3.88042 11.1798C3.86606 11.1798 3.8577 11.1961 3.86188 11.2162C3.86606 11.2362 3.84897 11.2538 3.82407 11.2554C3.79898 11.2569 3.78189 11.2744 3.78607 11.2946C3.79025 11.3145 3.77953 11.3308 3.76226 11.3308C3.72917 11.3308 3.67464 11.3773 3.43031 11.6137C3.34686 11.6944 3.27869 11.7524 3.27869 11.7424C3.27869 11.7325 3.23633 11.7684 3.1847 11.8222C3.13326 11.8761 3.08545 11.9169 3.07872 11.9127C3.06672 11.9053 2.94001 12.0177 2.70405 12.2451C2.63951 12.3075 2.57679 12.3584 2.5648 12.3584C2.5528 12.3584 2.50244 12.4059 2.45281 12.4638C2.40318 12.5218 2.35155 12.5624 2.3381 12.5541C2.32465 12.5459 2.26339 12.6003 2.20194 12.675C2.14049 12.7499 2.07905 12.8043 2.0656 12.796C2.05214 12.7876 2.01179 12.8217 1.97597 12.8718C1.94034 12.9218 1.89199 12.9628 1.86853 12.9628C1.84526 12.9628 1.79618 13.003 1.75982 13.0524C1.72328 13.1015 1.68292 13.1352 1.67002 13.1272C1.65711 13.1193 1.61021 13.1601 1.56603 13.2179C1.52186 13.2758 1.45932 13.3314 1.42733 13.3416C1.39515 13.3517 1.37679 13.3728 1.38624 13.3882C1.39588 13.4036 1.38388 13.4161 1.3597 13.4161C1.33552 13.4161 1.3068 13.4522 1.29552 13.4964C1.27516 13.5777 1.32643 13.7487 1.37151 13.7487C1.38497 13.7487 1.40369 13.7724 1.41314 13.8014C1.4226 13.8306 1.47114 13.8979 1.52131 13.951C1.5713 14.0041 1.61221 14.0618 1.61221 14.0794C1.61221 14.097 1.62584 14.1113 1.64257 14.1113C1.65911 14.1113 1.67274 14.1258 1.67274 14.1436C1.67274 14.1614 1.68983 14.194 1.71074 14.2159C1.73146 14.2381 1.78273 14.2993 1.82436 14.3521C1.86599 14.4051 1.9307 14.4847 1.96815 14.5291C2.0056 14.5735 2.03633 14.621 2.03633 14.6344C2.03633 14.648 2.07741 14.6935 2.1274 14.7354C2.1774 14.7775 2.21066 14.8243 2.20139 14.8393C2.19194 14.8544 2.19649 14.8667 2.21121 14.8667C2.22612 14.8667 2.28193 14.9275 2.33537 15.0018C2.38882 15.076 2.44954 15.1543 2.47026 15.1755C2.49099 15.1969 2.54044 15.2618 2.58007 15.32C2.6197 15.3782 2.6806 15.4493 2.7155 15.4782C2.75022 15.5068 2.76786 15.5306 2.75441 15.5309C2.74113 15.5313 2.76695 15.5657 2.81185 15.6073C2.85675 15.6488 2.8853 15.6827 2.87512 15.6827C2.86475 15.6827 2.89584 15.7229 2.94383 15.7719C2.99182 15.8209 3.04 15.8887 3.05072 15.9224C3.06145 15.9561 3.08127 15.9806 3.0949 15.9768C3.10854 15.973 3.16343 16.0084 3.21688 16.0555C3.27033 16.1025 3.32196 16.1331 3.33159 16.1235C3.34141 16.1137 3.33814 16.1059 3.3245 16.1059C3.31105 16.1059 3.35632 16.0651 3.4254 16.0152C3.4943 15.9654 3.56447 15.9246 3.58138 15.9246C3.5981 15.9246 3.61192 15.913 3.61192 15.8988C3.61192 15.8849 3.66645 15.8488 3.73317 15.8187C3.79971 15.7888 3.85424 15.7543 3.85424 15.7423C3.85424 15.7302 3.89515 15.7034 3.94514 15.6827C3.99513 15.662 4.03603 15.6332 4.03603 15.6187C4.03603 15.604 4.05058 15.592 4.0684 15.592C4.08621 15.592 4.14547 15.5581 4.20001 15.5166C4.25473 15.4749 4.30891 15.441 4.32036 15.441C4.33963 15.441 4.5147 15.3264 4.55124 15.2899C4.58178 15.2593 4.68903 15.1969 4.74048 15.1797C4.76975 15.1699 4.79356 15.1521 4.79356 15.1402C4.79356 15.128 4.84792 15.0923 4.91445 15.0606C4.98081 15.0288 5.03534 14.9942 5.03553 14.9839C5.03571 14.9733 5.07679 14.948 5.12679 14.9273C5.17678 14.9066 5.21768 14.8778 5.21768 14.8631C5.21768 14.8486 5.23223 14.8366 5.25004 14.8366C5.26786 14.8366 5.32712 14.8025 5.38166 14.761C5.43638 14.7195 5.49146 14.6854 5.504 14.6854C5.51673 14.6854 5.5769 14.648 5.63762 14.6023C5.78524 14.4914 5.8585 14.4455 5.92212 14.4241C5.95139 14.4145 5.97521 14.3974 5.97521 14.3866C5.97521 14.3757 6.02629 14.34 6.08883 14.3073C6.15136 14.2745 6.20917 14.2404 6.21754 14.2312C6.24517 14.2011 6.66965 13.93 6.68947 13.93C6.70001 13.93 6.75855 13.8924 6.81927 13.8467C6.96688 13.7358 7.04014 13.6899 7.10377 13.6687C7.13304 13.6589 7.15685 13.642 7.15685 13.631C7.15685 13.6201 7.20794 13.5845 7.27047 13.5517C7.33301 13.5191 7.39082 13.4848 7.39918 13.4758C7.42681 13.4455 7.8513 13.1744 7.87111 13.1744C7.88166 13.1744 7.9402 13.1358 8.00091 13.0886C8.06163 13.0415 8.15889 12.9769 8.21724 12.9452C8.2756 12.9133 8.33014 12.8795 8.3385 12.8699C8.34686 12.8603 8.4014 12.8264 8.45976 12.7943C8.51793 12.7624 8.57246 12.7289 8.58083 12.7198C8.59355 12.7062 8.89824 12.51 9.07167 12.4037C9.09875 12.3871 9.21419 12.3113 9.32817 12.2353C9.44216 12.1591 9.58305 12.0708 9.6414 12.0387C9.69958 12.0068 9.75411 11.9738 9.76247 11.9655C9.861 11.8674 9.98917 11.809 10.0388 11.8398C10.0868 11.8697 10.0906 11.8661 10.0697 11.8095C10.0564 11.7742 10.0557 11.6757 10.0679 11.5909C10.0866 11.4616 10.1353 10.1743 10.1368 9.7745C10.1442 7.70266 10.1172 6.02629 10.075 5.96228C10.0164 5.87289 9.96408 5.87216 9.89355 5.9592ZM11.8325 5.97733C11.7545 6.10191 11.8156 10.671 11.8945 10.6014C11.9134 10.5847 12.0389 10.5005 12.1734 10.4146C12.7357 10.0545 12.9296 9.92809 12.9438 9.91231C12.9522 9.90288 13.0067 9.86916 13.0651 9.83706C13.1578 9.78593 13.6265 9.48819 13.9891 9.24974C14.0558 9.20586 14.1149 9.15981 14.1206 9.14748C14.126 9.13496 14.1435 9.12481 14.1591 9.12481C14.1958 9.12481 14.5605 8.89851 14.7112 8.78228C14.775 8.73296 14.8659 8.69126 14.913 8.68962C14.9833 8.68709 14.9924 8.67875 14.9637 8.64357C14.9346 8.60803 14.9404 8.60349 14.9961 8.61782C15.0562 8.63341 15.0601 8.62852 15.0308 8.57376C15.0043 8.52444 14.9924 8.52045 14.9717 8.55399C14.9504 8.58844 14.9361 8.58572 14.8917 8.5393C14.8501 8.49597 14.8468 8.47947 14.8775 8.46822C14.9055 8.45789 14.8965 8.43867 14.8472 8.40403C14.779 8.35598 14.7665 8.35073 14.7005 8.34275C14.6834 8.34075 14.6567 8.30557 14.641 8.26459C14.6254 8.22361 14.561 8.15761 14.4978 8.11772C14.4347 8.07783 14.3373 8.00258 14.2815 7.95035C14.2255 7.89813 14.1667 7.85552 14.1509 7.85552C14.1349 7.85552 14.1295 7.84337 14.1386 7.82868C14.1477 7.81381 14.0909 7.74926 14.0122 7.68507C13.9337 7.62088 13.8335 7.53094 13.7897 7.48525C13.7459 7.43956 13.701 7.4022 13.6899 7.4022C13.679 7.4022 13.6248 7.35796 13.5697 7.30392C13.3958 7.13329 13.246 7.00927 13.2138 7.00927C13.1967 7.00927 13.1911 6.99566 13.2014 6.97898C13.2118 6.96248 13.2038 6.94888 13.184 6.94888C13.164 6.94888 13.1156 6.91407 13.0762 6.87164C13.0367 6.82939 13.0045 6.80437 13.0045 6.81615C13.0045 6.82812 12.9526 6.7846 12.8891 6.7195C12.7751 6.60255 12.6633 6.50336 12.3808 6.26891C12.3006 6.20236 12.1805 6.09701 12.1138 6.03463C11.9805 5.91024 11.8867 5.89102 11.8325 5.97733Z" fill="#FCBB04"/>
<path fill-rule="evenodd" clip-rule="evenodd" d="M20.736 7.75501C20.7413 7.79943 20.766 7.84132 20.7911 7.84803C20.8204 7.85582 20.8247 7.85129 20.8033 7.83515C20.7849 7.82155 20.7724 7.77967 20.7755 7.74231C20.7785 7.70478 20.7687 7.67432 20.7536 7.67432C20.7387 7.67432 20.7307 7.71058 20.736 7.75501ZM20.7936 7.91022C20.7922 7.93198 20.7776 7.94159 20.7611 7.93144C20.7444 7.92092 20.7387 7.93234 20.7482 7.957C20.7591 7.98529 20.7398 8.00905 20.6947 8.02319C20.6562 8.03516 20.5762 8.08285 20.5173 8.12908C20.4584 8.17514 20.3595 8.23715 20.2977 8.26653C20.2357 8.29609 20.1852 8.32963 20.1852 8.34124C20.1852 8.35284 20.1612 8.37025 20.1321 8.38004C20.0805 8.39745 19.973 8.45983 19.9427 8.49029C19.9343 8.49863 19.8661 8.54505 19.7912 8.59328C19.7163 8.64151 19.618 8.70607 19.5727 8.73671C19.5276 8.76736 19.4776 8.79238 19.4616 8.79238C19.4458 8.79238 19.4282 8.80271 19.4226 8.81504C19.4089 8.84605 19.2531 8.95285 19.1275 9.01759C19.0708 9.04696 19.0094 9.08377 18.9912 9.09937C18.8676 9.2058 18.3696 9.50354 18.3345 9.49194C18.2987 9.48015 18.2993 9.48759 18.3369 9.53546C18.4002 9.61597 18.4353 9.63754 18.4689 9.61687C18.4847 9.60708 18.4891 9.61325 18.4783 9.63047C18.4676 9.64788 18.4791 9.67889 18.504 9.69938C18.5287 9.71987 18.5491 9.72984 18.5491 9.7215C18.5491 9.71316 18.6083 9.76248 18.681 9.8312C18.8057 9.94906 18.9443 10.0696 19.3353 10.4002C19.4278 10.4784 19.5473 10.5837 19.6009 10.6345C19.6547 10.6851 19.7131 10.7266 19.7307 10.7266C19.7483 10.7266 19.7702 10.7458 19.7792 10.7692C19.7883 10.7926 19.8287 10.8202 19.8692 10.8301C19.9096 10.8403 19.9427 10.862 19.9427 10.8784C19.9427 10.9513 20.1608 10.8718 20.2761 10.7569C20.2844 10.7485 20.3388 10.7155 20.3971 10.6836C20.4555 10.6515 20.51 10.616 20.5184 10.6046C20.5268 10.5933 20.5813 10.5598 20.6397 10.5302C20.6978 10.5007 20.7953 10.4376 20.856 10.3901C20.9167 10.3424 20.9752 10.3036 20.986 10.3036C21.0618 10.3036 21.251 10.1237 21.2314 10.0702C21.2239 10.0501 21.231 10.0254 21.2468 10.0156C21.2628 10.0058 21.2759 10.0143 21.2759 10.0348C21.2759 10.0551 21.2837 10.064 21.2932 10.0544C21.3028 10.045 21.291 9.99838 21.267 9.95124C21.2428 9.90391 21.2276 9.83863 21.2327 9.80581C21.2379 9.77318 21.229 9.73074 21.213 9.71152C21.197 9.6923 21.1925 9.65423 21.203 9.62703C21.2134 9.59965 21.2048 9.55667 21.1838 9.53147C21.1627 9.50608 21.1467 9.44515 21.1481 9.39583C21.1494 9.34651 21.1401 9.30626 21.1274 9.30626C21.1147 9.30626 21.1029 9.28921 21.1012 9.26836C21.0936 9.16899 21.0691 9.0145 21.0545 8.9737C21.0456 8.94886 21.0291 8.87416 21.018 8.80779C21.0069 8.74143 20.99 8.67452 20.9803 8.65928C20.9709 8.64387 20.9592 8.59618 20.9543 8.55321C20.9418 8.44332 20.7965 7.86217 20.7936 7.91022ZM16.7926 10.1449C16.7944 10.1864 16.8766 10.2773 16.89 10.2524C16.8973 10.239 16.8782 10.2042 16.8475 10.175C16.8168 10.146 16.792 10.1324 16.7926 10.1449ZM16.9231 10.3166C16.9322 10.3405 16.9304 10.3656 16.9187 10.3721C16.9071 10.3788 16.9135 10.3806 16.9326 10.3763C17.018 10.3565 16.992 10.408 16.8893 10.462C16.7742 10.5226 16.5746 10.6481 16.2767 10.847C16.1849 10.9083 16.0963 10.964 16.0796 10.9708C16.0631 10.9779 15.9505 11.0481 15.8296 11.127C15.7089 11.206 15.5111 11.3351 15.3904 11.4142C15.2695 11.4931 15.157 11.5629 15.1405 11.5692C15.1237 11.5756 15.0896 11.5984 15.0647 11.62C15.0396 11.6416 14.985 11.6775 14.9434 11.6996C14.873 11.7371 14.7547 11.8129 14.2011 12.1747C14.0844 12.2508 13.9754 12.3201 13.9588 12.3284C13.9421 12.3368 13.8466 12.3966 13.7467 12.4615C13.6467 12.5263 13.4967 12.6226 13.4134 12.6755C13.33 12.7284 13.1597 12.8387 13.0346 12.9203C12.9097 13.0019 12.7937 13.0755 12.7772 13.084C12.7604 13.0924 12.665 13.1522 12.565 13.2169C12.465 13.2819 12.3083 13.3821 12.2165 13.44C12.1249 13.498 12.0136 13.5702 11.9695 13.6006C11.8384 13.6904 11.8251 13.6373 11.8129 12.9758C11.8069 12.6447 11.8071 13.108 11.8135 14.0055C11.8275 16.0001 11.8404 16.1735 11.968 16.0821C11.9964 16.0618 12.04 16.036 12.0651 16.0248C12.09 16.0137 12.1173 15.9967 12.1256 15.9873C12.134 15.9776 12.1954 15.9345 12.262 15.8913C12.3287 15.848 12.4856 15.7463 12.6105 15.6652C12.7355 15.5842 12.8717 15.4995 12.9133 15.4774C12.955 15.4551 13.0095 15.4192 13.0346 15.3976C13.0597 15.376 13.0937 15.3532 13.1104 15.3468C13.1271 15.3405 13.2362 15.273 13.3527 15.1967C13.4694 15.1205 13.6672 14.9914 13.7921 14.9096C13.9172 14.828 14.033 14.7555 14.0497 14.7486C14.0663 14.7417 14.155 14.6859 14.2466 14.6248C14.3382 14.5635 14.4882 14.4659 14.5798 14.4079C14.6716 14.3499 14.8489 14.2356 14.9738 14.154C15.0988 14.0724 15.2146 13.9999 15.2314 13.993C15.2479 13.9861 15.3366 13.9305 15.4282 13.8692C15.5199 13.8079 15.6767 13.7062 15.7767 13.6429C15.9447 13.5366 16.303 13.3062 16.5948 13.117C16.6613 13.0739 16.7204 13.0284 16.726 13.0158C16.7315 13.0033 16.7497 12.9932 16.7664 12.9932C16.7829 12.9932 16.8738 12.9435 16.9684 12.8828C17.2178 12.7223 17.6363 12.4525 17.7764 12.3616C17.843 12.3183 17.9021 12.2728 17.9077 12.2603C17.9131 12.2479 17.9308 12.2376 17.9468 12.2376C17.9795 12.2376 18.2867 12.0472 18.4782 11.9081C18.6049 11.8162 18.6343 11.6936 18.5296 11.6936C18.5062 11.6936 18.474 11.6597 18.4582 11.6182C18.4423 11.5767 18.4154 11.5426 18.3987 11.5426C18.3818 11.5426 18.3013 11.478 18.2196 11.399C18.0569 11.2417 17.6755 10.8976 17.5376 10.7835C17.4896 10.744 17.3825 10.6461 17.2996 10.5661C17.2167 10.4862 17.1413 10.4283 17.132 10.4376C17.1227 10.4466 17.0962 10.427 17.0729 10.394C17.0496 10.3609 17.0102 10.3337 16.9851 10.3337C16.96 10.3337 16.948 10.3201 16.9584 10.3036C16.9686 10.2869 16.9611 10.2733 16.9417 10.2733C16.9222 10.2733 16.9138 10.2929 16.9231 10.3166ZM10.0957 14.1522C10.0957 14.764 10.0519 14.8694 9.72925 15.034C9.67253 15.063 9.57636 15.1256 9.51564 15.1733C9.45492 15.2208 9.39821 15.2598 9.38966 15.2598C9.37475 15.2598 8.99244 15.5026 8.92827 15.5526C8.91118 15.566 8.84974 15.6032 8.79193 15.6353C8.73412 15.6672 8.67994 15.7028 8.67158 15.7142C8.66322 15.7256 8.60868 15.759 8.55051 15.7885C8.49216 15.8181 8.39471 15.8812 8.334 15.9289C8.27328 15.9764 8.21474 16.0154 8.20402 16.0154C8.18584 16.0154 8.00859 16.1323 7.97478 16.1668C7.96641 16.1751 7.90842 16.2088 7.84607 16.2415C7.78353 16.2743 7.73245 16.31 7.73245 16.3209C7.73245 16.3318 7.70845 16.3486 7.67936 16.3584C7.6221 16.3777 7.51448 16.442 7.48994 16.4719C7.48157 16.4821 7.42704 16.5146 7.36887 16.5441C7.31051 16.5737 7.21307 16.6368 7.15235 16.6843C7.09163 16.732 7.03219 16.7708 7.02037 16.7708C7.00855 16.7708 6.94911 16.8083 6.88839 16.854C6.82767 16.8997 6.73023 16.9632 6.67187 16.9953C6.61352 17.0272 6.55916 17.0613 6.5508 17.0707C6.52481 17.1006 6.41682 17.1646 6.36137 17.1833C6.33229 17.1929 6.30829 17.2099 6.30829 17.2208C6.30829 17.2317 6.25721 17.2674 6.19467 17.3001C6.13232 17.3329 6.07432 17.3664 6.06596 17.375C6.03215 17.4094 5.8549 17.5264 5.83672 17.5264C5.826 17.5264 5.76746 17.5643 5.70674 17.6105C5.64602 17.6569 5.54513 17.7211 5.48278 17.7534C5.42024 17.7857 5.36916 17.8196 5.36916 17.8286C5.36916 17.8377 5.31789 17.872 5.25554 17.9048C5.193 17.9376 5.12519 17.9802 5.10465 17.9994C5.08411 18.0187 5.0263 18.0526 4.97594 18.0749C4.92558 18.0972 4.88432 18.1256 4.88432 18.1382C4.88432 18.1507 4.86305 18.161 4.83705 18.161C4.80906 18.161 4.79869 18.1469 4.81142 18.1262C4.82433 18.1055 4.81978 18.0994 4.80069 18.1111C4.78288 18.1222 4.76142 18.114 4.75288 18.0932C4.74452 18.0723 4.7367 18.0689 4.73561 18.0854C4.73452 18.1021 4.78797 18.1741 4.85432 18.2455C4.92086 18.3168 4.97521 18.3833 4.97521 18.3931C4.97521 18.4031 5.04775 18.5012 5.13646 18.6111C5.22517 18.7209 5.31044 18.8326 5.32589 18.8595C5.35607 18.9119 5.53549 19.1317 5.69474 19.3115C5.74892 19.3725 5.79327 19.4377 5.79327 19.4564C5.79327 19.4749 5.82054 19.5072 5.85381 19.528C5.88726 19.5487 5.91453 19.5837 5.91453 19.6056C5.91453 19.6274 5.92598 19.6383 5.94016 19.6296C5.95434 19.6209 5.98416 19.6475 6.00633 19.6891C6.08123 19.8285 6.21885 19.8067 6.41864 19.624C6.43845 19.6058 6.49681 19.5735 6.54807 19.5523C6.59952 19.5309 6.6417 19.5032 6.6417 19.4907C6.6417 19.478 6.66551 19.4595 6.6946 19.4499C6.74368 19.4334 6.82022 19.3886 6.89748 19.3309C7.00146 19.2533 7.35159 19.0374 7.37323 19.0374C7.38741 19.0374 7.39904 19.0254 7.39904 19.0109C7.39904 18.9962 7.43994 18.9674 7.48994 18.9467C7.53993 18.926 7.58083 18.8994 7.58083 18.8872C7.58083 18.8751 7.63537 18.8408 7.70209 18.8107C7.76881 18.7808 7.82334 18.7463 7.82334 18.7342C7.82334 18.722 7.84716 18.7041 7.87624 18.6943C7.92533 18.6778 8.00186 18.633 8.07912 18.5753C8.17711 18.5024 8.53269 18.282 8.55233 18.282C8.56524 18.282 8.58032 18.2716 8.58578 18.2593C8.59977 18.2277 8.75648 18.1208 8.88373 18.0557C8.94209 18.0259 8.99663 17.9931 9.00499 17.9829C9.01335 17.9728 9.04735 17.9479 9.08061 17.9278C9.11406 17.9075 9.25041 17.8217 9.38366 17.7371C9.51691 17.6524 9.65271 17.567 9.68544 17.5472C9.71798 17.5275 9.76324 17.4943 9.78597 17.4734C9.80869 17.4527 9.8365 17.4355 9.84796 17.4352C9.91304 17.4337 10.0656 17.2529 10.0676 17.1748C10.0694 17.0992 10.073 17.0957 10.0957 17.1487C10.1108 17.1835 10.1225 16.508 10.1232 15.5544C10.1241 14.6443 10.1181 13.8998 10.1101 13.8998C10.1023 13.8998 10.0957 14.0133 10.0957 14.1522Z" fill="#FC7026"/>
<path fill-rule="evenodd" clip-rule="evenodd" d="M10.1402 8.05194C10.1402 8.94951 10.144 9.31235 10.1487 8.85831C10.1535 8.40408 10.1535 7.66971 10.1487 7.22636C10.144 6.78284 10.1402 7.15438 10.1402 8.05194ZM20.947 8.45993C20.947 8.48477 20.9586 8.53246 20.973 8.56564C20.9893 8.60372 20.999 8.60935 20.999 8.58088C20.999 8.55585 20.9873 8.50834 20.973 8.47498C20.9566 8.4369 20.947 8.43128 20.947 8.45993ZM21.0059 8.73192C21.0068 8.75676 21.0193 8.80445 21.0335 8.83763L21.0597 8.8982L21.0613 8.83763C21.0622 8.80445 21.0497 8.75676 21.0335 8.73192C21.0075 8.69167 21.0044 8.69167 21.0059 8.73192ZM17.8825 9.16439C17.8825 9.16964 17.9269 9.21389 17.981 9.26267L18.0794 9.35152L17.9905 9.25324C17.9076 9.16167 17.8825 9.14118 17.8825 9.16439ZM10.1375 10.1976C10.1375 10.3805 10.1425 10.4514 10.1485 10.3552C10.1545 10.2591 10.1545 10.1095 10.1484 10.0228C10.1422 9.93612 10.1373 10.0148 10.1375 10.1976ZM18.9336 10.1044C18.9805 10.1446 19.024 10.172 19.0305 10.1657C19.0453 10.151 18.9067 10.0338 18.8731 10.0324C18.8596 10.0319 18.8869 10.0643 18.9336 10.1044ZM19.0642 10.192C19.0642 10.1972 19.1085 10.2415 19.1627 10.2902L19.261 10.3789L19.1721 10.2808C19.0892 10.1892 19.0642 10.1686 19.0642 10.192ZM21.3696 10.3009C21.368 10.3245 21.4 10.4741 21.4404 10.6333C21.4809 10.7927 21.5223 10.9619 21.5327 11.0096C21.5431 11.0573 21.5585 11.0894 21.5671 11.0808C21.584 11.064 21.4969 10.6141 21.4674 10.5668C21.4576 10.5508 21.4322 10.4748 21.4109 10.398C21.3896 10.3211 21.3711 10.2774 21.3696 10.3009ZM19.4906 10.5936C19.531 10.6368 19.6186 10.7138 19.6853 10.7648C19.7595 10.8217 19.7361 10.7914 19.6246 10.6863C19.4346 10.5073 19.3647 10.4589 19.4906 10.5936ZM10.1389 11.1798C10.1389 11.5206 10.1433 11.66 10.1487 11.4895C10.154 11.3193 10.154 11.0404 10.1487 10.8701C10.1433 10.6997 10.1389 10.8391 10.1389 11.1798ZM19.9415 10.9758C20.0671 11.1093 20.0944 11.1332 20.0944 11.1106C20.0944 11.1057 20.0295 11.0411 19.9504 10.967L19.8064 10.8322L19.9415 10.9758ZM11.7698 11.0741C11.7701 11.1405 11.7763 11.1642 11.7836 11.1265C11.7909 11.089 11.7907 11.0346 11.783 11.0058C11.7754 10.9768 11.7696 11.0076 11.7698 11.0741ZM17.9583 11.1354C18.2606 11.4165 18.3428 11.4863 18.3555 11.4736C18.3632 11.4662 18.2496 11.3615 18.1032 11.2413C17.9569 11.1211 17.8916 11.0734 17.9583 11.1354ZM20.1271 11.1405C20.1307 11.1758 20.4609 11.4589 20.4781 11.4417C20.4861 11.4337 20.4289 11.3681 20.3507 11.2959C20.1967 11.1537 20.1233 11.1026 20.1271 11.1405ZM21.5654 11.1722C21.5716 11.2014 21.6005 11.334 21.6294 11.4669C21.6585 11.6 21.6836 11.7155 21.6852 11.7238C21.687 11.7322 21.6992 11.7842 21.7123 11.8395C21.7643 12.058 21.7879 12.33 21.7529 12.3084C21.7403 12.3006 21.7221 12.3146 21.7125 12.3396C21.689 12.4007 21.5407 12.3351 21.3798 12.1922C21.1273 11.9681 20.9232 11.7922 20.8803 11.7619C20.851 11.7412 20.7617 11.6636 20.6817 11.5893C20.6018 11.5149 20.5294 11.4611 20.521 11.4694C20.5058 11.4846 20.6003 11.5731 20.8514 11.7788C20.9262 11.8399 21.0081 11.9129 21.0331 11.9409C21.174 12.0974 21.6281 12.4491 21.6892 12.4491C21.8399 12.4491 21.8598 12.2256 21.7483 11.7842C21.7083 11.6264 21.6598 11.4192 21.6405 11.324C21.6211 11.2286 21.5938 11.1436 21.5798 11.1351C21.5658 11.1263 21.5592 11.1432 21.5654 11.1722ZM11.7698 11.4368C11.7701 11.5031 11.7763 11.5269 11.7836 11.4892C11.7909 11.4516 11.7907 11.3972 11.783 11.3684C11.7754 11.3394 11.7696 11.3702 11.7698 11.4368ZM18.5793 11.691C18.5793 11.7091 18.591 11.7238 18.6053 11.7238C18.6195 11.7238 18.6649 11.7545 18.7064 11.7918C18.7478 11.8292 18.8146 11.887 18.8547 11.9202L18.9278 11.9808L18.8673 11.9093C18.7773 11.8034 18.5793 11.6535 18.5793 11.691ZM10.1304 15.562C10.1246 17.6146 10.1224 19.399 10.1255 19.5272C10.1315 19.7704 10.1091 19.8625 10.0622 19.7885C10.0431 19.7586 10.036 19.7657 10.0357 19.8152C10.0353 19.8618 9.99512 19.9078 9.9064 19.963C9.62517 20.1381 9.44392 20.2612 9.43429 20.2834C9.42865 20.2962 9.41102 20.3066 9.39484 20.3066C9.37884 20.3066 9.28795 20.3575 9.19287 20.4199C9.09797 20.4821 9.00653 20.5399 8.98981 20.5485C8.96181 20.5626 8.88419 20.6123 8.42934 20.9075C8.33772 20.967 8.2581 21.0261 8.25264 21.039C8.24701 21.0516 8.22665 21.0625 8.20719 21.0629C8.18774 21.0634 8.02177 21.1644 7.83852 21.2874C7.65527 21.4103 7.50093 21.4992 7.49566 21.4847C7.49039 21.4703 7.46948 21.4649 7.44912 21.4725C7.40258 21.4905 7.27169 21.3652 7.19607 21.2303C7.17825 21.1985 7.13826 21.169 7.10717 21.1646C7.05863 21.1577 7.057 21.1617 7.09627 21.1925C7.12117 21.2123 7.17807 21.2828 7.22261 21.3492C7.32696 21.5053 7.44676 21.6393 7.4653 21.6207C7.47348 21.6127 7.48003 21.6239 7.48003 21.6455C7.48003 21.6798 7.72963 22.0172 8.18702 22.6011C8.26191 22.6968 8.4517 22.9438 8.60859 23.1502C8.89309 23.5244 8.93054 23.5725 9.15833 23.8577C9.29831 24.0328 9.27922 24.0084 9.48701 24.2807C9.9124 24.8383 9.9404 24.87 10.0091 24.87C10.1631 24.87 10.1571 25.1524 10.1487 18.2449C10.1429 13.2979 10.1385 12.6839 10.1304 15.562ZM19.0036 12.0551C19.0036 12.0712 19.0342 12.1004 19.0718 12.12C19.1396 12.1556 19.1396 12.1554 19.0822 12.0908C19.018 12.0188 19.0036 12.0123 19.0036 12.0551ZM19.3759 12.3811C19.4628 12.46 19.5385 12.5351 19.5441 12.5478C19.5495 12.5603 19.5837 12.5849 19.6197 12.6022C19.6557 12.6196 19.5899 12.5449 19.4732 12.4364C19.3565 12.328 19.2514 12.2388 19.2396 12.2384C19.228 12.2379 19.2892 12.3023 19.3759 12.3811ZM19.8415 12.8011C19.9273 12.8818 20.0324 12.975 20.0749 13.0082C20.1173 13.0415 20.1527 13.0856 20.1535 13.1064C20.1544 13.1273 20.1753 13.1442 20.2004 13.1442C20.2253 13.1442 20.2458 13.1639 20.2458 13.188C20.2458 13.2122 20.2694 13.245 20.2982 13.2611C20.3445 13.287 20.3411 13.2947 20.2678 13.3278C20.2224 13.3485 20.1853 13.3753 20.1853 13.3873C20.1853 13.3993 20.1613 13.4172 20.1322 13.4268C20.0807 13.4443 19.9735 13.5066 19.9428 13.5371C19.9344 13.5454 19.8799 13.5784 19.8217 13.6103C19.7633 13.6424 19.7088 13.6763 19.7004 13.686C19.6735 13.7168 19.4914 13.8394 19.4725 13.8394C19.4623 13.8394 19.4094 13.8733 19.3547 13.9148C19.3001 13.9565 19.246 13.9904 19.2343 13.9904C19.2132 13.9904 19.0325 14.1106 19.0036 14.1438C18.9953 14.1534 18.9407 14.1873 18.8824 14.2194C18.824 14.2513 18.7695 14.2843 18.7611 14.2927C18.7387 14.315 18.6313 14.3808 18.5793 14.404C18.5544 14.4151 18.5271 14.4319 18.5188 14.4416C18.4917 14.4724 18.3097 14.5948 18.2908 14.5948C18.2806 14.5948 18.2277 14.6289 18.173 14.6704C18.1185 14.7119 18.0643 14.746 18.0527 14.746C18.0316 14.746 17.8509 14.8662 17.822 14.8994C17.8136 14.9088 17.7591 14.9429 17.7007 14.9748C17.6424 15.0069 17.5878 15.0397 17.5795 15.0481C17.5571 15.0706 17.4497 15.1362 17.3977 15.1594C17.3728 15.1707 17.3455 15.1875 17.3371 15.1971C17.3101 15.228 17.1281 15.3504 17.1092 15.3504C17.099 15.3504 17.0461 15.3845 16.9914 15.426C16.9368 15.4675 16.8774 15.5014 16.8596 15.5014C16.8418 15.5014 16.8225 15.5119 16.817 15.5248C16.8021 15.5589 16.4689 15.7734 16.4305 15.7734C16.4125 15.7734 16.3978 15.7855 16.3978 15.8002C16.3978 15.8149 16.374 15.8349 16.3449 15.8447C16.2911 15.8626 16.1833 15.9261 16.1555 15.956C16.1195 15.9948 15.7003 16.257 15.6743 16.257C15.6585 16.257 15.6408 16.2675 15.6354 16.2802C15.6238 16.307 15.2913 16.529 15.2629 16.529C15.2525 16.529 15.2274 16.5435 15.2074 16.5613C15.1382 16.6224 14.5192 17.0126 14.4916 17.0126C14.4763 17.0126 14.4592 17.0229 14.4537 17.0358C14.4421 17.0625 14.1096 17.2846 14.0812 17.2846C14.0709 17.2846 14.0458 17.2989 14.0258 17.3167C13.9471 17.3858 13.3408 17.768 13.3099 17.768C13.2919 17.768 13.2768 17.7783 13.2763 17.7907C13.2757 17.8032 13.1661 17.8813 13.0325 17.9646C12.8991 18.0476 12.6635 18.1972 12.5091 18.2969C12.3548 18.3967 12.151 18.5281 12.0563 18.5892C11.9357 18.6668 11.8772 18.6895 11.8614 18.6647C11.8488 18.6453 11.8287 17.793 11.8163 16.7707C11.8041 15.7486 11.7894 14.8374 11.7838 14.746C11.7779 14.6544 11.7743 16.8742 11.7754 19.6786L11.7774 24.7777L11.845 24.8452L11.9128 24.9128L11.9961 24.8508C12.0417 24.8167 12.1204 24.7335 12.1706 24.6659C12.2421 24.5699 12.6425 24.0633 12.7858 23.8878C12.8153 23.8517 13.0719 23.5184 13.3912 23.1021C13.5184 22.9358 13.6984 22.7039 13.7907 22.5866C13.8833 22.4693 13.9929 22.3273 14.0345 22.2711C14.0763 22.2149 14.1856 22.0727 14.2776 21.9554C14.3698 21.8381 14.4719 21.707 14.5048 21.6638C14.5379 21.6207 14.6466 21.4796 14.7466 21.3505C14.8466 21.2212 14.9573 21.0756 14.9928 21.0272C15.0282 20.9786 15.0967 20.8953 15.1453 20.8419C15.1938 20.7885 15.2738 20.6888 15.3232 20.6203C15.3727 20.5515 15.4905 20.3952 15.585 20.2727C15.6796 20.1501 15.8535 19.9205 15.9719 19.7626C16.0902 19.6048 16.2242 19.4302 16.2697 19.3749C16.3742 19.2478 16.4767 19.1162 16.761 18.7446C16.8859 18.5814 17.0699 18.3443 17.1701 18.2175C17.2702 18.0908 17.4068 17.9158 17.4735 17.8287C17.5402 17.7419 17.6107 17.6538 17.6302 17.6331C17.6498 17.6126 17.7044 17.5413 17.7514 17.475C17.8603 17.3214 18.0592 17.0608 18.2912 16.7669C18.3913 16.6401 18.5455 16.4429 18.6337 16.3286C18.7218 16.2144 18.9096 15.9714 19.0511 15.7886C19.1925 15.6057 19.3552 15.395 19.4127 15.3201C19.5883 15.0914 20.2489 14.2396 20.4645 13.9638C20.7465 13.6031 20.7455 13.5512 20.4534 13.2914C20.3343 13.1855 20.1991 13.0649 20.1529 13.0234C19.7857 12.6928 19.5394 12.5171 19.8415 12.8011ZM5.30852 18.8862C5.34416 18.9361 5.38015 18.9769 5.38851 18.9769C5.39688 18.9769 5.37452 18.9361 5.33888 18.8862C5.30325 18.8364 5.26726 18.7956 5.25908 18.7956C5.25072 18.7956 5.27307 18.8364 5.30852 18.8862ZM5.71556 19.4076C5.76228 19.4699 5.80627 19.5209 5.81318 19.5209C5.8399 19.5209 5.76537 19.4115 5.69974 19.3542C5.6432 19.3051 5.64611 19.3147 5.71556 19.4076ZM6.00115 19.7853C6.03915 19.8393 6.07659 19.8835 6.08441 19.8835C6.11059 19.8835 6.03951 19.7731 5.98552 19.73C5.94771 19.6995 5.95207 19.7156 6.00115 19.7853ZM6.23512 20.0805C6.27947 20.1383 6.3202 20.1858 6.32583 20.1858C6.35128 20.1858 6.22821 20.0036 6.19367 19.9903C6.17222 19.982 6.19094 20.0226 6.23512 20.0805ZM6.41618 20.3142C6.4649 20.3682 6.51526 20.4253 6.5278 20.4411C6.54234 20.4591 6.55089 20.4589 6.55089 20.4402C6.55089 20.4047 6.38182 20.2159 6.35001 20.2159C6.33747 20.2159 6.36728 20.2602 6.41618 20.3142ZM6.67287 20.6391C6.74268 20.7305 6.81431 20.8107 6.83194 20.817C6.86884 20.8306 6.84921 20.8054 6.66996 20.6088L6.54598 20.4729L6.67287 20.6391ZM6.97119 21.0226C6.9901 21.0593 7.02009 21.0979 7.03773 21.1088C7.09808 21.1459 7.08445 21.1077 7.01046 21.0319C6.94356 20.9635 6.93992 20.9626 6.97119 21.0226Z" fill="#FC3146"/>
<path fill-rule="evenodd" clip-rule="evenodd" d="M21.146 9.4579C21.1549 9.49126 21.1764 9.52753 21.1938 9.53841C21.2138 9.55074 21.2182 9.53841 21.2053 9.50522C21.1942 9.47621 21.1851 9.43995 21.1851 9.42472C21.1851 9.40948 21.1728 9.39697 21.1577 9.39697C21.1426 9.39697 21.1373 9.42435 21.146 9.4579ZM21.2286 9.83741C21.2351 9.86933 21.2493 9.91792 21.2602 9.9453C21.2711 9.97287 21.2662 10.0039 21.2491 10.0144C21.232 10.0249 21.224 10.0501 21.2315 10.0702C21.2511 10.1237 21.0619 10.3036 20.9861 10.3036C20.9753 10.3036 20.9168 10.3424 20.8561 10.3901C20.7954 10.4376 20.6979 10.5007 20.6397 10.5303C20.5814 10.5598 20.5269 10.5934 20.5185 10.6046C20.5101 10.616 20.4556 10.6516 20.3972 10.6837C20.3389 10.7156 20.2845 10.7486 20.2762 10.7569C20.1609 10.8719 19.9428 10.9513 19.9428 10.8784C19.9428 10.8621 19.9097 10.8403 19.8693 10.8302C19.8288 10.8202 19.7884 10.7926 19.7793 10.7693C19.7702 10.7459 19.7457 10.7266 19.7246 10.7266C19.6864 10.7266 20.0555 11.0764 20.1549 11.1346C20.2031 11.1629 20.5425 11.4585 20.7321 11.6374C20.7785 11.6811 20.8428 11.7355 20.875 11.7582C20.9223 11.7916 21.12 11.9618 21.3798 12.1923C21.5407 12.3352 21.689 12.4008 21.7125 12.3397C21.7221 12.3147 21.7403 12.3007 21.7529 12.3085C21.7879 12.3301 21.7643 12.0581 21.7123 11.8396C21.6992 11.7843 21.687 11.7323 21.6852 11.7239C21.6836 11.7156 21.6596 11.6068 21.632 11.4822C21.6043 11.3575 21.5745 11.2148 21.5658 11.1649C21.5393 11.0142 21.4996 10.8456 21.4271 10.5756C21.3893 10.4342 21.36 10.2873 21.3624 10.249C21.3646 10.2108 21.3542 10.1868 21.3391 10.1961C21.3242 10.2053 21.3186 10.1872 21.3269 10.1558C21.3351 10.1245 21.3271 10.0896 21.3089 10.0786C21.2907 10.0673 21.276 10.0447 21.276 10.028C21.276 10.0113 21.2891 10.0059 21.3051 10.0157C21.3218 10.0262 21.3202 9.9919 21.3009 9.93442C21.2626 9.81983 21.2109 9.75056 21.2286 9.83741ZM19.5186 10.5631C19.5186 10.5807 19.5528 10.6271 19.5944 10.6663C19.6361 10.7052 19.6701 10.7274 19.6701 10.7154C19.6701 10.7036 19.6361 10.6572 19.5944 10.6122C19.5528 10.5674 19.5186 10.5453 19.5186 10.5631ZM18.4582 11.6331C18.4582 11.6697 18.5431 11.7096 18.568 11.6848C18.5771 11.6757 18.5561 11.6532 18.5213 11.6347C18.4775 11.6113 18.4582 11.6108 18.4582 11.6331ZM18.5902 11.7691C18.6017 11.7986 18.5635 11.8463 18.4799 11.9071C18.2874 12.0469 17.9798 12.2376 17.9469 12.2376C17.9309 12.2376 17.9132 12.248 17.9078 12.2603C17.9021 12.2728 17.8431 12.3183 17.7765 12.3617C17.6364 12.4525 17.2179 12.7223 16.9685 12.8828C16.8739 12.9435 16.783 12.9932 16.7665 12.9932C16.7498 12.9932 16.7316 13.0034 16.7261 13.0159C16.7205 13.0284 16.6614 13.0739 16.5949 13.1171C16.3031 13.3062 15.9448 13.5367 15.7768 13.6429C15.6768 13.7062 15.5199 13.8079 15.4283 13.8692C15.3367 13.9305 15.248 13.9862 15.2314 13.9931C15.2147 14 15.0989 14.0725 14.9738 14.1541C14.849 14.2357 14.6717 14.3499 14.5799 14.4079C14.4883 14.466 14.3383 14.5635 14.2467 14.6248C14.1551 14.6859 14.0663 14.7418 14.0498 14.7487C14.0331 14.7555 13.9205 14.8257 13.7998 14.9048C13.6789 14.9837 13.4813 15.1129 13.3604 15.1918C13.2396 15.2707 13.1272 15.3405 13.1105 15.3469C13.0938 15.3532 13.0598 15.3761 13.0347 15.3976C13.0096 15.4192 12.955 15.4551 12.9134 15.4774C12.8718 15.4995 12.7356 15.5842 12.6106 15.6653C12.4857 15.7463 12.3288 15.848 12.2621 15.8914C12.1955 15.9347 12.1364 15.9802 12.1308 15.9927C12.1253 16.0051 12.103 16.0154 12.0815 16.0154C12.0599 16.0154 12.0254 16.0357 12.0046 16.0607C11.8836 16.2062 11.8574 16.1173 11.8261 15.4562C11.8101 15.1168 11.8058 15.491 11.813 16.5594C11.8288 18.8835 11.8123 18.7464 12.0563 18.5893C12.151 18.5282 12.3548 18.3968 12.5091 18.297C12.6635 18.1973 12.8991 18.0477 13.0325 17.9647C13.1661 17.8814 13.2757 17.8033 13.2763 17.7908C13.2768 17.7785 13.2919 17.7681 13.3099 17.7681C13.3408 17.7681 13.9471 17.3859 14.0258 17.3168C14.0458 17.299 14.0709 17.2847 14.0812 17.2847C14.1096 17.2847 14.4421 17.0626 14.4537 17.0359C14.4592 17.023 14.4763 17.0127 14.4916 17.0127C14.5192 17.0127 15.1382 16.6225 15.2074 16.5614C15.2274 16.5436 15.2525 16.5291 15.2629 16.5291C15.2913 16.5291 15.6238 16.3072 15.6354 16.2803C15.6408 16.2676 15.6585 16.2571 15.6743 16.2571C15.7003 16.2571 16.1195 15.9949 16.1555 15.9561C16.1833 15.9262 16.2911 15.8627 16.3449 15.8448C16.374 15.835 16.3978 15.815 16.3978 15.8004C16.3978 15.7857 16.4125 15.7735 16.4305 15.7735C16.4689 15.7735 16.8021 15.559 16.817 15.5249C16.8225 15.512 16.8418 15.5015 16.8596 15.5015C16.8774 15.5015 16.9368 15.4676 16.9914 15.4261C17.0461 15.3846 17.099 15.3505 17.1092 15.3505C17.1281 15.3505 17.3101 15.2281 17.3371 15.1973C17.3455 15.1877 17.3728 15.1708 17.3977 15.1595C17.4497 15.1363 17.5571 15.0707 17.5795 15.0482C17.5878 15.0399 17.6424 15.0071 17.7007 14.975C17.7591 14.943 17.8136 14.909 17.822 14.8995C17.8509 14.8663 18.0316 14.7461 18.0527 14.7461C18.0643 14.7461 18.1185 14.712 18.173 14.6705C18.2277 14.629 18.2806 14.5949 18.2908 14.5949C18.3079 14.5949 18.485 14.4776 18.5188 14.4438C18.5413 14.4214 18.6486 14.3557 18.7006 14.3325C18.7255 14.3215 18.7527 14.3044 18.7611 14.295C18.7695 14.2854 18.824 14.2515 18.8824 14.2195C18.9407 14.1875 18.9953 14.1535 19.0036 14.1439C19.0325 14.1107 19.2132 13.9905 19.2343 13.9905C19.246 13.9905 19.3001 13.9566 19.3547 13.9149C19.4094 13.8734 19.4623 13.8395 19.4725 13.8395C19.4914 13.8395 19.6735 13.7169 19.7004 13.6861C19.7088 13.6765 19.7633 13.6426 19.8217 13.6105C19.8799 13.5786 19.9344 13.5456 19.9428 13.5372C19.9735 13.5068 20.0807 13.4444 20.1322 13.427C20.1613 13.4174 20.1853 13.3994 20.1853 13.3874C20.1853 13.3755 20.2224 13.3486 20.2678 13.328C20.3411 13.2948 20.3445 13.2872 20.2982 13.2612C20.2694 13.2451 20.2458 13.2123 20.2458 13.1882C20.2458 13.164 20.2253 13.1443 20.2004 13.1443C20.1753 13.1443 20.1544 13.1274 20.1535 13.1066C20.1527 13.0857 20.1171 13.0416 20.0742 13.0083C20.0315 12.9751 19.9195 12.8775 19.8257 12.7914C19.7317 12.7055 19.5684 12.5559 19.4626 12.459C19.357 12.3622 19.2523 12.2726 19.2301 12.2601C19.2078 12.2474 19.1363 12.1863 19.0711 12.1241C18.7024 11.7729 18.5479 11.6587 18.5902 11.7691ZM10.0676 17.1748C10.0656 17.253 9.91313 17.4338 9.84805 17.4352C9.83659 17.4356 9.80878 17.4528 9.78605 17.4735C9.76333 17.4943 9.71807 17.5275 9.68552 17.5473C9.6528 17.567 9.517 17.6524 9.38375 17.7371C9.2505 17.8218 9.11415 17.9076 9.0807 17.9279C9.04743 17.948 9.01344 17.9728 9.00508 17.983C8.99672 17.9931 8.94218 18.026 8.88382 18.0557C8.75657 18.1208 8.59986 18.2278 8.58587 18.2593C8.58041 18.2717 8.56532 18.282 8.55242 18.282C8.53278 18.282 8.1772 18.5025 8.07921 18.5754C8.00195 18.633 7.92542 18.6778 7.87633 18.6943C7.84725 18.7041 7.82343 18.7221 7.82343 18.7342C7.82343 18.7464 7.76889 18.7808 7.70218 18.8107C7.63546 18.8408 7.58092 18.8751 7.58092 18.8873C7.58092 18.8994 7.54002 18.9261 7.49002 18.9467C7.44003 18.9674 7.39913 18.9962 7.39913 19.0109C7.39913 19.0254 7.38749 19.0374 7.37331 19.0374C7.35168 19.0374 7.00155 19.2534 6.89757 19.331C6.82031 19.3886 6.74377 19.4334 6.69469 19.4499C6.6656 19.4595 6.64179 19.478 6.64179 19.4907C6.64179 19.5032 6.59961 19.531 6.54816 19.5524C6.4969 19.5736 6.43854 19.6059 6.41873 19.624C6.21658 19.809 6.08859 19.8274 6.00206 19.6846C5.97515 19.6403 5.94552 19.6166 5.93589 19.6318C5.92643 19.647 5.97915 19.7252 6.05296 19.8053C6.12677 19.8857 6.18731 19.9633 6.18731 19.978C6.18731 19.9926 6.19785 20.0046 6.21058 20.0046C6.22348 20.0046 6.25948 20.0518 6.29074 20.1094C6.32183 20.1671 6.3591 20.2071 6.37328 20.1983C6.38764 20.1896 6.39964 20.2001 6.39982 20.2218C6.40018 20.2436 6.43418 20.2935 6.47563 20.3326C6.5169 20.3718 6.55125 20.4193 6.55162 20.4383C6.55216 20.4574 6.60325 20.529 6.66524 20.5975C6.72723 20.6661 6.79849 20.7528 6.82358 20.7901C6.84848 20.8276 6.88702 20.8768 6.90902 20.8998C6.93102 20.9227 6.94083 20.9413 6.93065 20.9413C6.92065 20.9413 6.95065 20.9789 6.99755 21.0246C7.04445 21.0703 7.08918 21.1212 7.09699 21.1379C7.10499 21.1544 7.12117 21.1647 7.13317 21.1607C7.14517 21.1568 7.17116 21.1838 7.19098 21.2206C7.21079 21.2576 7.24188 21.3045 7.26006 21.325C7.35532 21.4326 7.38404 21.4706 7.38404 21.4897C7.38404 21.5011 7.3964 21.522 7.41167 21.5357C7.42749 21.5502 7.43076 21.5461 7.41931 21.5263C7.4084 21.5073 7.41895 21.4842 7.44294 21.4752C7.46676 21.4661 7.49039 21.4705 7.49566 21.4848C7.50093 21.4993 7.65527 21.4104 7.83852 21.2875C8.02177 21.1646 8.18774 21.0636 8.20719 21.063C8.22665 21.0626 8.24701 21.0518 8.25264 21.0391C8.2581 21.0262 8.33772 20.9671 8.42934 20.9076C8.88419 20.6124 8.96181 20.5627 8.98981 20.5486C9.00653 20.5401 9.09797 20.4822 9.19287 20.42C9.28795 20.3576 9.37884 20.3067 9.39484 20.3067C9.41102 20.3067 9.42865 20.2964 9.43429 20.2835C9.44392 20.2614 9.62517 20.1382 9.9064 19.9631C9.99293 19.9092 10.036 19.8608 10.0375 19.8153C10.0389 19.7781 10.0469 19.7647 10.0553 19.7856C10.0637 19.8066 10.0829 19.816 10.098 19.8068C10.1324 19.7856 10.1293 17.2321 10.0947 17.1487C10.0731 17.0965 10.0695 17.0999 10.0676 17.1748ZM5.61157 19.2584C5.61157 19.2637 5.65593 19.3079 5.7101 19.3567L5.80845 19.4454L5.71956 19.3473C5.63666 19.2557 5.61157 19.2351 5.61157 19.2584Z" fill="#FC5234"/>
</svg>
