<svg width="189" height="121" viewBox="0 0 189 121" fill="none" xmlns="http://www.w3.org/2000/svg">
<g id="People search-rafiki 1">
<g id="freepik--People--inject-6">
<path id="Vector" d="M91.0261 9.0549L85.1633 94.6681H156.651L163.126 0.0849609H100.612L91.0261 9.0549Z" fill="#FFCA40"/>
<path id="Vector_2" opacity="0.8" d="M91.0261 9.0549L85.1633 94.6681H156.651L163.126 0.0849609H100.612L91.0261 9.0549Z" fill="white"/>
<path id="Vector_3" d="M150.801 28.9892C155.617 24.3353 155.997 16.9165 151.651 12.4188C147.305 7.9212 139.877 8.04787 135.061 12.7018C130.245 17.3557 129.865 24.7745 134.211 29.2721C138.557 33.7697 145.985 33.6431 150.801 28.9892Z" fill="#FFCA40"/>
<path id="Vector_4" d="M150.386 28.5597C154.948 24.151 155.309 17.1232 151.192 12.8628C147.075 8.60235 140.039 8.72256 135.476 13.1313C130.914 17.54 130.553 24.5678 134.67 28.8282C138.788 33.0887 145.824 32.9685 150.386 28.5597Z" fill="white"/>
<g id="Clip path group">
<mask id="mask0_1_4194" style="mask-type:luminance" maskUnits="userSpaceOnUse" x="131" y="9" width="24" height="23">
<g id="freepik--clip-path--inject-6">
<path id="Vector_5" d="M150.386 28.5597C154.948 24.151 155.309 17.1232 151.192 12.8628C147.074 8.60235 140.038 8.72256 135.476 13.1313C130.914 17.54 130.553 24.5678 134.67 28.8282C138.788 33.0887 145.824 32.9685 150.386 28.5597Z" fill="white"/>
</g>
</mask>
<g mask="url(#mask0_1_4194)">
<g id="Group">
<path id="Vector_6" d="M140.015 24.7042L137.83 24.5605C137.83 24.5605 136.813 29.7921 136.163 30.2305C135.275 30.8467 133.517 32.336 132.349 32.8765C132.229 33.2305 132.204 33.6099 132.277 33.9765C134.092 33.9765 137.448 32.1697 138.027 31.3834C139.353 29.6182 140.015 24.7042 140.015 24.7042Z" fill="#FFC3BD"/>
<path id="Vector_7" d="M141.058 21.4232C141.72 22.6555 139.66 27.0932 139.66 27.0932L136.855 26.2162C136.935 24.8518 137.251 23.5116 137.788 22.2548C138.484 20.8071 140.332 20.07 141.058 21.4232Z" fill="#263238"/>
<path id="Vector_8" opacity="0.2" d="M138.915 23.6912C139.293 24.5832 138.798 26.7378 138.408 28.1024C137.459 26.477 137.327 24.965 138.915 23.6912Z" fill="black"/>
<path id="Vector_9" d="M138.904 21.6425C138.473 23.2188 137.626 27.3579 138.318 33.8557H145.7C145.87 32.6196 145.655 26.583 147.39 20.758C146.51 20.584 145.62 20.4703 144.725 20.4178C143.584 20.3516 142.441 20.3516 141.3 20.4178C140.813 20.463 140.331 20.5516 139.86 20.6824C139.631 20.7456 139.422 20.8674 139.255 21.0358C139.087 21.2041 138.966 21.4132 138.904 21.6425Z" fill="#263238"/>
<path id="Vector_10" opacity="0.2" d="M145.507 22.1944C145.284 23.1545 145.371 25.449 146.04 28.1025C146.239 25.8172 146.635 23.5533 147.223 21.3363C146.698 21.2721 145.719 21.3023 145.507 22.1944Z" fill="black"/>
<path id="Vector_11" d="M144.573 17.2124C144.256 18.3162 144.022 19.6807 144.725 20.4178C144.725 20.4178 144.177 21.5518 142.132 21.5518C140.261 21.5518 141.3 20.4178 141.3 20.4178C142.555 20.123 142.634 18.6034 142.498 17.7492L144.573 17.2124Z" fill="#FFC3BD"/>
<path id="Vector_12" d="M142.128 21.5328C142.319 21.8531 142.42 22.2185 142.423 22.5912C142.423 22.5912 145.069 21.6878 145.069 20.361C145.069 20.361 144.725 20.1455 144.509 19.983C144.517 19.9717 144.339 21.0036 142.128 21.5328Z" fill="white"/>
<path id="Vector_13" d="M142.056 21.5328C141.818 21.8207 141.641 22.1537 141.535 22.5119C141.223 22.2734 140.995 21.9419 140.884 21.5655C140.774 21.189 140.786 20.787 140.918 20.4177C141.138 20.3298 141.364 20.259 141.595 20.2061C141.595 20.2061 141.274 21.2493 142.056 21.5328Z" fill="white"/>
<path id="Vector_14" opacity="0.2" d="M142.506 17.7492C142.615 18.3563 142.553 18.9817 142.328 19.556C142.523 19.5282 142.713 19.4721 142.891 19.3897C143.617 19.0608 144.007 18.5467 144.434 17.787C144.475 17.5904 144.528 17.409 144.581 17.2124L142.506 17.7492Z" fill="black"/>
<path id="Vector_15" d="M140.71 16.7284C140.767 16.8958 140.857 17.0495 140.976 17.1797C141.095 17.31 141.24 17.4137 141.402 17.4844C141.844 17.6734 142.158 17.2689 142.132 16.804C142.105 16.3391 141.826 15.7796 141.338 15.7872C141.228 15.7925 141.121 15.8235 141.025 15.8777C140.929 15.9319 140.848 16.0079 140.787 16.0995C140.726 16.191 140.687 16.2956 140.674 16.4049C140.661 16.5141 140.673 16.6249 140.71 16.7284Z" fill="#FFC3BD"/>
<path id="Vector_16" opacity="0.2" d="M140.71 16.7284C140.767 16.8958 140.857 17.0495 140.976 17.1797C141.095 17.31 141.24 17.4137 141.402 17.4844C141.844 17.6734 142.158 17.2689 142.132 16.804C142.105 16.3391 141.826 15.7796 141.338 15.7872C141.228 15.7925 141.121 15.8235 141.025 15.8777C140.929 15.9319 140.848 16.0079 140.787 16.0995C140.726 16.191 140.687 16.2956 140.674 16.4049C140.661 16.5141 140.673 16.6249 140.71 16.7284Z" fill="black"/>
<path id="Vector_17" d="M142.687 13.6402C142.544 12.767 141.255 14.3017 141.531 15.1106C141.807 15.9195 142.846 14.623 142.687 13.6402Z" fill="#263238"/>
<path id="Vector_18" d="M145.447 15.8553C144.974 17.3182 144.77 18.1913 143.844 18.8188C143.564 19.0331 143.228 19.1624 142.877 19.1913C142.525 19.2202 142.173 19.1475 141.861 18.9819C141.55 18.8162 141.292 18.5646 141.12 18.2569C140.947 17.9492 140.867 17.5985 140.888 17.2464C140.926 15.8629 141.693 13.7045 143.258 13.3643C144.823 13.0241 145.908 14.3924 145.447 15.8553Z" fill="#FFC3BD"/>
<path id="Vector_19" d="M145.016 14.9897C143.421 14.7629 141.13 14.468 141.962 13.1639C142.752 11.9203 145.904 12.1471 144.948 12.699C146.184 12.7708 147.756 13.3643 146.57 13.7725C147.526 14.4529 147.148 16.2749 145.322 16.9099C144.797 16.1463 144.396 15.8099 145.016 14.9897Z" fill="#263238"/>
<path id="Vector_20" d="M145.674 17.5978C145.404 17.8741 145.042 18.0411 144.657 18.0666C144.158 18.093 144.063 17.6167 144.332 17.2047C144.6 16.7927 145.122 16.3731 145.56 16.5432C145.999 16.7133 146.01 17.2501 145.674 17.5978Z" fill="#FFC3BD"/>
<path id="Vector_21" d="M143.152 15.8855C143.122 16.0064 143.035 16.0896 142.956 16.0783C142.876 16.0669 142.842 15.9573 142.876 15.8363C142.91 15.7154 142.994 15.6284 143.069 15.6436C143.145 15.6587 143.186 15.7645 143.152 15.8855Z" fill="#263238"/>
<path id="Vector_22" d="M141.826 15.6512C141.795 15.7721 141.708 15.8591 141.633 15.8439C141.557 15.8288 141.519 15.723 141.55 15.602C141.58 15.4811 141.667 15.3979 141.746 15.4092C141.826 15.4206 141.86 15.5302 141.826 15.6512Z" fill="#263238"/>
<path id="Vector_23" d="M142.234 15.7874C141.996 16.1307 141.717 16.443 141.402 16.7172C141.469 16.79 141.552 16.8463 141.645 16.8817C141.737 16.9171 141.836 16.9307 141.935 16.9214L142.234 15.7874Z" fill="#ED847E"/>
<path id="Vector_24" d="M142.192 17.3143C142.188 17.3135 142.183 17.3117 142.18 17.3091C142.176 17.3065 142.173 17.3031 142.17 17.2992C142.168 17.2953 142.166 17.291 142.165 17.2864C142.164 17.2819 142.165 17.2772 142.166 17.2728C142.169 17.2635 142.175 17.2555 142.183 17.2501C142.192 17.2446 142.201 17.242 142.211 17.2425C142.362 17.2691 142.517 17.2615 142.665 17.2203C142.813 17.1791 142.95 17.1053 143.065 17.0044C143.069 17.0011 143.072 16.9984 143.077 16.9966C143.081 16.9948 143.085 16.9939 143.09 16.9939C143.095 16.9939 143.099 16.9948 143.103 16.9966C143.108 16.9984 143.111 17.0011 143.115 17.0044C143.121 17.0115 143.125 17.021 143.125 17.0308C143.125 17.0407 143.121 17.0502 143.115 17.0573C142.991 17.1676 142.843 17.2481 142.683 17.2927C142.523 17.3372 142.355 17.3446 142.192 17.3143Z" fill="#263238"/>
<path id="Vector_25" d="M143.667 15.515C143.656 15.5135 143.647 15.5091 143.639 15.5025C143.631 15.4958 143.625 15.4871 143.621 15.4772C143.59 15.3971 143.539 15.3263 143.473 15.2714C143.407 15.2166 143.328 15.1794 143.243 15.1635C143.234 15.1632 143.225 15.1609 143.217 15.1567C143.209 15.1525 143.202 15.1466 143.197 15.1393C143.191 15.132 143.187 15.1236 143.186 15.1147C143.184 15.1058 143.184 15.0967 143.186 15.0879C143.19 15.0689 143.201 15.0518 143.216 15.04C143.231 15.0282 143.25 15.0223 143.27 15.0236C143.377 15.0393 143.478 15.0823 143.563 15.1485C143.649 15.2148 143.715 15.3019 143.757 15.4016C143.764 15.4197 143.763 15.4395 143.755 15.4571C143.747 15.4746 143.733 15.4886 143.716 15.4961C143.709 15.5025 143.702 15.5076 143.693 15.5108C143.685 15.5141 143.676 15.5155 143.667 15.515Z" fill="#263238"/>
<path id="Vector_26" d="M141.372 15.0651C141.363 15.0683 141.354 15.0683 141.345 15.0651C141.339 15.0588 141.334 15.0512 141.33 15.0427C141.326 15.0343 141.325 15.0252 141.325 15.016C141.325 15.0068 141.326 14.9977 141.33 14.9893C141.334 14.9808 141.339 14.9732 141.345 14.9669C141.421 14.8778 141.516 14.8068 141.622 14.759C141.729 14.7113 141.845 14.688 141.962 14.6909C141.971 14.6923 141.979 14.6954 141.987 14.7002C141.995 14.705 142.001 14.7112 142.007 14.7186C142.012 14.726 142.016 14.7344 142.018 14.7433C142.02 14.7522 142.02 14.7614 142.018 14.7703C142.015 14.79 142.004 14.8076 141.988 14.8195C141.971 14.8314 141.951 14.8368 141.931 14.8346C141.839 14.8334 141.748 14.8529 141.664 14.8914C141.581 14.93 141.507 14.9868 141.448 15.0576C141.437 15.0662 141.424 15.0716 141.411 15.0729C141.397 15.0742 141.384 15.0715 141.372 15.0651Z" fill="#263238"/>
<path id="Vector_27" d="M148.04 22.7803L146.04 23.8425C146.04 23.8425 147.972 28.6053 147.643 29.3197C147.193 30.2949 146.449 32.4382 145.715 33.5004C145.802 33.8544 145.986 34.1768 146.248 34.4302C147.851 33.4626 149.82 30.1929 149.907 29.2479C150.104 27.0895 148.04 22.7803 148.04 22.7803Z" fill="#FFC3BD"/>
<path id="Vector_28" d="M147.39 20.7579C148.788 21.0036 149.816 25.9856 149.816 25.9856L146.369 26.9722C145.879 25.8265 145.474 24.6465 145.156 23.4417C144.698 21.5971 145.908 20.4895 147.39 20.7579Z" fill="#263238"/>
</g>
</g>
</g>
<path id="Vector_29" d="M146.996 84.5783C151.812 79.9244 152.193 72.5056 147.847 68.0079C143.5 63.5103 136.073 63.637 131.257 68.2909C126.441 72.9448 126.06 80.3636 130.407 84.8612C134.753 89.3589 142.18 89.2322 146.996 84.5783Z" fill="#FFCA40"/>
<path id="Vector_30" d="M146.581 84.1449C151.143 79.7362 151.504 72.7084 147.387 68.448C143.27 64.1876 136.234 64.3078 131.672 68.7165C127.11 73.1252 126.749 80.153 130.866 84.4134C134.983 88.6739 142.019 88.5537 146.581 84.1449Z" fill="white"/>
<g id="Clip path group_2">
<mask id="mask1_1_4194" style="mask-type:luminance" maskUnits="userSpaceOnUse" x="127" y="65" width="24" height="23">
<g id="freepik--clip-path-2--inject-6">
<path id="Vector_31" d="M146.581 84.1452C151.143 79.7365 151.504 72.7087 147.387 68.4482C143.27 64.1878 136.234 64.308 131.672 68.7168C127.11 73.1255 126.749 80.1532 130.866 84.4137C134.983 88.6741 142.019 88.5539 146.581 84.1452Z" fill="white"/>
</g>
</mask>
<g mask="url(#mask1_1_4194)">
<g id="Group_2">
<path id="Vector_32" d="M135.264 80.3988L133.211 79.7297C133.211 79.7297 130.977 84.6437 130.248 84.9386C129.25 85.3166 127.224 86.3787 125.972 86.632C125.769 86.9536 125.652 87.3219 125.632 87.7018C127.363 88.1478 131.004 87.165 131.748 86.5262C133.434 85.0746 135.264 80.3988 135.264 80.3988Z" fill="#FFB573"/>
<path id="Vector_33" d="M137.052 77.4012C137.384 78.7771 134.345 82.6743 134.345 82.6743L131.884 81.117C132.29 79.7936 132.914 78.5478 133.733 77.4315C134.746 76.1727 136.685 75.893 137.052 77.4012Z" fill="#FFCA40"/>
<path id="Vector_34" opacity="0.3" d="M137.052 77.4012C137.384 78.7771 134.345 82.6743 134.345 82.6743L131.884 81.117C132.29 79.7936 132.914 78.5478 133.733 77.4315C134.746 76.1727 136.685 75.893 137.052 77.4012Z" fill="black"/>
<path id="Vector_35" opacity="0.2" d="M135.131 79.1135C135.362 80.0661 135.154 81.5894 134.545 82.8935C134.005 82.0733 133.374 80.119 135.131 79.1135Z" fill="black"/>
<path id="Vector_36" d="M135.097 77.2463C134.666 78.8225 133.823 82.9616 134.511 89.4595H141.898C142.068 88.2234 141.848 82.1867 143.583 76.3618C142.704 76.1877 141.814 76.0741 140.918 76.0216C139.778 75.9554 138.634 75.9554 137.494 76.0216C137.007 76.0671 136.525 76.1557 136.054 76.2862C135.825 76.3501 135.617 76.4721 135.449 76.6403C135.281 76.8086 135.16 77.0173 135.097 77.2463Z" fill="#FFCA40"/>
<path id="Vector_37" opacity="0.3" d="M135.097 77.2463C134.666 78.8225 133.823 82.9616 134.511 89.4595H141.898C142.068 88.2234 141.848 82.1867 143.583 76.3618C142.704 76.1877 141.814 76.0741 140.918 76.0216C139.778 75.9554 138.634 75.9554 137.494 76.0216C137.007 76.0671 136.525 76.1557 136.054 76.2862C135.825 76.3501 135.617 76.4721 135.449 76.6403C135.281 76.8086 135.16 77.0173 135.097 77.2463Z" fill="black"/>
<path id="Vector_38" opacity="0.2" d="M141.728 79.019C141.505 79.9791 141.308 82.2584 142.234 83.6873C142.434 81.4018 142.831 79.138 143.421 76.9211C142.884 76.8681 141.939 78.1193 141.728 79.019Z" fill="black"/>
<g id="Group_3" opacity="0.95">
<path id="Vector_39" d="M138.231 78.9698L137.827 79.1475L137.517 78.8678C137.123 78.5414 136.837 78.1037 136.696 77.612C136.555 77.1204 136.566 76.5976 136.727 76.1121C136.977 76.0625 137.229 76.0259 137.483 76.0025C138.623 75.9363 139.767 75.9363 140.907 76.0025C141.172 76.0025 141.436 76.0365 141.694 76.063L141.436 76.3919C140.569 77.4752 139.475 78.3551 138.231 78.9698Z" fill="white"/>
</g>
<path id="Vector_40" d="M140.771 72.7971C140.45 73.9009 140.216 75.2655 140.919 76.0026C140.124 76.9864 139.126 77.7871 137.993 78.3499C137.647 78.0801 137.407 77.6967 137.315 77.2673C137.224 76.8378 137.287 76.3899 137.494 76.0026C138.753 75.7077 138.828 74.1882 138.692 73.3339L140.771 72.7971Z" fill="#FFB573"/>
<path id="Vector_41" opacity="0.2" d="M138.692 73.3339C138.801 73.941 138.74 74.5664 138.514 75.1407C138.71 75.1124 138.901 75.0564 139.081 74.9744C139.803 74.6455 140.193 74.1315 140.62 73.3717C140.665 73.1751 140.714 72.9937 140.771 72.7971L138.692 73.3339Z" fill="black"/>
<path id="Vector_42" d="M136.904 72.3322C136.96 72.5001 137.051 72.6543 137.171 72.7846C137.291 72.9149 137.437 73.0183 137.6 73.0882C138.042 73.2772 138.356 72.8727 138.325 72.4078C138.295 71.9428 138.019 71.3834 137.535 71.3909C137.425 71.3957 137.318 71.4262 137.221 71.4802C137.125 71.5342 137.043 71.6101 136.982 71.7018C136.92 71.7934 136.881 71.8982 136.868 72.0077C136.854 72.1172 136.867 72.2284 136.904 72.3322Z" fill="#FFB573"/>
<path id="Vector_43" opacity="0.2" d="M136.904 72.3322C136.96 72.5001 137.051 72.6543 137.171 72.7846C137.291 72.9149 137.437 73.0183 137.6 73.0882C138.042 73.2772 138.356 72.8727 138.325 72.4078C138.295 71.9428 138.019 71.3834 137.535 71.3909C137.425 71.3957 137.318 71.4262 137.221 71.4802C137.125 71.5342 137.043 71.6101 136.982 71.7018C136.92 71.7934 136.881 71.8982 136.868 72.0077C136.854 72.1172 136.867 72.2284 136.904 72.3322Z" fill="black"/>
<path id="Vector_44" d="M138.654 69.7278C138.511 68.7413 137.415 69.8715 137.29 70.5935C137.165 71.3154 137.77 72.045 138.182 71.3495C138.594 70.6539 138.726 70.2608 138.654 69.7278Z" fill="#263238"/>
<path id="Vector_45" d="M141.641 71.44C141.168 72.9029 140.964 73.7723 140.038 74.4036C139.758 74.6179 139.422 74.7471 139.07 74.7761C138.719 74.805 138.366 74.7322 138.055 74.5666C137.743 74.4009 137.486 74.1493 137.314 73.8416C137.141 73.5339 137.061 73.1832 137.082 72.8311C137.12 71.4476 137.887 69.2892 139.452 68.949C141.017 68.6088 142.128 69.9772 141.641 71.44Z" fill="#FFB573"/>
<path id="Vector_46" d="M140.926 72.971C140.359 72.593 140.257 72.4494 140.548 72.1092C141.039 71.5573 140.31 71.4779 140.695 70.7938C141.232 69.8412 139.52 70.5103 139.49 69.8185C139.463 69.2553 137.978 70.2684 137.823 69.6182C137.6 68.643 139.028 68.8244 139.278 68.3481C139.527 67.8718 140.994 67.8 141.228 68.4955C141.463 69.1911 142.2 68.6354 142.68 69.4821C143.16 70.3288 142.166 70.3931 142.646 71.2171C143.024 71.8786 142.294 72.3511 141.776 72.8765C141.467 73.2167 141.278 73.2092 140.926 72.971Z" fill="#263238"/>
<path id="Vector_47" d="M141.962 72.9824C141.717 73.2824 141.369 73.4805 140.987 73.5381C140.488 73.6061 140.352 73.1601 140.586 72.7102C140.82 72.2604 141.304 71.8182 141.758 71.9542C142.211 72.0903 142.268 72.6082 141.962 72.9824Z" fill="#FFB573"/>
<path id="Vector_48" d="M139.346 71.4704C139.316 71.5914 139.229 71.6746 139.153 71.6632C139.078 71.6519 139.04 71.5423 139.07 71.4213C139.1 71.3003 139.187 71.2134 139.267 71.2285C139.346 71.2436 139.38 71.3495 139.346 71.4704Z" fill="#263238"/>
<path id="Vector_49" d="M138.023 71.2361C137.989 71.3571 137.902 71.444 137.827 71.4289C137.751 71.4138 137.713 71.3079 137.743 71.187C137.774 71.066 137.864 70.9829 137.94 70.9942C138.016 71.0055 138.053 71.1152 138.023 71.2361Z" fill="#263238"/>
<path id="Vector_50" d="M138.427 71.3721C138.192 71.7156 137.914 72.0281 137.6 72.302C137.667 72.3747 137.75 72.431 137.842 72.4664C137.935 72.5018 138.034 72.5154 138.133 72.5061L138.427 71.3721Z" fill="#ED893E"/>
<path id="Vector_51" d="M138.386 72.8992C138.381 72.8985 138.377 72.8967 138.374 72.894C138.37 72.8914 138.367 72.8879 138.365 72.8839C138.362 72.8799 138.361 72.8755 138.361 72.8709C138.361 72.8664 138.362 72.8619 138.363 72.8577C138.365 72.8483 138.37 72.84 138.378 72.8344C138.386 72.8288 138.395 72.8263 138.405 72.8274C138.556 72.854 138.711 72.8464 138.859 72.8052C139.007 72.764 139.144 72.6902 139.259 72.5893C139.262 72.586 139.266 72.5835 139.27 72.5817C139.275 72.58 139.279 72.5791 139.284 72.5791C139.288 72.5791 139.293 72.58 139.297 72.5817C139.301 72.5835 139.305 72.586 139.308 72.5893C139.312 72.5925 139.314 72.5963 139.316 72.6005C139.318 72.6048 139.318 72.6093 139.318 72.6138C139.318 72.6184 139.318 72.6229 139.316 72.6271C139.314 72.6314 139.312 72.6352 139.308 72.6384C139.185 72.7494 139.037 72.8306 138.877 72.8758C138.718 72.921 138.549 72.929 138.386 72.8992Z" fill="#263238"/>
<path id="Vector_52" d="M139.86 71.1C139.85 71.0984 139.84 71.0941 139.832 71.0874C139.824 71.0808 139.818 71.072 139.815 71.0622C139.784 70.9821 139.733 70.9113 139.666 70.8564C139.6 70.8015 139.521 70.7644 139.437 70.7484C139.428 70.7475 139.42 70.7448 139.412 70.7404C139.404 70.7361 139.397 70.7302 139.392 70.723C139.387 70.7159 139.383 70.7078 139.381 70.6992C139.379 70.6905 139.379 70.6816 139.38 70.6728C139.384 70.6538 139.394 70.6368 139.41 70.625C139.425 70.6131 139.444 70.6073 139.463 70.6086C139.57 70.6242 139.671 70.6673 139.757 70.7335C139.842 70.7997 139.909 70.8869 139.951 70.9866C139.957 71.0047 139.957 71.0245 139.949 71.042C139.941 71.0596 139.927 71.0735 139.909 71.0811C139.903 71.0875 139.895 71.0925 139.887 71.0958C139.878 71.099 139.869 71.1005 139.86 71.1Z" fill="#263238"/>
<path id="Vector_53" d="M137.551 70.6501C137.542 70.6525 137.533 70.6525 137.524 70.6501C137.517 70.6438 137.512 70.6361 137.509 70.6277C137.505 70.6193 137.503 70.6102 137.503 70.601C137.503 70.5918 137.505 70.5827 137.509 70.5743C137.512 70.5658 137.517 70.5582 137.524 70.5519C137.598 70.4618 137.692 70.39 137.798 70.3421C137.904 70.2943 138.02 70.2716 138.136 70.2759C138.145 70.2773 138.154 70.2804 138.162 70.2852C138.17 70.29 138.176 70.2962 138.182 70.3036C138.187 70.311 138.191 70.3194 138.193 70.3283C138.195 70.3372 138.195 70.3463 138.193 70.3553C138.189 70.3743 138.179 70.3913 138.164 70.4031C138.148 70.415 138.129 70.4208 138.11 70.4195C138.018 70.4179 137.926 70.4371 137.843 70.4757C137.759 70.5143 137.685 70.5713 137.626 70.6426C137.615 70.6504 137.603 70.6552 137.589 70.6565C137.576 70.6579 137.563 70.6556 137.551 70.6501Z" fill="#263238"/>
<path id="Vector_54" d="M144.396 78.5352L142.295 79.3365C142.295 79.3365 143.576 84.3526 143.16 85.0254C142.593 85.9439 141.584 87.9927 140.726 88.9604C140.764 89.3246 140.904 89.6706 141.13 89.9583C142.828 89.2023 145.19 86.1783 145.398 85.2447C145.863 83.109 144.396 78.5352 144.396 78.5352Z" fill="#FFB573"/>
<path id="Vector_55" d="M144.018 76.4261C145.36 76.8532 145.727 81.9675 145.727 81.9675L142.211 82.5119C141.878 81.3028 141.633 80.071 141.478 78.8264C141.259 76.9212 142.574 75.9687 144.018 76.4261Z" fill="#FFCA40"/>
<path id="Vector_56" opacity="0.3" d="M144.018 76.4261C145.36 76.8532 145.727 81.9675 145.727 81.9675L142.211 82.5119C141.878 81.3028 141.633 80.071 141.478 78.8264C141.259 76.9212 142.574 75.9687 144.018 76.4261Z" fill="black"/>
</g>
</g>
</g>
<path id="Vector_57" d="M113.945 56.7858C118.761 52.1319 119.141 44.7131 114.795 40.2155C110.449 35.7178 103.021 35.8445 98.2054 40.4984C93.3895 45.1523 93.0088 52.5711 97.3552 57.0687C101.702 61.5664 109.129 61.4397 113.945 56.7858Z" fill="#FFCA40"/>
<path id="Vector_58" d="M113.53 56.3561C118.092 51.9474 118.453 44.9196 114.336 40.6592C110.218 36.3987 103.182 36.519 98.6203 40.9277C94.0581 45.3364 93.6973 52.3642 97.8144 56.6246C101.932 60.8851 108.968 60.7649 113.53 56.3561Z" fill="white"/>
<g id="Clip path group_3">
<mask id="mask2_1_4194" style="mask-type:luminance" maskUnits="userSpaceOnUse" x="94" y="37" width="24" height="23">
<g id="freepik--clip-path-3--inject-6">
<path id="Vector_59" d="M113.53 56.3561C118.092 51.9474 118.453 44.9196 114.336 40.6592C110.218 36.3987 103.183 36.519 98.6203 40.9277C94.0581 45.3364 93.6973 52.3642 97.8145 56.6246C101.932 60.8851 108.968 60.7649 113.53 56.3561Z" fill="white"/>
</g>
</mask>
<g mask="url(#mask2_1_4194)">
<g id="Group_4">
<path id="Vector_60" d="M110.72 51.2585C110.777 52.1582 110.822 53.0654 110.856 53.9688L110.966 56.6677L110.985 56.9966L111.011 57.2839C111.041 57.4804 111.064 57.6845 111.105 57.8962C111.185 58.312 111.287 58.7354 111.408 59.1587C111.635 60.0092 111.911 60.8673 112.164 61.714L111.381 62.092C110.908 61.2911 110.49 60.4588 110.13 59.601C109.956 59.1663 109.794 58.724 109.654 58.2591C109.579 58.0232 109.518 57.7835 109.469 57.5409L109.404 57.1629L109.367 56.8151C109.166 54.9856 109.034 53.1826 108.962 51.3644L110.72 51.2585Z" fill="#FF8B7B"/>
<path id="Vector_61" d="M110.304 49.2742C110.992 49.4518 111.287 52.3473 111.287 52.3473L108.486 54.1882C108.486 54.1882 107.613 50.7597 108.206 49.9886C108.8 49.2175 109.295 49.0171 110.304 49.2742Z" fill="#FFCA40"/>
<path id="Vector_62" opacity="0.2" d="M110.194 49.9243L110.535 52.8387L109.397 53.5796L110.194 49.9243Z" fill="black"/>
<path id="Vector_63" d="M102.627 41.8199C101.444 41.99 98.968 47.6449 103.005 50.2834C107.042 52.9218 110.021 49.9243 110.021 49.9243C110.021 49.9243 107.564 47.0061 107.919 45.101C108.274 43.1959 109.809 40.7956 106.664 39.9942C104.449 39.4461 101.47 39.9753 102.627 41.8199Z" fill="#263238"/>
<path id="Vector_64" d="M110.304 49.274C110.304 49.274 111.094 49.5613 108.792 59.5707H101.856C102.166 56.7508 102.287 55.012 101.334 49.2249C102.314 49.028 103.307 48.9017 104.305 48.8469C105.353 48.7731 106.403 48.7731 107.45 48.8469C108.792 48.964 110.304 49.274 110.304 49.274Z" fill="#FFCA40"/>
<path id="Vector_65" opacity="0.2" d="M101.75 51.5195C102.366 51.6745 102.884 52.3587 102.744 53.6212C102.661 54.2025 102.424 54.7509 102.056 55.2088C102.015 54.2373 101.905 53.1109 101.708 51.6707L101.75 51.5195Z" fill="black"/>
<path id="Vector_66" d="M106.932 51.0583C106.932 51.0583 105.734 51.9958 105.666 52.9899C104.77 52.2982 103.625 50.4157 103.576 49.2099C103.576 49.1097 103.616 49.0135 103.687 48.9426C103.757 48.8717 103.854 48.8319 103.954 48.8319C104.039 48.8255 104.123 48.8141 104.207 48.7979C104.242 48.7903 104.278 48.7907 104.313 48.7992C104.348 48.8077 104.38 48.8241 104.407 48.847L106.932 51.0583Z" fill="#FAFAFA"/>
<path id="Vector_67" d="M106.932 51.0583C107.251 51.2569 107.517 51.5292 107.709 51.8522C107.9 52.1751 108.011 52.5394 108.032 52.9143C109.038 52.215 108.694 50.1246 108.229 49.1002C108.193 49.0205 108.137 48.9517 108.066 48.9006C107.995 48.8495 107.911 48.818 107.824 48.8092C107.688 48.8092 107.583 48.7751 107.511 48.76C107.485 48.7555 107.458 48.7613 107.436 48.7761C107.414 48.7909 107.399 48.8136 107.394 48.8394L106.932 51.0583Z" fill="#FAFAFA"/>
<path id="Vector_68" d="M104.857 45.2976C104.986 46.3106 105.058 48.1666 104.305 48.8395C105.011 49.76 105.907 50.5169 106.932 51.0583C108.414 49.9243 107.45 48.8395 107.45 48.8395C106.339 48.5711 106.426 47.7357 106.675 46.9495L104.857 45.2976Z" fill="#FF8B7B"/>
<path id="Vector_69" opacity="0.2" d="M105.598 45.9705L106.675 46.9457C106.614 47.1279 106.568 47.3151 106.539 47.5051C106.112 47.4409 105.462 47.0742 105.405 46.6055C105.419 46.3817 105.485 46.1641 105.598 45.9705Z" fill="black"/>
<path id="Vector_70" d="M103.273 43.6722C103.629 45.3014 103.746 45.9969 104.721 46.6584C105.048 46.89 105.43 47.0309 105.829 47.0669C106.228 47.1029 106.629 47.0327 106.992 46.8633C107.355 46.694 107.666 46.4316 107.895 46.1028C108.123 45.774 108.261 45.3906 108.293 44.9915C108.426 43.4303 107.821 41.03 106.082 40.7352C105.688 40.6736 105.284 40.7083 104.906 40.8363C104.528 40.9644 104.187 41.1819 103.911 41.4703C103.635 41.7588 103.433 42.1097 103.322 42.4931C103.211 42.8765 103.194 43.281 103.273 43.6722Z" fill="#FF8B7B"/>
<path id="Vector_71" d="M103.738 45.1388C104.785 44.1409 104.823 42.9048 104.559 42.5193C105.458 42.4437 107.787 41.8767 107.413 41.0073C107.038 40.1379 103.413 39.6691 102.914 41.8918C101.712 42.8973 102.48 44.912 103.738 45.1388Z" fill="#263238"/>
<path id="Vector_72" d="M106.01 43.5248C106.033 43.6609 106.12 43.7516 106.21 43.7327C106.301 43.7138 106.354 43.5891 106.331 43.4568C106.309 43.3245 106.222 43.2262 106.135 43.2489C106.048 43.2716 105.991 43.3925 106.01 43.5248Z" fill="#263238"/>
<path id="Vector_73" d="M107.553 43.1882C107.571 43.3243 107.662 43.415 107.749 43.3961C107.836 43.3772 107.897 43.2525 107.874 43.1164C107.851 42.9803 107.764 42.8896 107.677 42.9085C107.626 42.9324 107.586 42.9738 107.563 43.0252C107.54 43.0765 107.536 43.1344 107.553 43.1882Z" fill="#263238"/>
<path id="Vector_74" d="M107.635 42.9276L107.949 42.7612C107.949 42.7612 107.821 43.0485 107.635 42.9276Z" fill="#263238"/>
<path id="Vector_75" d="M107.114 43.5361C107.282 43.8164 107.489 44.071 107.73 44.2921C107.669 44.3561 107.596 44.4066 107.515 44.4404C107.433 44.4743 107.346 44.4907 107.258 44.4887L107.114 43.5361Z" fill="#FF5652"/>
<path id="Vector_76" d="M106.596 45.1691C106.665 45.1654 106.733 45.1566 106.8 45.1427C106.811 45.14 106.82 45.1335 106.826 45.1245C106.833 45.1155 106.836 45.1044 106.834 45.0935C106.834 45.0882 106.832 45.0831 106.83 45.0785C106.827 45.0739 106.824 45.07 106.819 45.067C106.815 45.0641 106.81 45.0622 106.804 45.0616C106.799 45.0609 106.794 45.0615 106.789 45.0633C106.625 45.1058 106.453 45.1078 106.289 45.0689C106.124 45.03 105.971 44.9515 105.844 44.8403C105.836 44.8331 105.826 44.8291 105.816 44.8291C105.805 44.8291 105.795 44.8331 105.787 44.8403C105.783 44.8438 105.78 44.8482 105.778 44.8531C105.776 44.858 105.774 44.8633 105.774 44.8686C105.774 44.874 105.776 44.8793 105.778 44.8842C105.78 44.8891 105.783 44.8934 105.787 44.897C105.895 44.9966 106.023 45.0723 106.163 45.1192C106.302 45.1661 106.45 45.1831 106.596 45.1691Z" fill="#263238"/>
<path id="Vector_77" d="M103.054 45.2977C103.137 45.4318 103.247 45.5472 103.378 45.6363C103.508 45.7255 103.655 45.7865 103.81 45.8155C104.234 45.8949 104.434 45.5018 104.309 45.12C104.184 44.7382 103.84 44.3224 103.421 44.4169C103.329 44.437 103.244 44.4788 103.172 44.5388C103.1 44.5989 103.044 44.6754 103.008 44.7618C102.972 44.8482 102.958 44.9421 102.966 45.0354C102.974 45.1286 103.004 45.2186 103.054 45.2977Z" fill="#FF8B7B"/>
<path id="Vector_78" d="M105.288 43.2261C105.305 43.2242 105.321 43.217 105.334 43.2054C105.347 43.1939 105.356 43.1787 105.36 43.1618C105.459 42.9063 105.654 42.6999 105.904 42.5873C105.915 42.5831 105.924 42.577 105.932 42.5692C105.94 42.5615 105.946 42.5522 105.95 42.542C105.954 42.5318 105.956 42.5208 105.956 42.5098C105.956 42.4987 105.954 42.4878 105.95 42.4777C105.946 42.4684 105.94 42.46 105.932 42.453C105.925 42.446 105.916 42.4406 105.907 42.4371C105.897 42.4336 105.887 42.432 105.877 42.4325C105.867 42.4329 105.857 42.4355 105.848 42.4399C105.699 42.5061 105.565 42.6015 105.454 42.7203C105.343 42.8391 105.257 42.979 105.201 43.1316C105.198 43.1418 105.198 43.1525 105.199 43.1629C105.201 43.1734 105.205 43.1834 105.21 43.1923C105.216 43.2012 105.224 43.2088 105.232 43.2146C105.241 43.2205 105.251 43.2244 105.262 43.2261C105.266 43.2281 105.27 43.2291 105.275 43.2291C105.279 43.2291 105.284 43.2281 105.288 43.2261Z" fill="#263238"/>
<path id="Vector_79" d="M107.927 42.1149C107.941 42.1149 107.955 42.1115 107.967 42.1049C107.98 42.0983 107.99 42.0887 107.998 42.0771C108.013 42.0617 108.021 42.0414 108.021 42.0204C108.021 41.9993 108.013 41.9791 107.998 41.9637C107.894 41.8914 107.773 41.8452 107.647 41.8287C107.521 41.8123 107.392 41.8262 107.273 41.8692C107.253 41.8776 107.237 41.8931 107.228 41.9126C107.219 41.9322 107.217 41.9544 107.223 41.975C107.227 41.9851 107.233 41.9944 107.24 42.0022C107.248 42.01 107.257 42.0162 107.267 42.0204C107.277 42.0247 107.287 42.0269 107.298 42.0268C107.309 42.0268 107.319 42.0246 107.329 42.0204C107.424 41.9857 107.525 41.9749 107.625 41.9887C107.724 42.0026 107.819 42.0407 107.9 42.0998L107.927 42.1149Z" fill="#263238"/>
<path id="Vector_80" d="M106.097 43.264L106.411 43.0977C106.411 43.0977 106.278 43.3887 106.097 43.264Z" fill="#263238"/>
<path id="Vector_81" d="M101.78 59.1664L101.561 59.7863C101.531 59.8355 101.588 59.8846 101.667 59.8846H108.796C108.86 59.8846 108.913 59.8544 108.921 59.8128L109.023 59.1929C109.023 59.1513 108.981 59.1135 108.909 59.1135H101.898C101.875 59.1116 101.853 59.1155 101.832 59.1248C101.812 59.134 101.794 59.1484 101.78 59.1664Z" fill="#FFCA40"/>
<path id="Vector_82" opacity="0.2" d="M101.78 59.1664L101.561 59.7863C101.531 59.8355 101.588 59.8846 101.667 59.8846H108.796C108.86 59.8846 108.913 59.8544 108.921 59.8128L109.023 59.1929C109.023 59.1513 108.981 59.1135 108.909 59.1135H101.898C101.875 59.1116 101.853 59.1155 101.832 59.1248C101.812 59.134 101.794 59.1484 101.78 59.1664Z" fill="white"/>
<path id="Vector_83" d="M102.691 59.9488H102.502C102.464 59.9488 102.438 59.9299 102.442 59.9073L102.585 59.1021C102.585 59.0794 102.623 59.0605 102.661 59.0605H102.85C102.888 59.0605 102.914 59.0794 102.91 59.1021L102.767 59.9073C102.763 59.9299 102.729 59.9488 102.691 59.9488Z" fill="#FFCA40"/>
<path id="Vector_84" opacity="0.4" d="M102.691 59.9488H102.502C102.464 59.9488 102.438 59.9299 102.442 59.9073L102.585 59.1021C102.585 59.0794 102.623 59.0605 102.661 59.0605H102.85C102.888 59.0605 102.914 59.0794 102.91 59.1021L102.767 59.9073C102.763 59.9299 102.729 59.9488 102.691 59.9488Z" fill="black"/>
<path id="Vector_85" d="M108.263 59.9488H108.074C108.036 59.9488 108.01 59.9299 108.014 59.9073L108.157 59.1021C108.157 59.0794 108.195 59.0605 108.233 59.0605H108.422C108.46 59.0605 108.486 59.0794 108.482 59.1021L108.339 59.9073C108.335 59.9299 108.301 59.9488 108.263 59.9488Z" fill="#FFCA40"/>
<path id="Vector_86" opacity="0.4" d="M108.263 59.9488H108.074C108.036 59.9488 108.01 59.9299 108.014 59.9073L108.157 59.1021C108.157 59.0794 108.195 59.0605 108.233 59.0605H108.422C108.46 59.0605 108.486 59.0794 108.482 59.1021L108.339 59.9073C108.335 59.9299 108.301 59.9488 108.263 59.9488Z" fill="black"/>
<path id="Vector_87" d="M105.489 59.9488H105.3C105.262 59.9488 105.235 59.9299 105.239 59.9073L105.383 59.1021C105.383 59.0794 105.421 59.0605 105.458 59.0605H105.647C105.685 59.0605 105.712 59.0794 105.708 59.1021L105.564 59.9073C105.56 59.9299 105.526 59.9488 105.489 59.9488Z" fill="#FFCA40"/>
<path id="Vector_88" opacity="0.4" d="M105.489 59.9488H105.3C105.262 59.9488 105.235 59.9299 105.239 59.9073L105.383 59.1021C105.383 59.0794 105.421 59.0605 105.458 59.0605H105.647C105.685 59.0605 105.712 59.0794 105.708 59.1021L105.564 59.9073C105.56 59.9299 105.526 59.9488 105.489 59.9488Z" fill="black"/>
<path id="Vector_89" d="M102.105 51.542C101.909 52.676 101.686 53.8441 101.459 54.9932C101.349 55.5677 101.225 56.1272 101.104 56.7131L100.926 57.5711L100.847 57.9491C100.837 57.976 100.837 58.0054 100.847 58.0323C100.908 58.1916 101.007 58.334 101.134 58.4481C101.309 58.6196 101.502 58.7728 101.708 58.9055C102.172 59.2007 102.655 59.4622 103.156 59.6879C103.666 59.9261 104.196 60.1453 104.732 60.3457C105.269 60.546 105.817 60.7237 106.358 60.9202L106.161 61.7632C104.975 61.5688 103.808 61.2729 102.672 60.8786C102.083 60.6766 101.513 60.4237 100.968 60.1226C100.672 59.9577 100.392 59.7653 100.132 59.5481C99.8008 59.2869 99.5408 58.9462 99.3762 58.5577C99.2842 58.317 99.248 58.0585 99.2703 57.8017C99.2892 57.6392 99.2968 57.6052 99.3081 57.5258L99.3421 57.3065L99.4744 56.4409C99.5689 55.8626 99.6521 55.2842 99.7542 54.7059C99.9469 53.553 100.132 52.4001 100.37 51.251L102.105 51.542Z" fill="#FF8B7B"/>
<path id="Vector_90" d="M101.334 49.2287C100.627 49.4404 99.6295 51.8294 99.6295 51.8294L101.898 54.328C101.898 54.328 103.319 51.7576 103.092 50.8617C102.865 49.9658 102.143 48.9868 101.334 49.2287Z" fill="#FFCA40"/>
</g>
</g>
</g>
<path id="Vector_91" opacity="0.3" d="M97.2671 19.7333H124.362C124.614 19.7294 124.856 19.6315 125.04 19.4588C125.224 19.2861 125.337 19.0511 125.356 18.7996C125.366 18.6801 125.351 18.5598 125.312 18.4465C125.273 18.3331 125.21 18.2293 125.128 18.1417C125.046 18.0541 124.947 17.9846 124.836 17.9377C124.726 17.8909 124.607 17.8677 124.487 17.8697H97.3956C97.1436 17.8735 96.902 17.9707 96.7176 18.1425C96.5332 18.3144 96.4192 18.5485 96.3977 18.7996C96.3877 18.9193 96.4028 19.0398 96.4421 19.1533C96.4814 19.2669 96.544 19.3709 96.6258 19.4588C96.7077 19.5468 96.807 19.6166 96.9175 19.6638C97.0279 19.7111 97.147 19.7348 97.2671 19.7333Z" fill="#FFCA40"/>
<path id="Vector_92" opacity="0.3" d="M104.751 23.8309H124.071C124.323 23.8263 124.565 23.7282 124.749 23.5558C124.933 23.3834 125.047 23.1488 125.069 22.8973C125.079 22.7778 125.064 22.6574 125.024 22.5441C124.985 22.4308 124.922 22.327 124.84 22.2393C124.759 22.1517 124.659 22.0822 124.549 22.0354C124.438 21.9886 124.319 21.9654 124.199 21.9674H104.88C104.628 21.9712 104.386 22.0684 104.202 22.2402C104.017 22.412 103.903 22.6462 103.882 22.8973C103.872 23.017 103.887 23.1375 103.926 23.251C103.965 23.3645 104.028 23.4686 104.11 23.5565C104.192 23.6444 104.291 23.7142 104.402 23.7615C104.512 23.8088 104.631 23.8324 104.751 23.8309Z" fill="#FFCA40"/>
<path id="Vector_93" d="M109.265 15.6321H124.634C124.886 15.6291 125.128 15.5321 125.312 15.36C125.496 15.188 125.609 14.9533 125.628 14.7022C125.638 14.5828 125.623 14.4627 125.584 14.3494C125.545 14.2362 125.483 14.1323 125.402 14.0444C125.32 13.9566 125.221 13.8867 125.111 13.8392C125.001 13.7917 124.883 13.7676 124.763 13.7686H109.393C109.141 13.7725 108.899 13.8704 108.716 14.0431C108.532 14.2157 108.419 14.4508 108.399 14.7022C108.389 14.8214 108.404 14.9414 108.443 15.0545C108.482 15.1676 108.545 15.2712 108.626 15.3588C108.708 15.4463 108.807 15.5159 108.917 15.563C109.027 15.61 109.145 15.6336 109.265 15.6321Z" fill="white"/>
<path id="Vector_94" opacity="0.3" d="M109.299 79.601H120.261C120.381 79.5989 120.5 79.6221 120.61 79.6689C120.72 79.7158 120.82 79.7852 120.902 79.8729C120.984 79.9605 121.046 80.0643 121.086 80.1777C121.125 80.291 121.14 80.4113 121.13 80.5308C121.11 80.7829 120.997 81.0185 120.812 81.1913C120.628 81.364 120.385 81.4615 120.132 81.4645H109.17C109.05 81.466 108.931 81.4423 108.82 81.395C108.71 81.3478 108.611 81.2779 108.529 81.19C108.447 81.1021 108.384 80.9981 108.345 80.8845C108.306 80.771 108.291 80.6505 108.301 80.5308C108.321 80.2794 108.435 80.0447 108.62 79.8728C108.804 79.7008 109.046 79.6039 109.299 79.601Z" fill="#FFCA40"/>
<path id="Vector_95" opacity="0.3" d="M94.4546 79.601H105.417C105.537 79.5989 105.656 79.6221 105.766 79.6689C105.876 79.7158 105.976 79.7852 106.058 79.8729C106.14 79.9605 106.202 80.0643 106.242 80.1777C106.281 80.291 106.296 80.4113 106.286 80.5308C106.265 80.7823 106.151 81.0169 105.966 81.1893C105.782 81.3618 105.54 81.4598 105.288 81.4645H94.3261C94.206 81.466 94.0869 81.4423 93.9764 81.395C93.866 81.3478 93.7666 81.2779 93.6848 81.19C93.6029 81.1021 93.5403 80.9981 93.5011 80.8845C93.4618 80.771 93.4467 80.6505 93.4567 80.5308C93.4765 80.2791 93.59 80.0439 93.7748 79.8718C93.9595 79.6996 94.2021 79.603 94.4546 79.601Z" fill="#FFCA40"/>
<path id="Vector_96" opacity="0.3" d="M101.213 75.5035H120.533C120.653 75.5015 120.772 75.5247 120.882 75.5715C120.993 75.6184 121.092 75.6878 121.174 75.7755C121.256 75.8631 121.319 75.9669 121.358 76.0802C121.397 76.1936 121.412 76.3139 121.402 76.4334C121.382 76.6849 121.27 76.9199 121.086 77.0926C120.902 77.2653 120.66 77.3631 120.408 77.3671H101.085C100.965 77.3686 100.846 77.3449 100.736 77.2976C100.625 77.2503 100.526 77.1804 100.445 77.0925C100.363 77.0045 100.301 76.9004 100.262 76.7868C100.223 76.6733 100.209 76.5529 100.219 76.4334C100.239 76.1823 100.352 75.9477 100.536 75.7756C100.72 75.6036 100.961 75.5065 101.213 75.5035Z" fill="#FFCA40"/>
<path id="Vector_97" d="M98.6581 71.4022H120.809C120.929 71.4006 121.048 71.4243 121.158 71.4716C121.268 71.5189 121.367 71.5888 121.449 71.6768C121.531 71.7648 121.593 71.8689 121.632 71.9824C121.67 72.0959 121.685 72.2163 121.674 72.3358C121.655 72.5869 121.542 72.8215 121.358 72.9936C121.174 73.1656 120.932 73.2627 120.68 73.2657H98.5409C98.4209 73.2677 98.3019 73.2446 98.1915 73.1977C98.081 73.1509 97.9817 73.0814 97.8997 72.9938C97.8178 72.9062 97.7552 72.8023 97.7158 72.689C97.6765 72.5757 97.6614 72.4554 97.6715 72.3358C97.6911 72.0856 97.8028 71.8516 97.9851 71.6792C98.1674 71.5067 98.4072 71.408 98.6581 71.4022Z" fill="white"/>
<path id="Vector_98" opacity="0.3" d="M144.698 51.8067H124.513C124.261 51.8106 124.019 51.9085 123.835 52.0812C123.652 52.2539 123.539 52.4889 123.519 52.7404C123.509 52.8596 123.524 52.9796 123.563 53.0926C123.602 53.2057 123.664 53.3093 123.746 53.3969C123.828 53.4845 123.926 53.554 124.036 53.6011C124.146 53.6482 124.265 53.6717 124.385 53.6703H144.57C144.822 53.6673 145.063 53.5702 145.247 53.3981C145.431 53.2261 145.544 52.9915 145.564 52.7404C145.575 52.6209 145.56 52.5005 145.521 52.3869C145.482 52.2734 145.42 52.1693 145.338 52.0813C145.257 51.9933 145.158 51.9234 145.048 51.8761C144.937 51.8288 144.818 51.8052 144.698 51.8067Z" fill="#FFCA40"/>
<path id="Vector_99" opacity="0.3" d="M134.318 47.709H124.793C124.541 47.713 124.299 47.8109 124.115 47.9835C123.931 48.1562 123.818 48.3913 123.799 48.6427C123.789 48.7622 123.804 48.8826 123.843 48.9959C123.882 49.1092 123.945 49.213 124.027 49.3007C124.109 49.3883 124.208 49.4578 124.319 49.5046C124.429 49.5514 124.548 49.5746 124.668 49.5726H134.19C134.442 49.5688 134.684 49.4716 134.868 49.2998C135.052 49.128 135.166 48.8938 135.188 48.6427C135.198 48.523 135.183 48.4025 135.143 48.289C135.104 48.1755 135.042 48.0714 134.96 47.9835C134.878 47.8956 134.779 47.8258 134.668 47.7785C134.558 47.7312 134.439 47.7076 134.318 47.709Z" fill="#FFCA40"/>
<path id="Vector_100" d="M139.894 43.6041H125.077C124.825 43.6079 124.583 43.7051 124.399 43.8769C124.214 44.0487 124.1 44.2829 124.079 44.534C124.069 44.6537 124.084 44.7742 124.123 44.8877C124.162 45.0012 124.225 45.1053 124.307 45.1932C124.389 45.2811 124.488 45.351 124.598 45.3982C124.709 45.4455 124.828 45.4691 124.948 45.4677H139.769C140.022 45.4646 140.264 45.367 140.448 45.1942C140.632 45.0213 140.745 44.7858 140.764 44.534C140.774 44.4145 140.758 44.2942 140.719 44.1808C140.68 44.0675 140.617 43.9637 140.535 43.876C140.453 43.7884 140.354 43.719 140.244 43.6721C140.133 43.6253 140.014 43.6021 139.894 43.6041Z" fill="white"/>
<path id="Vector_101" opacity="0.3" d="M151.88 47.709H138.348C138.096 47.7137 137.854 47.8118 137.67 47.9842C137.485 48.1566 137.372 48.3912 137.35 48.6427C137.34 48.7622 137.355 48.8826 137.395 48.9959C137.434 49.1092 137.496 49.213 137.578 49.3007C137.66 49.3883 137.76 49.4578 137.87 49.5046C137.981 49.5514 138.1 49.5746 138.22 49.5726H151.752C152.004 49.5688 152.246 49.4716 152.43 49.2998C152.614 49.128 152.728 48.8938 152.75 48.6427C152.76 48.523 152.745 48.4025 152.705 48.289C152.666 48.1755 152.604 48.0714 152.522 47.9835C152.44 47.8956 152.341 47.8258 152.23 47.7785C152.12 47.7312 152.001 47.7076 151.88 47.709Z" fill="#FFCA40"/>
<path id="Vector_102" opacity="0.3" d="M91.0261 9.0549H101.149L100.612 0.0849609L91.0261 9.0549Z" fill="#FFCA40"/>
<path id="Vector_103" d="M91.0261 9.0549L101.863 7.75836L100.612 0.0849609L91.0261 9.0549Z" fill="#FFCA40"/>
</g>
<g id="freepik--Character--inject-6">
<path id="Vector_104" d="M50.1909 35.6281C49.8696 36.3841 49.5143 37.2233 49.2005 38.0322C48.8868 38.8411 48.5655 39.6689 48.2744 40.4892C47.6825 42.0937 47.1963 43.7352 46.8191 45.4032C46.7662 45.6073 46.7397 45.8077 46.7019 46.008L46.649 46.3104L46.6074 46.5485C46.57 46.8849 46.5624 47.2239 46.5848 47.5616C46.6499 48.3876 46.7622 49.2092 46.9212 50.0224C47.2463 51.7196 47.6772 53.4773 48.1043 55.201L46.1841 56.0137C45.2301 54.3823 44.4255 52.668 43.78 50.8918C43.4348 49.958 43.168 48.9971 42.9824 48.019C42.8717 47.4564 42.8223 46.8836 42.835 46.3104V46.0647C42.835 45.9853 42.835 45.9362 42.835 45.8682L42.8728 45.4902C42.8993 45.2445 42.9144 44.9912 42.956 44.7342C43.2361 42.8279 43.6775 40.9488 44.2752 39.1171C44.57 38.2137 44.8724 37.3216 45.224 36.4484C45.5755 35.5752 45.9157 34.7171 46.358 33.8213L50.1909 35.6281Z" fill="#7F3E3B"/>
<path id="Vector_105" d="M48.0401 54.7324L49.5143 56.1688L46.2975 57.6808C46.2975 57.6808 45.5188 56.32 46.0556 55.0877L48.0401 54.7324Z" fill="#7F3E3B"/>
<path id="Vector_106" d="M50.7012 58.312L47.9871 59.4233L46.2975 57.6656L49.5143 56.1687L50.7012 58.312Z" fill="#7F3E3B"/>
<path id="Vector_107" d="M120.883 50.0423C125.13 39.7892 120.261 28.0346 110.008 23.7876C99.7548 19.5406 88.0002 24.4096 83.7532 34.6627C79.5063 44.9158 84.3752 56.6704 94.6283 60.9174C104.881 65.1643 116.636 60.2954 120.883 50.0423Z" fill="#FFCA40"/>
<path id="Vector_108" d="M102.317 61.3888C112.83 61.3888 121.353 52.8661 121.353 42.3527C121.353 31.8394 112.83 23.3167 102.317 23.3167C91.8037 23.3167 83.281 31.8394 83.281 42.3527C83.281 52.8661 91.8037 61.3888 102.317 61.3888Z" fill="white"/>
<g id="Clip path group_4">
<mask id="mask3_1_4194" style="mask-type:luminance" maskUnits="userSpaceOnUse" x="83" y="23" width="39" height="39">
<g id="freepik--clip-path-4--inject-6">
<path id="Vector_109" d="M102.317 61.3888C112.83 61.3888 121.353 52.8661 121.353 42.3527C121.353 31.8394 112.83 23.3167 102.317 23.3167C91.8037 23.3167 83.281 31.8394 83.281 42.3527C83.281 52.8661 91.8037 61.3888 102.317 61.3888Z" fill="white"/>
</g>
</mask>
<g mask="url(#mask3_1_4194)">
<g id="Group_5">
<path id="Vector_110" d="M110.58 46.7339C110.792 48.2912 110.958 49.8562 111.143 51.4173L111.658 56.078L111.726 56.6375L111.805 57.1402L111.915 57.6619L112.047 58.1948C112.243 58.9093 112.466 59.635 112.716 60.3608C113.2 61.8161 113.767 63.2752 114.322 64.7267L113.022 65.4298C112.13 64.0863 111.325 62.6874 110.61 61.2415C110.259 60.5082 109.922 59.7635 109.635 58.9735L109.424 58.3763L109.235 57.7526C109.178 57.5371 109.129 57.3141 109.076 57.0949L108.959 56.4901C108.668 54.91 108.429 53.3527 108.203 51.7877C107.976 50.2228 107.775 48.6579 107.609 47.0854L110.58 46.7339Z" fill="#FF8B7B"/>
<path id="Vector_111" d="M109.639 43.4413C110.845 43.7475 111.688 48.7106 111.688 48.7106L107.08 51.8443C107.08 51.8443 105.19 45.9626 106.108 44.6396C107.076 43.2599 107.881 42.9953 109.639 43.4413Z" fill="#FFCA40"/>
<path id="Vector_112" opacity="0.2" d="M109.533 44.5491L110.459 49.55L108.592 50.8163L109.533 44.5491Z" fill="black"/>
<path id="Vector_113" d="M95.6 30.6575C93.5966 30.9485 90.0094 40.6442 97.2481 45.1689C104.487 49.6936 109.242 44.5528 109.242 44.5528C109.242 44.5528 104.687 39.5443 105.084 36.2783C105.481 33.0124 107.821 28.896 102.332 27.5239C98.4426 26.5524 93.4038 27.4898 95.6 30.6575Z" fill="#263238"/>
<path id="Vector_114" d="M109.639 43.4413C109.639 43.4413 111.034 43.9327 108.244 61.0939H96.3636C96.5639 56.2593 96.5677 53.2807 94.2581 43.3582C95.9204 43.013 97.6058 42.7907 99.3006 42.6929C101.096 42.5623 102.899 42.5623 104.695 42.6929C107.012 42.9046 109.639 43.4413 109.639 43.4413Z" fill="#FFCA40"/>
<path id="Vector_115" opacity="0.2" d="M95.2561 47.2856C96.3334 47.554 97.3275 48.7258 97.2066 50.888C97.141 51.8707 96.7975 52.8145 96.2162 53.6096C96.0272 51.9464 95.7059 50.0186 95.2032 47.5616L95.2561 47.2856Z" fill="black"/>
<path id="Vector_116" d="M104.071 46.4957C104.071 46.4957 102.124 48.0984 102.124 49.8032C100.507 48.6201 98.3255 45.392 98.0949 43.3281C98.0877 43.2448 98.0973 43.161 98.1234 43.0815C98.1494 43.0021 98.1912 42.9288 98.2463 42.8659C98.3013 42.8031 98.3686 42.752 98.4439 42.7158C98.5192 42.6796 98.6011 42.659 98.6846 42.6552C98.8294 42.6473 98.9735 42.6283 99.1155 42.5985C99.1762 42.5856 99.2391 42.5867 99.2994 42.6018C99.3597 42.6169 99.4157 42.6455 99.4632 42.6855L104.071 46.4957Z" fill="#FAFAFA"/>
<path id="Vector_117" d="M104.071 46.4957C104.638 46.8333 105.122 47.2944 105.487 47.8448C105.851 48.3951 106.087 49.0206 106.177 49.6746C107.813 48.4764 106.978 44.8929 106.067 43.139C105.995 43.0025 105.892 42.8856 105.764 42.7986C105.637 42.7116 105.491 42.6571 105.337 42.6401C105.095 42.6098 104.914 42.5796 104.793 42.5531C104.771 42.5488 104.749 42.549 104.727 42.5538C104.705 42.5586 104.684 42.5679 104.666 42.581C104.648 42.5942 104.633 42.6109 104.622 42.6301C104.61 42.6494 104.603 42.6708 104.6 42.693L104.071 46.4957Z" fill="#FAFAFA"/>
<path id="Vector_118" d="M99.8374 36.6187C100.178 38.3537 100.518 41.5326 99.3006 42.6931C100.619 44.2685 102.241 45.5619 104.071 46.4958C106.479 44.5755 104.695 42.6931 104.695 42.6931C102.759 42.2319 102.805 40.8031 103.149 39.4461L99.8374 36.6187Z" fill="#FF8B7B"/>
<path id="Vector_119" opacity="0.2" d="M101.187 37.7715L103.145 39.446C103.062 39.7595 103.007 40.0794 102.979 40.4024C102.241 40.2965 101.089 39.6653 100.918 38.8601C100.917 38.4807 101.009 38.1067 101.187 37.7715Z" fill="black"/>
<path id="Vector_120" d="M96.9269 33.8326C97.7283 36.6223 98.008 37.8167 99.7619 38.9545C102.408 40.6593 105.647 39.0641 105.693 36.0893C105.734 33.413 104.415 29.2853 101.399 28.7901C100.733 28.6746 100.05 28.731 99.4122 28.9541C98.7748 29.1772 98.2051 29.5595 97.7571 30.0647C97.309 30.57 96.9976 31.1813 96.8523 31.8408C96.707 32.5002 96.7327 33.1859 96.9269 33.8326Z" fill="#FF8B7B"/>
<path id="Vector_121" d="M97.9021 36.3464C99.5842 34.6303 99.5011 32.5135 99.0021 31.852C100.537 31.7235 104.464 30.752 103.72 29.2665C102.975 27.7809 96.7076 26.972 96.1104 30.7785C94.1637 32.4984 95.7135 35.9571 97.9021 36.3464Z" fill="#263238"/>
<path id="Vector_122" d="M101.603 33.5794C101.656 33.81 101.818 33.9574 101.981 33.9347C102.143 33.912 102.211 33.689 102.162 33.4584C102.113 33.2279 101.947 33.0804 101.784 33.1031C101.622 33.1258 101.554 33.3488 101.603 33.5794Z" fill="#263238"/>
<path id="Vector_123" d="M104.207 33.02C104.26 33.2506 104.423 33.398 104.585 33.3753C104.748 33.3527 104.816 33.1296 104.763 32.8991C104.71 32.6685 104.547 32.5211 104.385 32.54C104.222 32.5589 104.158 32.7705 104.207 33.02Z" fill="#263238"/>
<path id="Vector_124" d="M104.328 32.5513L104.846 32.2678C104.846 32.2678 104.653 32.763 104.328 32.5513Z" fill="#263238"/>
<path id="Vector_125" d="M103.497 33.5945C103.814 34.0725 104.196 34.5049 104.631 34.8797C104.532 34.9897 104.41 35.0768 104.275 35.1349C104.139 35.193 103.992 35.2207 103.844 35.2161L103.497 33.5945Z" fill="#FF5652"/>
<path id="Vector_126" d="M102.816 36.3993C102.933 36.3914 103.049 36.375 103.164 36.3502C103.182 36.3457 103.197 36.3346 103.207 36.3191C103.217 36.3036 103.22 36.285 103.217 36.267C103.212 36.2492 103.201 36.2339 103.186 36.224C103.17 36.2142 103.152 36.2106 103.134 36.2141C102.848 36.2834 102.551 36.2853 102.265 36.2197C101.979 36.1541 101.712 36.0227 101.486 35.8361C101.472 35.8236 101.455 35.8167 101.436 35.8167C101.418 35.8167 101.401 35.8236 101.387 35.8361C101.381 35.8424 101.375 35.8501 101.372 35.8585C101.368 35.867 101.366 35.8761 101.366 35.8852C101.366 35.8944 101.368 35.9035 101.372 35.912C101.375 35.9204 101.381 35.928 101.387 35.9344C101.583 36.103 101.809 36.231 102.055 36.3109C102.3 36.3907 102.559 36.4208 102.816 36.3993Z" fill="#263238"/>
<path id="Vector_127" d="M96.7416 36.6147C96.8976 36.8446 97.0974 37.0414 97.3296 37.1938C97.5619 37.3463 97.8219 37.4513 98.0949 37.503C98.8282 37.6391 99.1268 36.97 98.8509 36.3123C98.6165 35.7226 97.955 34.9439 97.2481 35.1027C97.0956 35.1436 96.9556 35.2216 96.8405 35.3298C96.7255 35.4379 96.639 35.5729 96.5888 35.7227C96.5387 35.8724 96.5264 36.0322 96.553 36.1879C96.5797 36.3436 96.6445 36.4902 96.7416 36.6147Z" fill="#FF8B7B"/>
<path id="Vector_128" d="M100.329 33.073C100.358 33.0695 100.384 33.057 100.405 33.0373C100.426 33.0176 100.441 32.9917 100.446 32.9634C100.514 32.7475 100.626 32.5481 100.775 32.3776C100.924 32.2072 101.107 32.0694 101.312 31.973C101.329 31.9657 101.344 31.955 101.357 31.9416C101.369 31.9282 101.379 31.9123 101.385 31.895C101.392 31.8777 101.395 31.8592 101.394 31.8408C101.393 31.8224 101.388 31.8043 101.38 31.7878C101.372 31.7712 101.361 31.7563 101.348 31.744C101.334 31.7317 101.318 31.7223 101.301 31.7163C101.283 31.7103 101.265 31.7078 101.247 31.7091C101.229 31.7103 101.211 31.7152 101.194 31.7235C100.949 31.8374 100.731 32.0026 100.555 32.208C100.379 32.4134 100.249 32.6543 100.174 32.9142C100.171 32.9318 100.171 32.9499 100.175 32.9675C100.178 32.985 100.186 33.0016 100.196 33.0164C100.206 33.0311 100.219 33.0437 100.234 33.0534C100.249 33.0632 100.266 33.0698 100.284 33.073C100.298 33.0768 100.314 33.0768 100.329 33.073Z" fill="#263238"/>
<path id="Vector_129" d="M104.706 31.1564C104.737 31.16 104.769 31.1527 104.795 31.1358C104.821 31.1189 104.841 31.0934 104.851 31.0636C104.861 31.0339 104.86 31.0017 104.849 30.9724C104.837 30.9432 104.816 30.9187 104.789 30.9031C104.609 30.777 104.4 30.6964 104.182 30.6681C103.963 30.6398 103.741 30.6646 103.534 30.7406C103.501 30.7555 103.475 30.7828 103.462 30.8167C103.448 30.8506 103.448 30.8884 103.462 30.922C103.469 30.9388 103.48 30.954 103.493 30.9668C103.506 30.9795 103.521 30.9896 103.538 30.9963C103.555 31.003 103.573 31.0062 103.591 31.0058C103.609 31.0054 103.627 31.0013 103.644 30.9938C103.809 30.9363 103.985 30.919 104.158 30.9433C104.331 30.9676 104.495 31.0329 104.638 31.1337C104.658 31.1484 104.682 31.1564 104.706 31.1564Z" fill="#263238"/>
<path id="Vector_130" d="M101.72 33.1297L102.238 32.8462C102.238 32.8462 102.06 33.3414 101.72 33.1297Z" fill="#263238"/>
<path id="Vector_131" d="M96.1859 60.3986L95.8797 61.4608C95.8419 61.5439 95.9364 61.6271 96.0763 61.6271H108.301C108.407 61.6271 108.497 61.5742 108.505 61.5099L108.611 60.444C108.611 60.3721 108.524 60.3079 108.407 60.3079H96.39C96.3509 60.3029 96.3113 60.3087 96.2753 60.3247C96.2393 60.3407 96.2084 60.3663 96.1859 60.3986Z" fill="#FFCA40"/>
<path id="Vector_132" opacity="0.2" d="M96.1859 60.3986L95.8797 61.4608C95.8419 61.5439 95.9364 61.6271 96.0763 61.6271H108.301C108.407 61.6271 108.497 61.5742 108.505 61.5099L108.611 60.444C108.611 60.3721 108.524 60.3079 108.407 60.3079H96.39C96.3509 60.3029 96.3113 60.3087 96.2753 60.3247C96.2393 60.3407 96.2084 60.3663 96.1859 60.3986Z" fill="white"/>
<path id="Vector_133" d="M97.8416 61.7479H97.5241C97.4598 61.7479 97.4107 61.7139 97.4145 61.6723L97.5657 60.2926C97.5657 60.2511 97.6262 60.217 97.6904 60.217H98.0117C98.076 60.217 98.1251 60.2511 98.1213 60.2926L97.9701 61.6723C97.9626 61.7101 97.9021 61.7479 97.8416 61.7479Z" fill="#FFCA40"/>
<path id="Vector_134" opacity="0.4" d="M97.8416 61.7479H97.5241C97.4598 61.7479 97.4107 61.7139 97.4145 61.6723L97.5657 60.2926C97.5657 60.2511 97.6262 60.217 97.6904 60.217H98.0117C98.076 60.217 98.1251 60.2511 98.1213 60.2926L97.9701 61.6723C97.9626 61.7101 97.9021 61.7479 97.8416 61.7479Z" fill="black"/>
<path id="Vector_135" d="M107.397 61.7479H107.072C107.008 61.7479 106.959 61.7139 106.967 61.6723L107.118 60.2926C107.118 60.2511 107.178 60.217 107.242 60.217H107.564C107.628 60.217 107.677 60.2511 107.673 60.2926L107.522 61.6723C107.512 61.6968 107.495 61.7174 107.473 61.731C107.45 61.7447 107.424 61.7506 107.397 61.7479Z" fill="#FFCA40"/>
<path id="Vector_136" opacity="0.4" d="M107.397 61.7479H107.072C107.008 61.7479 106.959 61.7139 106.967 61.6723L107.118 60.2926C107.118 60.2511 107.178 60.217 107.242 60.217H107.564C107.628 60.217 107.677 60.2511 107.673 60.2926L107.522 61.6723C107.512 61.6968 107.495 61.7174 107.473 61.731C107.45 61.7447 107.424 61.7506 107.397 61.7479Z" fill="black"/>
<path id="Vector_137" d="M102.638 61.7479H102.317C102.253 61.7479 102.204 61.7139 102.208 61.6723L102.359 60.2926C102.359 60.2511 102.419 60.217 102.484 60.217H102.816C102.88 60.217 102.93 60.2511 102.926 60.2926L102.775 61.6723C102.759 61.7101 102.703 61.7479 102.638 61.7479Z" fill="#FFCA40"/>
<path id="Vector_138" opacity="0.4" d="M102.638 61.7479H102.317C102.253 61.7479 102.204 61.7139 102.208 61.6723L102.359 60.2926C102.359 60.2511 102.419 60.217 102.484 60.217H102.816C102.88 60.217 102.93 60.2511 102.926 60.2926L102.775 61.6723C102.759 61.7101 102.703 61.7479 102.638 61.7479Z" fill="black"/>
<path id="Vector_139" d="M95.8459 47.2176C95.7476 48.2231 95.6229 49.2286 95.5133 50.2416L95.1353 53.2656C95.0143 54.2673 94.8556 55.269 94.7195 56.2896L94.504 57.8016L94.436 58.2779C94.4403 58.3521 94.4609 58.4244 94.4965 58.4896C94.6611 58.7788 94.8776 59.0351 95.1353 59.2456C95.4716 59.5234 95.8279 59.7761 96.2012 60.0016C97.0166 60.498 97.8639 60.94 98.7376 61.3246C99.6297 61.7291 100.548 62.0806 101.482 62.4321C102.416 62.7837 103.372 63.105 104.298 63.4112L103.965 64.8551C101.918 64.5251 99.9017 64.027 97.9363 63.3658C96.9191 63.0331 95.9305 62.6184 94.9803 62.126C94.4715 61.8611 93.986 61.5538 93.5288 61.2074C92.9806 60.808 92.5179 60.3029 92.168 59.7219C91.9619 59.3415 91.8334 58.9239 91.79 58.4934C91.79 58.3762 91.7711 58.259 91.79 58.1418C91.8089 58.0247 91.79 57.8772 91.8089 57.8394L91.8429 57.4614L91.9714 55.9494C92.0659 54.944 92.1377 53.9347 92.2474 52.9254L92.5535 49.9014C92.6745 48.896 92.7766 47.8905 92.9089 46.8774L95.8459 47.2176Z" fill="#FF8B7B"/>
<path id="Vector_140" d="M94.2583 43.3583C93.0676 43.7363 91.6388 47.8186 91.6388 47.8186L95.7968 52.1052C95.7968 52.1052 97.9325 47.6977 97.4297 46.1592C96.9194 44.5565 95.6342 42.9425 94.2583 43.3583Z" fill="#FFCA40"/>
</g>
</g>
</g>
<path id="Vector_141" opacity="0.2" d="M84.1125 47.2555C83.1427 43.6556 83.2621 39.8489 84.4558 36.3169C85.6494 32.7849 87.8636 29.6861 90.8183 27.4124C93.773 25.1387 97.3356 23.7923 101.056 23.5433C104.775 23.2943 108.486 24.154 111.717 26.0137C114.948 27.8733 117.556 30.6494 119.21 33.9908C120.863 37.3323 121.489 41.0891 121.007 44.7861C120.526 48.4832 118.959 51.9545 116.505 54.7611C114.051 57.5676 110.819 59.5834 107.22 60.5536C104.829 61.1978 102.335 61.3648 99.8804 61.0451C97.4254 60.7255 95.0575 59.9254 92.9117 58.6905C90.766 57.4557 88.8845 55.8103 87.3747 53.8482C85.865 51.8862 84.7564 49.646 84.1125 47.2555Z" fill="#FFCA40"/>
<path id="Vector_142" opacity="0.2" d="M115.978 29.3609L100.453 61.1129C101.785 61.2488 103.127 61.2374 104.456 61.0789L118.416 32.5399C117.72 31.3956 116.903 30.3297 115.978 29.3609ZM120.514 37.4425L120.412 37.0645L109.265 59.8655C113.564 58.1586 117.085 54.9308 119.16 50.7964C121.234 46.6619 121.716 41.9092 120.514 37.4425ZM97.4068 24.1483C94.1163 25.0353 91.1277 26.7975 88.7589 29.2475C86.3901 31.6976 84.7297 34.7439 83.9541 38.0624C83.1786 41.3809 83.317 44.8476 84.3546 48.0937C85.3922 51.3399 87.2902 54.2441 89.8468 56.4975L105.84 23.827C103.041 23.2922 100.157 23.4021 97.4068 24.1483Z" fill="white"/>
<path id="Vector_143" d="M81.1036 40.304L80.7256 40.2662C80.786 39.6199 80.8805 38.9697 81.0015 38.3347L81.3795 38.4065C81.2699 39.0302 81.1678 39.669 81.1036 40.304ZM81.8369 36.4673L81.4589 36.3615C81.9567 34.6777 82.6547 33.0596 83.5379 31.542L83.8667 31.731C83.0033 33.223 82.3219 34.8131 81.8369 36.4673Z" fill="#FFCA40"/>
<path id="Vector_144" d="M121.965 37.0533C120.918 33.1671 118.742 29.6787 115.713 27.0291C112.683 24.3795 108.936 22.6876 104.945 22.1675C100.954 21.6474 96.8983 22.3223 93.2908 24.1069C89.6833 25.8915 86.6859 28.7057 84.6777 32.1937C82.6695 35.6816 81.7406 39.6867 82.0084 43.7026C82.2762 47.7184 83.7287 51.5647 86.1823 54.7551C88.6359 57.9455 91.9804 60.3368 95.7929 61.6266C99.6055 62.9164 103.715 63.0468 107.601 62.0013C110.183 61.3068 112.602 60.1106 114.722 58.4808C116.841 56.8511 118.618 54.8198 119.952 52.503C121.286 50.1863 122.15 47.6294 122.496 44.9785C122.841 42.3275 122.661 39.6345 121.965 37.0533ZM84.1125 47.2593C83.1427 43.6593 83.2622 39.8527 84.4558 36.3206C85.6494 32.7886 87.8636 29.6898 90.8183 27.4161C93.773 25.1425 97.3356 23.796 101.056 23.547C104.776 23.2981 108.486 24.1577 111.717 26.0174C114.949 27.877 117.556 30.6531 119.21 33.9945C120.863 37.336 121.489 41.0928 121.008 44.7899C120.526 48.4869 118.959 51.9582 116.505 54.7648C114.051 57.5714 110.819 59.5872 107.22 60.5573C104.829 61.2014 102.335 61.3683 99.8797 61.0484C97.4246 60.7285 95.0565 59.9281 92.9107 58.6928C90.7649 57.4576 88.8835 55.8118 87.3739 53.8493C85.8643 51.8869 84.7561 49.6463 84.1125 47.2555V47.2593Z" fill="#FFCA40"/>
<path id="Vector_145" d="M84.415 50.3741C84.415 51.2397 84.1919 51.3531 83.9538 51.3795L83.2696 51.561L81.8975 51.939L79.1532 52.6647L73.6533 54.0747C69.9817 54.997 66.305 55.8954 62.6233 56.7698L51.5781 59.4158L46.0631 60.7539C44.226 61.2113 42.3814 61.6347 40.5632 62.1639C40.3788 62.218 40.1855 62.2353 39.9944 62.2147C39.8034 62.1941 39.6182 62.1361 39.4495 62.0439C39.2809 61.9518 39.132 61.8273 39.0115 61.6777C38.8909 61.528 38.801 61.356 38.7469 61.1716C38.6928 60.9872 38.6755 60.794 38.6961 60.6029C38.7167 60.4118 38.7747 60.2266 38.8669 60.058C38.959 59.8893 39.0835 59.7405 39.2331 59.6199C39.3828 59.4994 39.5547 59.4095 39.7391 59.3553H39.7996C41.6405 58.9017 43.4473 58.3385 45.2617 57.8131L50.7049 56.199L61.58 52.9256C65.2063 51.8294 68.8363 50.7571 72.4702 49.7088L77.9323 48.1401L80.669 47.3841L82.0373 47.0061L82.7215 46.8171C82.9408 46.7226 83.1827 46.7112 83.6287 47.4559C84.153 48.3383 84.425 49.3477 84.415 50.3741Z" fill="#FFCA40"/>
<path id="Vector_146" d="M60.6311 22.1714C60.6311 22.3944 60.7483 22.5759 60.8957 22.5759C61.0432 22.5759 61.1603 22.3944 61.1603 22.1714C61.1603 21.9484 61.0432 21.7632 60.8957 21.7632C60.7483 21.7632 60.6311 21.9446 60.6311 22.1714Z" fill="#263238"/>
<path id="Vector_147" d="M60.7294 22.5759C60.995 23.2607 61.3537 23.9055 61.7954 24.4924C61.6424 24.6018 61.4675 24.6764 61.2827 24.711C61.0979 24.7456 60.9077 24.7394 60.7256 24.6927L60.7294 22.5759Z" fill="#630F0F"/>
<path id="Vector_148" d="M59.8373 20.9239C59.8099 20.9231 59.7833 20.9139 59.7614 20.8973C59.7395 20.8808 59.7232 20.8579 59.7149 20.8317C59.7066 20.8055 59.7066 20.7774 59.715 20.7513C59.7234 20.7251 59.7397 20.7022 59.7617 20.6858C59.9287 20.5606 60.123 20.4768 60.3287 20.4413C60.5344 20.4058 60.7455 20.4197 60.9448 20.4817C60.9773 20.4943 61.0035 20.5193 61.0176 20.5512C61.0318 20.583 61.0328 20.6192 61.0204 20.6518C61.0078 20.6842 60.9828 20.7104 60.9509 20.7245C60.9191 20.7387 60.8829 20.7397 60.8503 20.7274C60.6917 20.6802 60.5242 20.671 60.3613 20.7005C60.1985 20.7301 60.0448 20.7975 59.9129 20.8975C59.8916 20.9149 59.8648 20.9243 59.8373 20.9239Z" fill="#263238"/>
<path id="Vector_149" d="M53.419 23.6191C53.6194 25.8078 53.6458 29.7881 52.0998 31.0922C52.0998 31.0922 52.4513 33.3262 56.2087 33.6739C60.3402 34.0519 58.3859 31.6743 58.3859 31.6743C56.1822 30.8919 56.4052 29.1153 56.9533 27.4823L53.419 23.6191Z" fill="#7F3E3B"/>
<path id="Vector_150" d="M47.3748 113.273C47.0497 113.409 46.305 113.08 46.0669 112.94C46.056 112.935 46.0472 112.926 46.0418 112.915C46.0363 112.904 46.0345 112.892 46.0367 112.88C46.0376 112.867 46.0425 112.855 46.0506 112.845C46.0587 112.834 46.0696 112.827 46.082 112.823C46.1198 112.823 47.0043 112.528 47.3634 112.736C47.4029 112.758 47.4373 112.787 47.464 112.823C47.4908 112.859 47.5094 112.9 47.5184 112.944C47.5373 112.997 47.5391 113.054 47.5235 113.108C47.5078 113.161 47.4756 113.209 47.4315 113.243C47.4139 113.255 47.3948 113.265 47.3748 113.273ZM46.2748 112.895C46.6528 113.084 47.1933 113.243 47.3521 113.129C47.3521 113.129 47.4164 113.084 47.3899 112.963C47.3844 112.938 47.3734 112.914 47.3577 112.893C47.3421 112.872 47.3221 112.855 47.2992 112.842C46.9591 112.762 46.603 112.783 46.2748 112.903V112.895Z" fill="#FFCA40"/>
<path id="Vector_151" d="M46.3087 112.888C46.2464 112.914 46.1819 112.934 46.1159 112.948C46.1045 112.952 46.0922 112.953 46.0807 112.949C46.0691 112.946 46.0589 112.939 46.0516 112.929C46.046 112.919 46.043 112.907 46.043 112.895C46.043 112.883 46.046 112.872 46.0516 112.861C46.0516 112.831 46.3578 112.083 46.7434 111.924C46.7891 111.903 46.8387 111.893 46.8889 111.893C46.939 111.893 46.9886 111.903 47.0344 111.924C47.082 111.937 47.1233 111.967 47.151 112.007C47.1787 112.048 47.191 112.098 47.1856 112.147C47.1478 112.4 46.6602 112.74 46.3087 112.888ZM46.2179 112.782C46.5581 112.653 47.0231 112.321 47.0458 112.135C47.0458 112.117 47.0458 112.079 46.9702 112.041C46.9406 112.027 46.9084 112.02 46.8757 112.02C46.843 112.02 46.8107 112.027 46.7812 112.041C46.5355 112.147 46.3162 112.566 46.2179 112.778V112.782Z" fill="#FFCA40"/>
<path id="Vector_152" d="M64.5473 117.734C64.2622 117.732 63.9777 117.707 63.6968 117.658C63.6838 117.655 63.6718 117.649 63.6624 117.64C63.653 117.63 63.6466 117.618 63.6439 117.605C63.6409 117.592 63.6427 117.577 63.6489 117.565C63.6551 117.553 63.6653 117.543 63.6779 117.537C63.7195 117.511 64.6872 116.959 65.1521 117.084C65.2392 117.106 65.3139 117.161 65.36 117.238C65.3896 117.281 65.4055 117.331 65.4055 117.382C65.4055 117.434 65.3896 117.484 65.36 117.526C65.2504 117.692 64.9064 117.734 64.5473 117.734ZM63.9085 117.56C64.4264 117.632 65.1294 117.628 65.258 117.45C65.258 117.427 65.292 117.386 65.258 117.303C65.2441 117.279 65.2255 117.259 65.2034 117.244C65.1812 117.228 65.156 117.217 65.1294 117.212C64.8308 117.133 64.26 117.386 63.9085 117.56Z" fill="#FFCA40"/>
<path id="Vector_153" d="M63.7081 117.658C63.6958 117.661 63.6827 117.661 63.6703 117.658C63.6609 117.651 63.6534 117.642 63.6487 117.631C63.6441 117.621 63.6424 117.609 63.6439 117.597C63.6439 117.567 63.7233 116.819 64.0748 116.528C64.1269 116.484 64.1872 116.452 64.2522 116.432C64.3172 116.413 64.3854 116.407 64.4528 116.414C64.6305 116.433 64.6834 116.524 64.6947 116.599C64.7476 116.913 64.0824 117.514 63.7497 117.665L63.7081 117.658ZM64.3885 116.524C64.3041 116.526 64.2229 116.557 64.158 116.611C63.9481 116.851 63.8163 117.149 63.78 117.465C64.1239 117.261 64.5738 116.788 64.536 116.599C64.536 116.599 64.536 116.539 64.4074 116.528L64.3885 116.524Z" fill="#FFCA40"/>
<path id="Vector_154" d="M60.6575 117.594H63.432L63.708 111.164H60.9334L60.6575 117.594Z" fill="#7F3E3B"/>
<path id="Vector_155" d="M42.9673 112.287L45.6965 112.801L48.7696 106.832L46.0405 106.322L42.9673 112.287Z" fill="#7F3E3B"/>
<path id="Vector_156" d="M45.9951 112.517L43.0089 111.618C42.9563 111.602 42.9 111.605 42.8492 111.625C42.7983 111.646 42.756 111.683 42.7292 111.731L41.4893 113.939C41.4597 113.993 41.4427 114.053 41.4396 114.114C41.4365 114.176 41.4474 114.237 41.4714 114.294C41.4954 114.351 41.5319 114.401 41.5782 114.442C41.6245 114.482 41.6794 114.512 41.7388 114.528C42.7859 114.823 43.3113 114.906 44.6229 115.311C45.4319 115.553 47.5562 116.445 48.6751 116.774C49.794 117.102 50.2665 116.048 49.8393 115.81C47.9267 114.747 46.8569 113.598 46.3769 112.812C46.291 112.67 46.1547 112.564 45.9951 112.517Z" fill="#263238"/>
<path id="Vector_157" d="M63.4131 117.272H60.3891C60.3342 117.272 60.281 117.291 60.2383 117.325C60.1956 117.36 60.1661 117.408 60.1547 117.461L59.6066 119.93C59.5928 119.989 59.5927 120.051 59.6064 120.11C59.62 120.169 59.6469 120.225 59.6852 120.272C59.7235 120.32 59.772 120.358 59.8272 120.384C59.8823 120.409 59.9427 120.422 60.0035 120.421C61.0997 120.421 62.6798 120.342 64.0557 120.342C65.6622 120.342 67.0495 120.429 68.9357 120.429C70.0697 120.429 70.391 119.276 69.9147 119.17C67.7412 118.698 65.9684 118.645 64.0897 117.488C63.8888 117.354 63.6544 117.28 63.4131 117.272Z" fill="#263238"/>
<path id="Vector_158" d="M46.872 31.799C44.4604 32.933 43.47 40.7047 43.47 40.7047L49.0077 42.8782C49.867 40.7742 50.5621 38.6068 51.0867 36.3955C51.8805 32.8877 49.3479 30.6197 46.872 31.799Z" fill="#FFCA40"/>
<path id="Vector_159" opacity="0.3" d="M46.872 31.799C44.4604 32.933 43.47 40.7047 43.47 40.7047L49.0077 42.8782C49.867 40.7742 50.5621 38.6068 51.0867 36.3955C51.8805 32.8877 49.3479 30.6197 46.872 31.799Z" fill="black"/>
<path id="Vector_160" opacity="0.2" d="M50.4743 34.0783C50.663 33.9866 50.8606 33.9144 51.0639 33.8628C51.2849 34.6916 51.2927 35.5628 51.0866 36.3954C50.562 38.6067 49.8669 40.7741 49.0076 42.8781L47.1819 42.1637C47.5183 40.1338 48.5502 35.0006 50.4743 34.0783Z" fill="black"/>
<path id="Vector_161" d="M62.9447 31.7386C62.9447 31.7386 65.9007 35.0764 63.1072 55.7416H48.2556C48.1536 53.4736 49.5862 42.3377 47.3862 31.595C49.0292 31.279 50.6908 31.0694 52.3607 30.9675C54.4632 30.8464 56.5709 30.8464 58.6733 30.9675C60.115 31.1128 61.5432 31.3706 62.9447 31.7386Z" fill="#FFCA40"/>
<path id="Vector_162" opacity="0.3" d="M62.9447 31.7386C62.9447 31.7386 65.9007 35.0764 63.1072 55.7416H48.2556C48.1536 53.4736 49.5862 42.3377 47.3862 31.595C49.0292 31.279 50.6908 31.0694 52.3607 30.9675C54.4632 30.8464 56.5709 30.8464 58.6733 30.9675C60.115 31.1128 61.5432 31.3706 62.9447 31.7386Z" fill="black"/>
<path id="Vector_163" opacity="0.2" d="M59.9546 36.1688C60.6275 34.1503 62.2453 33.5039 63.8934 34.7021C64.226 36.6602 64.4604 39.8165 64.192 44.8212L61.2927 44.7947C61.2927 44.7947 58.968 39.1739 59.9546 36.1688Z" fill="black"/>
<path id="Vector_164" d="M64.6608 34.7891C64.8044 35.6547 64.9632 36.5997 65.1409 37.4993C65.3185 38.399 65.5189 39.3137 65.7305 40.2058C66.122 41.9606 66.6541 43.6811 67.3219 45.3504C67.492 45.7284 67.6659 46.1291 67.8587 46.4844L68.1044 46.9304C68.1663 47.0309 68.2385 47.1246 68.3199 47.2101C68.8827 47.7442 69.5192 48.1948 70.2099 48.5483C71.8419 49.3969 73.5247 50.1442 75.2486 50.786L74.8366 52.8272C72.8033 52.6865 70.7976 52.2772 68.8717 51.6101C68.3544 51.43 67.8494 51.2167 67.3597 50.9712C66.8235 50.6976 66.3168 50.3696 65.8477 49.9922C65.5718 49.7654 65.3186 49.5122 65.0917 49.2362L64.9103 48.9981L64.7931 48.8204C64.7137 48.7032 64.6343 48.5861 64.5625 48.4689C64.2677 47.9964 64.0069 47.5239 63.7649 47.0476C62.88 45.1966 62.1786 43.2634 61.6708 41.2755C61.4176 40.3041 61.1832 39.3364 60.9942 38.3574C60.8052 37.3784 60.6162 36.422 60.5028 35.3787L64.6608 34.7891Z" fill="#7F3E3B"/>
<path id="Vector_165" d="M59.2325 33.7761C58.45 36.3125 61.6252 43.8725 61.6252 43.8725L68.312 42.1904C67.9027 39.8008 67.2138 37.4677 66.2595 35.239C64.0898 30.5215 60.1737 30.7181 59.2325 33.7761Z" fill="#FFCA40"/>
<path id="Vector_166" opacity="0.3" d="M59.2325 33.7761C58.45 36.3125 61.6252 43.8725 61.6252 43.8725L68.312 42.1904C67.9027 39.8008 67.2138 37.4677 66.2595 35.239C64.0898 30.5215 60.1737 30.7181 59.2325 33.7761Z" fill="black"/>
<path id="Vector_167" d="M75.2899 50.7861L78.159 52.0751L75.3769 54.3695C75.3769 54.3695 74.1522 53.9688 73.9518 51.9579L73.5247 50.2871L74.7834 50.6084C74.9573 50.6523 75.1268 50.7117 75.2899 50.7861Z" fill="#7F3E3B"/>
<path id="Vector_168" d="M79.6824 53.466L76.889 55.133L75.377 54.3543L78.1553 52.0598L79.6824 53.466Z" fill="#7F3E3B"/>
<path id="Vector_169" d="M59.9356 30.7218C58.7374 29.7087 55.8268 28.9792 52.5684 28.7977C50.7049 28.6957 48.7884 29.0019 47.9908 29.3572C47.1932 29.7125 48.1382 32.2791 49.1815 32.3358C48.6296 33.2052 49.431 34.8835 50.6293 35.2124C50.4403 36.6639 54.0993 36.8 56.2993 35.6282C58.0759 34.6945 61.372 31.9351 59.9356 30.7218Z" fill="#263238"/>
<path id="Vector_170" opacity="0.2" d="M63.7081 111.164L63.5683 114.479H60.79L60.9299 111.164H63.7081Z" fill="black"/>
<path id="Vector_171" opacity="0.2" d="M46.0367 106.322L48.7696 106.836L47.1858 109.909L44.4529 109.395L46.0367 106.322Z" fill="black"/>
<path id="Vector_172" d="M53.1619 21.68C53.3282 24.4318 53.2829 26.0496 54.6739 27.4634C56.7605 29.5877 60.1587 28.3328 60.8164 25.5734C61.4099 23.1012 61.0356 19.0188 58.3443 17.9189C57.7508 17.6734 57.1043 17.5841 56.4665 17.6596C55.8287 17.7351 55.2209 17.9728 54.7012 18.35C54.1814 18.7272 53.767 19.2314 53.4975 19.8143C53.228 20.3973 53.1125 21.0396 53.1619 21.68Z" fill="#7F3E3B"/>
<path id="Vector_173" d="M58.3102 23.2147C59.3497 22.1639 61.0583 19.8732 60.4611 18.1533C59.5803 15.6094 56.9532 16.4712 57.3728 16.9777C55.8608 15.9798 52.8066 15.9307 53.4454 17.2688C50.6973 17.6468 50.4743 18.7619 51.2379 19.1815C49.2798 21.0488 49.3743 22.9804 50.8599 22.8367C49.7259 23.9707 51.8124 26.216 54.1447 27.2858C54.9385 25.2068 59.1872 24.8288 58.3102 23.2147Z" fill="#263238"/>
<path id="Vector_174" d="M57.1045 24.2088C57.0872 24.2139 57.0688 24.2139 57.0516 24.2088C57.0413 24.2017 57.0326 24.1926 57.026 24.182C57.0193 24.1715 57.0148 24.1597 57.0126 24.1474C57.0105 24.1351 57.0109 24.1225 57.0137 24.1104C57.0165 24.0982 57.0216 24.0867 57.0289 24.0765C57.6261 23.1996 58.2082 22.4965 58.7223 21.8766C59.7051 20.6897 60.4158 19.8316 60.4762 18.6674C60.4904 18.1903 60.3552 17.7208 60.0895 17.3244C59.8239 16.9279 59.441 16.6244 58.9945 16.4561C58.2914 16.1385 57.5354 16.1196 57.2368 16.4145C57.078 16.5695 57.0629 16.7925 57.1914 17.1024C57.1969 17.1135 57.2 17.1256 57.2005 17.1379C57.201 17.1503 57.1988 17.1626 57.1942 17.174C57.1895 17.1855 57.1825 17.1958 57.1736 17.2043C57.1646 17.2128 57.1539 17.2193 57.1423 17.2234C57.1309 17.2284 57.1186 17.2311 57.1061 17.2313C57.0937 17.2316 57.0813 17.2293 57.0697 17.2248C57.0581 17.2202 57.0475 17.2134 57.0386 17.2047C57.0296 17.1961 57.0225 17.1857 57.0175 17.1743C56.9341 17.0353 56.8975 16.8733 56.9132 16.712C56.9288 16.5507 56.9959 16.3987 57.1045 16.2784C57.4598 15.9306 58.2876 15.9306 59.0739 16.2784C59.5551 16.461 59.9672 16.7894 60.2525 17.2178C60.5379 17.6461 60.6822 18.1529 60.6652 18.6674C60.601 19.8959 59.8752 20.7728 58.8697 21.9862C58.3557 22.6061 57.7773 23.3054 57.1839 24.1786C57.1739 24.1895 57.1615 24.1979 57.1478 24.2031C57.134 24.2084 57.1192 24.2103 57.1045 24.2088Z" fill="#263238"/>
<path id="Vector_175" d="M57.2405 22.9048C57.2908 23.5873 57.5645 24.2343 58.0192 24.7457C58.624 25.4109 59.2591 24.9952 59.3649 24.1862C59.4594 23.4529 59.2628 22.2244 58.522 21.8577C57.7811 21.4911 57.1914 22.0808 57.2405 22.9048Z" fill="#7F3E3B"/>
<path id="Vector_176" d="M57.8341 55.7417C57.8341 55.7417 58.7715 74.4603 56.9458 82.3907C54.0541 94.9479 48.5239 109.512 48.5239 109.512L43.3756 108.541C43.3756 108.541 47.7112 93.9575 48.6676 83.502C49.5105 74.1125 48.2631 63.3282 48.2631 55.7417H57.8341Z" fill="#263238"/>
<path id="Vector_177" opacity="0.2" d="M56.4466 61.2869C56.8246 60.5574 57.5617 62.7309 58.0758 65.5205C58.0758 69.3686 58.0078 73.7458 57.6714 77.454C55.101 72.7101 55.6491 62.7989 56.4466 61.2869Z" fill="black"/>
<path id="Vector_178" d="M49.7864 107.932C49.8091 107.932 48.9813 109.716 48.9813 109.716L43.024 108.556L43.6742 106.76L49.7864 107.932Z" fill="#2C6BDB"/>
<path id="Vector_179" d="M63.1258 55.7417C63.1258 55.7417 67.2838 73.4661 67.5862 81.9371C67.9151 91.4362 64.6 113.837 64.6 113.837H59.8977C59.8977 113.837 59.3194 91.2624 59.1077 82.6099C58.8809 73.1788 53.347 55.7417 53.347 55.7417H63.1258Z" fill="#263238"/>
<path id="Vector_180" d="M65.5073 111.961C65.53 111.961 65.2427 113.916 65.2427 113.916H59.5198L59.3648 112.173L65.5073 111.961Z" fill="#2C6BDB"/>
</g>
</g>
</svg>
