<svg width="198" height="116" viewBox="0 0 198 116" fill="none" xmlns="http://www.w3.org/2000/svg">
<g id="Team work-rafiki 1">
<g id="freepik--background-simple--inject-1">
<path id="Vector" d="M66.2298 61.5414C83.268 66.1704 95.8766 91.1917 115.578 83.9919C132.794 77.6965 120.919 54.7938 141.347 54.0817C153.735 53.6437 178.475 56.681 169.306 32.9024C163.737 18.4636 148.54 5.86568 133.759 1.21179C110.867 -6.00227 116.821 22.5371 100.901 27.7749C93.7437 30.1286 89.3711 25.4391 83.4211 22.4338C74.6688 18.0149 63.0644 13.1474 53.1085 12.9658C37.2668 12.6774 23.1983 29.4841 23.9104 45.2866C25.1674 72.8646 50.527 57.2792 66.2298 61.5414Z" fill="#FFCA40"/>
<path id="Vector_2" opacity="0.9" d="M66.2298 61.5414C83.268 66.1704 95.8766 91.1917 115.578 83.9919C132.794 77.6965 120.919 54.7938 141.347 54.0817C153.735 53.6437 178.475 56.681 169.306 32.9024C163.737 18.4636 148.54 5.86568 133.759 1.21179C110.867 -6.00227 116.821 22.5371 100.901 27.7749C93.7437 30.1286 89.3711 25.4391 83.4211 22.4338C74.6688 18.0149 63.0644 13.1474 53.1085 12.9658C37.2668 12.6774 23.1983 29.4841 23.9104 45.2866C25.1674 72.8646 50.527 57.2792 66.2298 61.5414Z" fill="#292929"/>
</g>
<g id="freepik--character-3--inject-1">
<path id="Vector_3" d="M141.055 14.4331C138.919 15.601 138.207 19.0621 139.207 20.5682C135.504 21.6792 137.427 28.0458 143.48 28.4019C149.533 28.758 154.141 26.5467 151.168 21.8252C154.109 17.8621 152.756 13.4361 150.178 13.9239C147.411 8.37983 138.146 8.54362 141.055 14.4331Z" fill="#263238"/>
<path id="Vector_4" d="M147.5 28.8291C146.566 28.8262 145.651 28.5702 144.851 28.0885C144.838 28.0839 144.826 28.0765 144.817 28.0668C144.807 28.0572 144.8 28.0455 144.795 28.0327C144.791 28.0199 144.789 28.0063 144.79 27.9927C144.792 27.9792 144.796 27.9661 144.803 27.9544C144.81 27.9427 144.819 27.9326 144.83 27.925C144.842 27.9173 144.854 27.9122 144.868 27.9101C144.881 27.9079 144.895 27.9087 144.908 27.9125C144.921 27.9163 144.933 27.9229 144.943 27.9318C145.975 28.5493 147.194 28.7761 148.379 28.5709C149.563 28.3657 150.635 27.7422 151.399 26.8138C152.371 25.6102 152.823 23.6803 151.125 21.8786C151.117 21.8699 151.11 21.8597 151.106 21.8486C151.102 21.8375 151.1 21.8256 151.1 21.8137C151.1 21.8018 151.103 21.7901 151.108 21.7792C151.113 21.7684 151.12 21.7586 151.128 21.7504C151.137 21.7422 151.147 21.7358 151.158 21.7316C151.17 21.7273 151.181 21.7253 151.193 21.7256C151.205 21.726 151.217 21.7286 151.228 21.7335C151.239 21.7383 151.248 21.7453 151.257 21.7539C153.016 23.6411 152.556 25.6708 151.538 26.9277C151.045 27.5204 150.428 27.9978 149.73 28.3263C149.032 28.6548 148.271 28.8265 147.5 28.8291Z" fill="#263238"/>
<path id="Vector_5" d="M138.538 21.7503C138.519 21.7498 138.502 21.7437 138.487 21.7329C138.473 21.7221 138.462 21.707 138.456 21.6898C137.509 18.9765 138.776 15.3339 141.016 14.3368C141.038 14.3291 141.062 14.3295 141.083 14.338C141.105 14.3465 141.123 14.3625 141.133 14.3831C141.138 14.3939 141.141 14.4055 141.141 14.4172C141.141 14.4289 141.139 14.4406 141.135 14.4515C141.13 14.4624 141.124 14.4724 141.116 14.4808C141.108 14.4893 141.098 14.496 141.087 14.5006C138.922 15.462 137.701 18.9943 138.623 21.6221C138.627 21.6333 138.629 21.6452 138.628 21.6571C138.627 21.6689 138.624 21.6805 138.619 21.6911C138.613 21.7017 138.606 21.7112 138.597 21.7189C138.588 21.7266 138.577 21.7324 138.566 21.7361L138.538 21.7503Z" fill="#263238"/>
<path id="Vector_6" d="M137.957 17.83H137.925C137.904 17.8212 137.886 17.8046 137.876 17.7835C137.866 17.7624 137.865 17.7383 137.872 17.7161C138.513 16.0176 139.723 14.725 141.027 14.3405C141.049 14.3339 141.074 14.3365 141.094 14.3479C141.115 14.3592 141.13 14.3783 141.137 14.401C141.144 14.4237 141.141 14.448 141.13 14.4687C141.118 14.4894 141.099 14.5048 141.076 14.5114C139.827 14.8675 138.662 16.1315 138.039 17.7802C138.032 17.7954 138.02 17.8082 138.005 17.817C137.991 17.8259 137.974 17.8304 137.957 17.83Z" fill="#263238"/>
<path id="Vector_7" d="M142.942 112.546L140.884 112.549L140.539 104.819L144.003 104.904L142.942 112.546Z" fill="#FFB573"/>
<path id="Vector_8" d="M139.364 45.8388C139.364 45.8388 139.182 67.2922 138.73 76.632C138.712 76.9095 138.712 77.1878 138.73 77.4653C139.407 86.8265 140.528 104.819 140.528 104.819L144.014 104.908C144.014 104.908 147.052 90.5403 145.171 77.5258C148.195 62.8057 149.822 49.6701 147.084 45.8352L139.364 45.8388Z" fill="#FFCA40"/>
<path id="Vector_9" opacity="0.2" d="M145.203 54.3596C144.135 57.9417 145.175 69.4572 145.727 74.7698C146.478 70.9313 147.119 67.2388 147.593 63.8347L145.203 54.3596Z" fill="black"/>
<path id="Vector_10" d="M140.653 111.549H143.327C143.383 111.547 143.438 111.566 143.48 111.603C143.523 111.64 143.549 111.692 143.555 111.748L143.825 113.938C143.827 114.006 143.815 114.073 143.79 114.136C143.765 114.199 143.727 114.257 143.68 114.305C143.633 114.353 143.576 114.392 143.513 114.418C143.451 114.444 143.384 114.458 143.316 114.458C142.138 114.458 141.575 114.372 140.09 114.376C139.175 114.376 138.623 114.469 137.359 114.469C136.095 114.469 136.095 113.258 136.625 113.148C139.008 112.653 139.314 112.378 140.143 111.723C140.289 111.61 140.468 111.549 140.653 111.549Z" fill="#263238"/>
<path id="Vector_11" d="M141.532 30.0504C141.4 30.7874 141.251 31.4747 141.091 32.1868C140.93 32.899 140.767 33.6111 140.578 34.3233C140.204 35.7475 139.816 37.1434 139.303 38.5534C139.046 39.2824 138.746 39.9958 138.406 40.6899C138.217 41.0751 137.999 41.4453 137.754 41.7972C137.683 41.8934 137.619 41.986 137.526 42.0928C137.438 42.2062 137.339 42.3111 137.231 42.4061C136.958 42.6641 136.629 42.8555 136.269 42.9652C135.893 43.079 135.493 43.095 135.109 43.0115C134.806 42.9414 134.517 42.821 134.254 42.6554C133.855 42.3999 133.501 42.0798 133.207 41.7082C132.702 41.0798 132.3 40.3756 132.014 39.6216C131.952 39.4613 131.946 39.2844 131.999 39.1205C132.052 38.9567 132.159 38.8161 132.304 38.7224C132.448 38.6287 132.62 38.5876 132.791 38.6061C132.962 38.6246 133.122 38.7016 133.243 38.824L133.285 38.8703C133.727 39.3371 134.204 39.7703 134.71 40.1664C134.908 40.3175 135.127 40.4376 135.361 40.5225C135.447 40.5439 135.507 40.5439 135.515 40.5225C135.522 40.5011 135.465 40.4869 135.415 40.4905C135.365 40.494 135.333 40.5118 135.347 40.4905C135.364 40.4594 135.383 40.4297 135.404 40.4014C135.439 40.3583 135.471 40.3118 135.497 40.2626C135.646 40.0174 135.777 39.7615 135.888 39.497C136.148 38.887 136.376 38.2643 136.572 37.6312C136.978 36.328 137.348 34.9713 137.669 33.6075C137.989 32.2438 138.306 30.8515 138.591 29.4913C138.679 29.1153 138.909 28.7879 139.233 28.578C139.557 28.3681 139.95 28.2921 140.329 28.3659C140.708 28.4396 141.044 28.6575 141.265 28.9736C141.487 29.2898 141.578 29.6796 141.518 30.061L141.532 30.0504Z" fill="#FFB573"/>
<path id="Vector_12" d="M138.295 42.9262C138.295 43.8021 151.947 43.973 151.947 42.8158L144.972 41.0354L138.295 42.9262Z" fill="#263238"/>
<path id="Vector_13" d="M140.802 27.7537C144.402 27.1517 148.079 27.1879 151.666 27.8606C151.877 27.8939 152.078 27.9699 152.258 28.084C152.438 28.1982 152.592 28.3479 152.712 28.5241C152.832 28.7002 152.914 28.8991 152.954 29.1083C152.994 29.3175 152.991 29.5327 152.944 29.7406C151.015 38.3826 151.125 41.2881 151.31 45.8388H139.367C138.769 38.2473 138.452 33.9138 138.374 31.4534C138.31 29.5768 138.954 28.0279 140.802 27.7537Z" fill="#FFB573"/>
<path id="Vector_14" opacity="0.2" d="M151.63 30.2642C151.555 31.4703 151.715 32.6796 152.101 33.8249C152.254 33.0024 152.432 32.1193 152.635 31.1543L151.63 30.2642Z" fill="black"/>
<path id="Vector_15" d="M147.746 21.4441C147.39 23.1711 147.066 26.3437 148.276 27.4974C148.276 27.4974 147.803 29.2528 144.591 29.2528C141.055 29.2528 142.899 27.4974 142.899 27.4974C144.829 27.0345 144.78 25.603 144.445 24.2606L147.746 21.4441Z" fill="#FFB573"/>
<path id="Vector_16" opacity="0.2" d="M146.4 22.5942L144.445 24.2713C144.528 24.5841 144.584 24.9033 144.612 25.2256C145.349 25.1188 146.361 24.3105 146.439 23.5378C146.483 23.2235 146.469 22.9038 146.4 22.5942Z" fill="black"/>
<path id="Vector_17" d="M149.612 18.4461C148.949 21.2626 148.732 22.4697 147.044 23.684C144.509 25.5142 141.19 24.0899 140.991 21.1309C140.813 18.471 141.92 14.3085 144.908 13.6533C145.564 13.5054 146.247 13.5275 146.892 13.7176C147.538 13.9077 148.124 14.2595 148.595 14.7395C149.066 15.2196 149.407 15.8121 149.585 16.4607C149.763 17.1094 149.772 17.7928 149.612 18.4461Z" fill="#FFB573"/>
<path id="Vector_18" d="M148.536 14.2087C145.552 14.5399 146.46 20.1018 148.703 20.6394C151.331 19.354 152.951 14.4722 148.536 14.2087Z" fill="#263238"/>
<path id="Vector_19" d="M163.142 107.454L161.081 108.081L158.072 101.778L161.245 100.913L163.142 107.454Z" fill="#FFB573"/>
<path id="Vector_20" d="M160.486 107.45L163.135 106.425C163.182 106.407 163.233 106.406 163.28 106.422C163.327 106.439 163.366 106.471 163.392 106.514L164.577 108.515C164.606 108.565 164.623 108.62 164.628 108.677C164.633 108.735 164.626 108.792 164.607 108.846C164.587 108.9 164.557 108.95 164.517 108.991C164.476 109.032 164.428 109.064 164.374 109.085C163.445 109.441 162.996 109.622 161.832 110.074C161.12 110.352 160.002 111.278 159.012 111.659C158.022 112.04 157.588 111.136 157.944 110.822C158.908 109.98 159.668 108.929 160.166 107.749C160.196 107.68 160.24 107.618 160.295 107.567C160.35 107.515 160.415 107.476 160.486 107.45Z" fill="#263238"/>
<path id="Vector_21" d="M142.643 45.8387C142.643 45.8387 147.034 68.2963 148.696 77.1732C150.416 86.4312 158.079 101.764 158.079 101.764L161.259 100.895C161.259 100.895 156.904 84.4941 154.874 76.3649C154.476 61.6448 154.946 49.6594 151.314 45.8245L142.643 45.8387Z" fill="#FFCA40"/>
<path id="Vector_22" d="M144.94 18.4284C144.901 18.66 144.748 18.8275 144.584 18.7847C144.42 18.742 144.342 18.5496 144.381 18.318C144.42 18.0864 144.577 17.9189 144.737 17.9439C144.897 17.9688 144.983 18.1968 144.94 18.4284Z" fill="#263238"/>
<path id="Vector_23" d="M142.323 17.9833C142.284 18.2149 142.127 18.3824 141.967 18.3396C141.806 18.2968 141.724 18.108 141.764 17.8729C141.803 17.6377 141.96 17.4738 142.12 17.5166C142.28 17.5593 142.362 17.7517 142.323 17.9833Z" fill="#263238"/>
<path id="Vector_24" d="M142.184 17.5417L141.653 17.2852C141.653 17.2852 141.867 17.7697 142.184 17.5417Z" fill="#263238"/>
<path id="Vector_25" d="M143.056 18.5386C142.762 19.031 142.403 19.4814 141.988 19.8774C142.092 19.9813 142.217 20.0614 142.355 20.1124C142.492 20.1635 142.639 20.1841 142.786 20.173L143.056 18.5386Z" fill="#ED893E"/>
<path id="Vector_26" d="M143.889 21.2945C143.77 21.2946 143.651 21.2839 143.533 21.2625C143.524 21.2612 143.516 21.2581 143.508 21.2534C143.5 21.2488 143.494 21.2426 143.488 21.2353C143.483 21.228 143.479 21.2197 143.477 21.2109C143.475 21.2021 143.475 21.193 143.476 21.1841C143.48 21.1665 143.49 21.1508 143.504 21.1403C143.519 21.1297 143.537 21.125 143.555 21.1271C143.842 21.1819 144.138 21.1686 144.42 21.0882C144.701 21.0078 144.96 20.8626 145.175 20.6642C145.181 20.6573 145.189 20.6518 145.197 20.6481C145.206 20.6443 145.215 20.6423 145.225 20.6423C145.234 20.6423 145.243 20.6443 145.252 20.6481C145.26 20.6518 145.268 20.6573 145.274 20.6642C145.286 20.6774 145.293 20.6945 145.293 20.7123C145.293 20.7301 145.286 20.7473 145.274 20.7604C144.902 21.1146 144.403 21.3067 143.889 21.2945Z" fill="#263238"/>
<path id="Vector_27" d="M150.018 20.8745C149.734 21.3566 149.272 21.7082 148.732 21.8537C148.02 22.0353 147.664 21.3908 147.885 20.7214C148.073 20.1197 148.679 19.2971 149.394 19.4075C149.55 19.4359 149.696 19.5025 149.819 19.6012C149.942 19.6999 150.039 19.8277 150.101 19.9732C150.163 20.1186 150.188 20.2771 150.173 20.4344C150.158 20.5917 150.105 20.743 150.018 20.8745Z" fill="#FFB573"/>
<path id="Vector_28" d="M146.077 18.0729C146.048 18.0727 146.02 18.0632 145.997 18.0459C145.974 18.0286 145.957 18.0043 145.948 17.9767C145.76 17.3675 144.979 17.1038 144.972 17.1038C144.955 17.0986 144.938 17.0898 144.924 17.0781C144.91 17.0664 144.898 17.0519 144.89 17.0356C144.882 17.0193 144.877 17.0014 144.876 16.9831C144.874 16.9649 144.877 16.9465 144.883 16.9292C144.888 16.9117 144.897 16.8954 144.909 16.8813C144.92 16.8672 144.935 16.8556 144.951 16.8473C144.968 16.839 144.985 16.8341 145.004 16.8328C145.022 16.8316 145.04 16.8341 145.058 16.8402C145.093 16.8402 145.98 17.1501 146.212 17.909C146.217 17.9266 146.219 17.945 146.218 17.9634C146.216 17.9817 146.211 17.9994 146.202 18.0157C146.194 18.0319 146.182 18.0463 146.168 18.0579C146.153 18.0696 146.137 18.0783 146.119 18.0836L146.077 18.0729Z" fill="#263238"/>
<path id="Vector_29" d="M141.739 16.6374C141.715 16.6371 141.692 16.6307 141.671 16.6189C141.651 16.607 141.634 16.5901 141.621 16.5697C141.603 16.5376 141.599 16.4997 141.609 16.4643C141.619 16.4289 141.643 16.3989 141.675 16.3809C141.862 16.2674 142.074 16.2004 142.293 16.1855C142.512 16.1707 142.731 16.2083 142.933 16.2954C142.965 16.3121 142.989 16.341 143.001 16.3756C143.012 16.4103 143.009 16.448 142.993 16.4806C142.976 16.513 142.948 16.5375 142.913 16.5489C142.878 16.5602 142.84 16.5575 142.808 16.5412C142.647 16.4754 142.473 16.4482 142.3 16.4618C142.126 16.4754 141.959 16.5295 141.81 16.6196C141.789 16.6326 141.764 16.6388 141.739 16.6374Z" fill="#263238"/>
<path id="Vector_30" d="M152.642 28.3556C153.657 29.6838 154.579 31.0262 155.455 32.4434C155.889 33.1555 156.316 33.8677 156.708 34.6261C157.134 35.412 157.485 36.2357 157.758 37.0866C157.798 37.2005 157.826 37.3323 157.858 37.4427L157.883 37.5459L157.915 37.6955C157.93 37.7887 157.939 37.8826 157.944 37.9768C157.96 38.2858 157.937 38.5957 157.876 38.899C157.775 39.38 157.623 39.849 157.424 40.2984C157.073 41.0923 156.658 41.8567 156.185 42.5844C155.283 43.9828 154.27 45.3058 153.154 46.5403C153.032 46.6771 152.864 46.7637 152.681 46.7833C152.499 46.8029 152.316 46.7541 152.167 46.6464C152.019 46.5387 151.916 46.3797 151.878 46.2003C151.84 46.0209 151.87 45.8337 151.962 45.6751V45.6573C152.749 44.2864 153.528 42.8763 154.201 41.4805C154.531 40.8076 154.818 40.1142 155.059 39.4046C155.163 39.1033 155.235 38.7918 155.273 38.4753C155.286 38.382 155.286 38.2873 155.273 38.194V38.1726V38.1299C155.248 38.0587 155.23 37.9946 155.198 37.9198C154.921 37.2522 154.595 36.606 154.223 35.9863C153.831 35.3276 153.414 34.6688 152.987 34.0101C152.118 32.7069 151.207 31.3965 150.281 30.1289C150.059 29.8108 149.97 29.4189 150.032 29.0362C150.094 28.6534 150.303 28.3099 150.614 28.0784C150.925 27.847 151.314 27.7457 151.699 27.7961C152.083 27.8465 152.433 28.0447 152.674 28.3485L152.642 28.3556Z" fill="#FFB573"/>
<path id="Vector_31" d="M144.805 17.9868L144.274 17.7302C144.274 17.7302 144.484 18.2183 144.805 17.9868Z" fill="#263238"/>
<path id="Vector_32" d="M138.709 30.6024C138.928 29.704 139.212 28.8223 139.556 27.9639C140.102 27.8007 140.661 27.6817 141.226 27.6078C142.378 28.6285 143.325 29.8585 144.018 31.2327C145.545 29.6873 148.468 28.1241 150.249 27.5544C150.851 27.5164 151.455 27.5926 152.029 27.7788C150.815 31.6101 149.576 35.4628 151.773 36.4527C151.734 38.2723 151.837 40.5298 151.93 42.8122C149.854 42.5843 141.621 42.1891 138.278 42.9226C138.107 40.6081 138.046 38.6497 138.057 36.9583C136.501 34.975 138.06 32.276 138.709 30.6024Z" fill="#263238"/>
<g id="Clip path group">
<mask id="mask0_1_3947" style="mask-type:luminance" maskUnits="userSpaceOnUse" x="137" y="27" width="16" height="16">
<g id="freepik--clip-path--inject-1">
<path id="Vector_33" d="M138.709 30.6024C138.928 29.704 139.212 28.8223 139.556 27.9639C140.102 27.8007 140.661 27.6817 141.226 27.6078C142.378 28.6285 143.325 29.8585 144.018 31.2327C145.545 29.6873 148.468 28.1241 150.249 27.5544C150.851 27.5164 151.455 27.5926 152.029 27.7788C150.815 31.6101 149.576 35.4628 151.773 36.4527C151.734 38.2723 151.837 40.5298 151.93 42.8122C149.854 42.5843 141.621 42.1891 138.278 42.9226C138.107 40.6081 138.046 38.6497 138.057 36.9583C136.501 34.975 138.06 32.276 138.709 30.6024Z" fill="white"/>
</g>
</mask>
<g mask="url(#mask0_1_3947)">
<g id="Group">
<g id="Group_2" opacity="0.2">
<path id="Vector_34" d="M141.981 37.7274C141.962 37.7297 141.945 37.7368 141.93 37.748C141.915 37.7593 141.903 37.7743 141.896 37.7915C141.643 38.4997 141.651 39.2747 141.917 39.9778C141.671 39.7713 141.429 39.5683 141.205 39.3618C141.405 38.933 141.483 38.457 141.429 37.9867C141.375 37.5165 141.191 37.0705 140.899 36.6984C140.887 36.6838 140.873 36.6723 140.856 36.6648C140.839 36.6574 140.821 36.6542 140.802 36.6556C140.784 36.6571 140.765 36.6639 140.75 36.6753C140.735 36.6866 140.724 36.7021 140.717 36.7197C140.456 37.4478 140.473 38.2463 140.763 38.963C140.443 38.671 140.137 38.379 139.855 38.0977C140.066 37.6668 140.15 37.1853 140.099 36.7085C140.048 36.2317 139.864 35.779 139.567 35.4023C139.556 35.3877 139.541 35.3762 139.524 35.3687C139.507 35.3612 139.489 35.3581 139.471 35.3595C139.452 35.361 139.434 35.3678 139.419 35.3792C139.404 35.3905 139.392 35.4059 139.385 35.4236C139.126 36.1532 139.143 36.9522 139.432 37.6705C138.944 37.1613 138.538 36.6984 138.235 36.3138C138.126 35.8833 137.91 35.4873 137.607 35.1629C137.304 34.8385 136.923 34.5962 136.501 34.4587C136.484 34.4557 136.466 34.4568 136.45 34.4619C136.433 34.4671 136.418 34.4761 136.405 34.4883C136.393 34.5004 136.383 34.5154 136.378 34.5319C136.372 34.5484 136.37 34.566 136.373 34.5833C136.693 36.1607 137.854 36.4349 138.089 36.4741C138.256 36.6841 138.445 36.9156 138.673 37.1648C138.115 36.9148 137.494 36.8403 136.893 36.9512C136.874 36.9554 136.858 36.9646 136.845 36.9778C136.831 36.9911 136.822 37.0077 136.818 37.026C136.813 37.0436 136.812 37.0623 136.815 37.0803C136.819 37.0983 136.827 37.1152 136.839 37.1292C137.145 37.4783 137.543 37.7349 137.987 37.8702C138.431 38.0055 138.904 38.014 139.353 37.8948C139.553 38.1013 139.766 38.3114 139.991 38.5286C139.236 38.313 138.431 38.3607 137.708 38.6639C137.691 38.673 137.677 38.6866 137.667 38.7032C137.657 38.7198 137.651 38.7389 137.651 38.7583C137.651 38.7777 137.657 38.7967 137.667 38.8133C137.677 38.8299 137.691 38.8435 137.708 38.8526C138.115 39.1058 138.58 39.2479 139.059 39.2647C139.538 39.2816 140.012 39.1727 140.436 38.9488C140.735 39.2301 141.052 39.5114 141.379 39.7927C140.65 39.4634 139.824 39.4152 139.061 39.6574C139.043 39.6645 139.028 39.6762 139.016 39.6911C139.004 39.7061 138.996 39.7239 138.994 39.7428C138.992 39.7613 138.994 39.78 139.001 39.7974C139.008 39.8147 139.019 39.8302 139.033 39.8425C139.408 40.1461 139.859 40.3401 140.337 40.403C140.816 40.4658 141.302 40.3951 141.742 40.1986L141.771 40.1808C141.782 40.169 141.79 40.1541 141.792 40.1381L142.195 40.4656C142.207 40.4824 142.225 40.4949 142.244 40.5012C142.458 40.6722 142.675 40.8395 142.896 41.0033C142.915 41.0199 142.94 41.029 142.966 41.029C142.991 41.029 143.016 41.0199 143.035 41.0033C143.043 40.9919 143.049 40.9789 143.052 40.9652C143.056 40.9515 143.056 40.9372 143.054 40.9233C143.051 40.9094 143.046 40.8961 143.039 40.8842C143.031 40.8723 143.022 40.8619 143.01 40.8538C142.807 40.7007 142.604 40.5475 142.408 40.3873C142.593 39.9632 142.66 39.4968 142.601 39.0379C142.542 38.5789 142.36 38.1445 142.074 37.7808C142.064 37.7646 142.051 37.7511 142.034 37.7417C142.018 37.7323 142 37.7274 141.981 37.7274Z" fill="white"/>
<path id="Vector_35" d="M138.47 32.2117C138.489 32.2094 138.506 32.2023 138.521 32.1911C138.536 32.1798 138.548 32.1648 138.556 32.1476C138.808 31.4394 138.801 30.6644 138.534 29.9613C138.78 30.1678 139.022 30.3708 139.246 30.5773C139.046 31.0061 138.968 31.4821 139.022 31.9524C139.076 32.4226 139.26 32.8687 139.553 33.2407C139.564 33.2553 139.578 33.2668 139.595 33.2743C139.612 33.2818 139.63 33.2849 139.649 33.2835C139.668 33.282 139.686 33.2752 139.701 33.2638C139.716 33.2525 139.728 33.2371 139.734 33.2194C139.995 32.4913 139.978 31.6928 139.688 30.9761C140.008 31.2681 140.315 31.5601 140.596 31.8414C140.386 32.2723 140.301 32.7538 140.352 33.2306C140.403 33.7074 140.588 34.1601 140.884 34.5368C140.896 34.5514 140.91 34.5629 140.927 34.5704C140.944 34.5779 140.962 34.581 140.98 34.5796C140.999 34.5781 141.017 34.5713 141.033 34.5599C141.048 34.5486 141.059 34.5332 141.066 34.5155C141.325 33.7859 141.308 32.9869 141.02 32.2687C141.507 32.7778 141.913 33.2407 142.216 33.6253C142.325 34.0559 142.541 34.4518 142.844 34.7762C143.147 35.1007 143.528 35.3429 143.95 35.4804C143.967 35.4834 143.985 35.4823 144.002 35.4772C144.018 35.472 144.034 35.463 144.046 35.4508C144.059 35.4387 144.068 35.4237 144.074 35.4072C144.079 35.3907 144.081 35.3731 144.078 35.3558C143.758 33.7784 142.597 33.5042 142.362 33.4651C142.195 33.255 142.006 33.0235 141.778 32.7743C142.336 33.0254 142.958 33.0987 143.558 32.9844C143.577 32.9813 143.593 32.9728 143.607 32.9601C143.62 32.9475 143.629 32.9311 143.633 32.9131C143.639 32.8955 143.639 32.8768 143.636 32.8588C143.632 32.8408 143.624 32.8239 143.612 32.8099C143.306 32.4608 142.908 32.2042 142.464 32.0689C142.02 31.9336 141.547 31.9251 141.098 32.0443C140.899 31.8378 140.685 31.6277 140.461 31.4105C141.215 31.6261 142.02 31.5784 142.743 31.2752C142.76 31.2661 142.775 31.2525 142.785 31.2359C142.795 31.2193 142.8 31.2002 142.8 31.1808C142.8 31.1614 142.795 31.1424 142.785 31.1258C142.775 31.1092 142.76 31.0956 142.743 31.0865C142.337 30.8333 141.871 30.6912 141.392 30.6744C140.914 30.6575 140.439 30.7665 140.016 30.9903C139.716 30.709 139.4 30.4277 139.072 30.1465C139.802 30.4757 140.627 30.5239 141.39 30.2818C141.407 30.274 141.423 30.2622 141.434 30.2473C141.446 30.2325 141.454 30.215 141.458 30.1963C141.459 30.1778 141.457 30.1591 141.45 30.1417C141.443 30.1244 141.432 30.1089 141.418 30.0966C141.044 29.793 140.592 29.599 140.114 29.5362C139.636 29.4733 139.149 29.544 138.709 29.7405L138.68 29.7583C138.669 29.7701 138.662 29.785 138.659 29.8011L138.257 29.4735C138.244 29.4567 138.227 29.4442 138.207 29.4379C137.993 29.2669 137.776 29.0996 137.555 28.9358C137.536 28.9193 137.511 28.9102 137.486 28.9102C137.46 28.9102 137.436 28.9193 137.416 28.9358C137.4 28.9588 137.393 28.987 137.397 29.0148C137.401 29.0426 137.416 29.0678 137.438 29.0854C137.644 29.2385 137.847 29.3916 138.043 29.5518C137.858 29.976 137.791 30.4423 137.85 30.9013C137.909 31.3602 138.091 31.7946 138.378 32.1583C138.387 32.1745 138.4 32.188 138.417 32.1974C138.433 32.2068 138.451 32.2117 138.47 32.2117Z" fill="white"/>
<path id="Vector_36" d="M149.448 40.3268C149.43 40.3293 149.413 40.3361 149.398 40.3467C149.383 40.3572 149.371 40.3712 149.362 40.3873C149.113 41.0961 149.121 41.8699 149.384 42.5736C149.138 42.3707 148.896 42.1641 148.672 41.9576C148.872 41.5295 148.95 41.054 148.896 40.5843C148.842 40.1145 148.658 39.6691 148.365 39.2978C148.354 39.2831 148.34 39.2715 148.323 39.2642C148.306 39.2568 148.288 39.2539 148.27 39.2556C148.251 39.2574 148.234 39.2639 148.219 39.2744C148.204 39.2849 148.192 39.299 148.184 39.3156C147.925 40.0451 147.941 40.8441 148.23 41.5624C147.91 41.2668 147.603 40.9784 147.322 40.6971C147.533 40.267 147.618 39.7859 147.567 39.3094C147.516 38.833 147.331 38.3808 147.034 38.0052C147.023 37.9898 147.009 37.9777 146.992 37.9701C146.975 37.9626 146.956 37.9599 146.938 37.9625C146.919 37.9647 146.902 37.9714 146.887 37.982C146.872 37.9925 146.86 38.0066 146.852 38.023C146.593 38.7526 146.61 39.5516 146.898 40.2698C146.411 39.7642 146.005 39.2978 145.702 38.9132C145.592 38.4832 145.375 38.0879 145.072 37.7636C144.769 37.4394 144.389 37.1967 143.968 37.058C143.951 37.0546 143.933 37.0553 143.916 37.0603C143.899 37.0653 143.884 37.0743 143.872 37.0865C143.859 37.0994 143.849 37.1151 143.844 37.1325C143.838 37.1498 143.837 37.1683 143.84 37.1862C144.16 38.7601 145.324 39.0343 145.556 39.0734C145.723 39.2835 145.912 39.5185 146.14 39.7678C145.582 39.5175 144.961 39.443 144.36 39.5541C144.342 39.559 144.325 39.5685 144.312 39.5816C144.299 39.5947 144.29 39.611 144.285 39.6289C144.279 39.646 144.279 39.6641 144.282 39.6816C144.286 39.699 144.294 39.7153 144.306 39.7286C144.61 40.0801 145.008 40.3384 145.453 40.4739C145.897 40.6093 146.371 40.6163 146.82 40.4942C147.019 40.7007 147.233 40.9143 147.457 41.1315C146.704 40.9139 145.898 40.9617 145.175 41.2668C145.159 41.2765 145.145 41.29 145.135 41.3062C145.125 41.3223 145.119 41.3405 145.118 41.3594C145.118 41.3783 145.122 41.3968 145.132 41.4132C145.141 41.4295 145.155 41.4429 145.171 41.452C145.578 41.7054 146.043 41.8479 146.522 41.8654C147 41.8829 147.475 41.7747 147.899 41.5517C148.198 41.8294 148.515 42.1107 148.843 42.3956C148.113 42.0663 147.287 42.0182 146.524 42.2603C146.507 42.2675 146.491 42.2791 146.479 42.2941C146.467 42.3091 146.46 42.3269 146.457 42.3457C146.455 42.3641 146.457 42.3828 146.465 42.3997C146.473 42.4166 146.484 42.4312 146.5 42.4419C146.874 42.7455 147.326 42.9395 147.804 43.0023C148.282 43.0652 148.769 42.9944 149.209 42.798L149.234 42.7766C149.245 42.765 149.253 42.7517 149.259 42.7374L149.661 43.065C149.673 43.0816 149.689 43.0941 149.708 43.1006C149.921 43.2715 150.139 43.4389 150.359 43.6063C150.379 43.6228 150.403 43.6319 150.429 43.6319C150.454 43.6319 150.479 43.6228 150.498 43.6063C150.515 43.5836 150.523 43.5551 150.519 43.5271C150.515 43.499 150.5 43.4737 150.477 43.4567C150.27 43.3036 150.071 43.1469 149.872 42.9902C150.057 42.5665 150.125 42.1002 150.066 41.6412C150.008 41.1822 149.826 40.7476 149.54 40.3838C149.531 40.3671 149.518 40.3531 149.502 40.3431C149.485 40.3331 149.467 40.3275 149.448 40.3268Z" fill="white"/>
<path id="Vector_37" d="M156.295 42.7872C156.276 42.7887 156.258 42.7955 156.243 42.8068C156.228 42.8182 156.216 42.8336 156.21 42.8513C155.956 43.559 155.962 44.3341 156.227 45.0376C155.982 44.8311 155.743 44.6245 155.515 44.4216C155.717 43.9932 155.795 43.5173 155.742 43.047C155.688 42.5766 155.505 42.1304 155.213 41.7582C155.201 41.743 155.186 41.7312 155.168 41.7237C155.151 41.7162 155.132 41.7134 155.113 41.7154C155.094 41.718 155.077 41.7252 155.062 41.7364C155.047 41.7477 155.035 41.7625 155.027 41.7795C154.768 42.5078 154.785 43.3058 155.074 44.0228C154.753 43.7308 154.451 43.4388 154.169 43.1575C154.38 42.7266 154.464 42.2451 154.413 41.7683C154.362 41.2915 154.178 40.8387 153.881 40.462C153.87 40.4475 153.855 40.4359 153.838 40.4285C153.821 40.421 153.803 40.4179 153.785 40.4193C153.766 40.4208 153.748 40.4276 153.733 40.439C153.718 40.4503 153.706 40.4657 153.699 40.4834C153.439 41.2127 153.455 42.0123 153.746 42.7302C153.258 42.221 152.848 41.7582 152.549 41.3736C152.44 40.943 152.224 40.5471 151.921 40.2226C151.618 39.8982 151.237 39.656 150.815 39.5184C150.798 39.5146 150.78 39.5151 150.763 39.5199C150.746 39.5247 150.73 39.5337 150.717 39.5461C150.705 39.5585 150.695 39.5738 150.69 39.5907C150.685 39.6077 150.684 39.6257 150.687 39.6431C151.007 41.2205 152.168 41.4947 152.403 41.5338C152.567 41.7439 152.759 41.9754 152.987 42.2246C152.429 41.9752 151.808 41.9007 151.207 42.011C151.189 42.0165 151.173 42.0261 151.16 42.0392C151.147 42.0522 151.137 42.0682 151.132 42.0857C151.127 42.1037 151.127 42.1225 151.131 42.1406C151.136 42.1586 151.144 42.1753 151.157 42.189C151.463 42.5375 151.86 42.7937 152.303 42.9289C152.747 43.0642 153.219 43.073 153.667 42.9546C153.87 43.1611 154.08 43.3712 154.305 43.5884C153.552 43.3727 152.748 43.4205 152.026 43.7237C152.009 43.7323 151.994 43.7455 151.984 43.7619C151.974 43.7782 151.969 43.7971 151.969 43.8163C151.968 43.8352 151.973 43.8538 151.982 43.8706C151.99 43.8874 152.003 43.9018 152.019 43.9124C152.426 44.1645 152.892 44.306 153.371 44.3228C153.85 44.3397 154.325 44.2313 154.75 44.0085C155.049 44.2886 155.362 44.57 155.69 44.8524C154.96 44.5232 154.135 44.475 153.372 44.7171C153.354 44.7238 153.339 44.7354 153.327 44.7505C153.316 44.7657 153.309 44.7837 153.308 44.8026C153.306 44.8211 153.308 44.8398 153.315 44.8572C153.322 44.8745 153.333 44.89 153.347 44.9023C153.722 45.2055 154.173 45.3993 154.651 45.4621C155.13 45.525 155.616 45.4544 156.056 45.2584C156.065 45.26 156.073 45.26 156.081 45.2584C156.095 45.2478 156.104 45.2325 156.106 45.2156L156.509 45.5432C156.521 45.559 156.537 45.5713 156.555 45.5788C156.769 45.7497 156.986 45.9171 157.207 46.0809C157.226 46.0974 157.251 46.1065 157.276 46.1065C157.302 46.1065 157.326 46.0974 157.345 46.0809C157.354 46.0699 157.361 46.0571 157.365 46.0434C157.368 46.0298 157.369 46.0155 157.367 46.0015C157.365 45.9874 157.36 45.974 157.353 45.9619C157.346 45.9498 157.336 45.9394 157.324 45.9313L156.719 45.4649C156.905 45.0411 156.972 44.5749 156.914 44.1159C156.855 43.6568 156.674 43.2222 156.388 42.8584C156.38 42.8391 156.368 42.8222 156.352 42.8096C156.335 42.797 156.316 42.7892 156.295 42.7872Z" fill="white"/>
<path id="Vector_38" d="M140.638 43.1896C140.62 43.1912 140.602 43.1976 140.587 43.2082C140.572 43.2189 140.56 43.2333 140.553 43.2501C140.299 43.9579 140.305 44.7329 140.571 45.4364C140.325 45.2335 140.086 45.0269 139.859 44.8204C140.06 44.3921 140.138 43.9161 140.085 43.4458C140.031 42.9755 139.848 42.5292 139.556 42.157C139.544 42.1425 139.529 42.1313 139.512 42.1242C139.495 42.1172 139.476 42.1146 139.457 42.1168C139.439 42.1189 139.421 42.1257 139.406 42.1364C139.391 42.1472 139.379 42.1616 139.371 42.1783C139.112 42.9079 139.128 43.7069 139.417 44.4252C139.097 44.1296 138.794 43.8412 138.513 43.5599C138.723 43.129 138.807 42.6475 138.756 42.1707C138.705 41.6939 138.521 41.2411 138.224 40.8644C138.213 40.8497 138.199 40.8383 138.182 40.8314C138.165 40.8244 138.146 40.8223 138.128 40.8253C138.109 40.826 138.092 40.8321 138.076 40.8429C138.061 40.8536 138.049 40.8685 138.043 40.8858C137.782 41.6151 137.799 42.4147 138.089 43.1326C137.667 42.7012 137.268 42.2484 136.892 41.776C136.783 41.346 136.566 40.9507 136.263 40.6264C135.96 40.3022 135.58 40.0595 135.158 39.9208C135.141 39.9174 135.122 39.9181 135.105 39.9231C135.088 39.928 135.072 39.937 135.059 39.9493C135.047 39.9624 135.039 39.9777 135.034 39.9943C135.029 40.0109 135.028 40.0283 135.03 40.0455C135.351 41.6229 136.511 41.8971 136.746 41.9362C136.91 42.1463 137.103 42.3778 137.33 42.6484C136.773 42.3954 136.151 42.3208 135.55 42.4347C135.533 42.4393 135.517 42.4482 135.504 42.4607C135.49 42.4732 135.481 42.4887 135.475 42.5059C135.47 42.5239 135.47 42.5427 135.475 42.5608C135.479 42.5788 135.488 42.5955 135.5 42.6092C135.804 42.9607 136.201 43.2191 136.645 43.3546C137.089 43.4901 137.563 43.4971 138.011 43.3748C138.214 43.5813 138.424 43.7949 138.648 44.0121C137.895 43.793 137.09 43.8408 136.369 44.1474C136.352 44.1555 136.338 44.168 136.328 44.1838C136.318 44.1995 136.312 44.2178 136.312 44.2365C136.311 44.2554 136.316 44.2742 136.324 44.2911C136.333 44.3079 136.346 44.3222 136.362 44.3326C136.769 44.5859 137.235 44.7284 137.714 44.7459C138.193 44.7634 138.669 44.6553 139.093 44.4323C139.392 44.71 139.705 44.9913 140.033 45.2726C139.303 44.9442 138.477 44.8973 137.715 45.1409C137.698 45.1473 137.683 45.1584 137.671 45.1728C137.66 45.1873 137.653 45.2046 137.651 45.2228C137.648 45.2414 137.651 45.2603 137.658 45.2777C137.664 45.2951 137.676 45.3106 137.69 45.3225C138.065 45.6257 138.517 45.8195 138.995 45.8823C139.473 45.9452 139.959 45.8746 140.4 45.6786C140.408 45.6802 140.416 45.6802 140.425 45.6786C140.437 45.6689 140.446 45.655 140.45 45.6394L140.852 45.967C140.864 45.9828 140.88 45.9951 140.898 46.0026C141.116 46.1735 141.329 46.3409 141.55 46.5082C141.569 46.5248 141.594 46.5339 141.619 46.5339C141.645 46.5339 141.669 46.5248 141.689 46.5082C141.698 46.4972 141.704 46.4844 141.708 46.4708C141.712 46.4571 141.713 46.4428 141.711 46.4288C141.709 46.4148 141.704 46.4013 141.696 46.3892C141.689 46.3772 141.679 46.3668 141.667 46.3587L141.062 45.8922C141.248 45.4678 141.315 45.001 141.257 44.5415C141.199 44.0819 141.017 43.6467 140.731 43.2822C140.729 43.2582 140.719 43.2356 140.702 43.2186C140.685 43.2016 140.662 43.1913 140.638 43.1896Z" fill="white"/>
<path id="Vector_39" d="M149.22 28.1881C149.201 28.1907 149.184 28.1979 149.169 28.2091C149.154 28.2204 149.142 28.2352 149.134 28.2522C148.885 28.9609 148.893 29.7348 149.156 30.4385C148.91 30.232 148.668 30.029 148.444 29.8225C148.644 29.3937 148.722 28.9177 148.668 28.4474C148.614 27.9772 148.43 27.5312 148.137 27.1591C148.126 27.1445 148.112 27.133 148.095 27.1255C148.078 27.1181 148.06 27.1149 148.041 27.1163C148.022 27.1178 148.004 27.1246 147.989 27.136C147.974 27.1473 147.963 27.1627 147.956 27.1804C147.697 27.9088 147.713 28.7067 148.002 29.4237C147.682 29.1317 147.375 28.8397 147.094 28.5584C147.304 28.1275 147.389 27.646 147.338 27.1692C147.287 26.6924 147.102 26.2397 146.806 25.863C146.795 25.8481 146.78 25.8364 146.763 25.8289C146.746 25.8214 146.728 25.8185 146.71 25.8202C146.691 25.8217 146.673 25.8285 146.658 25.8399C146.642 25.8512 146.631 25.8666 146.624 25.8843C146.365 26.6139 146.382 27.4129 146.67 28.1311C146.183 27.622 145.777 27.1591 145.474 26.7745C145.365 26.344 145.149 25.948 144.846 25.6236C144.543 25.2991 144.162 25.0569 143.74 24.9194C143.723 24.9164 143.705 24.9175 143.688 24.9226C143.672 24.9278 143.657 24.9368 143.644 24.949C143.631 24.9611 143.622 24.9761 143.616 24.9926C143.611 25.0091 143.609 25.0267 143.612 25.044C143.932 26.6214 145.097 26.8956 145.328 26.9347C145.495 27.1448 145.684 27.3763 145.912 27.6255C145.354 27.3752 144.733 27.3007 144.132 27.4119C144.114 27.4174 144.098 27.427 144.085 27.4401C144.072 27.4531 144.062 27.4691 144.057 27.4867C144.051 27.5043 144.051 27.523 144.054 27.541C144.058 27.559 144.066 27.5759 144.078 27.5899C144.384 27.939 144.782 28.1956 145.226 28.3309C145.67 28.4662 146.143 28.4747 146.592 28.3555C146.791 28.562 147.005 28.7721 147.229 28.9893C146.475 28.7737 145.67 28.8214 144.947 29.1246C144.931 29.1343 144.917 29.1478 144.907 29.1639C144.897 29.18 144.891 29.1983 144.89 29.2172C144.89 29.2365 144.895 29.2555 144.904 29.2724C144.913 29.2892 144.927 29.3034 144.943 29.3133C145.35 29.5665 145.816 29.7085 146.294 29.7254C146.773 29.7423 147.248 29.6333 147.671 29.4095C147.97 29.6908 148.287 29.9721 148.615 30.2534C147.885 29.9241 147.059 29.8759 146.297 30.118C146.279 30.1252 146.263 30.1369 146.251 30.1518C146.24 30.1668 146.232 30.1846 146.229 30.2035C146.227 30.2224 146.23 30.2415 146.237 30.259C146.245 30.2764 146.256 30.2917 146.272 30.3032C146.646 30.6065 147.097 30.8003 147.574 30.8632C148.052 30.926 148.538 30.8555 148.978 30.6593L149.006 30.6415C149.017 30.6297 149.025 30.6148 149.028 30.5987L149.43 30.9263C149.443 30.9424 149.46 30.9547 149.48 30.9619C149.693 31.1329 149.911 31.3002 150.131 31.464C150.151 31.4806 150.175 31.4896 150.201 31.4896C150.226 31.4896 150.251 31.4806 150.27 31.464C150.287 31.4413 150.295 31.4128 150.291 31.3848C150.287 31.3568 150.272 31.3315 150.249 31.3145C150.042 31.1613 149.843 31.0082 149.644 30.848C149.829 30.4242 149.897 29.958 149.838 29.499C149.78 29.0399 149.598 28.6054 149.312 28.2415C149.302 28.2259 149.289 28.213 149.273 28.2037C149.256 28.1944 149.238 28.1891 149.22 28.1881Z" fill="white"/>
<path id="Vector_40" d="M145.837 34.9536C145.856 34.9521 145.873 34.9456 145.888 34.935C145.903 34.9244 145.915 34.9099 145.923 34.8931C146.177 34.1853 146.17 33.4103 145.905 32.7068C146.151 32.9098 146.389 33.1163 146.617 33.3228C146.416 33.7512 146.337 34.2271 146.391 34.6974C146.444 35.1678 146.627 35.614 146.92 35.9862C146.931 36.0007 146.947 36.012 146.964 36.019C146.981 36.026 147 36.0286 147.018 36.0265C147.037 36.0243 147.054 36.0176 147.069 36.0068C147.085 35.996 147.097 35.9816 147.105 35.9649C147.364 35.2353 147.347 34.4363 147.059 33.7181C147.379 34.0124 147.682 34.3008 147.967 34.5833C147.756 35.0143 147.672 35.4958 147.723 35.9726C147.774 36.4493 147.958 36.9021 148.255 37.2788C148.267 37.2932 148.282 37.3045 148.299 37.3115C148.316 37.3186 148.335 37.3211 148.353 37.319C148.372 37.3169 148.389 37.3101 148.405 37.2993C148.42 37.2886 148.432 37.2742 148.44 37.2574C148.7 36.5277 148.682 35.7281 148.39 35.0106C148.812 35.442 149.211 35.8948 149.587 36.3672C149.697 36.7978 149.914 37.1935 150.217 37.5179C150.521 37.8422 150.902 38.0845 151.324 38.2224C151.341 38.2259 151.359 38.2251 151.376 38.2201C151.393 38.2152 151.408 38.2062 151.42 38.1939C151.433 38.1807 151.442 38.1648 151.447 38.1475C151.452 38.1301 151.452 38.1119 151.449 38.0942C151.132 36.5204 149.968 36.2462 149.733 36.207C149.569 35.9969 149.377 35.7655 149.149 35.4949C149.706 35.7478 150.328 35.8224 150.929 35.7085C150.947 35.7039 150.963 35.695 150.976 35.6825C150.989 35.6701 150.998 35.6545 151.004 35.6373C151.009 35.6194 151.009 35.6005 151.005 35.5825C151 35.5644 150.991 35.5478 150.979 35.534C150.675 35.1825 150.279 34.9241 149.834 34.7886C149.39 34.6531 148.917 34.6461 148.469 34.7685C148.269 34.5619 148.056 34.3483 147.831 34.1311C148.584 34.3502 149.389 34.3024 150.11 33.9958C150.127 33.9872 150.142 33.974 150.152 33.9576C150.162 33.9412 150.167 33.9224 150.167 33.9032C150.168 33.8847 150.164 33.8662 150.155 33.8498C150.147 33.8335 150.133 33.8199 150.117 33.8106C149.71 33.5573 149.244 33.4148 148.765 33.3973C148.286 33.3798 147.811 33.488 147.386 33.7109C147.087 33.4332 146.774 33.1519 146.446 32.8706C147.176 33.1973 148.001 33.2442 148.764 33.0023C148.781 32.9959 148.796 32.9849 148.808 32.9704C148.819 32.956 148.826 32.9387 148.828 32.9204C148.831 32.9018 148.829 32.8827 148.823 32.8651C148.816 32.8475 148.804 32.8322 148.789 32.8207C148.415 32.5164 147.963 32.3219 147.485 32.2591C147.006 32.1962 146.52 32.2674 146.079 32.4647C146.071 32.463 146.063 32.463 146.054 32.4647C146.044 32.4763 146.036 32.4895 146.029 32.5038L145.627 32.1762C145.616 32.1597 145.6 32.1472 145.581 32.1406C145.367 31.9697 145.15 31.7846 144.929 31.635C144.91 31.6185 144.885 31.6094 144.86 31.6094C144.834 31.6094 144.81 31.6185 144.79 31.635C144.773 31.6577 144.766 31.6862 144.77 31.7142C144.774 31.7423 144.789 31.7676 144.812 31.7846L145.417 32.251C145.231 32.6754 145.164 33.1422 145.222 33.6018C145.281 34.0613 145.462 34.4965 145.748 34.8611C145.751 34.8838 145.762 34.905 145.778 34.9216C145.794 34.9382 145.815 34.9494 145.837 34.9536Z" fill="white"/>
</g>
</g>
</g>
</g>
<path id="Vector_41" d="M147.4 38.0157L123.543 40.4228C122.907 40.4875 122.322 40.8021 121.918 41.2975C121.513 41.7928 121.322 42.4285 121.386 43.0649L122.204 51.2225C122.826 50.7822 123.552 50.5125 124.31 50.4404C125.068 50.3682 125.832 50.4961 126.525 50.8113C127.218 51.1266 127.817 51.6181 128.261 52.2368C128.705 52.8556 128.979 53.5799 129.055 54.3376C129.132 55.0953 129.008 55.8598 128.697 56.5548C128.386 57.2499 127.898 57.8513 127.282 58.2988C126.666 58.7464 125.943 59.0246 125.186 59.1056C124.429 59.1867 123.663 59.0677 122.967 58.7606L123.789 66.9183C123.855 67.5544 124.169 68.1388 124.664 68.5437C125.159 68.9487 125.795 69.1413 126.431 69.0796L150.288 66.6761C150.925 66.6096 151.509 66.2941 151.914 65.7986C152.319 65.303 152.511 64.6675 152.449 64.0305L150.046 40.1736C149.979 39.5377 149.663 38.9543 149.167 38.5502C148.672 38.146 148.037 37.954 147.4 38.0157Z" fill="#FFCA40"/>
<path id="Vector_42" opacity="0.3" d="M147.4 38.0157L123.543 40.4228C122.907 40.4875 122.322 40.8021 121.918 41.2975C121.513 41.7928 121.322 42.4285 121.386 43.0649L122.204 51.2225C122.826 50.7822 123.552 50.5125 124.31 50.4404C125.068 50.3682 125.832 50.4961 126.525 50.8113C127.218 51.1266 127.817 51.6181 128.261 52.2368C128.705 52.8556 128.979 53.5799 129.055 54.3376C129.132 55.0953 129.008 55.8598 128.697 56.5548C128.386 57.2499 127.898 57.8513 127.282 58.2988C126.666 58.7464 125.943 59.0246 125.186 59.1056C124.429 59.1867 123.663 59.0677 122.967 58.7606L123.789 66.9183C123.855 67.5544 124.169 68.1388 124.664 68.5437C125.159 68.9487 125.795 69.1413 126.431 69.0796L150.288 66.6761C150.925 66.6096 151.509 66.2941 151.914 65.7986C152.319 65.303 152.511 64.6675 152.449 64.0305L150.046 40.1736C149.979 39.5377 149.663 38.9543 149.167 38.5502C148.672 38.146 148.037 37.954 147.4 38.0157Z" fill="black"/>
<path id="Vector_43" d="M153.909 45.3332L152.805 44.8525L150.213 45.5148C149.916 45.5926 149.653 45.7666 149.465 46.0098L148.917 46.7219C148.8 46.8779 148.741 47.0696 148.749 47.2643C148.758 47.459 148.833 47.6448 148.963 47.7902L149.583 48.4738C149.732 48.6366 149.938 48.7352 150.158 48.7485C150.378 48.7618 150.594 48.6888 150.762 48.545L152.168 47.3379C152.168 47.3379 153.863 46.5439 153.909 45.3332Z" fill="#FFB573"/>
<path id="Vector_44" d="M131.438 40.8859L132.584 40.7399C132.739 40.7224 132.883 40.6548 132.996 40.5475C133.108 40.4401 133.183 40.2988 133.207 40.1453L133.364 39.2337C133.385 39.1252 133.38 39.0132 133.35 38.9068C133.321 38.8003 133.266 38.7023 133.192 38.6204C133.118 38.5385 133.026 38.475 132.922 38.435C132.819 38.395 132.708 38.3795 132.598 38.3898L131.26 38.486C131.071 38.4961 130.895 38.5805 130.768 38.7207C130.642 38.8609 130.577 39.0454 130.587 39.2337L130.622 40.1951C130.624 40.2962 130.648 40.3957 130.691 40.487C130.734 40.5783 130.797 40.6593 130.874 40.7247C130.951 40.79 131.041 40.8382 131.138 40.866C131.236 40.8938 131.338 40.9006 131.438 40.8859Z" fill="#FFB573"/>
<path id="Vector_45" d="M149.28 14.718C146.453 16.1423 141.486 15.4872 141.486 15.4872C141.486 15.4872 144.256 10.9579 149.28 14.718Z" fill="#263238"/>
</g>
<g id="freepik--character-2--inject-1">
<path id="Vector_46" d="M99.5296 105.061L98.1089 112.457L94.5125 111.588L95.9333 104.192L99.5296 105.061Z" fill="#7F3E3B"/>
<path id="Vector_47" d="M94.6267 110.085L98.6254 110.954C98.6873 110.966 98.7425 111.001 98.7801 111.052C98.8176 111.102 98.8348 111.165 98.8283 111.228L98.5506 114.166C98.5414 114.24 98.517 114.311 98.4788 114.374C98.4407 114.438 98.3896 114.493 98.329 114.536C98.2683 114.579 98.1994 114.609 98.1266 114.623C98.0538 114.638 97.9787 114.638 97.9061 114.622C96.6492 114.326 96.2753 114.141 94.6836 113.796C92.8285 113.386 92.1698 113.496 89.9906 113.019C88.6731 112.731 88.7336 111.349 89.3247 111.346C90.8858 111.35 92.4201 110.94 93.7721 110.16C94.037 110.027 94.3427 110 94.6267 110.085Z" fill="#263238"/>
<path id="Vector_48" opacity="0.2" d="M99.5333 105.065L98.7998 108.875L95.1999 108.006L95.9334 104.192L99.5333 105.065Z" fill="black"/>
<path id="Vector_49" d="M105.79 76.5785C110.009 64.1658 113.349 49.5169 113.349 49.5169L101.314 48.7549C101.314 48.7549 99.5333 67.7621 98.6147 76.5287C97.6533 85.637 94.6658 106.2 94.6658 106.2L100.096 107.301C100.096 107.301 105.188 87.9373 105.79 76.5785Z" fill="#263238"/>
<path id="Vector_50" opacity="0.2" d="M107.798 56.4248L110.718 60.0354C109.973 62.8235 109.104 65.9569 108.15 69.158C107.603 64.9364 107.484 60.6702 107.798 56.4248Z" fill="#263238"/>
<path id="Vector_51" d="M94.744 106.973L99.729 108.063C99.8284 108.085 99.9325 108.069 100.021 108.019C100.11 107.969 100.177 107.889 100.21 107.792L100.758 106.186C100.777 106.132 100.784 106.074 100.779 106.017C100.775 105.959 100.758 105.904 100.73 105.853C100.702 105.803 100.664 105.759 100.618 105.724C100.572 105.689 100.519 105.665 100.463 105.652L95.0538 104.388C94.9969 104.375 94.9378 104.373 94.8804 104.384C94.823 104.396 94.7686 104.419 94.7208 104.452C94.673 104.486 94.6329 104.529 94.6032 104.58C94.5734 104.63 94.5547 104.686 94.5482 104.744L94.4235 106.525C94.4123 106.626 94.4388 106.727 94.498 106.81C94.5571 106.893 94.6447 106.951 94.744 106.973Z" fill="#263238"/>
<path id="Vector_52" opacity="0.1" d="M94.744 106.973L99.729 108.063C99.8284 108.085 99.9325 108.069 100.021 108.019C100.11 107.969 100.177 107.889 100.21 107.792L100.758 106.186C100.777 106.132 100.784 106.074 100.779 106.017C100.775 105.959 100.758 105.904 100.73 105.853C100.702 105.803 100.664 105.759 100.618 105.724C100.572 105.689 100.519 105.665 100.463 105.652L95.0538 104.388C94.9969 104.375 94.9378 104.373 94.8804 104.384C94.823 104.396 94.7686 104.419 94.7208 104.452C94.673 104.486 94.6329 104.529 94.6032 104.58C94.5734 104.63 94.5547 104.686 94.5482 104.744L94.4235 106.525C94.4123 106.626 94.4388 106.727 94.498 106.81C94.5571 106.893 94.6447 106.951 94.744 106.973Z" fill="white"/>
<path id="Vector_53" d="M119.327 104.804L119.552 112.435L115.902 112.385L115.678 104.755L119.327 104.804Z" fill="#7F3E3B"/>
<path id="Vector_54" d="M115.809 110.819L119.691 110.876C119.754 110.875 119.814 110.899 119.861 110.941C119.908 110.983 119.937 111.041 119.943 111.104L120.257 114.038C120.263 114.112 120.253 114.187 120.228 114.257C120.204 114.327 120.165 114.392 120.114 114.446C120.063 114.5 120.001 114.543 119.933 114.572C119.864 114.601 119.79 114.616 119.715 114.614C118.427 114.575 118.021 114.468 116.393 114.444C114.492 114.412 114.082 114.65 111.853 114.618C110.504 114.597 110.287 113.229 110.863 113.108C112.395 112.802 113.819 112.097 114.99 111.064C115.222 110.881 115.515 110.793 115.809 110.819Z" fill="#263238"/>
<path id="Vector_55" opacity="0.2" d="M119.331 104.808L119.445 108.739L115.792 108.689L115.678 104.755L119.331 104.808Z" fill="black"/>
<path id="Vector_56" d="M118.419 76.3259C117.387 63.2686 118.259 56.2255 116.742 49.7414L105.789 49.0613C105.789 49.0613 109.19 68.2537 111.066 76.9348C112.943 85.6158 114.962 106.703 114.962 106.703L120.346 106.77C120.346 106.77 121.004 86.5132 118.419 76.3259Z" fill="#263238"/>
<path id="Vector_57" d="M114.976 107.671L120.072 107.749C120.177 107.75 120.279 107.711 120.356 107.64C120.434 107.568 120.481 107.47 120.488 107.365L120.599 105.684C120.603 105.628 120.596 105.573 120.578 105.52C120.56 105.467 120.532 105.419 120.494 105.377C120.457 105.336 120.412 105.303 120.361 105.28C120.31 105.256 120.256 105.244 120.2 105.242L114.656 105.072C114.594 105.069 114.533 105.081 114.476 105.106C114.42 105.131 114.37 105.168 114.33 105.215C114.29 105.262 114.261 105.317 114.245 105.377C114.229 105.436 114.227 105.499 114.239 105.559L114.595 107.34C114.614 107.429 114.662 107.509 114.73 107.569C114.799 107.629 114.885 107.664 114.976 107.671Z" fill="#263238"/>
<path id="Vector_58" opacity="0.1" d="M114.976 107.671L120.072 107.749C120.177 107.75 120.279 107.711 120.356 107.64C120.434 107.568 120.481 107.47 120.488 107.365L120.599 105.684C120.603 105.628 120.596 105.573 120.578 105.52C120.56 105.467 120.532 105.419 120.494 105.377C120.457 105.336 120.412 105.303 120.361 105.28C120.31 105.256 120.256 105.244 120.2 105.242L114.656 105.072C114.594 105.069 114.533 105.081 114.476 105.106C114.42 105.131 114.37 105.168 114.33 105.215C114.29 105.262 114.261 105.317 114.245 105.377C114.229 105.436 114.227 105.499 114.239 105.559L114.595 107.34C114.614 107.429 114.662 107.509 114.73 107.569C114.799 107.629 114.885 107.664 114.976 107.671Z" fill="white"/>
<path id="Vector_59" d="M105.437 28.9751C105.017 29.8831 104.579 30.6878 104.102 31.5175C103.625 32.3471 103.123 33.1519 102.567 33.9423C102.005 34.7585 101.392 35.5375 100.73 36.2746C99.9951 37.1233 99.1339 37.8535 98.1767 38.4396L98.052 38.5108C97.8392 38.636 97.6022 38.7147 97.3567 38.7417C97.1112 38.7687 96.8627 38.7434 96.6277 38.6674C95.9334 38.4431 95.2604 38.1903 94.6017 37.9197C93.9429 37.6491 93.302 37.35 92.6718 37.0366C92.0415 36.7233 91.4255 36.3921 90.8202 36.0361C90.2148 35.68 89.6238 35.3239 89.0398 34.8931C88.8307 34.7448 88.68 34.5282 88.6136 34.2806C88.5472 34.0331 88.5693 33.7701 88.676 33.5371C88.7828 33.3041 88.9676 33.1157 89.1985 33.0044C89.4294 32.8931 89.6919 32.8659 89.9407 32.9275H89.9798C90.6172 33.0806 91.2759 33.2658 91.9169 33.4332L93.8432 33.9423C94.4806 34.1168 95.1215 34.2628 95.7518 34.4195C96.382 34.5762 97.0123 34.6972 97.6319 34.8254L96.0972 35.0569C96.6303 34.6147 97.1085 34.1102 97.5215 33.5542C98.0093 32.9275 98.4793 32.2367 98.9458 31.5246C99.4122 30.8125 99.836 30.0683 100.256 29.3134C100.676 28.5585 101.104 27.7787 101.481 27.0594L101.502 27.0203C101.786 26.5476 102.238 26.1991 102.767 26.0443C103.296 25.8895 103.864 25.9396 104.358 26.1848C104.852 26.4299 105.235 26.8521 105.432 27.3672C105.629 27.8823 105.624 28.4525 105.419 28.9644L105.437 28.9751Z" fill="#7F3E3B"/>
<path id="Vector_60" d="M106.313 22.7507C102.061 23.235 98.8354 29.8188 98.8354 29.8188L103.222 34.4869C103.222 34.4869 105.177 32.1582 107.278 29.2135C109.571 26.0053 109.678 22.3697 106.313 22.7507Z" fill="#FFCA40"/>
<path id="Vector_61" d="M105.79 23.7371C107.424 23.1567 114.745 24.0932 114.745 24.0932C113.32 25.9305 112.131 41.1455 111.999 49.8907C110.443 50.1044 104.476 49.6949 103.098 49.3744C103.276 45.9419 104.707 29.8402 105.79 23.7371Z" fill="white"/>
<path id="Vector_62" d="M101.064 28.3519C101.256 26.7697 102.023 25.3131 103.218 24.2588C104.414 23.2046 105.955 22.6261 107.548 22.6334C110.607 22.6578 113.656 22.9943 116.646 23.6375C117.112 23.7361 117.553 23.9271 117.944 24.1992C118.335 24.4713 118.667 24.8189 118.921 25.2216C119.175 25.6243 119.345 26.0738 119.422 26.5436C119.5 27.0134 119.482 27.4939 119.37 27.9567C117.116 37.4104 117.711 46.38 117.109 50.5531C114.964 51.342 112.685 51.7048 110.401 51.6214C110.401 51.6214 110.454 48.0215 110.956 41.9433C111.355 37.1113 112.071 25.749 113.545 23.8618C113.545 23.8618 108.261 23.1497 106.626 23.723C105.412 30.5774 104.522 51.3401 104.522 51.3436C101.937 51.1585 100.719 49.7199 100.758 49.2926C100.235 40.8929 100.498 33.2764 101.064 28.3519Z" fill="#FFCA40"/>
<path id="Vector_63" d="M113.734 17.8369C113.239 19.2612 112.665 21.7858 113.58 23.203C113.627 23.2688 113.658 23.3441 113.672 23.4235C113.686 23.5028 113.682 23.5843 113.66 23.6619C113.639 23.7396 113.6 23.8115 113.548 23.8725C113.495 23.9335 113.43 23.9821 113.356 24.0148C111.885 24.8632 110.185 25.2294 108.496 25.0617C106.199 24.8765 106.359 23.8403 106.95 23.1673C107.09 23.0119 107.283 22.9152 107.492 22.8967C109.66 22.6368 109.681 21.33 109.368 20.0481L113.734 17.8369Z" fill="#7F3E3B"/>
<path id="Vector_64" opacity="0.2" d="M111.953 18.7449L109.371 20.0588C109.453 20.3622 109.5 20.6741 109.51 20.9881C110.45 20.9881 111.782 20.3579 111.935 19.6351C112.014 19.3443 112.02 19.0386 111.953 18.7449Z" fill="black"/>
<path id="Vector_65" d="M110.291 12.8864C110.388 11.6019 109.689 10.502 108.73 10.4295C107.771 10.3571 106.915 11.3396 106.818 12.6241C106.721 13.9085 107.42 15.0084 108.379 15.0809C109.338 15.1533 110.194 14.1708 110.291 12.8864Z" fill="#263238"/>
<path id="Vector_66" d="M115.129 13.9452C114.652 16.7546 114.513 18.4246 112.954 19.7314C110.607 21.6934 107.314 20.0341 106.958 17.1392C106.633 14.5363 107.467 10.3738 110.308 9.53343C113.15 8.6931 115.607 11.1322 115.129 13.9452Z" fill="#7F3E3B"/>
<path id="Vector_67" d="M114.517 16.3201C114.481 16.3201 114.439 16.2739 114.4 16.2952C113.125 17.0074 112.712 15.4762 112.79 14.4579C112.816 14.1181 112.914 13.7878 113.076 13.4883C113.239 13.1889 113.463 12.9272 113.734 12.7202C112.352 12.8769 111.013 11.9867 110.992 11.1571C109.464 11.83 107.624 11.8692 106.794 10.4449C105.964 9.02062 107.15 7.15835 108.731 7.6533C108.09 6.50674 110.8 4.21362 113.638 7.59632C113.727 5.14297 117.693 7.59633 117.042 10.0069C118.879 10.6408 120.453 14.1303 117.337 14.8745C117.131 18.1076 114.517 16.3201 114.517 16.3201Z" fill="#263238"/>
<path id="Vector_68" d="M116.02 17.2032C115.588 17.7323 114.972 18.0784 114.296 18.1717C113.442 18.2678 113.253 17.399 113.691 16.6085C114.086 15.8964 115.005 14.992 115.767 15.2697C116.529 15.5474 116.575 16.5266 116.02 17.2032Z" fill="#7F3E3B"/>
<path id="Vector_69" d="M111.056 14.1554C111.035 14.3906 110.896 14.5652 110.743 14.5509C110.589 14.5367 110.483 14.3371 110.504 14.102C110.525 13.8668 110.664 13.6958 110.817 13.7101C110.971 13.7243 111.074 13.9238 111.056 14.1554Z" fill="#263238"/>
<path id="Vector_70" d="M108.297 13.8494C108.275 14.081 108.136 14.2556 107.983 14.2413C107.83 14.2271 107.727 14.0275 107.744 13.7959C107.762 13.5644 107.905 13.3862 108.058 13.4005C108.211 13.4147 108.332 13.6142 108.297 13.8494Z" fill="#263238"/>
<path id="Vector_71" d="M109.375 13.9807C109.035 14.6634 108.602 15.296 108.09 15.8608C108.237 15.9895 108.411 16.0846 108.6 16.1393C108.788 16.194 108.986 16.2071 109.179 16.1777L109.375 13.9807Z" fill="#630F0F"/>
<path id="Vector_72" d="M109.899 17.31C110.157 17.3282 110.417 17.2936 110.662 17.2086C110.906 17.1235 111.131 16.9896 111.323 16.8151C111.329 16.8085 111.334 16.8008 111.338 16.7923C111.341 16.7839 111.343 16.7748 111.342 16.7657C111.342 16.7567 111.34 16.7477 111.337 16.7393C111.333 16.731 111.328 16.7235 111.321 16.7172C111.315 16.7108 111.307 16.7059 111.298 16.7026C111.29 16.6992 111.281 16.6976 111.272 16.6978C111.263 16.6979 111.254 16.6999 111.245 16.7035C111.237 16.7072 111.23 16.7124 111.223 16.7189C111.006 16.9108 110.747 17.0486 110.467 17.121C110.186 17.1934 109.893 17.1984 109.61 17.1355C109.602 17.1335 109.593 17.1332 109.584 17.1349C109.575 17.1365 109.567 17.1399 109.559 17.1449C109.552 17.15 109.546 17.1565 109.541 17.1641C109.536 17.1716 109.533 17.1801 109.532 17.189C109.529 17.2068 109.532 17.2253 109.542 17.2405C109.552 17.2557 109.568 17.2666 109.585 17.2708C109.699 17.2887 109.799 17.3029 109.899 17.31Z" fill="#263238"/>
<path id="Vector_73" d="M111.968 13.5896C111.99 13.5948 112.013 13.5948 112.036 13.5896C112.052 13.5823 112.067 13.5718 112.08 13.5586C112.092 13.5455 112.102 13.53 112.108 13.513C112.114 13.4961 112.117 13.4781 112.116 13.46C112.115 13.442 112.111 13.4243 112.103 13.4079C112.02 13.2063 111.89 13.0274 111.724 12.8856C111.558 12.7438 111.361 12.6432 111.149 12.592C111.113 12.5868 111.076 12.5959 111.047 12.6172C111.018 12.6384 110.998 12.6703 110.992 12.706C110.987 12.7418 110.996 12.7783 111.017 12.8076C111.038 12.8368 111.07 12.8567 111.106 12.8628C111.273 12.9059 111.428 12.9877 111.558 13.1016C111.688 13.2154 111.789 13.3582 111.854 13.5184C111.866 13.5385 111.882 13.5555 111.902 13.5679C111.922 13.5803 111.945 13.5877 111.968 13.5896Z" fill="#263238"/>
<path id="Vector_74" d="M107.139 12.7134C107.161 12.7193 107.184 12.7198 107.207 12.7148C107.229 12.7099 107.25 12.6996 107.267 12.6849C107.394 12.5699 107.547 12.4863 107.712 12.4412C107.877 12.396 108.051 12.3904 108.219 12.4248C108.253 12.4347 108.29 12.4305 108.322 12.4132C108.353 12.3958 108.376 12.3667 108.386 12.3322C108.396 12.2972 108.392 12.2597 108.375 12.2278C108.357 12.1958 108.328 12.1719 108.294 12.1612C108.082 12.1129 107.861 12.1165 107.651 12.1717C107.44 12.2269 107.247 12.3321 107.086 12.4783C107.073 12.4909 107.063 12.5058 107.056 12.5223C107.049 12.5389 107.046 12.5566 107.046 12.5745C107.046 12.5923 107.049 12.6101 107.056 12.6266C107.063 12.6431 107.073 12.6581 107.086 12.6707C107.099 12.6895 107.118 12.7043 107.139 12.7134Z" fill="#263238"/>
<path id="Vector_75" d="M120.218 27.7643C120.449 28.2165 120.638 28.6082 120.823 29.0319C121.008 29.4556 121.179 29.8651 121.364 30.2853C121.72 31.1256 122.03 31.9802 122.322 32.8455C122.916 34.5956 123.371 36.3898 123.682 38.2115L123.778 38.9236L123.828 39.2797V39.3652V39.5218C123.828 39.6358 123.846 39.7497 123.846 39.8779C123.832 40.5269 123.703 41.1683 123.465 41.7722C123.111 42.6944 122.659 43.5764 122.119 44.4036C121.629 45.1779 121.097 45.9256 120.527 46.6433C119.969 47.3577 119.375 48.0434 118.747 48.6979C118.567 48.8888 118.324 49.0087 118.063 49.0357C117.801 49.0626 117.539 48.995 117.323 48.8449C117.108 48.6949 116.953 48.4724 116.888 48.218C116.822 47.9636 116.85 47.6942 116.967 47.4587V47.4302C117.704 45.8956 118.484 44.3431 119.103 42.8298C119.263 42.4523 119.406 42.0749 119.53 41.7081C119.655 41.3657 119.758 41.0161 119.84 40.6613C119.898 40.4407 119.918 40.2121 119.901 39.9847L119.883 39.9135L119.815 39.618L119.684 39.0305C119.273 37.4359 118.77 35.8666 118.177 34.3303C117.893 33.5469 117.568 32.7742 117.255 31.998C117.098 31.6134 116.931 31.2289 116.764 30.8479L116.265 29.7369L116.237 29.6728C115.987 29.1487 115.955 28.5466 116.148 27.9991C116.342 27.4515 116.745 27.0033 117.269 26.753C117.793 26.5028 118.396 26.471 118.943 26.6646C119.491 26.8583 119.939 27.2615 120.189 27.7856L120.218 27.7643Z" fill="#7F3E3B"/>
<path id="Vector_76" d="M117.013 23.7372C121.756 24.9336 123.066 30.9975 123.066 30.9975L117.177 35.2205C117.177 35.2205 115.717 33.693 115.275 30.1038C115.072 28.391 116.052 23.6909 117.013 23.7372Z" fill="#FFCA40"/>
<path id="Vector_77" d="M117.743 46.7039L115.001 47.7294L117.102 50.5423C117.102 50.5423 119.47 49.3139 119.021 47.9501L117.743 46.7039Z" fill="#7F3E3B"/>
<path id="Vector_78" d="M112.961 48.1282C112.222 48.004 111.464 48.0727 110.76 48.3276L112.12 40.2447C112.226 39.6135 112.076 38.9664 111.705 38.4451C111.334 37.9239 110.771 37.571 110.141 37.4638L86.4973 33.4829C85.8672 33.3786 85.2215 33.528 84.7011 33.8982C84.1808 34.2685 83.828 34.8296 83.7199 35.4591L82.3384 43.5597C83.0417 43.3015 83.8006 43.2327 84.5389 43.3603C85.1954 43.4705 85.818 43.7298 86.3585 44.1183C86.8991 44.5069 87.3433 45.0142 87.657 45.6014C87.9706 46.1886 88.1454 46.8399 88.1678 47.5052C88.1902 48.1706 88.0596 48.8322 87.7861 49.4391C87.5126 50.046 87.1036 50.5821 86.5903 51.0061C86.0771 51.4301 85.4735 51.7307 84.8258 51.8848C84.1782 52.0388 83.5038 52.0422 82.8547 51.8946C82.2055 51.7471 81.5989 51.4526 81.0814 51.0337L79.7177 59.1166C79.6125 59.7478 79.7618 60.3949 80.1329 60.9162C80.504 61.4374 81.0666 61.7904 81.6974 61.8976L105.341 65.8785C105.971 65.9827 106.617 65.8335 107.138 65.4633C107.659 65.0931 108.013 64.532 108.122 63.9023L109.482 55.8158C110 56.228 110.605 56.5165 111.252 56.6594C111.898 56.8023 112.569 56.7958 113.212 56.6405C113.856 56.4851 114.455 56.1849 114.965 55.7628C115.475 55.3407 115.882 54.8078 116.155 54.2047C116.428 53.6015 116.56 52.9441 116.54 52.2823C116.521 51.6206 116.35 50.972 116.042 50.3861C115.734 49.8001 115.297 49.2921 114.763 48.9008C114.229 48.5096 113.612 48.2453 112.961 48.1282Z" fill="#FFCA40"/>
<path id="Vector_79" opacity="0.6" d="M112.961 48.1282C112.222 48.004 111.464 48.0727 110.76 48.3276L112.12 40.2447C112.226 39.6135 112.076 38.9664 111.705 38.4451C111.334 37.9239 110.771 37.571 110.141 37.4638L86.4973 33.4829C85.8672 33.3786 85.2215 33.528 84.7011 33.8982C84.1808 34.2685 83.828 34.8296 83.7199 35.4591L82.3384 43.5597C83.0417 43.3015 83.8006 43.2327 84.5389 43.3603C85.1954 43.4705 85.818 43.7298 86.3585 44.1183C86.8991 44.5069 87.3433 45.0142 87.657 45.6014C87.9706 46.1886 88.1454 46.8399 88.1678 47.5052C88.1902 48.1706 88.0596 48.8322 87.7861 49.4391C87.5126 50.046 87.1036 50.5821 86.5903 51.0061C86.0771 51.4301 85.4735 51.7307 84.8258 51.8848C84.1782 52.0388 83.5038 52.0422 82.8547 51.8946C82.2055 51.7471 81.5989 51.4526 81.0814 51.0337L79.7177 59.1166C79.6125 59.7478 79.7618 60.3949 80.1329 60.9162C80.504 61.4374 81.0666 61.7904 81.6974 61.8976L105.341 65.8785C105.971 65.9827 106.617 65.8335 107.138 65.4633C107.659 65.0931 108.013 64.532 108.122 63.9023L109.482 55.8158C110 56.228 110.605 56.5165 111.252 56.6594C111.898 56.8023 112.569 56.7958 113.212 56.6405C113.856 56.4851 114.455 56.1849 114.965 55.7628C115.475 55.3407 115.882 54.8078 116.155 54.2047C116.428 53.6015 116.56 52.9441 116.54 52.2823C116.521 51.6206 116.35 50.972 116.042 50.3861C115.734 49.8001 115.297 49.2921 114.763 48.9008C114.229 48.5096 113.612 48.2453 112.961 48.1282Z" fill="white"/>
<path id="Vector_80" d="M113.719 50.4927L114.62 51.3544C114.794 51.5212 115.021 51.6207 115.261 51.6351C115.501 51.6494 115.739 51.5777 115.931 51.4327L117.102 50.5532L115.001 47.7402L113.702 49.0435C113.606 49.1389 113.53 49.2525 113.479 49.3776C113.428 49.5027 113.403 49.6367 113.405 49.7718C113.406 49.9069 113.435 50.0403 113.489 50.1641C113.543 50.2879 113.621 50.3997 113.719 50.4927Z" fill="#7F3E3B"/>
<path id="Vector_81" d="M87.3236 34.2414L87.6512 33.0272C87.706 32.8844 87.8042 32.7623 87.9319 32.678C88.0596 32.5937 88.2104 32.5515 88.3633 32.5572C88.8272 32.5383 89.2904 32.6096 89.7271 32.7673L91.5787 33.4509L91.4896 34.2058C91.4149 34.8539 90.692 35.3951 89.8731 35.42C89.3233 35.4273 88.7746 35.3688 88.2387 35.2455L88.0393 35.2028C87.9258 35.1948 87.8153 35.1624 87.7155 35.1078C87.6157 35.0531 87.5288 34.9776 87.4609 34.8863C87.3929 34.795 87.3455 34.6902 87.3218 34.5789C87.2981 34.4676 87.2987 34.3525 87.3236 34.2414Z" fill="#7F3E3B"/>
</g>
<g id="freepik--character-1--inject-1">
<path id="Vector_82" d="M58.1574 17.4808C59.3432 16.1028 61.1271 12.5243 57.7729 11.157C55.2982 10.1457 50.0461 10.662 47.0301 15.3586C44.9684 16.0708 44.3596 20.657 49.1203 21.622C53.881 22.5869 58.1574 17.4808 58.1574 17.4808Z" fill="#263238"/>
<path id="Vector_83" d="M68.9145 105.841L63.4737 106.293L64.3959 112.688L68.943 112.318L68.9145 105.841Z" fill="#FFC3BD"/>
<path id="Vector_84" opacity="0.2" d="M68.9145 105.844L63.4702 106.296L63.99 109.879L68.9323 109.469L68.9145 105.844Z" fill="black"/>
<path id="Vector_85" d="M58.5138 87.0149C56.3774 78.8252 50.844 69.0759 54.3513 61.1959L69.5948 61.1497C69.5948 61.1497 69.9723 77.3688 70.0791 85.0066C70.1859 92.9934 69.52 108.02 69.52 108.02L63.2852 108.493C63.2852 108.493 59.0123 96.198 58.5138 87.0149Z" fill="#FFCA40"/>
<path id="Vector_86" d="M62.9752 108.739L69.7121 108.244C69.7696 108.239 69.8235 108.214 69.8639 108.173C69.9044 108.131 69.9289 108.077 69.9329 108.02L70.0753 105.527C70.0777 105.493 70.0724 105.458 70.0598 105.426C70.0471 105.393 70.0275 105.364 70.0024 105.34C69.9772 105.317 69.947 105.299 69.9141 105.288C69.8811 105.277 69.8462 105.274 69.8118 105.278L62.3343 106.271C62.3003 106.275 62.2676 106.286 62.2384 106.304C62.2093 106.322 62.1844 106.346 62.1657 106.375C62.147 106.403 62.1348 106.436 62.1301 106.47C62.1254 106.503 62.1282 106.538 62.1384 106.57L62.7295 108.572C62.746 108.623 62.7792 108.667 62.8237 108.697C62.8681 108.728 62.9215 108.742 62.9752 108.739Z" fill="#263238"/>
<path id="Vector_87" opacity="0.2" d="M54.2976 68.9477C54.2386 70.882 54.3171 72.818 54.5326 74.7411C55.2768 77.3155 56.2276 79.8935 57.0821 82.3931C58.2002 75.3144 58.2038 67.0641 54.2976 68.9477Z" fill="black"/>
<path id="Vector_88" d="M48.7749 106.24L43.3128 106.293L43.3056 112.738L47.8705 112.702L48.7749 106.24Z" fill="#FFC3BD"/>
<path id="Vector_89" d="M42.875 111.748C42.8804 111.712 42.8932 111.678 42.9127 111.647C42.9321 111.616 42.9577 111.59 42.9879 111.57C43.0181 111.55 43.0522 111.536 43.0879 111.53C43.1237 111.524 43.1603 111.525 43.1955 111.534C44.5664 112.079 47.1657 111.662 48.1485 111.474C48.257 111.451 48.3689 111.451 48.4773 111.474C48.5857 111.497 48.6883 111.541 48.7787 111.605C49.5826 112.121 50.4537 112.524 51.3674 112.802C51.5634 113.326 51.6127 113.893 51.5098 114.443H42.3018C42.5616 113.561 42.7532 112.66 42.875 111.748Z" fill="#263238"/>
<path id="Vector_90" d="M63.7943 111.748C63.7997 111.712 63.8125 111.678 63.8319 111.647C63.8514 111.616 63.877 111.59 63.9072 111.57C63.9374 111.55 63.9714 111.536 64.0072 111.53C64.0429 111.524 64.0796 111.525 64.1148 111.534C65.4856 112.079 68.085 111.662 69.0677 111.474C69.1762 111.451 69.2881 111.451 69.3966 111.474C69.505 111.497 69.6076 111.541 69.698 111.605C70.7449 112.346 73.5365 112.802 73.5365 112.802C73.7326 113.326 73.7806 113.894 73.6753 114.443H63.221C63.4808 113.561 63.6725 112.66 63.7943 111.748Z" fill="#263238"/>
<path id="Vector_91" opacity="0.2" d="M48.7749 106.243L43.3092 106.293L43.3056 109.903L48.2693 109.861L48.7749 106.243Z" fill="black"/>
<path id="Vector_92" d="M42.5437 84.3657C41.8031 76.0941 39.4815 64.9525 42.1164 61.1497H59.9557C59.9557 61.1497 56.3202 77.643 54.8283 85.2772C53.2794 93.2141 48.8249 108.454 48.8249 108.454L42.9176 108.472C42.9176 108.472 40.6779 93.8088 42.5437 84.3657Z" fill="#FFCA40"/>
<path id="Vector_93" opacity="0.2" d="M43.6156 106.781C43.5773 106.78 43.5401 106.767 43.5093 106.744C43.4786 106.721 43.456 106.689 43.4447 106.652C43.021 105.228 43.0887 88.8665 44.1569 84.387C44.1569 83.796 44.0323 82.6352 43.8898 81.1646C43.402 76.1795 42.4976 66.9216 43.8471 61.6695C43.8589 61.6223 43.889 61.5817 43.9307 61.5567C43.9724 61.5316 44.0224 61.5242 44.0696 61.536C44.1169 61.5478 44.1575 61.5779 44.1825 61.6196C44.2075 61.6614 44.215 61.7113 44.2032 61.7585C42.8679 66.9537 43.7688 76.176 44.253 81.1325C44.399 82.628 44.5165 83.8067 44.5236 84.4049C44.5254 84.4202 44.5254 84.4358 44.5236 84.4511C43.4981 88.6884 43.3984 105.175 43.8115 106.553C43.8249 106.598 43.82 106.646 43.798 106.687C43.776 106.728 43.7387 106.759 43.694 106.773C43.6691 106.783 43.6419 106.786 43.6156 106.781Z" fill="white"/>
<path id="Vector_94" d="M42.5081 108.693H49.1988C49.2523 108.694 49.3045 108.676 49.3457 108.642C49.387 108.608 49.4145 108.56 49.4231 108.508L49.8646 106.133C49.871 106.097 49.8693 106.06 49.8596 106.024C49.8499 105.989 49.8325 105.957 49.8086 105.929C49.7847 105.901 49.755 105.879 49.7216 105.865C49.6882 105.85 49.6519 105.843 49.6154 105.844L42.3301 106.168C42.2994 106.169 42.2691 106.176 42.2413 106.189C42.2134 106.202 42.1885 106.221 42.1681 106.244C42.1478 106.267 42.1324 106.294 42.1229 106.323C42.1134 106.352 42.11 106.383 42.1129 106.414L42.2625 108.465C42.2678 108.527 42.2959 108.584 42.3413 108.626C42.3867 108.668 42.4462 108.692 42.5081 108.693Z" fill="#263238"/>
<path id="Vector_95" d="M66.0162 32.3398C66.3723 33.7641 66.6999 35.1884 67.0168 36.6127C67.3337 38.037 67.6328 39.4613 67.9105 40.8856L68.3378 43.022L68.7366 45.1584C69.0108 46.5827 69.2529 48.0284 69.5022 49.4669L68.9218 48.1673C68.9994 48.4337 69.1667 48.6652 69.3954 48.8224C69.8512 49.1304 70.3648 49.3424 70.9051 49.4456C71.6253 49.6118 72.3599 49.7084 73.0985 49.734C73.4938 49.7554 73.8997 49.7696 74.3092 49.7625C74.5122 49.7625 74.7187 49.7625 74.9252 49.7625C75.1317 49.7625 75.3561 49.7625 75.4985 49.7625L76.0041 49.7981C76.4296 49.8254 76.8346 49.9903 77.1582 50.2679C77.4817 50.5455 77.7062 50.9208 77.7979 51.3371C77.8895 51.7535 77.8433 52.1883 77.6662 52.5761C77.489 52.9639 77.1906 53.2836 76.816 53.487C76.5311 53.6437 76.3281 53.7612 76.086 53.8858C75.8439 54.0104 75.6196 54.1173 75.3739 54.2419C74.8967 54.4484 74.4089 54.6442 73.9033 54.808C73.3902 54.9762 72.8684 55.1164 72.3401 55.2282C71.7837 55.3391 71.2214 55.4176 70.6559 55.4632C70.0449 55.5068 69.4314 55.4972 68.8221 55.4347C68.1449 55.3779 67.4774 55.2367 66.8352 55.0146C66.1147 54.7745 65.4306 54.4366 64.802 54.0104C64.1392 53.5513 63.5487 52.9956 63.0501 52.3618C62.8351 52.0945 62.6753 51.787 62.5801 51.4574L62.4697 51.0621C62.0781 49.6592 61.6757 48.2598 61.3054 46.8498L60.7392 44.7418L60.2015 42.6268C59.8455 41.2025 59.4894 39.7995 59.1654 38.3823C58.8413 36.9652 58.5173 35.5338 58.236 34.1095C58.0344 33.0903 58.2385 32.0327 58.8049 31.1617C59.3712 30.2907 60.2551 29.6751 61.2684 29.4459C62.2818 29.2167 63.3445 29.392 64.2306 29.9345C65.1166 30.4769 65.756 31.3437 66.0127 32.3505L66.0162 32.3398Z" fill="#FFC3BD"/>
<path id="Vector_96" d="M75.2492 50.1149L75.324 52.4152C76.2534 54.6477 78.9168 52.9528 78.9168 52.9528L80.5263 52.6573C80.8065 52.5859 81.0524 52.4177 81.2205 52.1825C81.3887 51.9472 81.4682 51.6601 81.4449 51.3719L81.4022 49.7624C81.413 49.4302 81.2936 49.1069 81.0694 48.8614C80.8452 48.616 80.5341 48.4678 80.2022 48.4485L78.7779 48.477C78.3623 48.4841 77.9549 48.5942 77.5922 48.7974L75.2492 50.1149Z" fill="#FFC3BD"/>
<path id="Vector_97" d="M63.2886 28.3731C66.5645 30.0965 68.7045 36.1782 68.7045 36.1782C68.0137 39.0268 65.2292 44.2219 62.6513 44.1899C62.6513 44.1899 58.8662 39.3081 58.4567 35.7758C57.9582 31.5065 56.6657 24.8907 63.2886 28.3731Z" fill="#263238"/>
<path id="Vector_98" d="M60.2618 27.362C55.2062 26.8813 50.113 26.9625 45.0753 27.6041C42.1626 28.0136 40.0902 29.826 40.4463 35.7938C41.1584 47.9003 40.0546 57.3363 41.5929 61.6875C41.5929 61.6875 63.997 68.0968 70.385 61.9546C71.9375 47.3876 66.7103 35.2953 64.3318 30.264C63.9593 29.4718 63.3893 28.7887 62.6765 28.2805C61.9637 27.7722 61.1322 27.4559 60.2618 27.362Z" fill="#263238"/>
<path id="Vector_99" d="M58.5777 28.6864C57.9973 28.1167 57.3884 28.4478 57.1071 27.5897C56.983 26.916 57.0963 26.2201 57.4275 25.6206L50.5161 21.8889C50.6514 24.4313 50.7547 26.4395 49.626 27.4508C49.2984 29.3451 52.8306 31.2359 57.5344 31.2643C60.5289 31.2822 59.4144 29.5053 58.5777 28.6864Z" fill="#FFC3BD"/>
<path id="Vector_100" opacity="0.2" d="M57.3243 25.8342L51.8693 24.4705C53.2473 26.639 55.7291 27.8247 57.0644 27.3012C57.0262 26.7982 57.1156 26.2936 57.3243 25.8342Z" fill="black"/>
<path id="Vector_101" d="M55.067 13.3931C51.4564 12.592 48.3372 15.5901 49.0351 18.8589C49.733 22.1276 50.2849 24.3353 52.546 25.4463C57.0396 27.661 59.233 25.5246 59.5998 22.1098C59.931 19.0334 58.731 14.2014 55.067 13.3931Z" fill="#FFC3BD"/>
<path id="Vector_102" opacity="0.2" d="M54.359 19.197C53.9344 19.0908 53.4851 19.156 53.1084 19.3787C53.5331 19.4011 53.9581 19.3394 54.359 19.197Z" fill="black"/>
<path id="Vector_103" opacity="0.2" d="M54.3838 19.4998C54.1841 19.4904 53.9848 19.5251 53.8001 19.6015C53.6153 19.6779 53.4497 19.794 53.3149 19.9416C53.699 19.8737 54.0638 19.7229 54.3838 19.4998Z" fill="black"/>
<path id="Vector_104" d="M49.4907 21.6219C51.5097 22.0741 52.3393 21.0629 52.3393 19.9306C52.3393 18.727 51.2034 16.6938 49.9572 16.32C50.4023 13.6494 57.7623 17.3882 57.0609 13.6886C57.0609 13.6886 56.8615 13.0548 54.96 12.6987C53.0586 12.3426 47.9774 13.4892 48.3335 17.2885C48.6896 21.0878 49.4907 21.6219 49.4907 21.6219Z" fill="#263238"/>
<path id="Vector_105" d="M46.92 15.5474C47.4142 14.5558 47.5537 13.4248 47.3152 12.3428C47.3152 12.3428 49.53 13.8062 46.92 15.5474Z" fill="#263238"/>
<path id="Vector_106" d="M56.2063 22.6367C56.3574 22.6254 56.5073 22.6027 56.655 22.5691C56.6665 22.5666 56.6773 22.5618 56.687 22.555C56.6966 22.5483 56.7048 22.5397 56.7111 22.5298C56.7174 22.5198 56.7216 22.5088 56.7236 22.4972C56.7256 22.4856 56.7253 22.4737 56.7226 22.4623C56.7206 22.4505 56.7161 22.4394 56.7095 22.4295C56.7029 22.4196 56.6942 22.4112 56.6842 22.4048C56.6741 22.3984 56.6629 22.3942 56.6511 22.3925C56.6393 22.3907 56.6273 22.3914 56.6158 22.3946C56.246 22.4848 55.8603 22.4874 55.4894 22.402C55.1184 22.3167 54.7726 22.1459 54.4794 21.9032C54.4711 21.8946 54.4611 21.8877 54.4501 21.8831C54.4391 21.8784 54.4272 21.876 54.4153 21.876C54.4033 21.876 54.3915 21.8784 54.3805 21.8831C54.3694 21.8877 54.3595 21.8946 54.3512 21.9032C54.3346 21.9205 54.3254 21.9434 54.3254 21.9673C54.3254 21.9912 54.3346 22.0142 54.3512 22.0314C54.6049 22.2502 54.8995 22.4164 55.218 22.5203C55.5365 22.6242 55.8724 22.6638 56.2063 22.6367Z" fill="#263238"/>
<path id="Vector_107" d="M48.2125 21.7787C48.4435 22.0919 48.7343 22.3564 49.0679 22.5568C49.4016 22.7573 49.7716 22.8897 50.1567 22.9466C51.1928 23.0891 51.581 22.1312 51.1821 21.2268C50.8261 20.4114 49.8576 19.3574 48.8748 19.628C47.892 19.8986 47.6499 20.9989 48.2125 21.7787Z" fill="#FFC3BD"/>
<path id="Vector_108" d="M54.9458 19.233C54.9886 19.5216 55.1739 19.7353 55.3627 19.7068C55.5515 19.6783 55.6727 19.4182 55.6299 19.1296C55.5872 18.841 55.4055 18.6308 55.2166 18.6593C55.0278 18.6878 54.9209 18.9301 54.9458 19.233Z" fill="#263238"/>
<path id="Vector_109" d="M58.3392 18.7774C58.3819 19.0695 58.5672 19.2797 58.756 19.2512C58.9449 19.2227 59.066 18.9662 59.0232 18.6776C58.9805 18.389 58.7988 18.1752 58.6099 18.2037C58.4211 18.2322 58.3 18.4888 58.3392 18.7774Z" fill="#263238"/>
<path id="Vector_110" d="M57.0573 19.158L57.2211 21.6006C57.2211 21.6006 58.0223 21.7395 58.4567 21.2766C58.1809 20.4614 57.6988 19.7316 57.0573 19.158Z" fill="#ED847E"/>
<path id="Vector_111" d="M53.8279 18.5748C53.7987 18.5827 53.7679 18.5826 53.7388 18.5744C53.7097 18.5663 53.6833 18.5504 53.6625 18.5285C53.6417 18.5066 53.6272 18.4794 53.6205 18.4499C53.6139 18.4205 53.6154 18.3897 53.6248 18.361C53.6926 18.0961 53.8222 17.8511 54.0031 17.6461C54.1839 17.4411 54.4108 17.2819 54.6652 17.1816C54.7082 17.1682 54.7547 17.1722 54.7948 17.1929C54.8348 17.2136 54.8651 17.2492 54.879 17.2921C54.8925 17.3356 54.8886 17.3826 54.8679 17.4232C54.8473 17.4638 54.8116 17.4948 54.7685 17.5094C54.5677 17.5913 54.3891 17.7196 54.2473 17.8837C54.1055 18.0477 54.0045 18.2431 53.9526 18.4536C53.9445 18.4831 53.9287 18.5099 53.9068 18.5312C53.8848 18.5525 53.8576 18.5676 53.8279 18.5748Z" fill="#263238"/>
<path id="Vector_112" d="M59.4545 17.4814C59.4263 17.484 59.398 17.4791 59.3723 17.4672C59.3467 17.4553 59.3246 17.4368 59.3084 17.4137C59.1864 17.2367 59.0237 17.0916 58.834 16.9905C58.6443 16.8895 58.4331 16.8354 58.2182 16.8329C58.1709 16.8329 58.1256 16.8141 58.0922 16.7807C58.0588 16.7473 58.04 16.702 58.04 16.6548C58.04 16.6075 58.0588 16.5622 58.0922 16.5288C58.1256 16.4954 58.1709 16.4766 58.2182 16.4766C58.4896 16.4744 58.7575 16.5382 58.9989 16.6623C59.2403 16.7864 59.448 16.9672 59.6041 17.1892C59.6173 17.2075 59.6266 17.2281 59.6318 17.25C59.6369 17.2719 59.6376 17.2945 59.634 17.3167C59.6304 17.3389 59.6224 17.3601 59.6105 17.3792C59.5987 17.3983 59.5832 17.4148 59.565 17.4279C59.5512 17.444 59.5343 17.457 59.5153 17.4662C59.4963 17.4754 59.4756 17.4805 59.4545 17.4814Z" fill="#263238"/>
<path id="Vector_113" d="M80.2021 40.7681C79.4566 40.8206 78.7376 41.0661 78.1155 41.4802L77.471 33.2905C77.4183 32.6535 77.1158 32.0631 76.6296 31.6482C76.1433 31.2333 75.5126 31.0275 74.8752 31.0758L50.972 32.9594C50.3353 33.013 49.7455 33.3157 49.3308 33.8018C48.916 34.2879 48.7099 34.918 48.7572 35.5552L50.6444 59.4584C50.6953 60.0962 50.9972 60.6877 51.484 61.103C51.9707 61.5183 52.6023 61.7234 53.2402 61.6732L77.1399 59.786C77.7776 59.7342 78.3688 59.4321 78.7845 58.9457C79.2002 58.4593 79.4064 57.8282 79.3582 57.1902L78.7102 49.0183C79.3888 49.3364 80.1388 49.4714 80.8858 49.41C81.9586 49.2294 82.9249 48.6535 83.5942 47.7957C84.2634 46.9379 84.587 45.8606 84.5012 44.776C84.4154 43.6914 83.9264 42.6784 83.1306 41.9365C82.3349 41.1946 81.29 40.7777 80.2021 40.7681Z" fill="#FFCA40"/>
<path id="Vector_114" d="M45.5418 37.4993L45.1857 38.1545L44.7762 38.888C44.5127 39.3865 44.2421 39.885 43.9964 40.3906C43.5027 41.3758 43.0606 42.3861 42.6718 43.4173C42.4831 43.9158 42.3158 44.4107 42.1911 44.8985C42.049 45.3656 41.9372 45.8413 41.8564 46.3228C41.707 47.0973 41.6818 47.8905 41.7817 48.6729L40.9627 47.2486C41.3036 47.7163 41.7102 48.1324 42.1698 48.4842C42.7739 48.9663 43.4078 49.4099 44.0676 49.8123C44.7549 50.2539 45.4919 50.6776 46.2326 51.1013L47.3649 51.7316C47.721 51.9452 48.1483 52.1589 48.4865 52.3654L48.6574 52.4687C49.0354 52.6978 49.3276 53.0448 49.4891 53.4562C49.6505 53.8677 49.6721 54.3209 49.5507 54.7459C49.4293 55.1709 49.1715 55.5442 48.817 55.8083C48.4626 56.0724 48.0312 56.2126 47.5892 56.2074C47.048 56.2074 46.5851 56.1718 46.0866 56.1327C45.5881 56.0935 45.1145 56.033 44.6302 55.9546C43.646 55.8068 42.672 55.5975 41.714 55.3279C40.7001 55.0438 39.7115 54.6757 38.7586 54.2277C37.6321 53.7088 36.5968 53.0114 35.6928 52.1624C35.3675 51.8522 35.123 51.4672 34.9806 51.0408L34.8809 50.7346C34.3234 49.0434 34.115 47.2566 34.2685 45.4825C34.3894 43.9371 34.6857 42.4104 35.1516 40.9319C35.5854 39.5426 36.1234 38.188 36.761 36.8797C37.0708 36.2388 37.3877 35.605 37.7438 34.989C37.9182 34.6792 38.0998 34.3694 38.285 34.0632L38.577 33.6003L38.7301 33.3653L38.9153 33.0911C39.4873 32.2255 40.3744 31.6172 41.388 31.3955C42.4016 31.1738 43.4616 31.3562 44.3428 31.9039C45.224 32.4517 45.8568 33.3215 46.1066 34.3285C46.3565 35.3355 46.2036 36.4003 45.6807 37.2963L45.5418 37.4993Z" fill="#FFC3BD"/>
<path id="Vector_115" d="M42.761 28.3732C36.8572 31.528 34.6567 38.5747 34.6567 38.5747C35.8246 40.8002 42.8678 43.2037 45.517 42.5485C45.517 42.5485 48.0558 37.9196 48.5792 33.782C49.0635 29.9471 46.2184 26.5252 42.761 28.3732Z" fill="#263238"/>
<path id="Vector_116" d="M46.8913 52.7572L47.0123 55.0574C47.988 57.2722 50.6158 55.5239 50.6158 55.5239L52.2217 55.1963C52.5003 55.1195 52.7426 54.9464 52.9056 54.7078C53.0686 54.4692 53.1417 54.1805 53.1119 53.8931L53.0407 52.2872C53.0494 51.9529 52.9268 51.6284 52.6992 51.3835C52.4715 51.1385 52.1569 50.9925 51.8229 50.9768L50.3986 51.0338C49.9823 51.0528 49.5772 51.1752 49.22 51.3899L46.8913 52.7572Z" fill="#FFC3BD"/>
</g>
</g>
</svg>
